<svg xmlns="http://www.w3.org/2000/svg" viewBox="841 457 512 512" width="512pt" height="512pt"><g fill="#fff"><path d="M1193 457h-192c-88.352 0-160 71.648-160 160v192c0 88.352 71.648 160 160 160h192c88.352 0 160-71.648 160-160V617c0-88.352-71.648-160-160-160zm112 352c0 61.76-50.24 112-112 112h-192c-61.76 0-112-50.24-112-112V617c0-61.76 50.24-112 112-112h192c61.76 0 112 50.24 112 112z"/><path d="M1097 585c-70.688 0-128 57.312-128 128s57.312 128 128 128 128-57.312 128-128-57.312-128-128-128zm0 208c-44.096 0-80-35.904-80-80 0-44.128 35.904-80 80-80s80 35.872 80 80c0 44.096-35.904 80-80 80z"/><circle cx="1234.6" cy="575.4" r="17.056"/></g></svg>