<svg width="474" height="334" viewBox="0 0 474 334" xmlns="http://www.w3.org/2000/svg"><g id="Page-1" stroke="none" stroke-width="1" fill="none" fill-rule="evenodd"><g id="gmail-dark" fill="#007477" fill-rule="nonzero"><path d="M474 7.768c0-.072 0-.136-.02-.208-.02-.072-.028-.252-.036-.376a6.936 6.936 0 00-.332-1.632c-.024-.072 0-.148-.044-.22-.044-.072-.04-.06-.052-.092a6.936 6.936 0 00-.908-1.628c-.084-.112-.172-.212-.264-.32a7.02 7.02 0 00-1.24-1.176c-.048-.036-.088-.08-.136-.112a6.976 6.976 0 00-1.656-.8c-.136-.048-.272-.088-.4-.128a6.932 6.932 0 00-1.896-.292H7a6.932 6.932 0 00-1.896.292c-.14.04-.272.08-.4.128a6.976 6.976 0 00-1.656.8c-.048.032-.088.076-.136.112a7.02 7.02 0 00-1.24 1.176c-.088.108-.18.208-.264.32-.375.5-.68 1.047-.908 1.628 0 .032-.04.06-.052.092-.012.032-.02.148-.044.22a6.936 6.936 0 00-.332 1.632c0 .128-.036.252-.036.376s-.02.136-.02.208v318.46c0 .092.024.18.028.272.012.252.037.503.076.752.032.204.06.4.108.608.062.243.137.482.224.716.068.188.132.376.216.556.11.236.235.466.372.688.096.16.192.324.3.476.155.212.322.415.5.608.132.144.264.288.4.424.084.076.148.168.236.244.088.076.144.068.208.12.546.44 1.156.795 1.808 1.052.14.056.284.088.428.132.631.206 1.288.32 1.952.34.048 0 .092.024.14.024h459.992c.048 0 .092-.024.136-.024a6.928 6.928 0 001.956-.34c.14-.044.28-.076.4-.132a6.944 6.944 0 001.812-1.052c.064-.052.144-.068.208-.12.064-.052.152-.168.236-.244.144-.136.276-.276.4-.424a6.93 6.93 0 00.5-.608c.108-.152.204-.312.3-.476a6.91 6.91 0 00.372-.688c.084-.18.148-.368.216-.556a6.96 6.96 0 00.224-.716c.048-.2.076-.4.108-.608.039-.25.064-.5.076-.752 0-.092.028-.18.028-.272L474 7.768zM164.2 152.264l68.232 58.708a7.004 7.004 0 009.132 0l68.236-58.708 142.048 166.964H22.156L164.2 152.264zM14 307.208V23.028l139.6 120.104L14 307.208zm306.4-164.076L460 23.028v284.18L320.4 143.132zM448.124 14.768l-142.02 122.204c-.024.02-.056.032-.08.056s-.048.056-.076.08L237 196.432l-68.948-59.324c-.028-.024-.048-.056-.076-.08l-.08-.056L25.868 14.768h422.256z" id="Shape"/></g></g></svg>