<svg width="512" height="513" viewBox="0 0 512 513" xmlns="http://www.w3.org/2000/svg"><g id="Page-1" stroke="none" stroke-width="1" fill="none" fill-rule="evenodd"><g id="instagram-light" fill="#14FBE4" fill-rule="nonzero"><path d="M256.085 124.544c-72.597 0-131.37 58.837-131.37 131.37 0 72.598 58.837 131.371 131.37 131.371 72.598 0 131.371-58.837 131.371-131.37 0-72.598-58.837-131.371-131.37-131.371zm0 216.64c-47.125 0-85.269-38.165-85.269-85.27 0-47.103 38.165-85.269 85.27-85.269 47.103 0 85.269 38.166 85.269 85.27.021 47.104-38.144 85.269-85.27 85.269z" id="Shape"/><path d="M361.557 1.621c-47.104-2.197-163.776-2.09-210.922 0C109.205 3.563 72.66 13.568 43.2 43.03-6.037 92.267.256 158.613.256 255.915c0 99.584-5.547 164.394 42.944 212.885 49.43 49.408 116.736 42.944 212.885 42.944 98.646 0 132.694.064 167.574-13.44 47.424-18.41 83.221-60.8 86.72-136.939 2.218-47.125 2.09-163.776 0-210.922C506.155 60.565 457.92 6.059 361.557 1.62zm74.56 434.603c-32.277 32.277-77.056 29.397-180.65 29.397-106.667 0-149.44 1.579-180.651-29.717-35.947-35.776-29.44-93.227-29.44-180.33 0-117.867-12.096-202.753 106.197-208.811 27.179-.96 35.179-1.28 103.595-1.28l.96.64c113.685 0 202.88-11.904 208.235 106.368 1.216 26.986 1.493 35.093 1.493 103.402-.021 105.43 1.984 148.459-29.739 180.331z" id="Shape"/><circle id="Oval" cx="392.661" cy="119.36" r="30.699"/></g></g></svg>