<svg width="24" height="24" viewBox="0 0 24 24" version="1.1" xmlns="http://www.w3.org/2000/svg"><g id="Page-1" stroke="none" stroke-width="1" fill="none" fill-rule="evenodd"><g id="skype-light" fill="#14FBE4" fill-rule="nonzero"><path d="M15.748 13.648c0 1.773-1.414 2.935-3.523 2.935-1.855 0-3.721-.845-3.711-2.299.002-.439.328-.841.763-.841 1.093 0 1.083 1.63 2.822 1.63 1.221 0 1.638-.669 1.638-1.134 0-1.684-5.275-.652-5.275-3.817 0-1.713 1.401-2.895 3.604-2.765 2.101.124 3.332 1.052 3.451 1.918.059.566-.316 1.007-.968 1.007-.95 0-1.047-1.272-2.684-1.272-.738 0-1.361.308-1.361.977 0 1.397 5.244.586 5.244 3.661zM24 12c0 6.627-5.373 12-12 12S0 18.627 0 12 5.373 0 12 0s12 5.373 12 12zm-5.591 1.147c.792-4.53-3.159-8.407-7.614-7.571-3.396-2.077-7.293 1.882-5.21 5.267-.811 4.519 3.139 8.447 7.631 7.589 3.401 2.062 7.287-1.902 5.193-5.285z" id="Shape"/></g></g></svg>