<svg xmlns="http://www.w3.org/2000/svg" viewBox="0 0 146.1 104.48"><g id="aquarius" data-name="Layer 2" fill="none" stroke="#00C4BA" stroke-width="1"><path d="M86.86 13.38a5 5 0 01-.78.61h0l17.15 22a5.05 5.05 0 01.78-.61h0zm24.36 28.31a4.94 4.94 0 01-.5.86l26.83 15.65a4.94 4.94 0 01.51-.86zM64.71 48.2a4 4 0 01-.93.36l8.34 21.75a4 4 0 01.93-.36zM14.54 79.08L4.45 97.75a4 4 0 01.88.47l10.09-18.66a4 4 0 01-.88-.48zm8.38-10.24l-3.66 3.79a4 4 0 01.72.7l3.66-3.79a4 4 0 01-.72-.7zm-3.77-16.66l-.15.11a4 4 0 01-.74.36l5.49 10.43.15-.08a4 4 0 01.74-.36zM44 9.51L18.74 45.38a4 4 0 01.82.58l25.29-35.87a4 4 0 01-.85-.58zm13.67-6.08l-7.2 1.72a3.94 3.94 0 01.22 1l7.2-1.72a3.94 3.94 0 01-.22-1zm7.08 11.03L63 6.75A4 4 0 0162 7l1.75 7.71a4 4 0 011-.25zm15.71-.66L64.41 41a4 4 0 01.86.51L81.32 14.3a5 5 0 01-.86-.5zm-1.75-2.36L68.5 16.28h0a4 4 0 01.41.9l10.22-4.85a5 5 0 01-.42-.89z"/><circle cx="106.68" cy="39.62" r="4" transform="rotate(-32.32 106.67 39.626)"/><circle cx="142.1" cy="60.27" r="4" transform="rotate(-32.32 142.098 60.272)"/><circle cx="65.13" cy="18.43" r="3" transform="rotate(-31.8 65.94 18.21)"/><circle cx="61.63" cy="3" r="3" transform="rotate(-32.32 61.636 3.01)"/><circle cx="16.87" cy="48.91" r="3" transform="rotate(-32.32 16.856 48.913)"/><circle cx="16.87" cy="75.83" r="3" transform="rotate(-32.32 16.857 75.828)"/><circle cx="3" cy="101.48" r="3" transform="rotate(-32.32 3.008 101.48)"/><circle cx="62.83" cy="44.68" r="3" transform="rotate(-32.32 62.82 44.688)"/><circle cx="26.04" cy="66.34" r="3" transform="rotate(-31.8 26.735 66.868)"/><circle cx="83.41" cy="9.76" r="4" transform="rotate(-32.32 83.413 9.769)"/><circle cx="46.72" cy="6.56" r="3" transform="rotate(-32.32 46.728 6.564)"/><circle cx="74.01" cy="73.83" r="3" transform="rotate(-32.32 74.013 73.836)"/></g></svg>