<svg xmlns="http://www.w3.org/2000/svg" viewBox="0 0 106.5 53.87"><g id="aries" data-name="Layer 2" fill="none" stroke="#00C4BA" stroke-width="1"><path d="M30.72 6l43.41 14.57a4.94 4.94 0 01.32-.95L31 5.1a4.94 4.94 0 01-.28.9zM17.15 34.7l8-25.8a5 5 0 01-1-.3l-8 25.8a4 4 0 011 .3zM101 45.13l-2.16-5a4 4 0 01-.92.39l2.16 5a4.94 4.94 0 01.92-.39zm-6.87-11.39l-11-9.25a5 5 0 01-.65.76l11 9.25a4 4 0 01.65-.76zM6.27 47.38l6.64-6a4 4 0 01-.68-.73l-6.64 6a4 4 0 01.68.73z"/><circle cx="26.17" cy="4" r="4"/><circle cx="96.83" cy="36.67" r="3"/><circle cx="79" cy="21.67" r="4"/><circle cx="102.5" cy="49.87" r="4"/><circle cx="3" cy="49.67" r="3"/><circle cx="15.5" cy="38.33" r="3"/></g></svg>