<svg xmlns="http://www.w3.org/2000/svg" viewBox="0 0 71.67 125.85"><g id="cancer" data-name="Layer 2" fill="none" stroke="#00C4BA" stroke-width="1"><path d="M34.12 49.56L26.86 8.79a5 5 0 01-1 .17l7.26 40.77a4.94 4.94 0 011-.17zm-5.49 22.95l4.68-13.15a4.94 4.94 0 01-.94-.34l-4.68 13.16a4.94 4.94 0 01.94.33zM7.31 104.3L24 81.32a5 5 0 01-.81-.59l-16.68 23a5 5 0 01.8.57zm57.37 13.56L30.22 80.33a5 5 0 01-.74.68l34.47 37.53a5 5 0 01.73-.68z"/><circle cx="25.5" cy="4" r="4"/><circle cx="26.5" cy="77.02" r="4"/><circle cx="34.5" cy="54.52" r="4"/><circle cx="4" cy="108.02" r="4"/><circle cx="67.67" cy="121.85" r="4"/></g></svg>