<svg xmlns="http://www.w3.org/2000/svg" viewBox="0 0 136.42 104.15"><g id="capricorn" data-name="Layer 2" fill="none" stroke="#00C4BA" stroke-width="1"><path d="M117.48 38.42L71.87 45.2a4 4 0 01.16 1l45.6-6.78a5 5 0 01-.15-1zM131 13.83l1.9-6.88a4 4 0 01-1-.25l-1.9 6.88a4 4 0 011 .25zM44 42.51l-23.13-3a4 4 0 01-.14 1l23.13 3a4 4 0 01.14-1zm40.83 56.02l5.37-6a4 4 0 01-.74-.67l-5.37 6a4 4 0 01.74.67zM13.11 38l-4.18-1a4.94 4.94 0 01-.24 1l4.19 1a4 4 0 01.23-1zm51.09 7.2l-12.4-1.65a4 4 0 01-.14 1L64 46.19a4 4 0 01.2-.99zm63.49-24.1l-4.12 12.22a5 5 0 01.95.32l4.12-12.2a3.94 3.94 0 01-.95-.34zM94.89 86l25.47-43.32a5 5 0 01-.86-.51L94 85.51a4 4 0 01.89.49zM45 82a4 4 0 01-.44.9l33.52 16.91a4 4 0 01.44-.9zm-5.88-4.7L7.58 39.76a5 5 0 01-.76.65l31.54 37.54a4 4 0 01.76-.65z"/><circle cx="133.42" cy="3" r="3"/><circle cx="68.03" cy="46.28" r="3"/><circle cx="16.83" cy="39.47" r="3"/><circle cx="122.45" cy="38.19" r="4"/><circle cx="129.42" cy="17.52" r="3"/><circle cx="47.81" cy="43.52" r="3"/><circle cx="41.29" cy="80.65" r="3"/><circle cx="4" cy="36.28" r="4"/><circle cx="92.46" cy="89.19" r="3"/><circle cx="81.83" cy="101.15" r="3"/></g></svg>