<svg xmlns="http://www.w3.org/2000/svg" viewBox="0 0 113.5 93.29"><g id="leo" data-name="Layer 2" fill="none" stroke="#00C4BA" stroke-width="1"><path d="M107.54 8.33l-5-3.49a4 4 0 01-.57.82l5 3.49a4 4 0 01.57-.82zM26.73 65L7.08 85.38a5 5 0 01.72.7l19.65-20.39a4 4 0 01-.72-.69zm8.38 12.41l-3.6-11.29a4 4 0 01-1 .31l3.6 11.29a4 4 0 011-.31zm-3.23 4.4l-23.19 5.8a4.94 4.94 0 01.24 1l23.19-5.8a4 4 0 01-.24-1zM92.08 79a4.94 4.94 0 01-.08-.75V78l-52.26 2.6a4 4 0 01.07.7v.3zm-.52-21.82a4 4 0 01-1 .26l4.58 16.21a5 5 0 011-.27zM79.29 45a5 5 0 01-.59.81l7.82 5.73a4 4 0 01.58-.81zM73 25h-.13L74 37.6a5 5 0 011-.1h0l-1.13-12.6a4 4 0 01-.87.1zM95.47 4.84L76 18.34a4 4 0 01.57.82L96 5.66a4 4 0 01-.53-.82z"/><circle cx="29.83" cy="62.5" r="3"/><circle cx="4" cy="89.29" r="4"/><circle cx="75" cy="42.5" r="4"/><circle cx="73" cy="21" r="3"/><circle cx="99" cy="3" r="3"/><circle cx="97" cy="78.29" r="4"/><circle cx="90" cy="53.5" r="3"/><circle cx="110.5" cy="11" r="3"/><circle cx="35.83" cy="81.33" r="3"/></g></svg>