<svg xmlns="http://www.w3.org/2000/svg" viewBox="0 0 100.8 101.02"><g id="libra" data-name="Layer 2" fill="none" stroke="#00C4BA" stroke-width="1"><path d="M6.3 28.19a3.93 3.93 0 01-.66.75l5.88 5.17a3.94 3.94 0 01.66-.75zm86.3 39.19l4.07-32a5 5 0 01-1-.13l-4.07 32a5 5 0 011 .13zM67.83 6.69a4.94 4.94 0 01-.62.78l25.41 20.21a5 5 0 01.62-.78zM66 8.42h0a5 5 0 01-.92.37l24.08 59h0a5 5 0 01.92-.36zM44.15 23.56L60.42 7.81a5 5 0 01-.69-.72L43.46 22.84a4 4 0 01.69.72zm-25.8 10.93a4 4 0 01.33.87l18.78-7.47v-.06a4 4 0 01-.33-.87l-18.82 7.47zm27.82 53.14l40.76-13.37a5 5 0 01-.31-1L45.86 86.67a4 4 0 01.31.96zm-9.59 7.78L40 91.66a4 4 0 01-.74-.67l-3.39 3.76a4 4 0 01.71.66z"/><circle cx="40.96" cy="25.96" r="3" transform="rotate(-27.81 40.964 25.96)"/><circle cx="42.26" cy="88.38" r="3" transform="rotate(-27.81 42.273 88.38)"/><circle cx="3" cy="25.96" r="3" transform="rotate(-27.81 3.001 25.971)"/><circle cx="14.81" cy="36.36" r="3" transform="rotate(-27.81 14.813 36.355)"/><circle cx="63.65" cy="4" r="4" transform="rotate(-27.81 63.658 3.992)"/><circle cx="96.8" cy="30.37" r="4" transform="rotate(-27.81 96.822 30.379)"/><circle cx="91.48" cy="72.25" r="4" transform="rotate(-27.81 91.493 72.25)"/><circle cx="33.55" cy="98.02" r="3" transform="rotate(-27.81 33.56 98.033)"/></g></svg>