<svg xmlns="http://www.w3.org/2000/svg" viewBox="0 0 105.46 111.75"><g id="sagittarius" data-name="Layer 2" fill="none" stroke="#00C4BA" stroke-width="1"><path d="M91.62 40.36l7.59-4.05a4 4 0 01-.48-.88l-7.58 4a5 5 0 01.47.93zM23.83 96.27L7 95.28a4 4 0 010 1l16.85 1a4 4 0 01-.02-1.01zm-17.05.53a4 4 0 01-.42.91l20.64 9.8a4 4 0 01.42-.91zm-.3-21.14L3.29 91.57a4 4 0 011 .19l3.17-15.91a4 4 0 01-.98-.19zM6.72 65h-.35L7 67.94a4 4 0 01.72-.07h.29l-.7-3.12a4 4 0 01-.59.25zm2.7-22L6.36 57a4 4 0 011 .2l3.06-14a4 4 0 01-1-.2zM30 29.29l-15.91 7.77a4 4 0 01.44.9l15.89-7.77a4 4 0 01-.42-.9zm19.7 15.03L36.81 30.54a4 4 0 01-.73.69L49 45a4 4 0 01.7-.68zm7.75 10.18l-2.75-4a3.93 3.93 0 01-.83.56l2.75 4a3.94 3.94 0 01.83-.56zM69 49.63l-7 5.55a4 4 0 01.63.78l7-5.55a4 4 0 01-.63-.78zm-1-7.78a4 4 0 01-.74.68l2.17 2.42a4 4 0 01.74-.68zM61.4 41l-6.29 4a4 4 0 01.53.85l6.29-4a4 4 0 01-.53-.85zm-6.01-27.26h.08l-1.91-7a4 4 0 01-.8.24h-.17l1.91 7a5 5 0 01.89-.24zm-.32 9.75l-3 20.06a4 4 0 011 .15l3-20.07a5 5 0 01-1-.14zm27.1 19.99L76 45.73a4 4 0 01.34.94l6.17-2.25a5 5 0 01-.34-.94zm7.11 13.62a4 4 0 01.59-.05l-1.59-10c-.13 0-.24.08-.37.11a5 5 0 01-.61.06l1.6 10a4 4 0 01.38-.12zm4.59 4.9a4 4 0 01-.37.93l5.09 2A4 4 0 0199 64zM83.14 72.39l5.11-7.78a4 4 0 01-.84-.54l-5.11 7.78a5 5 0 01.84.54zm-.38 8.05a4.93 4.93 0 01-.88.47l2.84 5.37a3.94 3.94 0 01.88-.47z"/><circle cx="56.29" cy="18.66" r="4" transform="matrix(.98 -.18 .18 .98 -2.44 10.47)"/><circle cx="33.75" cy="28" r="3" transform="rotate(-10.4 33.736 27.998)"/><circle cx="7.75" cy="71.88" r="3" transform="rotate(-10.4 7.75 71.889)"/><circle cx="6" cy="61.03" r="3" transform="rotate(-10.4 6.023 61.04)"/><circle cx="10.75" cy="39.25" r="3" transform="rotate(-10.4 10.775 39.26)"/><circle cx="52.04" cy="47.55" r="3" transform="rotate(-10.4 52.01 47.554)"/><circle cx="3" cy="95.55" r="3" transform="rotate(-10.4 2.992 95.553)"/><circle cx="59.29" cy="58.03" r="3" transform="rotate(-10.4 59.31 58.024)"/><circle cx="80" cy="76.28" r="4" transform="rotate(-10.4 79.977 76.246)"/><circle cx="87" cy="89.55" r="3" transform="rotate(-10.4 87.018 89.573)"/><circle cx="30.75" cy="108.75" r="3" transform="rotate(-10.4 30.762 108.772)"/><circle cx="27.75" cy="97" r="3" transform="rotate(-10.4 27.736 96.974)"/><circle cx="65" cy="39.25" r="3" transform="rotate(-10.4 65.007 39.264)"/><circle cx="52.04" cy="3" r="3" transform="rotate(-10.4 52.02 3.017)"/><circle cx="72.46" cy="47.55" r="3" transform="rotate(-10.4 72.453 47.531)"/><circle cx="102.46" cy="34" r="3" transform="rotate(-10.4 102.437 33.974)"/><circle cx="87" cy="42.25" r="4" transform="matrix(.98 -.18 .18 .98 -6.2 16.4)"/><circle cx="90" cy="61.03" r="3" transform="rotate(-10.4 90.003 61.038)"/><circle cx="102.46" cy="65.88" r="3" transform="rotate(-10.4 102.469 65.885)"/></g></svg>