<svg xmlns="http://www.w3.org/2000/svg" viewBox="0 0 105.16 128.48"><g id="taurus" data-name="Layer 2" fill="none" stroke="#00C4BA" stroke-width="1"><path d="M46.89 34.4l.25-.08L33.51 8.17a5 5 0 01-.69.4l-.19.06 13.62 26.13a4 4 0 01.64-.36zm14.89 61.69L62 96l-7.54-14-.88.47 7.51 14a4 4 0 01.69-.38zM50.21 53.45h.16l-1-11.5a4 4 0 01-.84.09h-.16l1 11.5a4 4 0 01.84-.09zm-8.43 10.18l5.4-3.57a4 4 0 01-.55-.84l-5.4 3.57a5 5 0 01.55.84zM43 72.16l-2.24-2.6a4.94 4.94 0 01-.79.61l2.23 2.59a4 4 0 01.8-.6zm8.18 7.27l-2.69-1.83a3.94 3.94 0 01-.61.8l2.69 1.83a3.94 3.94 0 01.61-.8zm3.25-5.49a4 4 0 01-.63-.05l-.15 4.39h.37a4 4 0 01.63.05l.15-4.39c-.12-.02-.24 0-.37 0zm-1.63-7.65a4 4 0 01.84-.27L52 61l-.11.06a4 4 0 01-.84.27l1.68 5zm34.29-7.78a4 4 0 01-.25-.76L58 68.13c0 .06.07.12.1.18a4 4 0 01.25.76l28.84-10.39c-.03-.06-.07-.11-.1-.17zm11.33.41c0-.08.08-.16.12-.24l-3.86-1.15a4 4 0 01-.3 1l3.84 1.15a4 4 0 01.2-.76zm-10.67 63.47l-21.14-20.28a4 4 0 01-.69.72l21.15 20.27a4 4 0 01.68-.71zM5.76 22.49a4 4 0 01-.81.59L34 62.27a4.94 4.94 0 01.8-.59z"/><circle cx="30.78" cy="4" r="4" transform="rotate(-24.11 30.774 4.002)"/><circle cx="37.36" cy="65.95" r="4" transform="rotate(-24.11 37.35 65.946)"/><circle cx="90.74" cy="56.87" r="3" transform="rotate(-24.11 90.743 56.883)"/><circle cx="3" cy="19.62" r="3" transform="rotate(-24.11 3.008 19.615)"/><circle cx="48.52" cy="38.05" r="3" transform="rotate(-24.11 48.522 38.05)"/><circle cx="50.21" cy="57.45" r="3" transform="rotate(-24.11 50.204 57.455)"/><circle cx="54.43" cy="69.94" r="3" transform="rotate(-24.11 54.418 69.934)"/><circle cx="54.02" cy="82.24" r="3" transform="rotate(-24.11 54.018 82.236)"/><circle cx="63.41" cy="99.74" r="3" transform="rotate(-24.11 63.403 99.736)"/><circle cx="102.16" cy="60.35" r="3" transform="rotate(-24.11 102.146 60.346)"/><circle cx="90.26" cy="125.48" r="3" transform="rotate(-24.11 90.246 125.469)"/><circle cx="45.05" cy="75.59" r="3" transform="rotate(-24.11 45.033 75.592)"/></g></svg>