<svg xmlns="http://www.w3.org/2000/svg" viewBox="0 0 118.19 104.05"><g id="virgo" data-name="Layer 2" fill="none" stroke="#00C4BA" stroke-width="1"><path d="M31.85 66.75L8.48 75.22a5 5 0 01.34.94l23.36-8.48a4 4 0 01-.33-.93zm18.28-.65a5 5 0 010-1l-10.43.19a4 4 0 010 1zm16.48-26.97L56.7 60.78a5 5 0 01.91.43l9.91-21.64a5 5 0 01-.91-.44zm-8.16-15.81a5 5 0 01-.71.7l7.54 7.63a5 5 0 01.71-.7zm22.29 16.41l-6.92-3.25a4.94 4.94 0 01-.43.9l6.92 3.25a4.94 4.94 0 01.43-.9zM97 31.22l-8.61 7.45a5 5 0 01.66.75L97.7 32a4 4 0 01-.7-.78zm15.81-25h0l-10.93 19.11a4 4 0 01.85.47h0l10.94-19.11a4 4 0 01-.86-.47zM80.45 66.35l4-19.1a4.94 4.94 0 01-1-.2l-4 19.1a4 4 0 011 .2zM79.4 82.47l.17-8.37h-.42a4 4 0 01-.58 0l-.17 8.26a5 5 0 011 .11zM75 83.56l-16-15a5 5 0 01-.69.73l16 15a5 5 0 01.69-.73zm-32.12 7.35l30.51-2.66v-.19a5 5 0 010-.81l-30.61 2.67a4 4 0 01.1.99zM29 97.78l6.86-4.44a3.94 3.94 0 01-.54-.84l-6.87 4.45a4.92 4.92 0 01.55.83z"/><circle cx="78.28" cy="87.33" r="4" transform="rotate(-53.5 78.272 87.321)"/><circle cx="100.36" cy="29.01" r="3" transform="rotate(-53.5 100.349 29.009)"/><circle cx="35.73" cy="65.87" r="3" transform="rotate(-53.5 35.73 65.867)"/><circle cx="4" cy="77.38" r="4" transform="rotate(-53.5 3.993 77.374)"/><circle cx="55.09" cy="65.51" r="4" transform="rotate(-53.5 55.082 65.507)"/><circle cx="69.13" cy="34.83" r="4" transform="rotate(-53.5 69.126 34.83)"/><circle cx="54.6" cy="20.14" r="4" transform="rotate(-53.5 54.603 20.133)"/><circle cx="85.01" cy="42.29" r="4" transform="matrix(.59 -.8 .8 .59 .44 85.46)"/><circle cx="79.15" cy="70.13" r="3" transform="rotate(-53.5 79.137 70.13)"/><circle cx="115.19" cy="3" r="3" transform="rotate(-53.5 115.183 3.01)"/><circle cx="38.89" cy="90.76" r="3" transform="rotate(-53.5 38.885 90.756)"/><circle cx="24.54" cy="100.05" r="4" transform="rotate(-53.5 24.537 100.045)"/></g></svg>