<svg width="14" height="12" xmlns="http://www.w3.org/2000/svg"><g fill="#624185"><path d="M.106.93c1.975 1.775 5.44 4.898 6.458 5.872.137.131.284.198.436.198a.626.626 0 00.435-.197c1.019-.975 4.484-4.098 6.459-5.874a.332.332 0 00.042-.439 1.167 1.167 0 00-.94-.49H1.004c-.367 0-.71.179-.94.49-.1.135-.08.33.042.44zm13.716 1.1a.295.295 0 00-.328.047 896.639 896.639 0 00-4.387 3.921.329.329 0 00-.107.25.327.327 0 00.115.246c1.224 1.027 3.067 2.44 4.399 3.445a.296.296 0 00.319.025.324.324 0 00.167-.286V2.322c0-.125-.07-.24-.178-.292zM.486 9.94c1.332-1.006 3.176-2.42 4.399-3.447A.327.327 0 005 6.248a.329.329 0 00-.107-.25A899.363 899.363 0 00.506 2.076a.296.296 0 00-.328-.046.323.323 0 00-.178.292v7.356c0 .12.064.231.167.286a.293.293 0 00.32-.025z"/><path d="M13.874 11.093c-1.264-.977-3.591-2.8-4.98-4.02a.285.285 0 00-.39.008c-.272.257-.5.474-.662.631-.497.485-1.187.485-1.685 0a48.64 48.64 0 00-.662-.631.284.284 0 00-.388-.008c-1.385 1.216-3.715 3.04-4.98 4.02a.344.344 0 00-.045.488c.227.266.55.419.881.419h12.073c.333 0 .654-.153.883-.419a.344.344 0 00-.045-.488z"/></g></svg>