<svg width="14" height="14" xmlns="http://www.w3.org/2000/svg"><path d="M13.23.769A2.53 2.53 0 0011.375 0h-8.75A2.53 2.53 0 00.77.769 2.521 2.521 0 000 2.619v8.734c0 .721.257 1.339.77 1.851a2.531 2.531 0 001.855.769h8.75a2.53 2.53 0 001.855-.769c.513-.512.77-1.13.77-1.851V2.62a2.52 2.52 0 00-.77-1.851zm-1.764 9.837c-.128.279-.415.522-.861.728-.447.206-.844.31-1.19.31-.097 0-.2-.008-.31-.023a2.977 2.977 0 01-.579-.127 4.876 4.876 0 01-.268-.092 37.015 37.015 0 00-.574-.213c-.997-.364-1.97-1.02-2.922-1.97-.95-.949-1.608-1.92-1.973-2.915a30.314 30.314 0 00-.214-.573 5.18 5.18 0 01-.173-.569 4.786 4.786 0 01-.046-.277 2.25 2.25 0 01-.023-.31c0-.345.104-.74.31-1.186.207-.446.45-.733.73-.86.322-.134.628-.2.92-.2.067 0 .116.006.146.018.03.012.08.067.15.164.07.097.146.22.228.368.082.149.163.293.242.432a19.146 19.146 0 01.364.673c.019.03.058.088.119.173.06.085.106.16.136.228.03.066.046.13.046.19 0 .092-.062.202-.187.333-.124.13-.261.25-.41.36a3.327 3.327 0 00-.41.35c-.125.124-.187.225-.187.304 0 .043.01.093.032.15a1.406 1.406 0 00.146.296c.04.067.065.11.077.127a6.95 6.95 0 001.153 1.551c.435.434.953.818 1.554 1.151a3.286 3.286 0 00.283.164c.036.018.083.038.141.059a.449.449 0 00.15.032c.098 0 .232-.1.402-.3.17-.2.343-.4.52-.596.176-.197.318-.296.428-.296.06 0 .124.015.191.046.067.03.143.075.228.136.085.06.143.1.173.119l.483.263c.322.17.591.32.807.45.216.13.333.22.351.269.012.03.018.079.018.145 0 .291-.067.597-.201.918z" fill="#624185"/></svg>