<svg width="400" height="275" viewBox="0 0 400 275" version="1.1" xmlns="http://www.w3.org/2000/svg"><g id="Page-1" fill="none" stroke="#00C4BA" stroke-width="1" fill-rule="evenodd"><g id="firstSatelliteEarth-bg" fill="#00C4BA"><path d="M106.129.257c.088.142 1.191.774 2.453 1.405 1.261.631 3.474 1.792 4.918 2.581 1.444.788 3.946 2.126 5.56 2.974 1.614.847 3.414 1.803 4 2.124.586.322 2.415 1.291 4.065 2.154 1.65.863 3.787 1.994 4.75 2.514.963.519 4.619 2.458 8.125 4.309 3.506 1.85 8.231 4.35 10.5 5.555 2.269 1.204 5.306 2.81 6.75 3.567 1.444.758 4.144 2.191 6 3.184a749.32 749.32 0 006.875 3.624c1.925 1 4.063 2.128 4.75 2.507 1.276.704 5.117 2.739 34.97 18.533 9.366 4.956 18.886 9.996 21.155 11.202 2.269 1.205 6.769 3.576 10 5.267 3.231 1.692 9.644 5.101 14.25 7.576a2185.058 2185.058 0 0012.625 6.734 911.653 911.653 0 016 3.179c2.15 1.159 4.92 2.626 8.375 4.435 1.444.756 2.962 1.574 3.375 1.819.897.531 14.452 7.753 18.875 10.057 1.719.895 3.744 1.963 4.5 2.373.756.41 2.387 1.284 3.625 1.942a3471.046 3471.046 0 0119.125 10.262c3.369 1.822 6.8 3.676 7.625 4.119.825.443 2.063 1.115 2.75 1.493l7.5 4.123c8.95 4.919 10.912 6.098 11.69 7.023.38.451 1.091 1.068 1.581 1.371.49.303.988.807 1.108 1.122.119.314.758.934 1.419 1.378.661.444 1.316.932 1.456 1.084.14.153.556.447.926.653.369.206 1.191.694 1.828 1.085.637.39 1.518.738 1.959.773.924.074 5.192 3.116 6.086 4.34.785 1.074.23 1.543-.79.667-.61-.524-2.037-1.109-2.718-1.114-.113 0-.357-.152-.542-.337-.2-.2-1.202-.398-2.471-.487-1.277-.091-2.374-.307-2.728-.54-.327-.214-.653-.329-.726-.257-.072.073-1.301.183-2.73.246-2.33.102-3.851.247-5.348.507-.275.048-.946.154-1.491.236-.545.082-1.051.231-1.125.331-.074.101-.978.449-2.009.774-1.992.629-5.554 2.219-6.358 2.838-.561.433.275 1.119 1.017.835.449-.173 2.091.478 2.091.829 0 .249-.649 1.036-1.908 2.311-.359.364-.576.786-.483.937.094.152.051.276-.094.276-.146 0-.265.113-.265.25s.191.25.425.25c.313 0 .351.074.146.279-.313.313-.132 2.005.24 2.249.338.223-1.142 1.072-3.44 1.974-2.828 1.11-3.684 1.508-4.184 1.944-.803.701-.441 1.781.722 2.15 1.24.394 1.335 2.485.137 3.026-.3.136-.546.422-.546.636 0 .215-.857 1.06-1.904 1.879-1.047.818-2.116 1.756-2.375 2.084-.259.328-.471.521-.471.428 0-.093-.157-.024-.35.154-.245.225-.273.416-.094.635.164.2.167.312.008.312-.478 0-1.491 1.889-1.675 3.125-.251 1.689-.366 1.78-2.059 1.629l-1.455-.129.069-.899c.037-.495-.045-1.17-.184-1.5-.213-.509-.235-.447-.139.399.096.85.061.8-.232-.331-.509-1.973-.806-2.064-1.165-.359-.151.717-.175.554-.099-.685.054-.894.037-1.412-.038-1.151-.077.265-.209.362-.3.219-.418-.657-1.763-.628-1.931.042-.2.798.247 1.39 1.05 1.39.519 0 .594.118.598.938.003.697.066.841.246.562.185-.286.243-.187.246.414.003.619-.091.771-.433.704-.484-.095-3.068-.36-10.938-1.122-4.939-.479-8.598-.845-20-2.003-6.018-.611-12.17-1.222-13.625-1.353-.619-.056-2.925-.285-5.125-.508-13.364-1.357-22.265-2.249-27.5-2.755-2.2-.212-5.687-.557-7.75-.765-2.062-.208-4.312-.431-5-.496-.687-.065-3.387-.338-6-.606A4027.09 4027.09 0 00215 167.873c-2.269-.221-6.206-.616-8.75-.877-2.544-.262-6.988-.708-9.875-.993a3568.73 3568.73 0 01-18.625-1.879 351.757 351.757 0 00-5-.491c-1.786-.152-7.192-.693-12.625-1.264a502.015 502.015 0 00-6.375-.624 234.208 234.208 0 01-4.875-.488c-1.1-.127-2.619-.29-3.375-.361-6.999-.658-13.499-1.304-24-2.384-2.681-.276-7.181-.731-10-1.012a8776.46 8776.46 0 01-10-1.004c-2.681-.272-8.869-.887-13.75-1.366a2467.11 2467.11 0 01-12.625-1.269c-3.78-.4-8.069-.677-7.375-.478.206.06 2.625.332 5.375.605 2.75.274 12.144 1.231 20.875 2.129 8.731.897 21.95 2.25 29.375 3.006 7.425.756 15.637 1.597 18.25 1.869 13.31 1.387 23.119 2.392 36.625 3.756 16.765 1.693 39.552 4.024 46.5 4.757 19.438 2.051 90.146 9.1 111.5 11.115 12.62 1.19 11.58 1.025 11.094 1.768-.22.334-.337.77-.261.967.161.42-.964.325-2.833-.24-1.031-.312-7.136-1.113-11.375-1.494-.962-.086-2.706-.263-3.875-.392s-3.756-.405-5.75-.613a338.648 338.648 0 01-5.625-.631 268.02 268.02 0 00-6.25-.735 506.598 506.598 0 01-3.375-.375c-1.161-.137-2.632-.292-7.125-.752-2.062-.211-6.281-.663-9.375-1.004-10.935-1.206-12.389-1.363-13.75-1.492-.756-.072-3.4-.351-5.875-.619a815.258 815.258 0 00-8.625-.884c-5.62-.539-25.416-2.603-26.5-2.764-.914-.135-20.583-2.191-29.75-3.109-1.444-.144-4.65-.485-7.125-.756-4.101-.449-25.47-2.693-34.437-3.616-2.029-.208-5.347-.553-7.375-.766-2.029-.212-7.401-.769-11.938-1.237-4.537-.468-9.937-1.029-12-1.248-12.054-1.278-34.084-3.58-47.75-4.989A11794.09 11794.09 0 0167 153.631a656.293 656.293 0 00-5.318-.544c-.931-.088-1.64-.213-1.575-.278.065-.064 1.648.021 3.518.191 1.87.17 3.453.255 3.518.19.102-.101-1.217-.254-7.018-.815-2.747-.265-8.818-.899-9.312-.972-.31-.046-.563.013-.563.132 0 .118.469.215 1.042.215.573 0 .971.07.886.155-.086.086-1.032.065-2.104-.046-1.719-.179-1.846-.224-1.074-.389.549-.116.084-.153-1.25-.098-1.316.055-1.744.022-1.125-.086 1.488-.26-2.004-.61-6.483-.651-2.336-.022-3.514-.125-3.577-.314-.06-.18-.609-.249-1.517-.191-1.245.079-1.298.065-.423-.109l1-.2-1.167-.036c-.642-.019-1.373-.102-1.625-.184-.381-.123-.395-.103-.083.122.295.212.189.266-.5.256-.736-.012-.796-.051-.375-.247.344-.16-.007-.197-1.125-.118-1.151.082-1.479.045-1.125-.125.342-.165-.114-.194-1.437-.094-1.292.099-1.938.059-1.938-.117 0-.161-.319-.211-.812-.126-.619.107-.724.076-.438-.127.206-.147.257-.269.113-.271-.145-.002-.412.137-.594.309-.242.228-.36.235-.437.025-.067-.18-.541-.249-1.282-.185-.812.07-1.061.027-.805-.139.247-.16-.121-.189-1.101-.088-.996.103-1.419.067-1.31-.11.108-.174-.277-.227-1.149-.158-.933.074-1.202.032-.935-.147.272-.183.05-.234-.812-.186-.654.036-1.188-.01-1.188-.102s-.567-.128-1.26-.078c-.693.049-1.208.006-1.145-.097.063-.102-.354-.176-.927-.163-.574.012-1.401-.073-1.838-.188-.437-.116-1.703-.235-2.812-.265-1.11-.029-2.018-.111-2.018-.18 0-.07-.535-.142-1.188-.161a42.895 42.895 0 01-2.749-.2c-.91-.098-1.563-.071-1.563.063 0 .127.816.308 1.813.403 3.276.309 13.602 1.403 23.812 2.522 1.788.195 3.925.417 4.75.492.825.075 2.962.299 4.75.497 3.507.388 10.81 1.17 16.625 1.779 1.994.209 5.594.594 8 .855 5.612.609 11.562 1.243 13 1.386.619.061 3.15.334 5.625.607 6.093.671 12.971 1.411 17.5 1.883 3.507.365 7.853.83 16.25 1.736 1.925.208 4.175.438 5 .512.825.073 2.4.239 3.5.368 1.1.13 2.731.298 3.625.374.894.076 2.975.3 4.625.498s3.731.427 4.625.508c.894.082 2.525.253 3.625.381s2.675.291 3.5.363c.825.072 3.525.356 6 .632l7.875.878c1.856.206 4.05.434 4.875.505.825.071 2.85.292 4.5.49s3.675.418 4.5.49c.825.071 2.512.241 3.75.377s2.925.31 3.75.386c.825.077 2.4.246 3.5.376s2.731.298 3.625.373c.894.075 2.975.299 4.625.499 1.65.199 3.787.425 4.75.501.963.077 2.594.248 3.625.38 1.031.132 2.55.303 3.375.379.825.076 1.894.181 2.375.234.481.052 2.056.217 3.5.366s4.706.502 7.25.784c2.544.282 5.075.555 5.625.607 1.047.1 5.1.528 12.875 1.362 2.544.273 6.425.674 8.625.891 2.2.217 5.912.61 8.25.874 2.338.265 6.444.713 9.125.997 2.681.285 6.844.731 9.25.993 2.406.262 6.175.657 8.375.877 2.2.221 5.406.563 7.125.76 2.951.339 11.837 1.269 22.75 2.382 2.681.274 5.775.602 6.875.73 1.1.127 2.731.3 3.625.383.894.084 2.525.255 3.625.381 1.1.127 4.25.461 7 .742 7.404.759 10.094 1.11 9.21 1.2l-.79.081-.174 2.317c-.21 2.797-.129 3.453.741 6.03 3.291 9.74 6.78 13.657 16.575 18.604 3.967 2.003 4.563 2.177 4.563 1.326 0-.335.073-.312.375.119.206.294.313.698.237.896-.178.462 1.052 1.935 1.598 1.914.305-.011.272-.073-.122-.232-.568-.23-.97-.704-.767-.906.066-.067.978.091 2.025.35 1.761.436 2.902.171 1.53-.355-.205-.079-.306-.251-.225-.383.21-.34 1.144.563.993.959-.221.575 1.499 1.666 2.291 1.452l.69-.186-.875-.249c-1.465-.416-.317-.524 1.967-.185 3.662.545 3.49 1.209-.678 2.613-1.396.47-2.539.762-2.539.648 0-.416-.788-.492-1.695-.163-.511.186-1.549.509-2.305.719-4.23 1.173-4.476 1.268-4.551 1.767-.054.36-.473.624-1.54.969-.806.261-1.771.701-2.144.976-.391.29-1.411.609-2.409.755-.952.139-3.25.536-5.106.883-4.49.838-4.141.77-6.125 1.196-.962.206-2.059.434-2.437.506a698.14 698.14 0 01-5.563 1.112c-2.062.408-4.087.809-4.5.893-.413.083-.975.187-1.25.232-.572.092-2.26.411-3 .566a414.507 414.507 0 00-4.25.858c-1.375.283-2.781.564-3.125.624-.344.06-1.196.222-1.893.361-.697.139-1.597.308-2 .375-.403.068-1.303.236-2 .375-.697.139-1.597.312-2 .384-.403.072-1.744.347-2.982.612-1.238.265-2.7.549-3.25.632a45.71 45.71 0 00-2.623.524c-.893.205-1.906.416-2.25.468a32.228 32.228 0 00-2.752.53c-.738.187-.976.228-2.625.449-.687.092-1.285.264-1.327.383-.042.119-.343.167-.668.108a1.22 1.22 0 00-1.008.31c-.353.352-.452.362-.641.064-.192-.304-.224-.304-.227.001-.002.195-.078.28-.168.19-.091-.091-.306-.048-.478.095-.217.18-.363.18-.476-.003-.113-.183-.31-.183-.652 0-.27.144-.601.194-.735.111-.135-.083-.245-.019-.245.142 0 .171-.209.24-.5.163-.276-.071-.441-.033-.367.085.073.119-.207.173-.622.121-.415-.053-.822.013-.904.146-.082.133-.365.173-.628.089-.263-.083-.479-.05-.479.073 0 .124-.141.23-.312.234-.172.005-.988.146-1.813.313s-1.781.325-2.125.35c-.344.025-.738.116-.875.201-.329.205-2.891.728-4.07.831-1.405.123-2.857.377-3.555.622-.344.121-1.413.356-2.375.522-.962.166-1.919.387-2.125.49-.206.104-1.274.268-2.373.366-1.099.097-2.167.266-2.375.374-.207.109-1.221.332-2.252.497-1.031.165-2.278.402-2.77.528-.969.246-3.791.773-7.355 1.372-1.238.209-4.162.759-6.5 1.224-4.008.797-10.544 2.041-21.125 4.019a519.01 519.01 0 00-5.875 1.124c-2.509.519-9.146 1.781-15.125 2.875a711.566 711.566 0 00-7.25 1.352c-.619.127-2.194.417-3.5.645a459.832 459.832 0 00-9.375 1.753c-.963.192-3.269.631-5.125.974-1.856.344-6.975 1.307-11.375 2.141-4.4.833-9.519 1.8-11.375 2.149-4.772.895-11.599 2.185-17 3.21a901.443 901.443 0 01-8.25 1.524c-1.994.356-6.831 1.255-10.75 1.998-3.919.744-8.081 1.52-9.25 1.724-1.169.204-5.331.98-9.25 1.725-3.919.745-8.812 1.669-10.875 2.053-2.062.384-3.625.741-3.472.793.153.052 1.503-.129 3-.403 1.497-.273 6.435-1.171 10.972-1.994a9777.8 9777.8 0 0014.5-2.643c3.438-.63 6.588-1.203 7-1.272 2.256-.38 9.393-1.678 10.25-1.865.55-.119 2.069-.402 3.375-.627 2.377-.411 3.4-.596 12.5-2.26 2.681-.49 5.831-1.057 7-1.258 1.169-.202 2.294-.416 2.5-.475.206-.06.938-.179 1.625-.265a46.706 46.706 0 002.934-.506 91.141 91.141 0 012.5-.484c.449-.075 1.772-.312 2.941-.526 4.72-.865 7.267-1.33 10.125-1.846 1.65-.297 3.844-.698 4.875-.89 1.031-.192 2.269-.41 2.75-.485.481-.075 1.719-.3 2.75-.5s2.269-.425 2.75-.5c.481-.075 1.719-.3 2.75-.5s2.269-.425 2.75-.5c.481-.075 2-.351 3.375-.612a991.287 991.287 0 0111.625-2.128c4.014-.7 9.115-1.638 9.495-1.747.209-.06.83-.174 1.38-.253 1.007-.144 3.141-.53 7.75-1.401a161.52 161.52 0 013.375-.609c.481-.075 1.719-.3 2.75-.5a98.7 98.7 0 012.75-.499 76.297 76.297 0 002.125-.376 76.955 76.955 0 012.125-.376 98.7 98.7 0 002.75-.499 124.5 124.5 0 012.75-.506 127.36 127.36 0 003.25-.622c1.306-.264 2.825-.546 3.375-.626 1.046-.152 7.463-1.318 11.75-2.134 1.375-.261 2.894-.536 3.375-.611a79.785 79.785 0 002.125-.375c3.366-.644 3.734-.714 5.875-1.113 1.031-.191 2.944-.535 4.25-.763 1.306-.228 3.219-.573 4.25-.767a96.6 96.6 0 012.875-.5c.55-.08 2.012-.353 3.25-.605a203.82 203.82 0 014.625-.876c1.306-.23 3.5-.631 4.875-.891 1.375-.261 2.894-.537 3.375-.614a318.91 318.91 0 004.75-.872c2.131-.403 4.269-.797 4.75-.876.481-.079 2.619-.474 4.75-.877l4.5-.85 3.375-.637c1.512-.286 3.087-.576 3.5-.645 1.063-.178 11.023-2.086 12.375-2.371a59.913 59.913 0 011.75-.345c8.693-1.501 16.555-3.465 18.344-4.584.155-.097.415-.196.579-.221.78-.119 2.077-.658 2.077-.863 0-.127.119-.231.265-.231.145 0 .199.106.119.235-.079.129.083.218.361.197.278-.021.505-.127.505-.235 0-.108.169-.197.375-.197a.376.376 0 00.375-.375c0-.206.112-.375.25-.375.137 0 .222.126.187.279-.034.154.135.313.377.353.241.041.382-.017.314-.127-.12-.195.711-.5 1.747-.643.275-.038 1.894-.422 3.599-.853 1.704-.432 3.246-.728 3.427-.659.863.332 6.889-1.973 9.334-3.569l.622-.406-.842-.125-.843-.125 2.898-2.125c1.595-1.169 2.949-2.311 3.01-2.538.234-.873 1.115-1.034 1.525-.278l.375.691.01-.798c.005-.439.123-.867.26-.952.137-.085.25-.359.25-.609 0-.756 2.635-2.845 3.203-2.541.54.289 1.925-.97 2.649-2.409.298-.592.557-.793.965-.75.465.049.545-.049.483-.587-.042-.36.097-.79.312-.969.214-.176.388-.427.388-.555 0-.129.359-.681.797-1.226.721-.897.76-1.029.408-1.381-.351-.351-.311-.548.426-2.056 2.256-4.621 3.197-8.821 3.224-14.396.015-2.947.101-4.006.333-4.083.445-.149.386-1.28-.158-3.029-.259-.831-.411-1.569-.339-1.641.071-.072-.269-.949-.758-1.949-.488-1.001-1.008-2.128-1.155-2.506-.147-.379-.437-.688-.643-.688-.207 0-.674-.591-1.038-1.312-.364-.722-1.157-2.081-1.762-3.021-.84-1.302-1.122-1.999-1.187-2.934-.094-1.342-.188-1.513-2.734-4.981-2.936-4.001-8.912-9.252-10.528-9.252-.388 0-6.69-3.925-7.595-4.73-.321-.286-.648-.52-.726-.52-.079 0-.512-.281-.962-.625-.451-.344-.892-.625-.981-.625-.088 0-1.461-.984-3.051-2.187-4.024-3.047-12.483-7.787-32.446-18.182a632.264 632.264 0 01-5.25-2.76c-3.478-1.872-23.765-12.525-32.125-16.869a4973.94 4973.94 0 01-14.125-7.377c-7.12-3.734-20.052-10.491-28-14.63-1.787-.931-8.256-4.306-14.375-7.5s-12.644-6.596-14.5-7.561c-1.856-.964-5.794-3.017-8.75-4.563a7397.24 7397.24 0 00-14.875-7.743 3698.933 3698.933 0 01-12-6.251c-1.375-.726-9.363-4.889-17.75-9.252a51209.83 51209.83 0 01-36.5-19.003 9236.497 9236.497 0 00-12.25-6.373c-1.787-.926-6.304-3.273-10.036-5.216-6.795-3.538-7.255-3.755-6.96-3.276M169 33.135c0 .069-.45-.104-1-.385s-1-.566-1-.635c0-.069.45.104 1 .385s1 .566 1 .635m5.25 2.75c0 .069-.45-.104-1-.385s-1-.566-1-.635c0-.069.45.104 1 .385s1 .566 1 .635m11 5.75c0 .069-.45-.104-1-.385s-1-.566-1-.635c0-.069.45.104 1 .385s1 .566 1 .635m3.394 1.805c-.113.113-2.144-.897-2.144-1.067 0-.064.504.128 1.12.427.615.3 1.076.587 1.024.64m6.106 3.193c0 .069-.562-.16-1.25-.508-.687-.348-1.25-.69-1.25-.758 0-.069.563.16 1.25.508.688.348 1.25.69 1.25.758m5.75 3.002c0 .069-.45-.104-1-.385s-1-.566-1-.635c0-.069.45.104 1 .385s1 .566 1 .635m5.25 2.75c0 .069-.45-.104-1-.385s-1-.566-1-.635c0-.069.45.104 1 .385s1 .566 1 .635m5.25 2.748c0 .069-.562-.16-1.25-.508-.687-.348-1.25-.69-1.25-.758 0-.069.563.16 1.25.508.688.348 1.25.69 1.25.758m5.75 2.998c0 .069-.787-.271-1.75-.756s-1.75-.938-1.75-1.006c0-.069.787.271 1.75.756s1.75.938 1.75 1.006m4.75 2.5c0 .069-.787-.271-1.75-.756s-1.75-.938-1.75-1.006c0-.069.787.271 1.75.756s1.75.938 1.75 1.006m10.875 5.686c.137.139-1.775-.791-4.25-2.067-2.475-1.276-4.613-2.433-4.75-2.571-.137-.139 1.775.791 4.25 2.067 2.475 1.275 4.613 2.432 4.75 2.571m6.308 3.334c-.109.108-3.933-1.889-3.933-2.054 0-.067.904.348 2.009.923 1.105.575 1.971 1.084 1.924 1.131m4.317 2.23c0 .068-.9-.328-2-.881-1.1-.553-2-1.062-2-1.131 0-.068.9.328 2 .881 1.1.553 2 1.062 2 1.131m13.375 6.93c14.064 7.396 14.383 7.563 22.375 11.75 65.829 34.482 83.86 44.011 84.142 44.466.155.252-3.882-1.814-12.267-6.276A1828.72 1828.72 0 00342 124.19c-3.982-2.083-19.003-9.991-30.625-16.123-19.94-10.521-22.386-11.809-25.75-13.561-1.925-1.003-3.837-2.018-4.25-2.256-.413-.238-2.55-1.363-4.75-2.5s-4.337-2.264-4.75-2.505c-.413-.24-4.519-2.405-9.125-4.811L249 75.254c-2.956-1.543-5.488-2.919-5.625-3.056-.368-.369 2.415 1.048 13 6.613M366 138.625a.376.376 0 01-.375.375c-.39 0-.496-.296-.208-.583.287-.288.583-.182.583.208m1.75.625c.344.269.721.491.839.494.118.003.53.259.917.569.386.309 1.163.88 1.727 1.268.563.388.952.822.864.964-.09.146-.227.161-.316.035-.086-.124-1.056-.829-2.156-1.567-2.671-1.794-3.264-2.264-2.846-2.257.19.003.627.225.971.494m-.5 2.125c.174.209.201.375.061.375-.137 0-.39-.169-.561-.375-.174-.209-.201-.375-.061-.375.137 0 .39.169.561.375m1.998 1.426c.001.097-.335-.016-.746-.25-.412-.234-.75-.505-.75-.602-.001-.097.335.016.746.25.412.234.75.505.75.602m-208.956-.534c.505.119 1.292.264 1.75.321.458.058 2.183.347 3.833.643 1.65.297 4.238.754 5.75 1.015 5.369.93 10.03 1.741 12.25 2.13 2.437.428 9.111 1.584 10.125 1.754.344.058 2.65.455 5.125.883s4.836.823 5.247.878c.41.055 1.592.263 2.625.462 1.033.2 3.284.601 5.003.892 1.719.291 4.025.69 5.125.888 1.1.198 2.394.422 2.875.497.481.076 1.775.3 2.875.498 1.1.197 2.338.418 2.75.489l5.237.905c2.468.427 4.718.823 5 .881.282.059.907.164 1.388.235.481.07 1.381.233 2 .362.619.129 1.575.297 2.125.373.55.077 1.9.303 3 .503 1.1.199 2.394.427 2.875.506 2.358.385 9.42 1.646 9.75 1.741.206.059.938.178 1.625.264.688.085 1.7.25 2.25.367.55.116 1.506.279 2.125.362a54.42 54.42 0 012.375.387c.688.131 1.644.3 2.125.376.481.077 1.775.301 2.875.5 1.1.198 2.394.424 2.875.503.481.078 2.788.481 5.125.894 8.038 1.42 10.004 1.759 11.563 1.99.86.128 2.041.336 2.625.464.584.127 1.456.292 1.937.367 1.047.162 5.234.881 10.375 1.782 2.063.361 4.087.593 4.5.514.543-.103.647-.075.375.104-.271.177-.285.246-.049.249.179.002 2.316.347 4.749.767 2.433.42 4.621.711 4.862.648.241-.063.389-.034.329.064-.146.235 6.403 1.391 7.898 1.395.641.001 1.118.077 1.062.169-.141.228 1.817.541 2.139.342.177-.109.18.048.009.496-.311.819-.319 1.373-.019 1.373.349 0 1.05-3.327.74-3.518-.301-.187-.997-.309-12.095-2.116a11696.665 11696.665 0 01-25.875-4.236 766.13 766.13 0 00-6.125-.997c-.55-.082-3.081-.489-5.625-.905-2.544-.415-4.962-.81-5.375-.875-.413-.066-2.044-.34-3.625-.608-1.581-.269-5.294-.879-8.25-1.356-2.956-.478-7.794-1.265-10.75-1.751a611.962 611.962 0 00-6.375-1.025c-.55-.078-1.9-.303-3-.5s-2.45-.422-3-.5c-.55-.078-1.946-.314-3.102-.525-1.156-.211-2.416-.337-2.799-.281-.384.056-.65.025-.592-.069.131-.212-3.617-.837-3.817-.637-.079.08-.281.031-.449-.108-.167-.139-.936-.279-1.708-.31-.772-.032-1.405-.151-1.406-.264-.001-.114-.311-.182-.689-.152-.379.03-.857-.009-1.063-.086-.822-.31-3.768-.727-4.135-.587-.226.087-.326.045-.238-.098.091-.146-.186-.24-.674-.229a8.521 8.521 0 01-1.578-.134 9.267 9.267 0 00-1.493-.159c-.408-.002-.858-.1-1-.216-.141-.117-.876-.289-1.632-.383-.756-.094-1.6-.208-1.875-.255-.275-.047-.894-.145-1.375-.219a27.03 27.03 0 01-1.5-.274 22.27 22.27 0 00-1.5-.264c-.481-.068-1.269-.182-1.75-.253a40.129 40.129 0 00-1.625-.202c-.412-.04-1.65-.256-2.75-.479a81.337 81.337 0 00-2.875-.54c-.481-.073-1.213-.191-1.625-.261-2.073-.354-2.53-.424-3.476-.529-.563-.063-1.181-.17-1.373-.238-.191-.068-1.091-.229-2-.358a209.763 209.763 0 01-8.401-1.345c-1.1-.202-4.25-.721-7-1.154-4.885-.769-8.842-1.415-13.125-2.142-2.368-.401-4.026-.466-2.458-.095m208.93 6.259c1.054.023 1.087.041.377.211-.629.15-2.803.175-3.661.042-.914-.141.031-.567.972-.438.638.087 1.678.171 2.312.185m9.417.537c.405.309.764.703.799.875.091.455.008.404-.903-.563-.957-1.015-.928-1.101.104-.312m-14.295-.114c.231.375-.218.676-1.008.677-.855.001-.854-.282.002-.628.699-.282.857-.289 1.006-.049m16.341 1.59c-.033.15.096.33.287.4.242.087.284.021.14-.219-.162-.268-.128-.285.153-.074.198.148 1.74 1.318 3.427 2.599 4.105 3.119 4.54 2.619 1.018-1.17-1.564-1.682-1.613-1.761-.364-.575 1.746 1.658 5.519 6.587 5.139 6.713-.149.05-.544-.166-.877-.479-.333-.313-.667-.509-.741-.435-.074.074.502.717 1.281 1.428.778.712 1.367 1.342 1.308 1.4-.059.059-1.114-.928-2.344-2.193-1.23-1.265-1.787-1.909-1.237-1.43l1 .871-.852-.928c-.469-.51-.94-.873-1.047-.807-.108.067-.456-.146-.773-.472-.318-.325-.999-.903-1.513-1.283-.514-.38-.862-.81-.772-.955.098-.159.016-.208-.205-.123-.426.163-1.588-.63-1.588-1.084 0-.169-.156-.358-.347-.422-.229-.076-.281-.008-.153.199.107.174-.235.023-.762-.334-1.008-.686-1.498-1.64-.593-1.155.261.14.448.377.415.528m-342.245-.112c.311.06.761.057 1-.005.239-.063-.015-.112-.565-.109-.55.003-.746.054-.435.114m5.185.561c1.022.16 1.09.198.375.21-.481.008-1.381-.075-2-.185-1.52-.271-.092-.292 1.625-.025m13.75 1.378c1.375.175 2.106.326 1.625.335-.481.009-2.169-.131-3.75-.31-1.661-.189-2.347-.33-1.625-.335.688-.005 2.375.135 3.75.31m324.854.893c2.112 1.024 5.102 3.241 4.369 3.241-.1 0-1.428-.805-2.952-1.788-3.839-2.478-4.113-2.759-1.417-1.453m-29.033 10.205c.053.159.228.207.388.106.16-.101.632-.192 1.049-.203.416-.011.895-.105 1.064-.209.601-.372 1.219.115 1.789 1.407l.578 1.31.597-1.5c.333-.835.543-1.167.474-.75-1.277 7.749-1.355 8.519-.542 5.364.3-1.165.57-1.739.817-1.739.203 0 .304.106.224.236-.084.135.362.233 1.048.229.656-.004 1.489.107 1.85.247.564.217.695.175.921-.292.44-.911.366.359-.222 3.822-.285 1.679-.467 3.105-.405 3.167.063.063.191-.404.286-1.037.282-1.879.888-3.967 1.212-4.173.491-.312 1.176-.226 1.176.148 0 .352 1.575.791 1.967.548.266-.164 1.947.687 2.637 1.335.289.272 1.178.783 1.974 1.135.797.352 1.387.739 1.313.859-.163.264 2.908 3.526 3.319 3.526.16 0 .273.084.251.188-.052.255 1.513 3.595 1.904 4.062.777.927.646 1.492-.381 1.657-.641.102-1.02.314-1.119.624-.082.258-.226.469-.321.469-.094 0-2.365-.237-5.045-.528-2.681-.29-5.08-.521-5.332-.514-1.039.031-1.667-.422-1.667-1.202 0-.449-.13-.756-.321-.756-.177 0-.521-.338-.764-.75-.244-.412-.654-.75-.912-.75-.488 0-.587.207-.893 1.875-.17.922-.199.952-.372.375l-.188-.625-.045.625c-.024.344-.098.495-.163.336-.065-.159.057-1.541.27-3.071.432-3.098.471-3.771.197-3.374-.106.152-1.035.258-2.178.25l-1.993-.016-.42 1.875c-.23 1.031-.492 2.3-.581 2.819-.089.52-.271.878-.404.795-.256-.158-.234-.397.534-5.97.496-3.603.494-4.316-.011-2.786-.162.491-.405.892-.54.892s-.181-.104-.102-.232-.083-.304-.36-.392c-.498-.158-.71-.626-.283-.626.121 0 .28-.225.351-.5.072-.275.016-.5-.125-.5-.14 0-.195-.231-.121-.514.107-.41-.116-.669-1.096-1.272-.676-.416-1.23-.86-1.23-.985 0-.349.292-.277 1.243.302.657.401.783.427.518.108-.521-.628-1.703-1.185-1.887-.888-.084.137-.344.247-.576.245-.365-.003-.371-.037-.048-.246.305-.197.273-.243-.173-.246-.301-.002-.617.109-.702.247-.103.166-.318.163-.64-.009-.322-.172-.485-.175-.485-.007 0 .168-.216.171-.646.007-.355-.135-.766-.171-.914-.08-.148.091-.195.049-.106-.095.245-.397-.512-.894-1.119-.735-.38.099-.459.062-.271-.126a.627.627 0 00.135-.611c-.073-.19-.008-.345.144-.345s.277-.215.277-.479c0-1.604 4.724-3.475 5.196-2.057m43.878 6.974c.072.378.099.72.059.761-.152.155-.883-.75-.883-1.092 0-.648.689-.371.824.331m-.578 1.875c.002.103-.109.187-.246.187s-.248-.253-.246-.562c.003-.537.481-.173.492.375m-67.816 1.09c-.485.486-.163 1.097.578 1.097.656 0 1.271-.554.96-.865-.223-.223-1.374-.396-1.538-.232m70.82 3.097c0 .137-.253.248-.562.246-.455-.003-.491-.05-.188-.246.485-.313.75-.313.75 0m-47.694 5.579c-.038.211.04.451.173.533.211.131 14.306 1.888 15.143 1.888.176 0 .379.225.45.5.14.532-.068.652-.46.265-.13-.129-1.643-.412-3.362-.628-1.719-.216-3.378-.45-3.687-.52-.385-.086-.563-.011-.563.238 0 .201-.111.434-.247.518-.143.089-.183-.015-.094-.247.125-.326-.026-.397-.815-.384-1.001.016-2.975-.252-5.316-.722-1.83-.367-2.276-.354-1.778.051.86.701.544.926-1.064.76-1.653-.171-3.141-.522-2.373-.56.349-.017.437-.25.437-1.165v-1.144l1.813.116c1.452.094 1.798.193 1.743.501m-21.395.859c.427 1.723.522 1.937.857 1.937.196 0 .392-.245.435-.544.042-.3.239-.679.437-.843.788-.654.171-1.226-1.332-1.235-.494-.003-.545.086-.397.685m54.193 1.53c-.309.349-.88-.26-.581-.62.297-.359.345-.352.496.065.093.254.131.504.085.555m-7.251 1.815c2.188.169 3.763.385 3.5.481-.263.095-.557.128-.654.072-.097-.056-.41.099-.696.344l-.521.445.572.163c.331.094-.137.173-1.116.187-.929.014-1.697.109-1.709.213l-.083.748c-.04.358.149.7.521.943.321.211.583.531.583.713 0 .182.225.534.5.783s.5.595.5.769c0 .175.366.436.813.582 1.119.365 3.437.53 3.437.245 0-.129.341-.057.758.158.417.216.689.505.604.642-.233.377.649 2.621 1.312 3.336.946 1.02 1.108 1.747.757 3.393-.163.764-.743 1.546-2.454 3.308-.965.994-1.635 1.848-1.489 1.896.146.049.202.192.124.317-.078.126-.032.229.102.229s-.105.394-.531.875c-.426.481-.923.875-1.104.875a.326.326 0 00-.332.313c-.034 3.36-17.503 7.377-19.151 4.403-.43-.775-.439-1.188-.013-.606.454.621 2.957.789 3.773.254.317-.207 1.351-.642 2.297-.966a95.112 95.112 0 003.347-1.23c.894-.352 1.906-.7 2.25-.774.344-.074 1.034-.525 1.533-1.002.499-.477.957-.819 1.017-.759.06.06.495-.291.967-.78.821-.852.831-.883.233-.749-1.428.321-2 .35-2 .099 0-.16-.153-.137-.389.059-.219.181-.948.31-1.666.294-.703-.016-1.484.081-1.736.216-.315.169-.459.16-.459-.028 0-.15-.103-.21-.23-.131-.126.078-.394-.023-.595-.224-.201-.201-.435-.296-.52-.21-.085.085-.155.046-.155-.087s.121-.363.269-.511c.192-.192.085-.234-.375-.146-.408.078-.644.011-.644-.183 0-.169.168-.241.375-.162.502.193.476-.204-.048-.728-.398-.397-.398-.442 0-.733.232-.17.423-.487.423-.705 0-.218.25-.571.556-.785.305-.214.41-.389.233-.389-.209 0-.267-.176-.164-.501.088-.276.19-.754.228-1.062.037-.309.237-.956.443-1.437.559-1.302.788-2.75.436-2.75-.173 0-.234-.215-.151-.534.077-.294-.028-1.03-.234-1.636-.425-1.25-.308-1.846.595-3.051 1.268-1.691.677-2.515-1.817-2.531-1.174-.008-1.712-.232-2.227-.928l-.477-.644.602.146c.331.08 1.406.222 2.388.316l1.786.171.177-.802c.162-.739.239-.792.963-.667.434.075 2.578.274 4.766.443m6.835.639a2.05 2.05 0 01-.875 0c-.241-.063-.044-.114.437-.114s.678.051.438.114m-.511 2.258c-.267.267-.427.314-.427.124 0-.167.113-.304.25-.304s.25-.119.25-.265c0-.145-.13-.184-.289-.086-.186.115-.22.068-.096-.132.139-.225.267-.235.465-.037.198.198.156.391-.153.7m-44.18-.254c.85.595 2.022 1.968 2.712 3.176a231.362 231.362 0 012.99 5.493c.203.396.572.773.818.837.247.065.509.275.583.468.074.192.289.35.477.35.399 0 .957 1.068 1.083 2.071.08.634.042.671-.431.418-.32-.172-.461-.424-.37-.663.112-.292.023-.354-.366-.252-.34.089-.616-.028-.814-.345-.165-.263-.391-.479-.504-.479-.112 0-.136.111-.052.247.088.142-.013.184-.235.098-.213-.081-.388-.252-.388-.38 0-.127-.197-.302-.437-.389-.726-.264-2.366-1.581-3.641-2.926-3.27-3.449-4.45-9.843-1.425-7.724m39.441.246a2.05 2.05 0 01-.875 0c-.241-.063-.044-.114.437-.114s.678.051.438.114m3 .25a2.05 2.05 0 01-.875 0c-.241-.063-.044-.114.437-.114s.678.051.438.114M355 206.125c-.237.473-.375-4.007-.251-8.125l.125-4.125.125 6c.069 3.3.07 6.113.001 6.25m5.182-7.437c-.054.515-.098.093-.098-.938s.044-1.453.098-.937a10.87 10.87 0 010 1.875m31.795 1.215c-.364.438-.596.267-.385-.283.085-.221.273-.328.418-.239.182.112.171.276-.033.522m1.523.359c0 .115-.119.282-.264.371-.175.109-.131.366.131.765.41.626.273.762-.361.361-.255-.161-.52-.101-.851.191-.473.416-.474.411-.056-.238.266-.413.326-.695.159-.751-.168-.056-.125-.29.12-.639.359-.513 1.122-.553 1.122-.06m-33.038 4.176c-.036 2.316-.046 2.356-.192.812-.147-1.547-.077-3.25.132-3.25.054 0 .081 1.097.06 2.438m-.508 2.687l-.011 1.25-.207-1c-.289-1.397-.28-2.684.014-2 .118.275.21 1.063.204 1.75m-4.704 14c0 .206-.106.375-.235.375-.315 0-.541-.39-.342-.59.282-.282.577-.172.577.215" id="path0"/></g></g></svg>