<svg width="500" height="302" viewBox="0 0 1704 1032" version="1.1" xmlns="http://www.w3.org/2000/svg"><g id="Page-1" fill="none" stroke="#00555B" stroke-width="3" fill-rule="evenodd"><g id="soyuzTM1-bg" transform="translate(2 1)" stroke="#00C4BA" stroke-width="3"><path d="M348 1025.547c0-2.094 1.574-6.438 4-11.047 3.316-6.3 4-8.574 4-13.324 0-3.723.582-6.563 1.66-8.102 1.656-2.363 1.649-2.367-1.25-1.566-1.601.441-6.898.918-11.77 1.058-8.285.239-9.062.446-12 3.223-3.253 3.074-15.788 9.086-23.64 11.336-2.66.762-9.41 1.25-16.5 1.195-13.25-.101-22.008-1.937-34.684-7.261-8.312-3.493-8.777-3.254-8.8 4.57l-.016 5.129 3.922.992c3.766.957 4.066.848 7.703-2.875 6.484-6.645 7.715-4.055 1.395 2.938l-3.903 4.312-6.012-1.184-6.015-1.183-.297-6.043-.293-6.043-5.793 5.664c-3.187 3.113-6.496 5.664-7.352 5.664-5.796 0-12.351-6.77-13.113-13.547-.433-3.836-.199-4.43 2.39-6.058 1.579-.993 4.29-3.016 6.028-4.493l3.16-2.683-7.863-6.192c-4.324-3.406-12.324-10.824-17.773-16.48l-9.91-10.29-12.864 10.372C175.336 969.332 169.207 974 168.79 974c-.419 0-2.067 2.586-3.665 5.75-4.129 8.168-5.406 9.047-13.188 9.074-3.613.016-7.167-.347-7.906-.804-2.844-1.758.117-14.305 4.07-17.23 1.32-.977 4.61-2.08 7.313-2.442 4.3-.582 6.297-1.805 15.941-9.758 6.067-5 12.333-10.227 13.926-11.613l2.899-2.524-6.535-9.773c-11.395-17.043-21.426-38.72-25.645-55.414-.586-2.328-2.066-5.305-3.285-6.61-1.242-1.336-23.188-12.125-49.977-24.574l-47.765-22.2-2.735 1.962c-1.508 1.078-3.863 3.172-5.238 4.652-3.48 3.75-7.234 5.504-11.777 5.504-2.84 0-4.5.668-6.223 2.5-5.473 5.824-13.781 4.98-20.887-2.121-3.277-3.281-4.715-4.125-5.664-3.336-1.754 1.453-2.996-.68-1.469-2.52.844-1.015.868-2.41.09-5.207-.582-2.097-1.066-6.336-1.066-9.418 0-6.648 2.703-11.476 7.898-14.086 2.125-1.07 4.008-3.125 5.114-5.593.96-2.149 3.656-5.438 5.992-7.313a282.323 282.323 0 008.465-7.144c8.625-7.633 15.707-8.36 23.738-2.438 2.36 1.739 5.027 3.215 5.93 3.278.902.062 22.613 9.91 48.246 21.882 37.992 17.746 46.875 21.543 48.066 20.555.8-.664 1.899-.937 2.438-.605.539.332 2.683-2.668 4.761-6.664 4.426-8.504 13.48-18.024 20.922-21.997 12.102-6.457 30.465-7.714 48.047-3.285 44.758 11.27 95.633 61.106 113.836 111.512 4.941 13.691 6.629 21.988 7.234 35.566.676 15.239-.503 23.723-4.722 33.934l-2.89 7 7.433-8c9.008-9.7 13.77-18.348 16.593-30.125 1.81-7.57 2.047-10.863 1.606-22.375-.996-26.11-10.77-53.32-28.758-80.07-36.465-54.227-90.808-84.567-127.125-70.965-3.902 1.46-9.742 5.762-21.828 16.062-9.074 7.739-17.516 14.57-18.754 15.184-2.95 1.457-4.016.297-1.887-2.055 1.239-1.367 1.774-4.203 2.04-10.758.785-19.535 5.82-30.234 21.433-45.554l10.836-10.633 2.684-11.356c4.582-19.39 14.488-39.726 28.55-58.625 8.707-11.699 31.77-34.683 46.848-46.69 6.738-5.364 12.25-9.88 12.25-10.036 0-.152-1.387-3.246-3.086-6.875-4.312-9.211-5.887-15.871-5.902-24.93-.02-11.863 2.11-14.89 13.488-19.176 7.684-2.894 11.094-2.793 17.61.532 2.038 1.039 5.433 2.52 7.546 3.285 2.114.765 4.54 1.687 5.387 2.055.96.41 4.176-1.043 8.5-3.844 3.828-2.48 7.855-4.512 8.957-4.52 1.102-.008 4.27 1.043 7.04 2.336 4.69 2.184 7.772 4.988 11.46 10.43l1.5 2.21 6.5-2.01c23.957-7.423 50.117-9.267 77.016-5.434l4.511.644 1.157-8.46c2.468-18.106 13.406-43.122 29.398-67.247 10.488-15.816 19.309-25.348 51.043-55.129 14.805-13.894 19.625-19 19.625-20.789 0-4.129 2.434-12.902 5.02-18.082 3.523-7.066 7.19-11.426 14.964-17.773C592.27 361.03 608.371 352.383 620 350.48c2.477-.406 5.492-1.515 6.707-2.468 2.188-1.719 2.152-1.75-5-4.504-15.484-5.961-30.02-13.723-34.98-18.684-3.84-3.844-5.504-4.824-8.168-4.824-3.532 0-13.676-2.848-22.059-6.195-2.75-1.098-23.316-11.035-45.707-22.086-34.938-17.246-40.871-20.489-41.867-22.899-.86-2.074-2.242-3.093-5.293-3.91-10.13-2.7-63.067-24.914-82.133-34.469-24.914-12.48-30.11-15.597-32.273-19.367-1.41-2.457-2.375-2.902-7.317-3.347-3.422-.313-10.422-2.399-17.55-5.239-21.508-8.558-66.57-31.629-83.247-42.62l-7.39-4.868h-8.793c-7.918 0-8.86.2-9.43 2-1.027 3.242-4.168 4.383-7.84 2.848-1.738-.727-10.129-3.13-18.648-5.336-10.735-2.782-15.575-4.473-15.762-5.512-.191-1.063 5.031-3.898 17.934-9.738 17.117-7.75 18.34-8.149 20.492-6.739 1.262.829 2.574 2.622 2.918 3.989.61 2.43.844 2.488 10.015 2.488 7.68 0 9.391.273 9.391 1.5 0 .824.23 1.5.512 1.5.433 0 125.199-89.945 134.125-96.691 3.425-2.59 3.406-1.664.277-14.332l-.871-3.528-6.77.613c-3.84.348-7.316.2-8.023-.347-.688-.527-1.25-2.89-1.25-5.254v-4.29l7.52-.706 7.52-.703-.716-5.133C364.937 1.695 364.973 1.598 370 .867c5.613-.816 6.582.23 7.496 8.102l.676 5.832 7.805-.535 7.8-.536.696 4.098c.379 2.254.402 4.567.05 5.137-.351.57-3.203 1.043-6.332 1.05-7.648.02-8.12.446-7.187 6.485.426 2.75.57 5.34.32 5.758-1.426 2.383 1.313 4.773 8.961 7.816 11.649 4.637 67.863 29.598 83.817 37.211 7.37 3.52 14.253 7.367 15.304 8.555 1.153 1.308 3.086 2.16 4.903 2.16 9.476 0 110.726 46.621 116.699 53.734 2.039 2.426 3.492 3.07 7.992 3.536 7.238.746 17.914 5.332 46.172 19.843 30.824 15.825 58.488 29.332 62.828 30.676 1.926.598 7.324 2.012 12 3.149 5.586 1.355 14.094 4.804 24.828 10.07 8.98 4.406 16.856 7.695 17.5 7.308 1.985-1.191 53.031-42.64 55.422-45.004 1.738-1.714 2.25-3.363 2.25-7.214 0-6.692 2.684-27.032 4.633-35.098 2.57-10.633 7.758-20.316 14.996-27.992 7.125-7.547 23.457-20.516 30.687-24.36l4.567-2.43-4.54-6.109c-4.316-5.808-4.75-6.109-8.784-6.109-5.196 0-7.559-2.242-7.559-7.172 0-4.32 2.508-6.828 6.828-6.828 4.399 0 7.172 3.035 7.172 7.852 0 3.078 1.012 5.187 5.047 10.515l5.043 6.664 4.207-2.453c6.734-3.93 18.035-6.59 30.703-7.226 52.586-2.657 121.078 32.097 181.09 91.89l11.535 11.492 44.375 1.477.055-5.356c.03-2.945.593-6.93 1.25-8.855 1.172-3.43 1.113-3.563-2.797-6.543-2.196-1.676-4.403-4.219-4.906-5.652-.832-2.36-.313-3.196 5.566-8.953 3.566-3.493 9.93-10.165 14.14-14.82 5.25-5.81 7.977-8.145 8.684-7.438.707.707.7 5.672-.02 15.812-.577 8.133-1.081 16.88-1.124 19.438-.09 5.515-1.168 7.152-4.72 7.164-1.85.004-3.296.984-4.878 3.312-2.676 3.93-2.79 5.715-.629 9.98 3.363 6.641 7.43 9.286 12.55 8.16 2.669-.585 2.829-.917 2.829-5.886 0-3.758.5-5.707 1.75-6.808 1.05-.926 8.02-2.586 17.418-4.153 17.574-2.93 19.832-3.097 19.832-1.476 0 .625-3.242 5.238-7.207 10.25-3.965 5.011-8.95 11.43-11.07 14.265-4.48 5.973-6.977 6.977-11.2 4.512-2.28-1.336-3.882-1.574-6.523-.965-4.984 1.145-11.672.086-17.703-2.804l-5.2-2.497-17.757 2.094c-9.766 1.149-17.867 2.203-18.008 2.344-.14.137 3.785 5.797 8.723 12.57 4.933 6.778 9.36 13.016 9.836 13.864 1.351 2.414 7.671-1.915 9.093-6.223.614-1.856 1.801-3.637 2.645-3.957 2.988-1.149 7.082-.567 8.715 1.238 2.199 2.43 2.105 7.453-.172 9.516-2.008 1.816-7.692 2.246-8.672.656-.977-1.578-2.77-1.176-5.895 1.328l-2.894 2.317 3.793 5.925c5.89 9.2 17.84 33.586 23.371 47.696 9.242 23.57 15.867 49.937 18.176 72.32 1.36 13.184.762 41.68-1.004 47.914-1.606 5.672-4.211 11.5-5.14 11.5-1.755 0-1.739-1.934.042-6.629 3.184-8.371 4.371-20.254 3.774-37.762-.848-24.918-6.34-51.652-16.309-79.406-4.434-12.351-20.637-47.203-21.945-47.203-.356 0-2.364 1.234-4.461 2.738l-3.809 2.739 6.32 12.011c14.543 27.633 24.708 56.723 30.055 86.012 2.153 11.8 3.051 40.18 1.504 47.625-1.191 5.734-3.387 9.902-4.582 8.703-.367-.367.11-3.863 1.059-7.77 1.418-5.835 1.625-9.917 1.156-22.831-1.73-47.61-22.203-101.774-56.652-149.887-22.391-31.274-55.41-63.672-90.446-88.742l-7.89-5.645-6.973 12.274c-3.836 6.75-7.313 12.64-7.727 13.09-.636.687-48.875-26.801-51.378-29.282-.473-.469.503-6.562 2.187-13.637 1.672-7.039 2.856-13.093 2.629-13.46-.703-1.141-21.527-6.825-30.844-8.418-11.187-1.915-31.008-1.934-39.953-.036-9.8 2.075-16.156 5.301-27.75 14.082-17.855 13.52-24.601 21.446-28.957 34.012-2.367 6.836-5.45 24.121-6.488 36.399-.817 9.632-1.684 9.492 8.14 1.289 2.809-2.348 5.594-4.266 6.192-4.266.597 0 2.574-.863 4.39-1.922 1.82-1.055 6.684-2.969 10.809-4.25 6.504-2.02 9.559-2.328 23-2.316 11.082.011 17.922.527 24 1.816 37.445 7.945 79.02 31.879 120.895 69.61 31.566 28.437 58.16 73.703 69.582 118.445 3.132 12.285 6.152 29.215 6.757 37.933l.266 3.817 6.973-5.567c6.797-5.421 8.687-6.21 11.945-4.96 1.844.707 2.191 7.386.547 10.46-.957 1.786-.668 1.934 3.75 1.954 4.062.015 13.75 3.988 64.285 26.359 58.5 25.898 59.52 26.398 60.629 29.73 1.101 3.317 1.262 3.399 7.312 3.692 5.551.265 11.758 2.703 60.371 23.691 44.504 19.207 54.247 23.758 54.508 25.45.246 1.578 1.059 2.058 3.5 2.058 2.02 0 25.184 9.938 63.512 27.25 49.98 22.574 60.613 27.723 61.965 30 1.492 2.508 2.156 2.75 7.586 2.75 5.61 0 9.027 1.375 59.68 24l53.726 24 9.856-.023 9.855-.02 1.5-3.164c2.586-5.45 3.73-5.5 14.078-.617a1085.57 1085.57 0 0018.203 8.355c5.926 2.64 8.688 4.39 8.506 5.387-.201 1.004-5.416 2.805-16.377 5.656-8.848 2.301-17.074 4.711-18.285 5.36-3.05 1.632-5.688.539-7.14-2.965l-1.227-2.969h-18.309l-62.476 53.594c-34.36 29.476-62.989 54.113-63.621 54.75-.637.64-.918 2.601-.637 4.406.441 2.797.914 3.25 3.398 3.25 2.797 0 2.887.156 2.887 5v5l-4.75.031c-6.816.047-8.75 1.86-8.75 8.211v5.145l-3.957.836c-5.348 1.125-6.398.523-7.137-4.086-.578-3.61-.988-4.04-4.875-5.13-2.336-.652-5.547-1.1-7.14-.991-1.59.109-3.395.148-4.012.09-1.453-.137-2.719-7.981-1.527-9.47.503-.624.699-2.546.433-4.273-.473-3.09-1.02-3.367-38.133-19.379-79.035-34.105-71.879-30.707-72.578-34.433-.617-3.297-.617-3.301-4.847-2.41-4.082.859-6.332-.004-66.227-25.387-53.875-22.832-62.043-26.57-62.32-28.516-.274-1.91-.934-2.238-4.5-2.246-3.356-.008-15.434-5.23-61.18-26.457-47.738-22.152-57.09-26.824-57.55-28.742-.481-1.98-1.09-2.25-4.5-1.984-3.27.257-11.9-3.063-50.223-19.317-25.454-10.797-46.887-19.484-47.637-19.312-.746.175-6.137 4.265-11.973 9.086-8.992 7.425-10.617 9.207-10.617 11.64 0 5.11 2.754 7.223 10.18 7.82 6.375.512 6.668.434 8.43-2.253 1.378-2.106 1.952-5.489 2.355-13.88.668-13.816 2.426-14.73 2.82-1.46.207 6.98-.16 10.84-1.328 14-.887 2.402-1.559 6.199-1.496 8.437.074 2.754-.566 4.934-1.996 6.75-1.918 2.438-2.723 2.68-8.914 2.68-8.196 0-9.621-1.2-9.364-7.875.098-2.52-.292-5.152-.87-5.844-.575-.695-1.594-2.855-2.266-4.804l-1.215-3.543-27.918 22.925c-15.356 12.61-30.969 25.786-34.703 29.286l-6.781 6.355-.368 11.043c-.234 7.102-.937 12.406-1.964 14.871-.883 2.106-1.602 5.8-1.602 8.207 0 6.594-2.3 8.379-10.8 8.379-3.954 0-7.302-.504-8-1.2-.66-.66-1.2-3.347-1.2-5.968 0-5.379-3.469-13.258-5.348-12.148-.632.37-2.543 1.718-4.246 2.996-1.703 1.277-3.851 2.32-4.777 2.32-.926 0-5.73 3.441-10.676 7.648-6.64 5.649-9.808 9.176-12.101 13.477-3.946 7.402-14.059 17.52-24.442 24.45-10.863 7.25-15.715 9.245-25.578 10.534-9.715 1.266-5.934-.703-51.832 27.028-19.523 11.797-38.875 23.293-43 25.543-10.012 5.468-23.93 10.898-33.059 12.894-8.195 1.797-27.027 2.13-35.691.633-2.887-.5-5.297-.863-5.352-.809-.054.055-.664 8.653-1.351 19.102l-1.254 19 3.008 2.703c2.652 2.383 3.172 3.793 4.375 11.93.75 5.074 1.02 9.554.594 9.953-.422.402-6.168-.344-12.77-1.652-6.602-1.313-12.715-2.395-13.59-2.407-1.07-.02-2.957 3.172-5.765 9.746-5.227 12.243-15.055 28.899-24.243 41.086-3.882 5.149-6.652 9.196-6.156 9 8.629-3.445 12.172-5.527 11.676-6.859-1.317-3.516-1.617-7-.606-7 .586 0 1.348.457 1.696 1.016.879 1.422 6.066-1.797 7.316-4.54.598-1.312 2.285-2.449 4.211-2.835 5.219-1.043 6.828-.758 7.988 1.414 1.66 3.093-3.12 10.945-6.664 10.945-1.406 0-3.75.836-5.207 1.86-2.93 2.046-22.027 10.628-23.718 10.656-.586.011-5.204 4.347-10.258 9.636l-9.196 9.618 6.758 2.48 6.758 2.484 3.715 8.883c2.043 4.887 3.73 10.012 3.75 11.395.02 1.379-1.988 5.527-4.465 9.218-2.477 3.688-4.52 7.735-4.543 8.989-.062 3.27-2.363 9.285-5.102 13.332-2.816 4.164-10.843 8.453-15.8 8.437-10.86-.027-23.79-12.597-29.434-28.61L511.5 932.2l-11 7.399c-12.934 8.703-35.195 19.945-48.238 24.359-17.586 5.95-25.153 7.227-45.137 7.606-17.148.324-18.469.484-19.8 2.386-.977 1.39-1.134 2.57-.493 3.715.691 1.238.117 3.012-2.187 6.758-2.903 4.71-3.13 5.734-3.137 14.219-.008 10.789-.91 12.316-8.418 14.238-4.39 1.125-5.54 2.047-10.133 8.082-4.316 5.684-5.781 6.914-8.816 7.414-5.899.977-6.141.863-6.141-2.828zm13.086-7.477c4.46-5.847 5.95-7.093 9.566-8.004 3.43-.863 4.16-1.425 3.668-2.824-1.125-3.203-5.668-7.242-9.261-8.242-5.832-1.621-6.059-1.465-6.059 4.168 0 3.945-.742 6.484-3.133 10.723-1.722 3.05-3.492 6.8-3.93 8.332-.71 2.468-.539 2.777 1.536 2.777 1.707 0 3.738-1.848 7.613-6.93zm-126.574-11.113c1.5-4.723-6.817-13.031-10.649-10.64-1.023.64-1.863 1.753-1.863 2.472 0 2.633 3.176 7.348 6.18 9.172 3.437 2.094 5.453 1.773 6.332-1.004zm76.972-4.023C333.992 995.98 348 974.426 348 946.746 348 878.883 270.969 795 208.645 795c-15.497 0-25.801 4.047-35.926 14.113-8.852 8.801-13.805 18.93-14.508 29.66-.262 4-.867 7.516-1.344 7.809-1.472.91-1.023 11.574.54 12.809.98.773 1.566 4.328 1.937 11.765.64 12.746 3.078 20.758 11.664 38.344 4.617 9.465 13.707 24.617 19.101 31.852 1.043 1.402 4.399-.985 8.832-6.282l4.176-4.984-3.547-5.543c-9.511-14.871-16.773-34.184-18.68-49.672-2.706-22.055 3.551-36.715 18.958-44.406 6.375-3.18 17.53-4.274 26.496-2.594 14.5 2.719 32.183 12.328 49.945 27.145 9.32 7.777 10.211 8.3 10.211 6 0-3.2 1.832-3.852 2.527-.899.29 1.23 1.118 2.43 1.836 2.672 1.028.34 1.16-.766.61-5.164-.598-4.785-.45-5.695 1.03-6.266 4.09-1.566 10.352 3.262 7.599 5.864-1.082 1.023-1.442 1.027-1.813.015-.254-.695-1.316-1.718-2.36-2.277-1.765-.945-1.855-.707-1.3 3.363.656 4.766-.774 8.676-3.164 8.676-2.145 0-1.926.465 3.21 6.766 10.052 12.32 20.477 31.375 23.665 43.234.933 3.473 1.523 4.578 1.601 3 .153-3.133 2.266-6 4.418-6 2.047 0 2.114 1.363.141 3-1.738 1.441-2.004 4-.414 4 .598 0 2.48-1.574 4.184-3.5 3.543-4.004 4.726-4.266 7.152-1.59 2.18 2.414 1.762 7.442-.66 7.903-1.434.273-1.637-.188-1.149-2.622.754-3.777-1.226-5.132-2.718-1.859-1.43 3.137-5.043 5.063-8.317 4.438l-2.566-.493.605 8.114c.723 9.636-.672 18.136-4.14 25.238-1.38 2.82-2.239 5.824-1.914 6.676.367.953-.2 1.965-1.485 2.652-1.144.613-2.078 1.969-2.078 3.012 0 2.008 3.246 3.613 5.05 2.5 3.075-1.899 8.95 3.629 8.95 8.422 0 2.757-3.438 5.304-6.66 4.933-3.344-.383-3.797-2.187-.664-2.633 3.281-.468 4.695-2.629 3.36-5.129-.845-1.574-2.087-2.062-5.243-2.062-4.523 0-7.793-2.164-7.793-5.16 0-1.63-.48-1.504-3.996 1.043-5.953 4.312-14.73 6.34-25.758 5.945-5.562-.195-9.398.07-9.617.672-.23.625-1.16.531-2.484-.25-4.188-2.473-4.563-1.152-.645 2.258l4 3.48-2.422 2.055c-2.898 2.46-7.406 2.27-7.902-.332-.278-1.469.125-1.672 2.242-1.14 3.05.765 3.406-.575.613-2.321-1.082-.676-2.324-2.598-2.758-4.27-.671-2.597-1.894-3.52-8.41-6.355-10.379-4.512-20.37-11.34-30.175-20.621l-8.215-7.774-5.485 2.778c-3.02 1.527-6.297 3.668-7.281 4.758-1.75 1.941-1.547 2.234 9 12.867 33.984 34.265 72.906 49.523 102.777 40.3zM174.04 874.75c.316-3.883-.027-4.332-1.328-1.75-.879 1.75-2.227 2.594-4.484 2.813-3.016.292-3.227.109-3.227-2.817 0-3.855 1.586-6.996 3.535-6.996 1.73 0 1.934 2.133.352 3.71-.61.614-.926 1.677-.696 2.368.23.688 1.41-.433 2.625-2.492s2.766-3.563 3.446-3.34c1.972.64 3.972 5.68 3.308 8.328-.785 3.125-3.78 3.278-3.53.176zM187 832.605c0-.765.676-1.652 1.5-1.968.824-.317 1.5-1.715 1.5-3.106 0-2.316-.363-2.531-4.324-2.531-3.23 0-4.88-.586-6.5-2.316-2.403-2.551-2.922-7.856-.926-9.418 1.883-1.47 5.371-2.118 6.766-1.254 1.832 1.129.23 2.988-2.575 2.988-1.687 0-2.441.559-2.441 1.809 0 3.421 2.309 5.093 7.469 5.398 4.64.273 5.027.504 5.883 3.512.707 2.472.535 3.804-.739 5.75-1.765 2.691-5.613 3.472-5.613 1.136zm51.75-2.687c-2.672-1.555-2.09-2.918 1.25-2.918 3.648 0 3.781-.96.527-3.79-5.316-4.624-3.765-11.75 2.102-9.66 2.898 1.036 5.23 3.927 4.086 5.071-.395.395-1.84.113-3.215-.621-4.004-2.145-4.082-.344-.133 3.152 4.403 3.899 4.602 6.297.684 8.32-3.438 1.778-3.07 1.747-5.301.446zm137.84 171.254c-1.758-3.399-8.746-7.188-13.156-7.14-2.422.027-2.012.35 2.351 1.859 5.692 1.964 9.777 5.172 10.856 8.52.37 1.148.855 1.558 1.078.905.222-.648-.29-2.515-1.13-4.144zm-130.543-4.98c-1.11-1.696-14.047-8.95-14.047-7.876 0 .66-.953 1.797-2.113 2.524-2.078 1.297-2.055 1.36 1.355 3.68 1.91 1.296 4.238 3.972 5.176 5.945l1.703 3.59 4.188-3.586c2.304-1.973 3.988-3.899 3.738-4.278zm129.789-6.376c-3.578-2.793-5.996-3.07-10.348-1.191l-3.988 1.723 4.172.761c4.676.852 9.785 3.235 11.015 5.133.54.832.926.27 1.149-1.676.242-2.136-.3-3.425-2-4.75zm-19.95-1.84c4.614-1.105 11.528-3.66 15.36-5.675 12.234-6.43 22.496-20.781 27.39-38.301 1.434-5.129 1.813-10.09 1.802-23.5-.02-18.254-1.489-26.754-7.973-46.035-6.762-20.11-22.156-47.133-38.156-66.965-14.364-17.809-39.864-40.93-55.657-50.46l-3.851-2.325-3.82 4.39c-3 3.457-4.278 6.211-5.973 12.895-2.078 8.195-2.09 8.547-.332 9.793 26.226 18.598 43.883 36.672 60.293 61.73 11.836 18.07 22.332 43.696 25.597 62.477 2.528 14.555 1.625 34.848-2.035 45.7-1.52 4.507-4.285 10.507-6.144 13.335-1.864 2.828-3.371 5.438-3.356 5.8.02.368-4.367 4.813-9.75 9.884l-9.781 9.218 4 .024c2.2.012 7.773-.879 12.387-1.984zm25.606-4.554c1.477-2.52 2.531-4.715 2.348-4.879-.188-.164-2.461 1.176-5.055 2.98-4.707 3.27-4.71 3.282-2.5 4.825 1.219.851 2.285 1.57 2.371 1.601.082.028 1.36-2.008 2.836-4.527zm-224.289.023c-.3-1.937-6.45-8.445-7.98-8.445-.723 0-3.223 7.691-3.223 9.906 0 .48 2.586.79 5.75.68 5.074-.176 5.715-.426 5.453-2.14zm7.734-11.695c.075-.902-5.035-.96-10.164-.113l-3.722.617 3.89 2.816c2.137 1.551 4.227 3.856 4.637 5.125.68 2.094.957 1.852 3.024-2.695 1.253-2.75 2.304-5.336 2.335-5.75zm133.446-1.617c10.488-5.164 16.601-14.149 18.847-27.703 1.16-7.008-.003-18.602-2.636-26.176l-1.301-3.754-.488 8c-.621 10.219-3.508 17.016-9.692 22.797-6.765 6.332-12.031 8.058-22.832 7.488-9.633-.508-17.699-3.226-25.785-8.683-2.476-1.672-5.168-2.782-5.988-2.47-2.156.829-10.973-1.495-13.149-3.464-1.75-1.586-2.367-1.504-10.648 1.363l-8.79 3.047 7.79 7.574c11.476 11.16 23.14 18.262 37.289 22.707 9.152 2.871 10.328 3.024 21.215 2.72 8.59-.24 10.465-.641 16.168-3.446zM180.5 960.98c15.148-12.062 19.414-16.035 18.84-17.535-.305-.793-.985-1.445-1.508-1.445-.527 0-7.695 5.45-15.93 12.113-13.507 10.926-14.8 12.242-13.191 13.418.98.715 2.234.969 2.785.563.55-.407 4.606-3.606 9.004-7.114zm253.5 4.684c14.434-3.43 26.367-7.797 40.395-14.8 16.3-8.134 21.253-11.774 30.69-22.56 4.188-4.784 4.68-5.886 5.22-11.644.324-3.5 1.347-8.246 2.27-10.55.921-2.305 1.507-4.313 1.3-4.458-2.66-1.879-61.379-28.457-62.008-28.07-.476.297-.867 4.316-.867 8.938 0 4.617-.5 11.75-1.105 15.843l-1.11 7.446-8.469 7.171c-9.918 8.403-11.953 8.637-10.921 1.25a406.28 406.28 0 001.277-10.48c.586-5.492.512-5.75-1.656-5.75-1.25 0-4.676-1.375-7.61-3.055l-5.34-3.054.61 11.367c1.34 24.965-5.34 46.578-18.852 61.012l-4.672 4.992 15.172-.551c11.16-.406 17.953-1.215 25.676-3.047zm-28.48-19.098c1.898-3.886 4.183-9.765 5.078-13.066 2.144-7.89 3.043-34.258 1.382-40.5-.66-2.477-1.425-6.523-1.699-9-.277-2.477-1.07-4.828-1.761-5.227-.692-.398-1.575-3.543-1.965-6.984-1.875-16.582-20.317-51.664-39.664-75.465-32.657-40.164-72.735-66.43-109.891-72.011-11.984-1.801-22.074-.993-32.836 2.632-5.953 2.004-16.68 7.875-15.871 8.684.219.215 2.379-.332 4.8-1.215 10.212-3.723 33.747-2.863 48.81 1.785 5.23 1.614 6.816 1.754 8.656.77 2.753-1.473 5.078-.438 3.441 1.531-.871 1.05.938 2.29 8.7 5.969 5.39 2.55 9.984 4.73 10.21 4.836.227.11.902-1.254 1.5-3.02.817-2.41 1.445-2.996 2.508-2.336 1.102.68 1.203 1.625.453 4.215l-.969 3.336 9.051 6.176c46.14 31.496 83.676 84.043 95.223 133.316 1.719 7.324 2.637 14.82 3.031 24.754.762 19.106-.531 26.95-7.223 43.754-1.816 4.563 5.86-6.422 9.036-12.934zm142.25 12.887c5.347-2.234 7.94-5.066 10.218-11.156 2.352-6.277 2.582-14.567.614-21.957-1.715-6.445-6.192-16.34-7.391-16.34-.492 0-4.406 9.79-8.695 21.75-4.29 11.96-8.418 22.762-9.18 24-.762 1.238-1.258 2.258-1.11 2.266.153.007 2.075.664 4.274 1.457 5.168 1.859 6.773 1.855 11.27-.02zM529 954.656c0-.191-1.012-1.203-2.25-2.25l-2.25-1.906 1.906 2.25c1.79 2.113 2.594 2.707 2.594 1.906zm10.379-24.156c4.039-11 7.258-20.113 7.148-20.25-.109-.14-2.941.031-6.293.383l-6.093.637-5.57 14.89c-3.063 8.192-5.571 15.426-5.571 16.078 0 1.473 8.375 10.121 8.754 9.043.152-.43 3.586-9.781 7.625-20.781zm-10.711 8.832c-2.48-2.477.973-10.066 4.043-8.89.8.308 1.64.558 1.871.558.984 0 .313 6.707-.781 7.8-1.309 1.305-4.074 1.595-5.133.532zm5-15c-1.406-1.402-.578-6.105 1.39-7.887 2.301-2.082 5.172-1.11 5.774 1.961.746 3.793-4.75 8.34-7.164 5.926zm-238.887 21.09c16.528-8.235 19.563-29.98 7.52-53.836-4.246-8.406-8.211-13.574-18.73-24.406-19.063-19.637-34.7-28.387-50.59-28.313-10.497.051-19.22 5.887-22.438 15.012-2.953 8.371-1.668 23.156 3.117 35.844l1.594 4.226 1.777-2.261c.977-1.243 2.317-4.266 2.977-6.723 1.508-5.61 3.582-9.758 6.476-12.965 1.243-1.375 2.555-3.766 2.922-5.313.574-2.433 1.078-2.769 3.778-2.5 3.64.364 7.261 4.489 6.25 7.122-.36.941-1.739 1.98-3.059 2.312-2.156.54-6.375 4.688-6.375 6.266 0 .336 2.152.644 4.777.68 6.805.097 13.32 3.73 20.676 11.53 7.887 8.364 11.844 16.184 12.371 24.47.223 3.5-.101 7.085-.75 8.296-1.394 2.606-.23 2.785 3.977.61 1.62-.836 2.949-2.133 2.949-2.875 0-2.594 2.824-4 5.55-2.758 4.579 2.086 5.516 10.16 1.184 10.16-1.12 0-4.375 1.145-7.234 2.543-2.86 1.402-8.043 2.863-11.52 3.25-3.472.39-6.496 1.246-6.714 1.906-.434 1.305 7.257 5.528 15.234 8.371 7.797 2.782 17.945 2.508 24.281-.648zm-84.21-5.922c3.628-1.926 7.206-3.5 7.952-3.5 3.524 0 2.954-5.09-1.113-9.922-1.422-1.695-3.148-3.078-3.832-3.078-.683 0-2.633 2.137-4.328 4.75-1.7 2.613-4.45 6.047-6.11 7.629-2.863 2.73-2.937 3-1.464 5.25.855 1.305 1.722 2.371 1.926 2.371.203 0 3.34-1.574 6.968-3.5zm315.027-14.75l6.078-16.25 17.633-2-4.266-3.848c-4.8-4.328-9.64-6.664-13.762-6.629-4.218.032-10.718 3.38-13.125 6.758-3.172 4.457-5.492 14.586-4.726 20.653.722 5.71 4.375 17.566 5.414 17.566.37 0 3.414-7.313 6.754-16.25zM244.25 935.336c-.688-.277-1.813-.277-2.5 0-.688.277-.125.508 1.25.508s1.938-.23 1.25-.508zm-17.773-3.262c.886-2.797-1.711-8.254-5.418-11.37-1.766-1.49-3.551-2.704-3.97-2.704-2.14 0-1.546 1.543 1.938 5.027 2.391 2.391 4.114 5.215 4.528 7.418.734 3.914 1.976 4.61 2.922 1.63zm42.023-.875c1.762-1.082 1.64-1.136-1-.465-4.031 1.028-18.691.973-25.5-.097-6.41-1.004-6.324-.008.113 1.336 6.067 1.265 23.922.742 26.387-.77v-.004zm299.57-4.851c.97-1.793.594-3.621-2.234-10.91l-3.399-8.758-6.18-2.313-6.175-2.308 3.926 6.074c4.375 6.77 7.383 14.129 8.488 20.789l.738 4.422 1.836-2.422c1.012-1.332 2.364-3.39 3-4.574zm-335.039 3.066c2.117-5.566-5.847-16.414-12.05-16.414-4.2 0-4.383 1.438-.422 3.328 3.879 1.848 9.441 9.727 9.441 13.367 0 3.094 1.813 2.926 3.031-.28zm41.098-1.164c1.27-1.617 1.223-1.64-.629-.281a188.645 188.645 0 01-2.418 1.75c-.227.152.055.281.629.281s1.66-.79 2.418-1.75zM257 926.68c0-4.059-3.078-13.024-6.117-17.813-5.75-9.054-16.946-17.867-22.703-17.867-1.618 0-1.973 1.031-2.5 7.266-.77 9.09-.184 11.593 3.441 14.734 1.59 1.375 4.156 4.977 5.703 8l2.82 5.5 6.426 1.14c10.727 1.907 12.93 1.743 12.93-.96zm254 1.261c0-.582-.45-.78-1-.441-.55.34-1 .816-1 1.059 0 .242.45.441 1 .441s1-.477 1-1.059zM212.379 916c2.012-3.973 2.191-5.32 1.535-11.5-.41-3.852-2.23-11.05-4.05-16-3.106-8.445-3.31-9.8-3.337-22-.023-11.445.23-13.477 2.133-17 4.832-8.957 13.563-13.855 24.766-13.89 6.43-.02 6.719-.11 4-1.262-11.145-4.727-26.067-5.371-34.817-1.5-11.14 4.93-16.617 12.504-18.64 25.8-2.45 16.051 4.11 40.266 16.586 61.239l4.86 8.172 2.343-3.782c1.289-2.078 3.37-5.8 4.62-8.277zm51.285 8.266c3.324-7.957-.992-20.227-10.629-30.23-3.047-3.157-7.55-6.77-10.012-8.024-4.925-2.512-11.144-2.985-13.507-1.028-2.11 1.754-1.891 3.016.523 3.016 6.55 0 20.508 12.402 25.742 22.875 1.696 3.39 3.387 8.633 3.766 11.645.375 3.015 1.105 5.48 1.621 5.48.512 0 1.637-1.68 2.496-3.734zM280 925.344c0-1.914-2.125-2.754-3.098-1.223-1.293 2.043-1.109 2.45 1.098 2.45 1.102 0 2-.551 2-1.227zm160.754-17.074c5.18-4.704 5.266-4.88 6.36-12.77 1.964-14.156-.301-34.438-5.794-51.926-1.394-4.441-2.675-8.222-2.843-8.406-.172-.184-3.297 2.016-6.95 4.883-4.191 3.297-6.441 5.734-6.101 6.617.77 2 4.304 14.11 5.515 18.875.758 2.992 2.414 5.246 6.352 8.644 4.441 3.833 5.629 5.602 7.152 10.63 1.004 3.32 1.582 6.671 1.282 7.456-.301.782-2.95 2.086-5.887 2.903l-5.34 1.484-.723 7.422c-.398 4.078-.918 8.2-1.152 9.152-.582 2.348 1.418 1.13 8.129-4.964zm-223.04-8.04c-.226-1.5-.41-.03-.405 3.27.007 3.3.195 4.531.418 2.73.222-1.796.214-4.496-.012-6zm4.606-1.73c.39-6.941.293-8.777-.32-6-.867 3.922-1.367 17.238-.621 16.418.21-.23.633-4.918.941-10.418zm296.383-1.105c.203-.614-14.191-7.872-32.418-16.348-18.031-8.383-33.574-16.149-34.535-17.254-1.652-1.902-1.75-1.91-1.738-.152C450.039 867 451.21 870 452.5 870c.695 0 15.152 6.508 32.133 14.465 16.976 7.953 31.504 14.367 32.285 14.25.777-.117 1.582-.711 1.785-1.32zm38.918-10.172c11.254-12.22 20.684-24.098 28.07-35.368 8.32-12.699 18.653-34.07 18.465-38.207-.242-5.457 2.82-16.41 4.73-16.906 2.055-.539 3.75-8.691 5.169-24.887 4.398-50.085-20.727-106.68-68.52-154.363-50.676-50.558-107.84-66.808-170.172-48.379l-7.14 2.114-.45 6.136c-.707 9.598-.03 10.98 5.797 11.84 15.496 2.281 25.36 4.504 37.258 8.387 55.918 18.25 107.188 64.45 136.402 122.914 14.622 29.254 22.2 57.695 23.45 87.996 1.375 33.313-5.758 60.984-22.106 85.766-3.449 5.23.766 1.945 9.047-7.043zm-7.172-2.274c25.024-42.695 22.774-104.32-5.93-162.52-33.761-68.464-98.058-119.007-163.957-128.894-5.464-.82-10.093-1.336-10.285-1.148-.187.191.52 4.328 1.575 9.191 2.3 10.61 1.843 11.766-6.32 16.04l-5.36 2.808-6.535-1.567c-5.407-1.293-6.625-1.332-7.051-.222-.313.816.351 1.511 1.7 1.773 35.327 6.856 62.901 19.317 93.413 42.223 30.348 22.781 53.934 51.496 71.317 86.816 11.754 23.89 18.773 46.387 22.015 70.551 1.477 11.016 1.469 36.559-.02 46.621-1.077 7.3-4.21 21.129-5.62 24.8-.473 1.24.12 1.595 2.754 1.653 1.843.043 4.93.68 6.855 1.41 3.277 1.25 3.64 1.184 5.703-1.074 1.211-1.324 3.797-5.133 5.746-8.46zm-124.77 5.801c-1.269-3.113-10.019-9.742-11.241-8.52-.293.293-.235 1.73.132 3.196.485 1.937 2.207 3.457 6.301 5.57 3.094 1.598 5.742 2.93 5.883 2.957.137.024-.344-1.414-1.074-3.203zm12.481 1.242c4.664-1.203 4.664-1.203 3.613-4.347-.574-1.73-1.382-3.52-1.796-3.98-.891-.993-11.977 2.308-11.977 3.565 0 2.032 3.117 6.672 4.258 6.332.683-.203 3.34-.91 5.902-1.57zm89.195-5.742c5.528-17.55 7.274-46.031 4.165-67.91-5.489-38.61-23.641-79.832-49.465-112.34-7.387-9.3-25.051-26.934-35.555-35.496-27.93-22.766-65.078-40.965-93.79-45.945-10.972-1.907-11.487-1.63-16.663 8.941-10.524 21.477-27.98 61.023-27.074 61.324 1.554.52 1.23 3.762-.52 5.215-.851.707-2.41 2.496-3.469 3.98l-1.921 2.7 4.218-.817c2.32-.449 7.395-.836 11.274-.859 6.152-.04 7.656.34 11.761 2.941 5.258 3.336 12.239 13.121 13.266 18.606.566 3.02-.16 4.45-7.453 14.629l-8.082 11.281 5.726 4.973c19.93 17.3 37.051 36.468 50.047 56.027 8.192 12.332 18.766 33.008 23.157 45.281l3.296 9.219h8.864c4.875 0 8.863-.39 8.863-.871 0-.477-1.352-5.414-3-10.969-1.648-5.55-3-10.715-3-11.465 0-1.672 15.293-13.695 17.414-13.695 1.043 0 2.465 3.035 4.55 9.71 1.669 5.34 3.036 10.34 3.036 11.11 0 .77.875 2.36 1.941 3.54a201.93 201.93 0 014.25 4.898c1.59 1.906 12.559 7.558 35.309 18.207 18.148 8.496 33.77 15.469 34.707 15.492 1.262.031 2.34-1.969 4.148-7.707zm-94.964-4.695l5.89-1.692-4.347-4.433-4.352-4.43h-9.289c-5.113 0-9.293.156-9.293.352 0 .191.46 1.675 1.027 3.3.774 2.211 2.586 3.72 7.25 6.032 3.422 1.695 6.45 2.964 6.723 2.824.273-.145 3.152-1.024 6.39-1.953zM233.84 871.18c2.512-.371 2.887-2.688.578-3.575-2.238-.859-2.629-.757-1.867.477.367.594-.438 2.281-1.79 3.75-3.034 3.3-5.761 7.32-5.761 8.5 0 .488 1.504-1.3 3.34-3.973 1.933-2.808 4.254-4.996 5.5-5.18zM154 866.62c0-.758-.59-1.863-1.305-2.46-.718-.598-21.527-10.516-46.238-22.048-33.855-15.797-45.254-20.695-46.238-19.883-.715.598-.946 1.438-.512 1.868.898.89 92.387 43.78 93.543 43.855.414.027.75-.574.75-1.332zM597.402 864c1.364 0 1.47-.371.59-2.012-1.043-1.957-1.195-1.922-5.035 1.164-4.832 3.887-5.215 5.79-.59 2.93 1.852-1.144 4.117-2.082 5.035-2.082zm5.598-5.559c0-1.652-1.582-1.93-2.5-.441-.816 1.32.379 3.191 1.57 2.457.512-.316.93-1.223.93-2.016zm-450.03-7.191c-.025-5.816-.493-9.355-1.404-10.555-.75-.992-20.582-10.78-44.07-21.754-23.484-10.972-43.035-20.156-43.441-20.406-.407-.25-.309 2.024.21 5.055.637 3.687.598 6.902-.113 9.707-.586 2.305-.742 4.512-.347 4.906.78.785 87.226 41.54 88.445 41.7.414.054.734-3.84.72-8.653zM25.054 839.969c6.742-3.606 6.406-18.434-.625-27.653-4.328-5.671-11.52-7.941-16.582-5.234-4.266 2.281-6.243 12.973-3.551 19.211l1.203 2.793 6.45-4.543c4.566-3.219 6.753-4.234 7.5-3.473 1.148 1.172.218 2.082-7.829 7.676-4.594 3.195-4.644 3.29-3.059 5.707 3.56 5.434 11.614 8.129 16.493 5.516zM154 834.5c0-2.762-.398-3.5-1.883-3.5-1.039 0-19.824-8.383-41.75-18.625-21.93-10.242-42.637-19.879-46.023-21.414l-6.153-2.793 1.63 2.844c1.359 2.367 9.085 6.308 46.156 23.554 24.488 11.391 45.183 21.32 45.988 22.07 2 1.864 2.035 1.829 2.035-2.136zm-110.867-3.129c3.777-3.617 5.238-8.48 4.55-15.133-1.12-10.863-8.94-21.738-17.476-24.293-3.328-1-4.488-.906-7.68.61-5.59 2.652-9.855 10.445-5.722 10.445.996 0 3.332 1.125 5.195 2.5 2.14 1.578 4.719 2.5 6.996 2.5 1.98 0 4.145.54 4.805 1.2 1.574 1.577 1.523 4.866-.114 7.327-.921 1.383-1.187 4.477-.89 10.336l.426 8.364 3.543-.575c1.953-.32 4.816-1.793 6.367-3.28zM58.34 818.18c4.98-5.508 3.672-18.2-2.86-27.742-4.617-6.743-10.3-9.93-17.05-9.551-1.899.105-8.43 5.035-8.43 6.363 0 .313 2.004 1.543 4.457 2.73 9 4.356 15.566 15.11 16.328 26.747l.477 7.222 2.617-1.867c1.441-1.027 3.45-2.781 4.46-3.902zm574.144-8.43c-.394-3.438-1.113-7.008-1.597-7.934-1.492-2.84-4.614-3.148-7.938-.78-2.808 2-3.023 2.57-2.746 7.3l.297 5.129 5.5 1.156c3.023.633 5.883 1.203 6.348 1.266.468.062.527-2.7.136-6.137zm-600.5 2c.008-.414-.898-.75-2.02-.75-1.769 0-1.886.281-.89 2.137.91 1.703 1.317 1.855 2.02.75.48-.762.883-1.723.89-2.137zm585-4.3c.016-3.102-1.488-5.45-3.492-5.45-.613 0-1.82 2.227-2.691 4.945l-1.582 4.946 3.14.304c3.684.356 4.606-.59 4.625-4.746zm4.536-9.462c2.609-1.613 3.37-2.855 3.835-6.25.582-4.246 2.032-33.355 1.754-35.238-.14-.941-1.007-1.285-7.113-2.797-2.422-.598-2.492-.473-2.156 3.766.445 5.593-1.465 26.125-3.192 34.32-1.18 5.594-1.148 6.395.262 7.223 2.281 1.332 2.973 1.222 6.61-1.024zm-423.266-21.726c2.617-2.395 7.476-5.637 10.8-7.211 6.7-3.168 20.903-5.656 26.391-4.625 3.828.715 3.356 1.523 6.082-10.426 2.125-9.32 3.403-11.402 8.739-14.188l4.234-2.21-6.5-1.254c-30.563-5.895-58.945 7.257-68.07 31.547-2.485 6.613-4.93 18.648-4.93 24.261v3.98l9.25-7.761c5.086-4.27 11.39-9.719 14.004-12.113zm82.707-2.012c.582-2.063 1.32-5.355 1.648-7.32.586-3.559.575-3.575-5.609-6.348-4.223-1.894-6.523-2.457-7.223-1.762-.695.696.649 1.867 4.211 3.672l5.23 2.653-.69 6.425c-.774 7.239.695 8.856 2.433 2.68zm-5.95-.5c.012-1.238.286-3.258.618-4.492.52-1.942-.121-2.582-4.766-4.742-2.949-1.371-7.02-2.5-9.039-2.504-2.77-.008-4.187-.66-5.73-2.621-2.051-2.606-9.793-6.028-10.969-4.848-.344.344-1.113 2.8-1.715 5.469l-1.09 4.843 8.59 2.141c4.723 1.176 11.738 3.645 15.59 5.484 8.504 4.067 8.496 4.067 8.512 1.27zm13.239-16.195c1.512-1.899 2.75-3.914 2.75-4.485 0-1.386-18.648-10.285-20.715-9.886-2.512.488-2.531 2.234-.039 3.328 1.723.754 2.254 1.816 2.254 4.488 0 3.254.418 3.723 6 6.703 3.3 1.758 6.227 3.223 6.5 3.25.273.024 1.738-1.504 3.25-3.398zm-20.45-2.207c2.95-3.305 2.497-5.754-1.148-6.172-4.593-.528-9.988 5.511-7.547 8.453 1.696 2.043 5.793.969 8.696-2.281zm1233.497-4.098c-1.29-9.227-1.656-8.715 6.453-9.043 6.598-.27 7.25-.484 7.25-2.39 0-1.997-.34-2.063-7.418-1.419-4.754.43-7.652.297-8.062-.363-1.008-1.633-3.926-1.21-5.665.824-1.132 1.317-3.625 2.059-8.617 2.547-6.468.64-6.98.86-6.48 2.77.508 1.941 1.008 2.031 7.906 1.406 5.606-.508 7.469-.36 7.8.625.243.711.927 3.207 1.524 5.543.907 3.543 1.496 4.25 3.532 4.25 2.34 0 2.414-.2 1.777-4.75zm-828.707 1.746c9.402-2.383 16.101-4.945 26.91-10.285 10.047-4.965 26.5-14.715 26.5-15.703 0-.41 2.988-2.492 6.64-4.625 11.762-6.875 20.06-18.344 24.54-33.918 3.265-11.352 3.25-35.203-.028-50.465-9.375-43.621-38.605-95.934-73.07-130.762-25.617-25.89-55.426-45.09-85.613-55.148-16.899-5.63-28.828-7.465-44.387-6.828-21.703.89-33.164 5.82-48.148 20.722-20.336 20.22-40.543 57.864-45.942 85.582-1.762 9.043-1.293 10.465 4.008 12.172 2.477.801 9.676 1.801 16 2.23 15.145 1.028 25.406 3.938 40.813 11.571 16.117 7.984 28.628 16.969 43.03 30.918 29.356 28.422 47.934 60.2 54.25 92.79 2.282 11.769 2.442 26.566.391 36.253-2.437 11.5-2.312 11.965 3.606 13.332 2.8.645 5.52.91 6.043.586.527-.324 1.562-.086 2.304.531 4.184 3.473 30.047 4.114 42.153 1.047zm-416.34-3.168c.96-.496 2.496-2.035 3.406-3.422 1.489-2.277 1.5-2.68.11-4.07-1.094-1.094-2.461-1.344-4.68-.856-3.606.793-9.086 5.051-9.086 7.06 0 3.14 5.332 3.808 10.25 1.288zm82.43-26.41c-3.274-6.668-8.27-12.348-12.383-14.066-4.809-2.012-12.574-1.645-24.035 1.132-15.14 3.668-16.946 4.61-19.278 10.055-1.093 2.543-1.984 4.957-1.984 5.36 0 .402 2.586 1.773 5.75 3.042 8.273 3.325 21.36 10.426 30.574 16.598l7.977 5.34 7.965-11.129 7.964-11.125-2.55-5.207zm-72.418 19.684c.332-1.258-.082-2.082-1.184-2.372-1.355-.355-1.605.118-1.273 2.403.453 3.078 1.648 3.062 2.457-.031zm1219.57-5.176c2.45-.067 2.344-.227-1.332-1.926-5.246-2.43-5.305-2.422-4.734.559.332 1.726.96 2.375 1.945 2 .797-.309 2.652-.594 4.121-.633zm23.168-4.48c0-2.391-1.668-2.426-3.867-.087l-2.16 2.297 3.015-.441c1.657-.242 3.012-1.04 3.012-1.77zm-892.102-11.563c.508-43.844-33.941-100.496-79.89-131.375-16.27-10.938-35.957-19.035-51.008-20.988l-5.5-.711 12 5.972c22.207 11.051 39.027 23.68 59.047 44.324 24.871 25.653 42.387 51.778 53.957 80.47 3.73 9.26 9.418 29.07 9.594 33.425l.101 2.5.801-2.5c.441-1.375.844-6.379.898-11.117zm872.309 5.617l-.793-6-8.914 8.766 5 2.207c2.75 1.21 5.113 1.937 5.246 1.613.137-.32-.105-3.285-.539-6.586zm8.793 5.125c0-.758-.281-2.781-.625-4.5-.5-2.5-1.125-3.125-3.125-3.125-2.266 0-2.441.293-1.875 3.125.344 1.719.625 3.742.625 4.5 0 .8 1.047 1.375 2.5 1.375s2.5-.574 2.5-1.375zm7.871-3.969c.977-1.18.7-1.847-1.469-3.554-3.718-2.926-4.765-2.66-4.027 1.023.344 1.719.625 3.758.625 4.535 0 1.625 2.824.461 4.871-2.004zM225 722.95l5.5-1.715.238-5.867c.13-3.226.5-8.238.825-11.14.582-5.239.625-5.293 6.261-8.137 8.219-4.149 15.625-6.094 23.106-6.067 7.988.024 13.562 2.325 17.64 7.274l2.93 3.55 5.293-6.464c4.129-5.043 8.234-12.75 18.68-35.067l13.39-28.597-3.683-2.461c-2.024-1.356-4.82-3.535-6.22-4.844l-2.538-2.383-9.426 2.524c-10.918 2.922-25.476 9.55-33.797 15.386-12.46 8.743-32.258 34.325-42.015 54.301-4.282 8.766-10.48 26.371-11.637 33.051l-.652 3.797 5.3-2.711c2.918-1.492 7.782-3.484 10.805-4.43zm1254.5 2.762c2.465-3.961 9.637-7.711 14.742-7.711 4.633 0 9.797 2.04 12.82 5.063 1.504 1.503 2.665 1.94 3.536 1.335.71-.492 29.87-25.421 64.8-55.398 44.985-38.605 63.52-55.102 63.556-56.559.023-1.132-.516-2.816-1.204-3.742-.688-.926-25.496-12.515-55.125-25.758-53.516-23.914-53.918-24.074-59.773-23.675-4.555.312-6.52.976-8.625 2.914-1.5 1.379-35.012 27.82-74.473 58.758-68.3 53.546-71.715 56.375-71.094 58.906.356 1.46.918 2.785 1.246 2.945 4.68 2.281 105.875 46.008 106.594 46.063.55.039 1.898-1.375 3-3.141zm-1199.742-5.977c2.808-6.515 2.797-8.004-.11-14.242-2.851-6.12-8.375-11.164-13.234-12.074-6.02-1.129-15.246.39-23.293 3.84-8.637 3.703-8.797 3.996-9 16.242l-.113 7 13.246.14c9.8.106 15.066.657 20.246 2.118 9.926 2.797 9.727 2.844 12.258-3.024zm1214.492 1.602c-.688-.277-1.813-.277-2.5 0-.688.277-.125.508 1.25.508s1.938-.23 1.25-.508zM771.262 700.39c12.23-7.48 23.672-14.684 25.422-16 1.75-1.313 3.441-2.391 3.757-2.391 1.082 0 17.559-11.297 17.559-12.035 0-.406 2.586-2.649 5.75-4.985 6.422-4.742 10.535-9.335 10.73-11.976.07-.969.86-2.488 1.754-3.379.891-.895 2.141-4.21 2.774-7.375.633-3.164 1.68-7.773 2.32-10.25 1.598-6.137 1.426-42.035-.23-48-.684-2.477-1.23-5.398-1.207-6.5.136-7.047-12.68-51.93-15.059-52.723-.602-.199-1.219-1.695-1.367-3.32-.149-1.625-1.668-5.996-3.38-9.707-2.315-5.031-3.612-6.75-5.097-6.75-2.183 0-2.558-1.031-.957-2.633 1.13-1.129-7.37-17.367-9.09-17.367-.52 0-.941-.625-.941-1.387 0-2-11.727-18.113-13.184-18.113-.675 0-1.472-1-1.77-2.219-.605-2.457-15.593-19.281-17.179-19.281-.547 0-2.125-1.344-3.508-2.984-1.379-1.641-6.636-6.375-11.683-10.524-5.047-4.148-9.852-8.14-10.676-8.867-1.45-1.281-14.957-11.082-18.094-13.125-.843-.55-5.086-3.348-9.426-6.223-13.69-9.058-38.207-20.757-51.671-24.66-26.383-7.644-49.332-7.531-65.34.332-4.063 1.996-10.75 7.285-20.5 16.219C559.773 413.59 523 448.078 523 448.535c0 .215 2.035-.48 4.523-1.543 13.754-5.898 40.23-6.597 60.22-1.59 20.03 5.016 39.507 13.97 60.019 27.59 38.199 25.367 69.406 62.203 92.777 109.508 9.941 20.121 15.91 36.441 19.59 53.563 3.016 14.03 3.332 41.94.586 51.937-2.133 7.773-6.867 18.2-10.317 22.723-1.375 1.804-2.246 3.277-1.937 3.277.309 0 10.57-6.125 22.8-13.61zm2.195-120.254c-9.344-5.696-8.969-19.461.75-27.664 4.957-4.188 14.719-8.473 19.293-8.47 8.637 0 15.5 6.509 15.5 14.696 0 5.746-1.805 9.04-8.008 14.617-8.691 7.813-20.933 10.848-27.535 6.82zm18.68-4.887c13.5-6.96 17.547-16.262 10.437-24.016-3.152-3.437-3.851-3.73-8.75-3.683-12.687.117-26.445 13.312-23.734 22.761 2.637 9.2 10.406 10.938 22.047 4.938zM290.594 710.387c1.324-.332 2.406-.934 2.406-1.336 0-.758-7.95-3.438-8.508-2.871-.176.175-.074 1.582.223 3.129.375 1.941.992 2.632 2.004 2.246.808-.309 2.55-.836 3.875-1.168zm9.515-6.387c1.543-2.82 31.891-69.95 31.891-70.547 0-.332-.695-.453-1.543-.277-.941.199-7.937 14.316-17.996 36.324C303.406 689.3 296 705.645 296 705.824c0 .965 3.41-.55 4.11-1.824zm9.86-36.867c10.914-23.957 14.894-33.672 14.113-34.45-.684-.683-1.426-.734-2.016-.132C320.965 633.668 289 701.793 289 703.02c0 1.832 3.559 1.468 4.637-.473.625-1.125 7.972-17.063 16.332-35.414zm500.281 18.375c2.137-.883 2.215-1.875.273-3.488-1.191-.989-2.12-.856-4.75.68-1.796 1.05-3.406 2.628-3.574 3.51-.258 1.333.25 1.47 2.996.813 1.817-.437 4.094-1.117 5.055-1.515zm13.05-7.313l2.798-1.898-2.602-1.707c-2.52-1.653-2.742-1.617-6.95 1.043-4.226 2.676-4.304 2.812-2.698 4.953 1.797 2.39 2.773 2.14 9.453-2.39zm545.52-5.863c2.024-1.539 34.282-26.844 71.68-56.238 37.398-29.39 69.652-54.637 71.672-56.102l3.668-2.66-2.168-2.512c-1.453-1.683-21.723-11.328-61.309-29.168-60.324-27.187-64.441-28.718-67.906-25.25-.773.77-34.734 28.32-75.473 61.223-56.125 45.332-73.996 60.277-73.775 61.707.228 1.469 13.412 7.473 59.791 27.238 56.855 24.223 59.738 25.332 64.82 24.957 3.875-.289 6.32-1.16 9-3.195zm-536.406-1.242c2.77-2.89 2.774-2.918.688-4.035-1.73-.926-2.735-.696-5.676 1.3l-3.57 2.43 2.292 1.606c2.997 2.097 3.012 2.097 6.266-1.301zm7.106-9.13l1.574-3.038-3.465 2.27c-3.41 2.238-3.863 3.808-1.094 3.808.778 0 2.121-1.367 2.985-3.04zm-.051-7.01c-.852-1.38-1.27-1.192-2.508 1.124-1.02 1.906-.938 1.985.992.953 1.156-.62 1.84-1.554 1.516-2.078zm6.492-9.555c1.121-3.633 2.039-6.782 2.039-7 0-1.032-4.11-.239-4.434.855-.207.688-1.058 3.48-1.902 6.207-1.61 5.223-1.437 6.543.856 6.543.851 0 2.195-2.578 3.44-6.605zm8.555-7.852c2.976-9.156 3.023-11.39.195-9.32-1.156.843-2.445 4.574-3.727 10.785-2.312 11.199-2.297 10.988-.554 8.687.754-.992 2.59-5.558 4.086-10.152zm48.285 7.258c.66-.66 1.199-2.426 1.199-3.918 0-2.668-.133-2.727-7.004-3.051l-7-.332v4.25L890 646h5.8c3.188 0 6.34-.54 7-1.2zm-34.192-12.953c11.559-11.946 16.934-25.707 19.305-49.407 2.492-24.949-4.73-62.761-18.61-97.441-12.394-30.973-28.925-55.8-51.933-78-30.777-29.703-72.328-56.785-102.371-66.727-34.082-11.277-63.734-9.355-80.5 5.22l-4 3.476 9.129.015c19.277.032 40.668 5.743 64.27 17.16l12.394 5.997 5.266-5.2c4.629-4.574 5.609-5.117 8.105-4.492 3.465.863 8.914 4.895 10.422 7.707.969 1.813.492 2.707-3.738 7.02-4.086 4.164-4.594 5.082-3.243 5.851.887.5 5.899 4.075 11.145 7.942 5.246 3.867 10.035 7.031 10.645 7.031.609 0 1.105.36 1.105.8 0 .438 5.262 5.278 11.691 10.75 35.102 29.872 56.582 56.13 73.188 89.466 16.656 33.43 24.02 65.828 22.844 100.468-.563 16.473-2.309 28.09-5.703 37.957l-1.938 5.637 2.707-1.941c1.492-1.067 5.91-5.246 9.82-9.29zm-18.968-4.79c.87-7.488.812-7.968-1.063-8.46-1.098-.285-2.117-.391-2.27-.239-.558.559-1.917 15.696-1.453 16.164.262.262 1.239.477 2.168.477 1.372 0 1.868-1.516 2.618-7.941zm55.816 4.692c.746-1.79 1.691-7.516 2.098-12.73l.738-9.48-3.395 2.554c-1.87 1.406-6.914 5.183-11.214 8.402-7.02 5.25-7.75 6.106-7.168 8.418 1.246 4.973 2.761 5.707 12.285 5.95 5.086.132 5.355.003 6.656-3.114zm-577.445-3.77c1.191-2.23.57-3.98-1.41-3.98-1.848 0-3.872 4.715-2.301 5.355 2.12.864 2.61.68 3.71-1.375zm6.988-1.039c0-.52-.45-.941-1-.941s-1 .703-1 1.559c0 .859.45 1.28 1 .941.55-.34 1-1.043 1-1.559zm554.29-7.129c15.608-11.75 26.91-21.847 26.284-23.484-.285-.742 1.848-2.828 5.117-4.996 17.649-11.719 23.547-43.035 15.883-84.332-10.148-54.668-39.031-110.176-74.383-142.953-38.472-35.676-83.066-60.692-121.5-68.16-15.863-3.082-34.367-2.621-44.148 1.097-2.89 1.098-44.902 33.989-44.25 34.641.21.21 2.766-.066 5.684-.621 7.804-1.48 26.515-1.223 36.402.504 36.004 6.277 81.394 32.273 122.336 70.062 41.21 38.04 68.305 95.809 74.344 158.52 2.3 23.86-2.735 50.68-12.133 64.66-1.574 2.336-2.63 4.25-2.352 4.25s6-4.137 12.715-9.188zM742.64 336.024c-6.011-1.91-8.015-5.613-5.21-9.62.933-1.329 1.37-4.231 1.25-8.31-.157-5.491.11-6.495 2.18-8.175 2.952-2.398 9.808-2.54 13.05-.27 2.168 1.52 2.305 2.137 1.77 7.887-.504 5.371-.313 6.488 1.367 8.008 2.719 2.46 2.535 7.031-.363 8.93-2.93 1.918-10.313 2.734-14.043 1.55zm11.61-4.195c1.836-.941 2.438-3.828.8-3.828-.523 0-1.394.79-1.937 1.75-.73 1.29-1.285 1.457-2.117.633-.836-.828-.758-2.531.305-6.61l1.437-5.492-5.37.078c-5.958.086-6.13.364-4.282 7.012.781 2.817.77 4.176-.047 4.992-.828.828-1.36.739-2.027-.343-.496-.805-1.13-1.239-1.403-.961-1.093 1.093 1.317 3.183 4.512 3.914 3.508.804 7.125.394 10.129-1.145zM751 313.95c0-1.25-3.762-2.16-6-1.449-2.672.848-2.54 2.277.25 2.71 2.84.446 5.75-.194 5.75-1.26zM295.637 620.535l8.136-2.148-2.851-3.828c-1.57-2.102-3.067-4.036-3.324-4.297-.532-.528-12.977 8.68-19.098 14.125l-4 3.558 6.5-2.629c3.574-1.445 10.16-3.597 14.637-4.78zm26.234 3.848c1.012-2.223.922-2.82-.59-3.969-2.465-1.871-2.797-1.773-4.148 1.2-.903 1.972-.91 2.948-.04 4 1.75 2.109 3.458 1.667 4.778-1.231zm537.629-9.117c.363-3.723.879-7.555 1.148-8.516.61-2.191-.086-2.195-3.746-.035-2.605 1.543-2.902 2.242-2.902 6.875 0 2.84-.29 6.613-.645 8.387l-.644 3.226 3.062-1.586c2.832-1.465 3.114-2.097 3.727-8.351zm-521.535 5.8c1.234-2.304 1.37-6.066.219-6.066-.707 0-4.184 6.258-4.184 7.535 0 1.336 3.074.195 3.965-1.469zm1328.039-4.578c1.379-4.926.906-13.98-.82-15.703-.797-.8-1.52-.75-2.641.18-1.961 1.625-1.98 3.035-.043 3.035 1.2 0 1.5 1.5 1.5 7.5 0 6.875-.168 7.5-2.035 7.5-1.746 0-1.88.293-.93 2.066 1.52 2.84 3.367 1.137 4.969-4.578zm-1350.043.153c-.024-.63-2.027-3.301-4.457-5.938l-4.418-4.8-3.113 1.613c-3.575 1.847-3.575 1.84 3.968 9.777l4.559 4.793 1.75-2.152c.96-1.188 1.73-2.668 1.71-3.293zm15.445.226c.867-5.43.094-5.996-1.847-1.351-1.914 4.578-1.946 5.484-.188 5.484.836 0 1.633-1.617 2.035-4.133zm975.106-57.476c41.246-33.336 75.777-61.121 76.738-61.743.96-.62 1.75-1.605 1.75-2.187 0-.582-24.188-11.504-53.75-24.27-52.48-22.66-53.91-23.207-60.46-23.199l-6.712.008-1.035-3.836c-.715-2.66-1.879-4.226-3.79-5.105-1.515-.7-27.573-12.247-57.91-25.664-52.175-23.075-55.488-24.395-61.198-24.395h-6.036l-71.804 59.617c-39.493 32.79-73.047 60.813-74.563 62.278l-2.754 2.656 58.371 24.758c54.633 23.171 58.649 24.714 62.641 24.074 3.68-.586 14.637-8.649 79.566-58.531 41.414-31.82 75.813-57.852 76.438-57.852.629 0 .996.648.82 1.441-.18.797-34.074 27.364-75.324 59.043-41.863 32.149-75.129 58.38-75.293 59.368-.242 1.437 10.266 6.675 56 27.918 39.043 18.136 57.371 26.164 59.805 26.191 3.18.035 10.71-5.777 78.5-60.57zm377.383 56.66l10.398-2.625-11.719-5.309c-6.445-2.918-11.851-5.152-12.012-4.96-.16.187-.539 4.073-.835 8.632-.536 8.145-.504 8.274 1.617 7.586 1.183-.387 6.836-1.883 12.55-3.324zM326.52 613.957c1.664-3.691 1.683-4.18.238-5.629-1.45-1.445-1.774-1.219-3.73 2.621-1.688 3.301-1.891 4.508-.966 5.63 1.801 2.167 2.477 1.769 4.458-2.622zm34.433 2.094c1.246-.79 1.047-2.336-1.363-10.684l-2.82-9.762 2.226-1.804c2.219-1.797 2.215-1.801-2.387-1.801-2.535 0-4.605.336-4.597.75.004.414 1.527 5.79 3.386 11.945 1.856 6.16 3.125 11.446 2.82 11.75-.898.903 1.157.602 2.735-.394zm-7.043-4.953c-.676-2.254-1.492-4.082-1.82-4.067-.324.02-1.32 1.598-2.215 3.504l-1.625 3.473 3.125.844c1.719.464 3.27.734 3.445.593.176-.136-.234-2.093-.91-4.347zM851 608c0-7.867-.043-8-2.5-8-2.441 0-2.5.172-2.5 7.43 0 6.91.156 7.46 2.25 7.863 1.238.238 2.363.496 2.5.57.137.074.25-3.465.25-7.863zm805.172 4l.383-4h-7.387c-6.656 0-7.305.172-6.613 1.75.425.96.812 2.762.86 4 .077 2.078.55 2.25 6.23 2.25h6.144l.383-4zm3.433-.73c-.332-.332-.57.257-.527 1.312.047 1.168.285 1.402.606.606.289-.723.254-1.586-.079-1.918zm-1338.757-2.891c2.164-4.457 2.18-4.695.457-6.75-.98-1.172-1.88-2.297-2-2.5-.118-.203-2.27.832-4.782 2.305l-4.566 2.675 3.64 4.446c2.005 2.445 3.95 4.445 4.325 4.445s1.691-2.078 2.926-4.621zm49.093.258c-.03-.625-.824-4.614-1.761-8.864l-1.707-7.726-2.918 2.328-2.918 2.324 4.61 16.188 2.374-1.559c1.309-.855 2.352-2.07 2.32-2.691zm-31.511-.387c-.852-4.8-4.336-15.488-5.418-16.61-.785-.812-11.008 4.227-11.012 5.43-.004 2.309 13.684 14.93 16.195 14.93.493 0 .598-1.688.235-3.75zm6.57-1.324c0-10.2-6.824-25.805-16.227-37.102-5.23-6.289-8.582-8.496-11.3-7.453-1.332.512-.418 1.973 4.687 7.516 10.055 10.91 16.75 23.605 19.094 36.21 1.414 7.606 3.746 8.122 3.746.829zm-47.18-4.895c-1.172-1.914-1.05-2.383 1.047-4.101 2.149-1.762 2.254-2.223 1.133-4.926-1.05-2.54-1.625-2.89-3.867-2.363-1.45.34-2.934.898-3.301 1.238-.367.34.648 3.504 2.258 7.027 1.613 3.524 3.18 6.157 3.488 5.848.309-.309-.035-1.531-.758-2.723zm50.79-2.699c-.368-3.121-1.766-8.406-3.114-11.75l-2.445-6.082 6.64 7.875 6.903-4.34c8.02-5.039 8.37-5.45 8.39-9.824.032-6.852-6.968-15.73-14.312-18.152-3.317-1.098-3.879-.914-10.836 3.527-4.035 2.574-7.488 5.074-7.672 5.555-.184.48-.809.578-1.387.222-.578-.36.828 1.727 3.125 4.633 5.442 6.883 11.637 19.879 13.23 27.754.7 3.438 1.466 6.25 1.704 6.25.242 0 .14-2.55-.227-5.668zm-31.368-3.453c7.293-4.469 13.457-8.305 13.7-8.524.242-.222-.208-1.035-1-1.808-1.243-1.215-3.274-.328-14.782 6.445-7.336 4.32-13.59 8.102-13.894 8.406-.508.508 1.507 3.602 2.347 3.602.203 0 6.336-3.656 13.63-8.121zm542.153 6.351c1.789-.507 1.859-1.394 1.289-15.636-.332-8.301-.965-16.336-1.403-17.852l-.797-2.758-7.687 5.227.66 5.644c1.082 9.22 1.125 9.29 4.523 7.34 1.59-.91 3.258-1.289 3.704-.84.746.747-2.082 3.649-5.305 5.454-.973.543-1.149 2.558-.692 8.007.516 6.157.86 7.18 2.211 6.621.883-.367 2.454-.906 3.497-1.207zm-8.918-6.48c-.391-1.047-.868-5.89-1.375-13.863-.075-1.176-.797-1.477-2.668-1.117-2.387.453-2.524.773-1.957 4.609.336 2.266.851 5.808 1.152 7.871.457 3.129.941 3.75 2.926 3.75 1.484 0 2.207-.469 1.922-1.25zm-540.715-4.352c5.73-3.355 4.449-5.007-2.489-3.203-4.605 1.196-4.949 1.492-4.18 3.555 1.055 2.824 1.274 2.813 6.669-.352zm55.238-3.84c0-2.53-1.969-2.773-5.281-.652l-3.219 2.059 4.25.02c3.043.011 4.25-.395 4.25-1.426zm-68.742-.105c1.219-.465 1.23-1.293.082-5.719-.735-2.843-1.34-6.097-1.34-7.234 0-1.39-1.016-2.445-3.125-3.242l-3.129-1.18.453 7.77c.246 4.277.778 8.308 1.184 8.96.777 1.258 3.5 1.56 5.875.645zm25.844-3.203c2.691-1.512 4.898-2.98 4.898-3.266 0-1.129-9.98-12.761-11.43-13.32-2.523-.965-2.945 3.555-1.105 11.82.918 4.133 1.91 7.516 2.207 7.516.293 0 2.738-1.238 5.43-2.75zm-15.153.668c4.785-1.027 5.016-1.223 4.422-3.75-.348-1.469-.91-2.95-1.25-3.297-1.008-1.016-11.207-4.121-11.75-3.574-.742.738 2.117 11.703 3.047 11.703.266 0 2.754-.488 5.531-1.082zm630.918-6.262c.613-.738.84-1.617.5-1.957-.34-.336.586-2.043 2.055-3.789 9.23-10.969 13.773-34.726 11.582-60.558-4.664-54.997-30.242-110.793-68.719-149.91-24.293-24.692-58.738-49.77-86.12-62.692-13.212-6.23-31.169-12.227-42.665-14.242-19.695-3.45-43.27-1.317-50.5 4.57l-2.5 2.04 3.5-.735c1.926-.403 8.898-.692 15.5-.649 21.89.153 42.984 5.957 70 19.266 35.145 17.309 71.46 45.473 92.934 72.066 36.859 45.657 61.308 113.079 59.261 163.434-.57 14.035-2.078 22.055-5.675 30.188-1.852 4.183-1.418 5.699.847 2.968zm-90.48-6.906c-.762-3.988-1.387-7.586-1.387-8 0-.414-1.125-.75-2.5-.75-2.836 0-2.875.281-1.172 8.46 1.035 4.981 1.645 6.08 3.707 6.653 1.356.38 2.524.73 2.598.785.074.059-.488-3.16-1.246-7.148zM310 572.125c0-1.031.273-3.246.61-4.922.558-2.789.261-3.226-3.462-5.125-5.484-2.8-6.761-2.629-8.05 1.07-1.926 5.524-1.477 6.457 4.152 8.614 6.73 2.582 6.75 2.582 6.75.363zm644.035-6.863c3.867-3.157 6.563-5.895 5.996-6.086-1.605-.535-1.234-2.04 1.356-5.492 6.625-8.84 11.254-24.946 10.187-35.465-.39-3.864-.176-7.817.563-10.274 2.703-9.027-2.903-43.476-11.067-67.984-14.886-44.695-37.558-79.07-72.539-109.977-38.484-34-77.699-55.703-113.066-62.582-16.465-3.203-40.098-1.949-45.485 2.41-1.972 1.602-1.43 1.668 10.508 1.333 39.797-1.118 84.235 18.585 131.91 58.484 31.22 26.125 52.196 52.648 68.704 86.871 15.289 31.691 22.68 60.98 23.597 93.5.59 20.867-.785 32.195-5.261 43.375-2.66 6.645-8.614 14.625-10.91 14.625-.723 0-1.575.676-1.891 1.5-.899 2.348-.102 1.89 7.398-4.238zm-657.668-4.047c1.332-2.153-1.379-1.297-3.914 1.238-3.043 3.047-3.094 4.371-.203 5.453 1.984.739 2.316.469 2.809-2.316.304-1.738.894-3.703 1.308-4.375zM854.5 564.75c2.05-1.328 3.477-3.07 3.48-4.25.012-4.82-8.464-35.535-9.789-35.461-.382.02-2.437 1.531-4.57 3.356l-3.879 3.324 2.711 8.14c1.492 4.477 2.942 8.141 3.227 8.141.28 0 1.816-.93 3.41-2.063 2.687-1.914 4.91-1.917 4.91-.011 0 .445-1.754 1.969-3.902 3.39l-3.899 2.582 1.492 6.301c2.461 10.39 1.825 9.781 6.809 6.551zm145.98.625c.895-.895 1.489-2.582 1.325-3.75-.27-1.867-1.121-2.188-7.055-2.625l-6.75-.5v8.5h5.43c3.675 0 5.953-.523 7.05-1.625zm-43.078-16.54c6.625-19.866 6.043-50.878-1.527-81.835-12.145-49.637-38.969-93.984-77.254-127.727-38.668-34.078-76.57-55.492-111.121-62.78-18.383-3.876-41.094-2.872-48.84 2.163-2.113 1.371-3.672 2.668-3.457 2.88.211.21 4.414-.04 9.34-.556 37.32-3.914 84.742 15.16 131.894 53.047 39.625 31.844 64.09 63.985 82.024 107.766 17.055 41.644 21.976 90.781 11.992 119.707-.379 1.102.477.352 1.906-1.664 1.43-2.02 3.7-6.969 5.043-11zm-642.515 11.259c1.12-.715 1.027-1.063-.5-1.848-5.813-2.988-11.797-2.285-6.2.727 3.946 2.12 4.872 2.277 6.7 1.12zm530.082-.344c-.016-.137-1.043-3.852-2.282-8.25-1.875-6.66-2.62-8.055-4.468-8.32-2.676-.383-2.707.328-.352 8.75 1.207 4.316 2.426 6.672 3.715 7.18 2.02.788 3.438 1.058 3.387.64zM983.797 541c10.453-8.523 18.715-15.805 18.355-16.176-.359-.375-4.894-2.511-10.078-4.754-8.656-3.742-9.699-3.972-12.785-2.86-2.016.731-3.516 2.032-3.75 3.255-.215 1.117-.879 5.3-1.476 9.289-1.31 8.762-5.165 19.383-8.743 24.07-1.445 1.895-2.156 3.274-1.582 3.059.574-.211 9.602-7.36 20.059-15.883zm-145.227-2.781c-2.945-9.27-5.332-13.742-7.515-14.059-1.914-.273-2.207-.004-1.63 1.5.388 1.012 1.688 4.653 2.888 8.09 1.828 5.246 2.554 6.25 4.5 6.25 1.769 0 2.187-.422 1.757-1.781zm4.867-13.664l3.942-3.371-2.832-6.844c-1.555-3.762-5.54-12.102-8.856-18.531l-6.023-11.696-4.336 3.114c-2.383 1.71-4.332 3.375-4.328 3.691 0 .32 1.937 4.297 4.305 8.832l4.3 8.254L833 505.5c6.434-4.746 8.352-2.531 2.098 2.422l-3.903 3.09 3.621 8.496c1.993 4.672 3.86 8.476 4.153 8.453.293-.02 2.304-1.555 4.468-3.406zM831 519.87c0-.625-1.656-4.672-3.684-9-2.703-5.773-4.191-7.871-5.582-7.871-1.047 0-1.75.36-1.566.797 6.07 14.484 7.496 17.18 9.082 17.191.96.004 1.75-.496 1.75-1.117zm147.926-6.281c.8-.965.84-1.617.12-2.059-.573-.36-1.046-1.277-1.046-2.05 0-.77 33.969-28.211 75.484-60.985 41.516-32.77 76.637-61.098 78.047-62.95 2.59-3.39 4.504-10.546 2.82-10.546-.496 0-2.019.773-3.378 1.719-3.72 2.582-144.883 119.965-149.309 124.152-3.934 3.723-7.664 9.852-7.664 12.59 0 1.93 3.36 2.016 4.926.129zm21.324-17.531c8.113-6.739 14.75-12.442 14.75-12.672 0-.957-32.43 25.406-32.84 26.699-.355 1.105-.039 1.066 1.445-.18 1.043-.875 8.532-7.105 16.645-13.847zm-179.324 2.586c-.137-2.114-8.5-15.145-9.719-15.145-2.117 0-1.8 1.05 2.773 9.242 2.766 4.95 4.965 7.832 5.75 7.531.7-.27 1.239-1 1.196-1.628zm194.625-39.575c-3.399-41.879-21.785-88.98-48.824-125.07-26.938-35.953-81.598-76.684-122.723-91.445-26.672-9.575-53.836-11.797-69.817-5.715-3.496 1.328-25.5 17.363-34.386 25.055-.387.332 6.14.64 14.5.687 16.894.09 27.672 1.93 44.035 7.516 41.7 14.242 93.762 52.347 124.871 91.402 27.914 35.043 47.414 82.96 51.871 127.465l1.184 11.816 39.976-33.226-.687-8.485zM972 424.086c0-1.395 22.258-21.047 23.188-20.473 1.878 1.164.101 3.367-9.801 12.137-9.508 8.418-13.387 10.832-13.387 8.336zm-38-64.453c0-1.574 20.344-19.961 22.652-20.473 3.285-.734.45 2.774-9.812 12.125-10.461 9.535-12.84 11.082-12.84 8.348zm-65.91-62.301c.094-1.89 19.879-20.332 21.82-20.332 2.942 0 .153 3.566-9.476 12.117-5.809 5.16-10.985 9.531-11.5 9.715-.512.184-.895-.492-.844-1.5zm-50.285-25.668c-2.582-.73-5.395-1.906-6.25-2.617-1.98-1.645-2.012-6.422-.055-8.047 1.047-.871 1.5-3.18 1.5-7.672 0-11.316 2.742-13.91 14.508-13.742 10.394.148 12.492 2.582 12.492 14.48 0 3.868.434 6.934.98 6.934 1.645 0 2.352 4.895.954 6.578-3.707 4.469-15.621 6.488-24.13 4.086zm16.742-8.117c2.105-2.11 2.453-3.383 2.453-9.027v-6.57l-2.95 1.523c-3.362 1.738-13.222 2.039-16.116.492-1.817-.973-1.934-.653-1.934 5.308 0 9.055 1.477 10.508 10.797 10.649 4.348.062 5.73-.36 7.75-2.375zm-1.828-16.934c2.004-2.004-8.832-3.66-13.137-2.008-2.09.805-2.012 2.125.168 2.758 2.402.7 12.082.14 12.969-.75zm-35.594 7.512c.418-1.254 1.875-1.547 1.875-.375 0 .414-.508.918-1.125 1.125-.617.207-.957-.133-.75-.75zm30.621 227.352c.32-.176-9.562-14.614-11.105-16.215-.942-.985-1.97-.688-4.918 1.406-2.047 1.46-3.723 3.016-3.723 3.457 0 .441 2.492 4.668 5.54 9.395l5.538 8.585 4.211-3.246c2.316-1.785 4.32-3.304 4.457-3.382zM1018.5 481c.996-1.102 1.586-2 1.309-2-.274 0-1.313.898-2.309 2-.996 1.102-1.586 2-1.309 2 .274 0 1.313-.898 2.309-2zm-213.18-7.86c-9.687-13.695-11.054-15.269-11.738-13.495-.348.906-.059 2.437.645 3.398.699.965 3.878 5.379 7.058 9.809 3.957 5.507 6.254 7.878 7.262 7.492 1.137-.438.41-2.067-3.227-7.203zm4.93-9.515c1.512-1.102 2.75-2.344 2.75-2.762 0-.414-3.2-4.597-7.11-9.289-7.605-9.125-7.347-9.031-12.886-4.664l-2.496 1.969 2.586 2.808c1.422 1.547 4.715 5.633 7.316 9.079 2.93 3.879 5.18 6 5.91 5.562.649-.383 2.418-1.601 3.93-2.703zm216.117-11.426c-2.613-31.898-14.39-69.887-30.597-98.699-18.375-32.668-40.172-56.336-77.454-84.098-30.136-22.441-64.359-38.39-92.195-42.96-17.344-2.848-41.195-.669-46.121 4.218-1.328 1.317-1.043 1.39 2.5.664 7.563-1.558 28.344-.73 39.25 1.563 37.375 7.847 77.469 30.773 119.207 68.16 41.469 37.144 70.95 95.535 77.164 152.836l1.195 11.035 3.801-3.012 3.797-3.008-.547-6.699zm-235.652 1.836c-.645-.844-3.836-4.598-7.098-8.344-5.379-6.18-6.074-6.664-7.492-5.246-1.422 1.422-.832 2.305 6.36 9.54 5.253 5.28 8.171 7.57 8.663 6.777.407-.657.211-1.883-.433-2.727zm247.957-16.02c-1.07-18.644-7.727-44.945-17.344-68.5-16.008-39.226-38.387-69.023-73.328-97.64-37.082-30.375-71.27-48.457-105-55.54-11.613-2.44-33.035-2.42-41.93.036-6.761 1.867-16.62 6.41-15.77 7.266.278.273 3.106.02 6.286-.567 14.18-2.62 35.559-.855 53.926 4.457 33.804 9.774 77.101 36.977 111.351 69.965 32.86 31.64 57.184 75.492 67.57 121.809 2.301 10.25 3.286 16.406 5.188 32.465l.508 4.265 4.57-3.75 4.574-3.746-.601-10.52zm-246.043 5.32l3.492-2.667-7.308-7.406c-4.024-4.078-8.985-8.754-11.028-10.39l-3.715-2.985-2.976 2.203-2.977 2.2 10.192 10.835c5.605 5.96 10.332 10.848 10.507 10.856.176.011 1.891-1.18 3.813-2.645zm254.07-1.058l3.57-2.718-.613-8.532c-2.914-40.511-21.273-88.03-47.867-123.882-22.676-30.567-69.61-68.125-106.871-85.52-32.95-15.383-65.836-19.941-88.078-12.203-9.75 3.39-10.438 4.582-1.645 2.851 10.305-2.03 30.114-1.09 43.813 2.082 35.773 8.278 77.082 32.5 116.887 68.543 30.718 27.813 56.683 71.168 68.546 114.457 3.957 14.446 7.559 34.575 7.559 42.27 0 2.957.254 5.375.566 5.375.313 0 2.172-1.223 4.133-2.723zm-272.84-4.609c.864-1.04-.949-3.348-8.242-10.5-5.14-5.043-9.789-9.168-10.328-9.168-.539 0-1.684.79-2.543 1.75-1.453 1.625-.84 2.367 8.594 10.422 5.59 4.765 10.441 8.703 10.789 8.75.344.043 1.125-.52 1.73-1.254zm289.122-13.074c-.028-6.399-2.758-24.09-5.434-35.18-9.348-38.793-26.758-74.168-50.492-102.605-20.637-24.723-59.145-55.13-90.14-71.176-26.08-13.504-46.145-19.508-67.915-20.324-15.273-.575-23.988.777-33.996 5.27-7.113 3.194-10.11 5.89-4.84 4.362 7.547-2.187 21.566-3.035 32.246-1.949 36.192 3.68 75.606 22.809 117.516 57.035 31.265 25.532 51.094 49.922 67.492 83.012 13.922 28.094 23.238 59.621 25.215 85.34l.652 8.5 4.86-4.098c4.359-3.676 4.855-4.511 4.836-8.187zm12.503-13.492c-4.425-45.508-23.73-92.965-52.511-129.102-14.766-18.535-42.793-43.168-68.66-60.34-48.38-32.117-96.036-43.312-126.481-29.715-4.187 1.875-4.215 1.914-.832 1.246 7.29-1.441 34.18-.707 42.816 1.164 35.895 7.782 76.23 30.817 116.512 66.54 25.031 22.199 45.102 50.046 59.235 82.19 9.945 22.634 18.265 53.665 20.007 74.65l.684 8.238 9.875-8.266-.645-6.605zm-306.433 8.511l2.836-2.39-7.696-6.36c-4.23-3.5-8.367-6.886-9.191-7.523-1.188-.918-2.086-.692-4.3 1.078l-2.805 2.242 8.703 7.668c4.785 4.219 8.906 7.672 9.16 7.672.25 0 1.73-1.074 3.293-2.387zm-18.48-2.691c1.84-2.035 1.835-2.11-.22-3.75-9.566-7.64-14.324-11.168-15.027-11.14-.453.015-1.566 1.054-2.476 2.308-1.63 2.246-1.543 2.355 6.5 8.387 4.484 3.359 8.422 6.144 8.746 6.191.328.043 1.441-.852 2.476-1.996zm338.695-10.043c2.03-1.613 2.035-1.711.351-15.172-4.476-35.8-19.43-76.203-38.937-105.207-21.176-31.484-54.645-62.105-93.09-85.168-10.684-6.406-12.23-7.062-13.649-5.777-2.324 2.101-5.093 1.789-10.91-1.227l-5.152-2.676-3.567 3.567-3.566 3.57 11.23 5.746c21.301 10.89 51.524 32.88 72.829 52.977 39.078 36.867 66.465 92.058 73.168 147.46.566 4.66 1.027 8.864 1.027 9.337 0 .472 1.852-.641 4.11-2.473a872.785 872.785 0 016.156-4.957zm-515.473-11.004c.316-.684-6.367-4.875-7.777-4.875-1.07 0-4.602 9.238-5.578 14.582l-.711 3.918 6.886-6.5c3.79-3.574 7.02-6.781 7.18-7.125zm155.922 1.73c-1.461-1.16-5.36-3.789-8.664-5.847l-6.008-3.738-1.656 3.195c-.907 1.758-1.254 3.34-.77 3.512.485.171 4.258 2.472 8.38 5.113l7.495 4.805 1.942-2.47 1.941-2.464-2.66-2.106zm18.426 4.391l2.359-2.004-3-2.515c-1.648-1.383-5.332-4.137-8.18-6.114l-5.18-3.597-3.066 2.183-3.07 2.184 7.75 5.86c4.258 3.222 8.258 5.89 8.887 5.933.625.039 2.199-.828 3.5-1.93zm351.644-4c4.797-4.457 4.649-2.875 2.07-21.996-4.91-36.426-23.52-81.207-46.421-111.7-23.024-30.655-64.082-64.054-102.368-83.265l-9.699-4.867-2.691 3.371-2.688 3.371 4.504 2.64c2.48 1.45 4.531 3.384 4.559 4.294.031 1.027 4.265 4.12 11.172 8.156 27.453 16.047 58.449 41.352 76.957 62.824 32.011 37.145 52.734 85.262 58.324 135.426.351 3.164.945 5.746 1.316 5.738.375-.008 2.61-1.804 4.965-3.992zm-519.36-7.918l2.798-2.918-3.278-4.082c-1.804-2.242-3.523-4.078-3.82-4.078-.836 0-8.125 7.309-8.125 8.145 0 .718 7.922 5.828 9.063 5.847.308.004 1.824-1.305 3.363-2.914zm130.223-.664c2-3.055 2.391-2.687-9.097-8.57l-7.953-4.067-1.832 2.262c-1.008 1.246-1.703 2.637-1.547 3.094.273.805 16.554 9.664 18.008 9.8.398.036 1.488-1.097 2.421-2.519zm403.274-7.914c.148-11.223-5.383-37.82-11.75-56.5-15.274-44.809-39.059-79.531-75.172-109.75-39.05-32.676-73.426-51.375-108.305-58.91-11.34-2.453-33.73-2.434-42.648.035-3.547.98-8.047 2.652-10 3.71l-3.547 1.927 4-.758c2.2-.414 11.426-.75 20.5-.742 12.816.008 18.285.441 24.5 1.937 4.398 1.055 9.977 1.817 12.395 1.688 3.503-.188 4.921.265 7 2.242 1.433 1.363 5.054 3.437 8.046 4.61 19.028 7.46 50.153 26.445 71.559 43.652 13.855 11.136 33.777 30.425 42.203 40.859 19.906 24.648 36.414 56.86 45.7 89.184 3.003 10.46 6.46 28.511 8.156 42.605l.574 4.79 3.363-2.79c2.969-2.465 3.367-3.371 3.426-7.789zM728.5 387.531c2.031-1.664 2.492-2.472 1.426-2.496-.867-.02-2.633 1.09-3.926 2.465-3.016 3.21-1.402 3.23 2.5.031zm-2.5-5.125c0-.117-2.063-1.426-4.586-2.902l-4.586-2.692-2.414 2.27c-3.172 2.98-3.066 3.516 1.102 5.492 1.933.918 3.785 2.102 4.109 2.63.453.73 6.375-3.724 6.375-4.798zm-136.078-7.847c-1.328-2.508-2.684-4.559-3.004-4.559-.32 0-2.348 1.54-4.5 3.418l-3.918 3.414 3.965 4.098 3.969 4.097 5.906-5.906-2.418-4.562zM688.5 378c.852-1.648 1.426-3 1.277-3-.152 0-4.656-1.566-10.004-3.477l-9.726-3.476-.844 3.226-.84 3.227 8.567 3.16c4.715 1.735 8.894 3.2 9.293 3.25.398.047 1.425-1.262 2.277-2.91zm24.113-3.719c-.347-.351-1.98.656-3.625 2.23-2 1.915-2.61 3.106-1.843 3.579 1.273.785 6.503-4.774 5.468-5.809zM737 370.848c0-.403-1.91-1.871-4.242-3.266l-4.242-2.527-4.743 4.668-4.738 4.668 4.73 2.765 4.735 2.766 4.25-4.168c2.336-2.293 4.25-4.5 4.25-4.906zm-31.133 3.793l2.215-2.356-2.289-1.437c-1.262-.79-5.582-2.926-9.606-4.746l-7.308-3.317-4.387 2.328c-5.168 2.742-7.234 1.703-3.133-1.578 3.309-2.644 3.297-2.656-5.644-5.406l-6.79-2.086-9.288 5.781 4.43 1.121c6.855 1.735 23.773 7.868 30.433 11.032 7.45 3.543 8.602 3.609 11.367.664zM604 368.87l7.5-7.035-4 .652c-5.473.895-17.5 4.438-17.5 5.157 0 1.488 4.488 8.351 5.434 8.308.586-.027 4.441-3.215 8.566-7.082zm8.984.672c-.047-3.328-1.746-3.383-4.875-.156l-3.273 3.379 4.082-1.09c2.246-.598 4.074-1.559 4.066-2.133zm53.067.816c.554-1.449.879-2.757.726-2.91-.152-.148-3.156-1.015-6.675-1.926-6.903-1.785-8.055-1.351-8.086 3.059-.012 1.676.91 2.285 4.734 3.113 7.5 1.625 8.215 1.524 9.3-1.336zM626.082 369H633v-8h-7.879c-9.043 0-10.71 1.043-9.613 6.031.48 2.2 1.117 2.942 2.168 2.54.82-.313 4.601-.571 8.406-.571zm23.063-2.45c.433-1.62.675-3.062.539-3.198-.137-.141-3.274-.563-6.97-.942l-6.714-.687v3.586c0 3.554.04 3.586 4.75 3.964 7.168.579 7.543.457 8.395-2.722zm10.335-8.437c5.047-3.199 4.743-3.617-3.382-4.695-4.371-.578-5.328-.344-8.54 2.105-1.988 1.516-3.378 2.989-3.097 3.274.476.476 6.441 1.82 9.254 2.09.668.062 3.265-1.188 5.765-2.774zm-47.824.453c3.188-.402 8.801-3.441 7.942-4.304-.516-.512-9.383 2.27-14.098 4.43l-3 1.37 3-.55c1.648-.305 4.422-.73 6.156-.946zm28.117-1.316c.973-.96 2.887-2.516 4.25-3.45 2.477-1.695 2.477-1.695-2.78-1.75-4.286-.042-6.013.497-9.321 2.891l-4.063 2.942 4.82.379c2.653.207 4.934.457 5.071.558.137.098 1.047-.61 2.023-1.57zM624 357.098c0-.496 1.46-1.836 3.25-2.985 1.79-1.144 2.793-2.086 2.23-2.097-1.117-.016-8.48 4.773-8.48 5.52 0 .257.676.464 1.5.464s1.5-.406 1.5-.902zm27.477-29.594c10.64-8.52 21.168-17.781 23.394-20.578 3.32-4.172 20.387-18.738 32.035-27.344 1.426-1.055 4.168-3.379 6.094-5.164 1.926-1.79 7.324-5.066 12-7.285 7.027-3.336 10.594-5.992 20.586-15.336 6.648-6.211 16.637-14.899 22.195-19.297 5.559-4.398 10.133-8.336 10.164-8.742.032-.41-5.683-3.617-12.695-7.13-12.367-6.194-25.316-10.976-33.105-12.222-3.778-.601-4.16-.32-73.223 54.516-38.18 30.316-70.188 56.441-71.125 58.055l-1.707 2.933 4.32 3.793c5.934 5.215 34.938 19.223 39.906 19.277 1 .012 10.524-6.953 21.16-15.476zm1.449-67.934l71.629-56.925-46.028-23.13C631.941 156.11 622.402 152 614.68 152c-4.149 0-6.348 1.648-72.73 54.563-37.645 30.007-69.04 55.136-69.759 55.843-.841.824-1.062 2.266-.617 4.035.617 2.461 4.676 4.735 38.309 21.438 44.36 22.031 61.883 29.344 69.015 28.805 1.5-.118 29.22-21.5 74.028-57.114zm-117.32-52.07c37.257-29.7 68.539-54.676 69.519-55.5 1.266-1.066 1.605-2.32 1.188-4.352-.536-2.601-2.887-3.984-26.7-15.656C546.266 115.645 498.81 95 494.578 95c-2.308 0-142.027 111.82-142.383 113.957-.367 2.188 4.25 5.078 27.305 17.078 17.398 9.059 82.602 36.059 86.184 35.692 1.199-.125 32.664-24.528 69.921-54.227zm626.316 17.527c-2.473-4.02-3.309-4.675-5.422-4.273-2.766.531-3.297-.848-1.047-2.715 1.242-1.031.992-1.91-1.75-6.105-1.762-2.692-3.55-4.907-3.973-4.915-.425-.011-2.523 1.137-4.664 2.555l-3.886 2.574 7.66 11.786 7.66 11.789 4.172-2.973 4.172-2.977-2.922-4.746zm15.148-13.609c1.778-2.14-.011-4.918-3.164-4.918-2.449 0-3.586 2.281-2.523 5.059.738 1.918 4.047 1.836 5.687-.141zm-33.054-5.047l3.968-2.625-3.02-4.125c-11.07-15.098-27.948-33.726-43.804-48.34-45.75-42.16-92.855-69.082-137.16-78.383-12.965-2.718-35.16-3.168-44.5-.898l-6 1.46 16 .638c16.145.644 24.86 2.043 39.934 6.41 4.535 1.316 9.214 2.137 10.406 1.824 1.582-.414 2.16-.113 2.16 1.117 0 1.207.547 1.512 1.926 1.074 1.156-.367 2.258-.043 2.75.805.453.777 4.199 2.871 8.324 4.652 9.223 3.98 23.863 11.747 34.457 18.274 6.988 4.305 8.094 4.71 9.11 3.324 1.925-2.633 3.667-1.922 2.98 1.215-.567 2.57-.031 3.2 6.668 7.879 30.117 21.035 69.605 59.058 87.293 84.058 1.644 2.325 3.34 4.239 3.762 4.25.425.012 2.558-1.164 4.746-2.609zm-725.754-55.867c74.554-59.484 72.504-57.543 64.867-61.438-7.524-3.84-59.137-27.054-80.164-36.058-18.266-7.82-21.89-9.055-24.91-8.492-2.485.468-24.344 15.68-73.754 51.324-56.504 40.762-70.23 51.097-70.262 52.902-.05 2.903 5.39 6.88 23.461 17.13 37.824 21.452 76.973 38.882 87.73 39.054l4.727.074 68.305-54.496zM922.27 192.5c4.89-4.184 6.253-4.281 12.898-.914 5.078 2.574 5.113 2.574 7.074.617 1.957-1.96 1.942-1.984-3.137-4.836-5.714-3.21-6.253-4.941-2.605-8.367 2.875-2.703 3.258-5 .828-5-3.027 0-5.285 2.96-4.656 6.102.844 4.222-1.887 7.898-5.867 7.898-1.73 0-3.965-.738-4.961-1.645-1.703-1.539-2.09-1.402-6.235 2.25-4.586 4.04-5.5 5.872-3.359 6.73 3.164 1.278 6.227.411 10.02-2.835zm-10.95-4.031l3.825-4.344-3.325-1.684c-1.824-.925-4.058-2.328-4.965-3.12-3.074-2.692-20.457-5.579-33.855-5.622-17.559-.054-24.117 1.774-41.242 11.516-3.781 2.148-4.633 3.86-.942 1.883 1.094-.586 6.196-1.801 11.336-2.7 16.176-2.832 40.633-.144 58.848 6.461 3.023 1.098 5.727 1.985 6 1.973.273-.012 2.219-1.977 4.32-4.363zm300.582-3.719c2.032-5.45-5.91-18.469-10.707-17.55-4.02.765-2.468 10.347 2.563 15.82 4.113 4.472 6.902 5.066 8.144 1.73zm-13.785.25c1.567 0 1.762-.355.996-1.785-.793-1.485-2.11-1.75-7.785-1.567-9.879.317-10.098.364-7.328 1.547 3.46 1.48 9.23 2.645 10.832 2.188.73-.211 2.211-.383 3.285-.383zm-269.566-.945c.527-.528.726-4.414.449-8.743-.414-6.476-.805-7.851-2.297-8.136-3.828-.727-4.996 1.762-4.308 9.176.355 3.793.886 7.293 1.183 7.773.719 1.16 3.777 1.117 4.973-.07zm-9.09-4.418c-.766-4.067-3.254-5.407-6.399-3.446-2.753 1.723-2.609 2.34.907 3.793 1.629.68 3.492 1.868 4.14 2.649 1.688 2.035 2.118 1.086 1.352-2.996zM1157.164 182c25.59-2.957 24.961-2.824 23.621-4.969-.965-1.547-2.652-1.824-11.707-1.91-5.816-.059-17.273-.398-25.46-.758-16.544-.726-15.993-1.05-10.118 5.926 1.648 1.961 3.75 3.598 4.664 3.64.914.04 9.465-.831 19-1.929zm69.012-14.906l3.172-4.406-4.422.69c-2.434.38-7.27 1.173-10.742 1.77l-6.317 1.082 1.95 2.133c2.5 2.739 5.171 8.024 5.226 10.336.047 1.969 5.312-3.523 11.133-11.605zm-314.64 6.289c1.366-.895 3.585-1.403 4.964-1.137 2.082.395 2.5.09 2.5-1.824 0-3.05-.355-3.211-12.023-5.473-22.551-4.37-47.48-1.222-58.477 7.39-1.828 1.43-1.54 1.446 3.332.18 12.242-3.175 34.367-2.746 47.668.922 6.746 1.864 9.125 1.852 12.035-.058zm264.73-5.719c-.325-2.863.058-5.387 1.12-7.45 2.036-3.929 2.02-4.214-.226-4.214-2.195 0-4.16 5.602-4.16 11.867 0 3.375.344 4.133 1.879 4.133 1.621 0 1.809-.586 1.387-4.336zM212 155.941c0-.52-.676-.941-1.5-.941-1.207 0-1.5-1.555-1.5-8s.293-8 1.5-8c1.938 0 1.918-1.41-.043-3.035-2.207-1.832-3.578-.063-4.195 5.418-.528 4.68 1.082 13.12 2.925 15.344 1.09 1.308 2.813.828 2.813-.786zm-8.73-9.191c-.297-4.54-.633-8.371-.754-8.516-.118-.144-5.47 2.09-11.895 4.965l-11.68 5.23 11.782 3.2c6.476 1.762 12.074 3.238 12.433 3.285.36.047.41-3.625.114-8.164zm984.136 6.402c1.567-2.539-11.176-10.09-17.097-10.129-4.325-.03-4.754 1.176-1.524 4.266 5.121 4.895 16.922 8.61 18.621 5.863zm-973.718-6.902c-.25-.96-.458-.176-.458 1.75s.208 2.71.458 1.75c.253-.96.253-2.54 0-3.5zm14.855 2.89c-.34-1.074.055-2.39.934-3.12 2.828-2.348 1.55-3.02-5.754-3.02h-7.278l.766 8h5.96c5.356 0 5.903-.188 5.372-1.86zm960.238-23.406l-.281-4.765-8.332 9.136-8.328 9.133 5.62 2.285c3.09 1.258 6.614 2.95 7.83 3.758 2.202 1.473 2.214 1.45 2.991-6.652.43-4.473.657-10.274.5-12.895zm-166.39 9.551c-1.04-.765-10.602-6.64-21.246-13.055l-19.356-11.664.703-11.285c.465-7.426.36-11.281-.308-11.281-.891 0-6.184 19.957-6.184 23.313 0 .703 10.457 7.425 23.234 14.937 19.766 11.625 23.368 13.422 24.141 12.047.648-1.16.371-2.012-.984-3.012zm5.656-5.043c.851-1.508 2.996-5.285 4.765-8.39l3.22-5.653-6.266-3.922c-3.446-2.156-6.934-4.316-7.746-4.8-.817-.485-.48.394.75 1.957 2.992 3.804 3.09 11.265.19 14.379-4.523 4.855-9.96 1.18-9.96-6.731 0-6.453.71-8.055 4.219-9.531l2.922-1.23-6.965-3.66c-3.832-2.013-7.149-3.661-7.371-3.661-.223 0-.22 1.586.011 3.523.774 6.637-3.355 12.391-7.863 10.961-4.86-1.543-6.379-12.144-2.375-16.566.961-1.063 1.55-2.125 1.313-2.36-.696-.699-10.149-4.636-10.403-4.331-.129.148-.543 4.343-.918 9.316l-.687 9.043 19.808 12.121c10.895 6.668 20.262 12.156 20.809 12.2.55.046 1.7-1.153 2.547-2.665zm-7.082-9.176c1.492-2.793 1.273-7.379-.465-9.625-1.484-1.921-1.516-1.921-3 0-2.672 3.457-1.504 11.559 1.664 11.559.422 0 1.23-.871 1.8-1.934zM1003 104.953c0-3.187-1.895-6.953-3.5-6.953-3.355 0-4.2 8.25-1.21 11.848.925 1.117 1.444.965 2.917-.856.988-1.219 1.793-3.035 1.793-4.039zM883.98 60.535c1.07-2 1.082-2.758.047-4-2.57-3.101-7.027-1.144-7.027 3.082 0 3.922 5.02 4.582 6.98.918zM377.613 40.563c.477-1.239-.23-6.2-2.172-15.313-.308-1.445-1.21-2.25-2.527-2.25-1.473 0-1.91.492-1.55 1.75.273.96 1.011 4.45 1.636 7.75 1.55 8.188 1.98 9.5 3.098 9.5.53 0 1.214-.648 1.515-1.438zM365.75 24.37c1.238-.332 2.25-1.18 2.25-1.879 0-.703.71-1.55 1.582-1.887 2.238-.859 8.418-.753 8.414.145 0 .414 3.098.602 6.887.422 6.258-.297 6.844-.504 6.379-2.274-.453-1.742-1.293-1.918-8.114-1.671l-7.601.273-1.024-6.5c-.894-5.68-1.316-6.543-3.347-6.828-2.281-.324-2.317-.195-2 7.5l.324 7.828-7.25.844c-6.168.718-7.25 1.129-7.25 2.75 0 1.578.73 1.902 4.25 1.894 2.336-.008 5.262-.285 6.5-.617z" id="Shape"/></g></g></svg>