<svg xmlns="http://www.w3.org/2000/svg" viewBox="72 525 25 19" width="25pt" height="19pt"><path d="M0 0h24.219v18.563H0zm96.719 528.625c0 .391-.156.781-.438 1.062l-13.438 13.438a1.516 1.516 0 01-1.062.438c-.39 0-.781-.156-1.062-.438l-7.781-7.781a1.516 1.516 0 01-.438-1.062c0-.39.156-.781.438-1.062l2.125-2.125a1.516 1.516 0 011.062-.438c.39 0 .781.156 1.062.438l4.594 4.609 10.25-10.266a1.516 1.516 0 011.062-.438c.39 0 .781.156 1.062.438l2.125 2.125c.281.281.438.672.438 1.062z" fill="#fff"/></svg>