<svg xmlns="http://www.w3.org/2000/svg" viewBox="72 525 29 22" width="29pt" height="22pt"><g fill="none"><path fill="#fff" d="M0 0h28v22H0z"/><path d="M98.5 544.5v-12a8.408 8.408 0 01-1.078 1.031c-2.234 1.719-4.484 3.469-6.656 5.281-1.172.984-2.625 2.188-4.25 2.188h-.031c-1.625 0-3.078-1.203-4.25-2.188-2.172-1.813-4.422-3.563-6.656-5.281a8.411 8.411 0 01-1.078-1.031v12c0 .266.234.5.5.5h23c.266 0 .5-.234.5-.5zm0-16.422c0-.391.094-1.078-.5-1.078H75c-.266 0-.5.234-.5.5 0 1.781.891 3.328 2.297 4.438a980.43 980.43 0 016.266 4.953c.828.672 2.328 2.109 3.422 2.109h.031c1.094 0 2.594-1.437 3.422-2.109a946.207 946.207 0 016.266-4.953c1.016-.797 2.297-2.531 2.297-3.859zm2-.578v17c0 1.375-1.125 2.5-2.5 2.5H75a2.507 2.507 0 01-2.5-2.5v-17c0-1.375 1.125-2.5 2.5-2.5h23c1.375 0 2.5 1.125 2.5 2.5z" fill="#ffc222"/></g></svg>