<svg xmlns="http://www.w3.org/2000/svg" viewBox="71 525 27 22" width="13pt" height="10pt"><path d="M0 0h26v22H0zm83.61 528v11c0 4.406-3.594 8-8 8h-1c-.547 0-1-.453-1-1v-2c0-.547.453-1 1-1h1c2.203 0 4-1.797 4-4v-.5a1.5 1.5 0 00-1.5-1.5h-3.5c-1.656 0-3-1.344-3-3v-6c0-1.656 1.344-3 3-3h6c1.656 0 3 1.344 3 3zm14 0v11c0 4.406-3.594 8-8 8h-1c-.547 0-1-.453-1-1v-2c0-.547.453-1 1-1h1c2.203 0 4-1.797 4-4v-.5a1.5 1.5 0 00-1.5-1.5h-3.5c-1.656 0-3-1.344-3-3v-6c0-1.656 1.344-3 3-3h6c1.656 0 3 1.344 3 3z" fill="#fff"/></svg>