<?xml version="1.0" encoding="UTF-8" standalone="no"?>
<!DOCTYPE svg PUBLIC "-//W3C//DTD SVG 1.1//EN" "http://www.w3.org/Graphics/SVG/1.1/DTD/svg11.dtd">
<svg xmlns="http://www.w3.org/2000/svg" version="1.1" viewBox="779.6 502.6 60.188096 60.188096" width="60.188096pt" height="60.188096pt">
  <defs/>
  <g stroke="none" stroke-opacity="1" stroke-dasharray="none" fill="none" fill-opacity="1">
    <title>Canvas 1</title>
    <!-- <rect fill="white" width="60.188096" height="60.188096"/> -->
    <g>
      <title>Layer 1</title>
      <circle cx="809.6941" cy="532.69406" r="30.094096" fill="#23aae2"/>
      <path d="M 823.5505 538.4304 C 823.6414 538.21015 823.7278 537.98754 823.8084 537.76326 L 823.8141 537.74626 C 823.8927 537.5263 823.9667 537.3047 824.0353 537.08143 C 824.0387 537.07044 824.0413 537.0591 824.0447 537.0478 C 824.111 536.82917 824.1733 536.60955 824.2296 536.38794 C 824.233 536.37495 824.2356 536.3616 824.239 536.3486 C 824.2943 536.12834 824.3456 535.9074 824.3913 535.68446 C 824.3939 535.6711 824.3959 535.65746 824.3986 535.6438 C 824.4436 535.4212 824.4842 535.1976 824.5189 534.9723 C 824.5206 534.96064 824.5216 534.94865 824.5236 534.937 C 824.5582 534.71004 824.5882 534.4821 824.6122 534.25316 L 824.6142 534.2275 C 824.6382 533.9952 824.6575 533.7623 824.6709 533.52834 L 824.6712 533.5137 C 824.7782 531.58084 824.5119 529.60035 823.8264 527.6765 C 823.8057 527.6182 823.7807 527.56053 823.7594 527.5022 C 823.6921 527.3209 823.6251 527.13964 823.5505 526.95935 L 823.5501 526.95835 L 823.5491 526.9557 C 821.1577 521.1805 815.573 517.69406 809.6884 517.69406 C 807.7758 517.69406 805.8326 518.06196 803.9554 518.8394 C 796.3035 522.0086 792.67 530.7814 795.8396 538.43276 C 797.4052 542.21246 800.33855 545.0114 803.8284 546.49436 L 803.8034 546.48436 L 803.8414 546.5 C 803.8577 546.507 803.8744 546.5137 803.8911 546.5207 L 803.957 546.548 L 803.9574 546.54735 C 804.1123 546.6113 804.2683 546.6733 804.4253 546.73263 C 804.4879 546.7563 804.5516 546.77796 804.6149 546.80095 C 804.7582 546.8526 804.9018 546.90226 805.0468 546.9496 C 805.1224 546.9746 805.1984 546.9989 805.2744 547.02256 C 805.4244 547.0689 805.5753 547.11254 805.727 547.1542 C 805.7876 547.17086 805.8479 547.1892 805.9089 547.2052 C 806.1039 547.2562 806.3002 547.3025 806.4971 547.3458 C 806.5894 547.36614 806.6824 547.38413 806.775 547.40246 C 806.89235 547.4258 807.0097 547.4481 807.1273 547.46845 C 807.2309 547.4868 807.3342 547.50444 807.4382 547.52043 C 807.5499 547.5374 807.6618 547.5521 807.7741 547.56675 C 807.9634 547.5914 808.1537 547.6124 808.344 547.62974 C 808.4413 547.6384 808.5383 547.6484 808.6359 547.6554 C 808.7636 547.6647 808.8912 547.6707 809.0192 547.6767 C 809.1002 547.6804 809.1808 547.6837 809.2618 547.68606 C 809.3974 547.69006 809.5334 547.69306 809.6694 547.6934 C 809.6797 547.6934 809.69 547.69406 809.7004 547.69406 C 809.7244 547.69406 809.749 547.6924 809.773 547.6924 C 809.9853 547.6917 810.1979 547.68706 810.4109 547.67706 C 810.4229 547.6764 810.4345 547.6754 810.4462 547.6747 C 812.1165 547.59175 813.8011 547.2295 815.435 546.5527 L 815.4354 546.5527 L 815.4337 546.5487 C 819.2591 544.9641 822.0805 541.9792 823.5491 538.4341 L 823.5495 538.4334 Z M 804.4656 520.0708 L 804.4686 520.0698 L 806.5408 525.0732 L 806.5378 525.0742 C 804.4373 525.9443 802.8863 527.5875 802.0781 529.53836 L 797.0716 527.4639 C 798.4683 524.09275 801.0944 521.4671 804.4656 520.0708 Z M 804.46425 545.32366 C 801.18 543.966 798.4913 541.35134 797.071 537.9229 L 797.071 537.92255 L 802.0745 535.8504 C 802.9316 537.9199 804.5562 539.4955 806.5391 540.31494 Z M 809.697 539.6108 C 809.5844 539.6108 809.47275 539.6038 809.3604 539.59846 C 809.2831 539.59446 809.2058 539.5918 809.1288 539.5851 C 809.0149 539.5758 808.90155 539.56247 808.7886 539.5475 C 808.7069 539.5365 808.6263 539.5235 808.5453 539.5098 C 808.4353 539.49115 808.3257 539.4728 808.217 539.44916 C 808.1261 539.42883 808.0364 539.4035 807.9461 539.37985 C 807.7751 539.33486 807.6065 539.2839 807.4396 539.2262 C 807.3496 539.1949 807.2593 539.16424 807.1706 539.12924 C 805.4823 538.4671 804.0547 537.14775 803.3059 535.3399 C 802.5764 533.5753 802.631 531.68215 803.3092 530.04757 L 803.3065 530.04657 C 803.984 528.412 805.2847 527.03567 807.0483 526.3052 L 807.0513 526.3042 L 807.053 526.3082 C 808.1501 525.8543 809.2965 525.70434 810.3999 525.818 C 810.4115 525.819 810.4232 525.82065 810.4349 525.822 C 811.084 525.8923 811.7179 526.0546 812.3174 526.3002 C 813.962 526.9747 815.3494 528.2757 816.0832 530.0479 C 817.5449 533.5763 815.8693 537.62096 812.3411 539.0826 C 811.4756 539.4408 810.5788 539.6108 809.697 539.6108 Z M 814.9235 545.317 L 812.8513 540.31394 C 814.8865 539.47116 816.4714 537.8862 817.3146 535.8511 L 822.3177 537.9239 C 820.9207 541.295 818.295 543.92035 814.9235 545.317 Z M 817.3156 529.54 L 817.3146 529.5377 C 816.4578 527.4692 814.8348 525.8943 812.8536 525.07484 L 814.9288 520.0661 C 818.2114 521.4241 820.8987 524.03843 822.3181 527.46556 L 822.3191 527.4679 Z" fill="white"/>
    </g>
  </g>
</svg>
