<?xml version="1.0" encoding="UTF-8" standalone="no"?>
<!DOCTYPE svg PUBLIC "-//W3C//DTD SVG 1.1//EN" "http://www.w3.org/Graphics/SVG/1.1/DTD/svg11.dtd">
<svg xmlns="http://www.w3.org/2000/svg" version="1.1" viewBox="894 524 447.99994 464" width="74.6pt" height="77.3pt">
  <defs/>
  <g stroke="none" stroke-opacity="1" stroke-dasharray="none" fill="none" fill-opacity="1">
    <title>Canvas 1</title>
    <!-- <rect fill="white" width="447.99994" height="464"/> -->
    <g>
      <title>Layer 1</title>
      <path d="M 901.9999 932 L 933.9999 932 L 933.9999 964 C 934.0147 977.2487 944.7512 987.9852 957.9999 988 L 1045.9999 988 C 1059.2486 987.9852 1069.9851 977.2487 1070 964 L 1070 944.2812 L 1112.4218 916 L 1134 916 L 1134 932 C 1133.9999 934.1218 1134.8427 936.1566 1136.343 937.6569 C 1137.8433 939.1572 1139.8782 940.0001 1142 940 L 1206 940 C 1208.1217 940.0001 1210.1566 939.1572 1211.6569 937.6569 C 1213.1572 936.1566 1214 934.1218 1214 932 L 1214 916 L 1254 916 L 1254 932 C 1253.9999 934.1218 1254.8427 936.1566 1256.343 937.6569 C 1257.8433 939.1572 1259.8782 940.0001 1262 940 L 1334 940 C 1336.1217 940.0001 1338.1566 939.1572 1339.6569 937.6569 C 1341.1572 936.1566 1342 934.1218 1342 932 L 1342 884 C 1341.9999 881.4285 1340.7637 879.0137 1338.6776 877.5102 C 1336.5915 876.0066 1333.9097 875.5975 1331.4701 876.4106 L 1321.5287 879.7241 C 1315.1467 881.8689 1308.2004 881.6045 1302 878.9807 L 1302 844 L 1310 844 C 1327.673 844 1342 829.6731 1342 812 C 1342 794.3269 1327.673 780 1310 780 L 1278 780 C 1260.3268 780 1246 794.3269 1246 812 C 1246 829.6731 1260.3268 844 1278 844 L 1286 844 L 1286 872.9885 C 1276.6324 871.252 1266.9542 872.6054 1258.4223 876.8447 C 1255.7119 878.1997 1253.9998 880.9698 1254 884 L 1254 900 L 1214 900 L 1214 884 C 1214 881.8782 1213.1572 879.8434 1211.6569 878.3431 C 1210.1566 876.8428 1208.1217 875.9999 1206 876 L 1142 876 C 1139.8782 875.9999 1137.8433 876.8428 1136.343 878.3431 C 1134.8427 879.8434 1133.9999 881.8782 1134 884 L 1134 900 L 1112.4218 900 L 1066.4374 869.3438 C 1063.7505 867.5518 1060.2494 867.5518 1057.5624 869.3438 L 1011.578 900 L 984.2161 900 L 989.4277 886.9712 C 990.4135 884.5065 990.1126 881.7132 988.6244 879.5151 C 987.1362 877.3169 984.6545 876.0001 981.9999 876 L 949.9999 876 L 949.9999 820 C 950.005 815.5838 953.5838 812.0051 957.9999 812 L 1015.0125 812 C 1018.6786 826.1182 1031.4136 835.9815 1045.9999 836 L 1078 836 C 1094.5789 836.0019 1108.4132 823.3397 1109.8752 806.8254 C 1111.3373 790.3111 1099.9427 775.4153 1083.6213 772.5045 L 1092.3998 760.7998 C 1093.4384 759.4151 1093.9999 757.7309 1094 756 L 1094 739.1698 C 1103.4812 736.69465 1110.7258 729.0369 1112.6718 719.4331 L 1116.6088 699.7476 C 1140.4859 697.8875 1162.5909 686.4339 1177.8803 668 L 1198 668 L 1198 684 C 1197.9999 686.12175 1198.8427 688.1566 1200.343 689.6569 C 1201.8433 691.1572 1203.8782 692.0001 1206 692 L 1334 692 C 1336.1217 692.0001 1338.1566 691.1572 1339.6569 689.6569 C 1341.1572 688.1566 1342 686.12175 1342 684 L 1342 548 C 1342 545.87825 1341.1572 543.8434 1339.6569 542.3431 C 1338.1566 540.8428 1336.1217 539.99994 1334 540 L 1206 540 C 1203.8782 539.99994 1201.8433 540.8428 1200.343 542.3431 C 1198.8427 543.8434 1197.9999 545.87825 1198 548 L 1198 564 L 1094 564 C 1094 561.87825 1093.1572 559.8434 1091.6569 558.3431 C 1090.1566 556.8428 1088.1217 555.99994 1086 556 L 1086 532 C 1086 529.87825 1085.1572 527.8434 1083.6569 526.3431 C 1082.1566 524.8428 1080.1217 523.99994 1078 524 L 1045.9999 524 C 1043.8782 523.99994 1041.8433 524.8428 1040.343 526.3431 C 1038.8427 527.8434 1037.9999 529.87825 1037.9999 532 L 1037.9999 556 C 1035.8782 555.99994 1033.8433 556.8428 1032.343 558.3431 C 1030.8427 559.8434 1029.9999 561.87825 1029.9999 564 L 1029.9999 601.1936 L 1009.748 626.5088 C 994.0839 646.08894 994.0839 673.91106 1009.748 693.4912 L 1029.9999 718.8064 L 1029.9999 756 C 1030 757.7309 1030.5614 759.4151 1031.6 760.7998 L 1040.3785 772.5045 C 1028.0665 774.7229 1018.1657 783.8936 1015.0125 796 L 957.9999 796 C 944.7512 796.0148 934.0147 806.7513 933.9999 820 L 933.9999 876 L 917.9999 876 C 914.7288 876.0001 911.7872 877.9916 910.5722 881.0288 L 894.5722 921.0288 C 893.5863 923.4935 893.8873 926.2868 895.3755 928.4849 C 896.8637 930.6831 899.3454 931.9999 901.9999 932 Z M 1262 812 C 1262.01 803.1676 1269.1676 796.0101 1278 796 L 1310 796 C 1318.8365 796 1326 803.1634 1326 812 C 1326 820.8366 1318.8365 828 1310 828 L 1278 828 C 1269.1676 827.9899 1262.01 820.8324 1262 812 Z M 1270 889.4053 C 1276.7832 887.3794 1284.0826 888.0049 1290.4223 891.1553 L 1293.167 892.5278 C 1303.3513 897.6556 1315.1424 898.5774 1326 895.0947 L 1326 924 L 1270 924 Z M 1150 892 L 1198 892 L 1198 924 L 1150 924 Z M 1045.9999 753.3335 L 1045.9999 604 L 1078 604 L 1078 634.91974 L 1076.3925 636.2593 C 1067.2608 643.8496 1061.9851 655.1134 1062 666.9878 L 1062 714.4155 C 1062.0124 724.8393 1068.3389 734.2163 1078 738.1303 L 1078 753.3335 L 1062 774.6665 Z M 1078 572 L 1078 588 L 1045.9999 588 L 1045.9999 572 Z M 1214 556 L 1326 556 L 1326 676 L 1214 676 Z M 1198 580 L 1198 652 L 1174 652 C 1171.4819 652 1169.1107 653.1856 1167.6 655.2002 C 1153.9669 673.2875 1132.6497 683.946 1110 684 C 1106.1865 684.0001 1102.9032 686.6918 1102.1552 690.43115 L 1096.9824 716.2954 C 1096.016 721.1272 1091.5432 724.4389 1086.6397 723.9533 C 1081.7362 723.4677 1077.9999 719.343 1078 714.4155 L 1078 666.9878 C 1077.991 659.8631 1081.1565 653.10485 1086.6357 648.5508 L 1123.1215 618.146 L 1112.8784 605.854 L 1094 621.58624 L 1094 580 Z M 1053.9999 540 L 1070 540 L 1070 556 L 1053.9999 556 Z M 1022.2421 683.4961 C 1011.2525 669.75955 1011.2525 650.24045 1022.2421 636.5039 L 1029.9999 626.8066 L 1029.9999 693.1934 Z M 1045.9999 788 L 1052.0002 788 L 1055.6 792.7998 C 1057.1108 794.8144 1059.4819 796 1062 796 C 1064.518 796 1066.8891 794.8144 1068.3998 792.7998 L 1071.9997 788 L 1078 788 C 1086.8365 788 1094 795.1634 1094 804 C 1094 812.8366 1086.8365 820 1078 820 L 1045.9999 820 C 1037.1634 820 1029.9999 812.8366 1029.9999 804 C 1029.9999 795.1634 1037.1634 788 1045.9999 788 Z M 1062 885.6148 L 1095.5776 908 L 1062 930.3852 L 1028.4223 908 Z M 973.4277 926.9712 L 977.8162 916 L 1011.578 916 L 1053.9999 944.2812 L 1053.9999 964 C 1053.9949 968.4162 1050.4161 971.995 1045.9999 972 L 957.9999 972 C 953.5838 971.995 950.005 968.4162 949.9999 964 L 949.9999 932 L 965.9999 932 C 969.2711 931.9999 972.2127 930.0084 973.4277 926.9712 Z M 923.4164 892 L 970.1835 892 L 960.5834 916 L 913.8163 916 Z" fill="#434343"/>
    </g>
  </g>
</svg>
