<?xml version="1.0" encoding="UTF-8" standalone="no"?>
<!DOCTYPE svg PUBLIC "-//W3C//DTD SVG 1.1//EN" "http://www.w3.org/Graphics/SVG/1.1/DTD/svg11.dtd">
<svg xmlns="http://www.w3.org/2000/svg" version="1.1" viewBox="958.713 401 474.574 480" width="118.624pt" height="10pc">
  <defs/>
  <g stroke="none" stroke-opacity="1" stroke-dasharray="none" fill="none" fill-opacity="1">
    <title>Canvas 1</title>
    <!-- <rect fill="white" width="474.574" height="480"/> -->
    <g>
      <title>Layer 1</title>
      <path d="M 1089.285 665 C 1067.194 665 1049.285 682.909 1049.285 705 C 1049.285 727.091 1067.194 745 1089.285 745 C 1111.365 744.974 1129.259 727.08 1129.285 705 C 1129.285 682.909 1111.376 665 1089.285 665 Z M 1089.285 729 C 1076.03 729 1065.285 718.255 1065.285 705 C 1065.285 691.745 1076.03 681 1089.285 681 C 1102.54 681 1113.285 691.745 1113.285 705 C 1113.285 718.255 1102.54 729 1089.285 729 Z" fill="#434343"/>
      <path d="M 1215.149 760.008 L 1176.021 704.096 C 1168.855 693.887 1154.77 691.42 1144.561 698.586 C 1134.536 705.622 1131.947 719.367 1138.725 729.568 L 1154.341 753 L 1024.229 753 L 1039.845 729.568 C 1046.747 719.179 1043.92 705.162 1033.531 698.26 C 1023.33 691.483 1009.585 694.072 1002.549 704.096 L 963.421 760.008 C 955.172 771.799 958.044 788.045 969.835 796.294 C 974.212 799.356 979.424 800.999 984.765 801 L 1041.285 801 L 1041.285 873 C 1041.285 877.418 1044.867 881 1049.285 881 L 1129.285 881 C 1133.703 881 1137.285 877.418 1137.285 873 L 1137.285 801 L 1193.805 801 C 1208.195 800.997 1219.858 789.328 1219.855 774.938 C 1219.854 769.596 1218.211 764.385 1215.149 760.008 Z M 1199.616 783.181 C 1197.913 784.373 1195.883 785.009 1193.805 785 L 1129.285 785 C 1124.867 785 1121.285 788.582 1121.285 793 L 1121.285 865 L 1057.285 865 L 1057.285 793 C 1057.285 788.582 1053.703 785 1049.285 785 L 984.765 785 C 979.211 785.001 974.708 780.5 974.706 774.947 C 974.705 772.882 975.34 770.868 976.525 769.176 L 1015.685 713.264 C 1017.737 710.262 1021.835 709.492 1024.837 711.544 C 1027.839 713.596 1028.609 717.694 1026.557 720.696 L 1002.629 756.56 C 1000.177 760.235 1001.168 765.203 1004.844 767.655 C 1006.159 768.532 1007.704 769 1009.285 769 L 1169.285 769 C 1173.703 769.001 1177.286 765.419 1177.286 761.001 C 1177.286 759.42 1176.818 757.875 1175.941 756.56 L 1152.037 720.696 C 1149.985 717.694 1150.755 713.596 1153.757 711.544 C 1156.759 709.492 1160.857 710.262 1162.909 713.264 L 1202.085 769.176 C 1205.271 773.725 1204.165 779.996 1199.616 783.181 Z" fill="#434343"/>
      <path d="M 1105.285 521 L 1081.285 521 C 1068.03 521 1057.285 531.745 1057.285 545 L 1073.285 545 C 1073.285 540.582 1076.867 537 1081.285 537 L 1105.285 537 C 1109.703 537 1113.285 540.582 1113.285 545 C 1113.285 549.418 1109.703 553 1105.285 553 C 1092.03 553 1081.285 563.745 1081.285 577 L 1097.285 577 C 1097.285 572.582 1100.867 569 1105.285 569 C 1118.54 569 1129.285 558.255 1129.285 545 C 1129.285 531.745 1118.54 521 1105.285 521 Z" fill="#434343"/>
      <rect x="1081.285" y="585" width="16" height="16" fill="#434343"/>
      <path d="M 1089.285 489 C 1040.765 489 1001.285 521.296 1001.285 561 C 1001.285 593.352 1027.405 621.448 1065.181 630.192 L 1082.885 653.8 C 1085.536 657.335 1090.55 658.051 1094.085 655.4 C 1094.691 654.945 1095.23 654.406 1095.685 653.8 L 1113.389 630.192 C 1151.165 621.448 1177.285 593.352 1177.285 561 C 1177.285 521.296 1137.805 489 1089.285 489 Z M 1107.197 615.168 C 1105.279 615.56 1103.571 616.642 1102.397 618.208 L 1089.285 635.664 L 1076.189 618.208 C 1075.015 616.641 1073.307 615.56 1071.389 615.168 C 1039.525 608.776 1017.285 586.504 1017.285 561 C 1017.285 530.128 1049.581 505 1089.285 505 C 1128.989 505 1161.285 530.128 1161.285 561 C 1161.285 586.504 1139.045 608.776 1107.197 615.168 Z" fill="#434343"/>
      <path d="M 1321.285 561 C 1299.205 561.026 1281.311 578.92 1281.285 601 C 1281.285 623.091 1299.194 641 1321.285 641 C 1343.376 641 1361.285 623.091 1361.285 601 C 1361.285 578.909 1343.376 561 1321.285 561 Z M 1321.285 625 C 1308.03 625 1297.285 614.255 1297.285 601 C 1297.285 587.745 1308.03 577 1321.285 577 C 1334.54 577 1345.285 587.745 1345.285 601 C 1345.285 614.255 1334.54 625 1321.285 625 Z" fill="#434343"/>
      <path d="M 1369.285 401 L 1273.285 401 C 1251.205 401.026 1233.311 418.92 1233.285 441 L 1233.285 489 C 1233.311 511.08 1251.205 528.974 1273.285 529 L 1293.973 529 L 1315.629 550.656 C 1318.753 553.779 1323.817 553.779 1326.941 550.656 L 1348.597 529 L 1369.285 529 C 1391.365 528.974 1409.259 511.08 1409.285 489 L 1409.285 441 C 1409.259 418.92 1391.365 401.026 1369.285 401 Z M 1393.285 489 C 1393.285 502.255 1382.54 513 1369.285 513 L 1345.285 513 C 1343.163 513 1341.129 513.844 1339.629 515.344 L 1321.285 533.688 L 1302.941 515.344 C 1301.441 513.844 1299.407 513 1297.285 513 L 1273.285 513 C 1260.03 513 1249.285 502.255 1249.285 489 L 1249.285 441 C 1249.285 427.745 1260.03 417 1273.285 417 L 1369.285 417 C 1382.54 417 1393.285 427.745 1393.285 441 Z" fill="#434343"/>
      <path d="M 1413.285 617.32 C 1400.216 615.111 1387.83 623.915 1385.621 636.984 C 1385.397 638.311 1385.284 639.654 1385.285 641 L 1385.285 649 L 1257.285 649 L 1257.285 609.856 C 1257.435 597.915 1249.011 587.58 1237.285 585.32 C 1224.216 583.111 1211.83 591.915 1209.621 604.984 C 1209.397 606.311 1209.284 607.654 1209.285 609 L 1209.285 649 C 1209.311 675.499 1230.786 696.974 1257.285 697 L 1273.285 697 L 1273.285 736.296 L 1254.285 843.976 C 1251.34 861.152 1262.877 877.463 1280.053 880.408 C 1297.229 883.353 1313.54 871.816 1316.485 854.64 L 1321.285 825.672 L 1326.085 854.648 C 1329.032 871.815 1345.338 883.343 1362.505 880.396 C 1379.672 877.449 1391.2 861.143 1388.253 843.976 L 1369.285 736.296 L 1369.285 697 L 1385.285 697 C 1411.784 696.974 1433.259 675.499 1433.285 649 L 1433.285 641.856 C 1433.435 629.915 1425.011 619.58 1413.285 617.32 Z M 1417.285 649 C 1417.285 666.673 1402.958 681 1385.285 681 L 1361.285 681 C 1356.867 681 1353.285 684.582 1353.285 689 L 1353.285 737 C 1353.284 737.467 1353.326 737.933 1353.413 738.392 L 1372.533 846.76 C 1374.03 855.213 1368.39 863.279 1359.937 864.776 C 1351.484 866.273 1343.418 860.633 1341.921 852.18 C 1341.911 852.126 1341.902 852.071 1341.893 852.016 L 1329.173 775.688 C 1328.436 771.332 1324.307 768.397 1319.951 769.134 C 1316.594 769.702 1313.965 772.331 1313.397 775.688 L 1300.677 852.008 C 1299.319 860.485 1291.346 866.255 1282.87 864.897 C 1274.393 863.539 1268.623 855.566 1269.981 847.09 C 1269.999 846.98 1270.017 846.87 1270.037 846.76 L 1289.157 738.392 C 1289.244 737.933 1289.287 737.467 1289.285 737 L 1289.285 689 C 1289.285 684.582 1285.703 681 1281.285 681 L 1257.285 681 C 1239.612 681 1225.285 666.673 1225.285 649 L 1225.285 609 C 1225.283 604.582 1228.863 600.998 1233.282 600.997 C 1233.753 600.997 1234.222 601.038 1234.685 601.12 C 1238.679 602.097 1241.437 605.747 1241.285 609.856 L 1241.285 649 C 1241.285 657.837 1248.448 665 1257.285 665 L 1385.285 665 C 1394.122 665 1401.285 657.837 1401.285 649 L 1401.285 641 C 1401.284 638.649 1402.317 636.417 1404.109 634.896 C 1405.923 633.346 1408.337 632.693 1410.685 633.12 C 1414.679 634.097 1417.437 637.747 1417.285 641.856 Z" fill="#434343"/>
      <path d="M 1359.137 435.344 C 1356.067 432.166 1351.003 432.078 1347.825 435.148 C 1347.758 435.212 1347.693 435.278 1347.629 435.344 L 1305.285 477.688 L 1294.941 467.344 C 1291.763 464.274 1286.699 464.362 1283.629 467.54 C 1280.634 470.64 1280.634 475.556 1283.629 478.656 L 1299.629 494.656 C 1302.753 497.779 1307.817 497.779 1310.941 494.656 L 1358.941 446.656 C 1362.119 443.586 1362.207 438.522 1359.137 435.344 Z" fill="#434343"/>
    </g>
  </g>
</svg>
