<?xml version="1.0" encoding="UTF-8" standalone="no"?>
<!DOCTYPE svg PUBLIC "-//W3C//DTD SVG 1.1//EN" "http://www.w3.org/Graphics/SVG/1.1/DTD/svg11.dtd">
<svg xmlns="http://www.w3.org/2000/svg" version="1.1" viewBox="738 446 480 480" width="6.5pc" height="6.5pc">
  <defs/>
  <g stroke="none" stroke-opacity="1" stroke-dasharray="none" fill="none" fill-opacity="1">
    <title>Canvas 1</title>
    <!-- <rect fill="white" width="480" height="480"/> -->
    <g>
      <title>Layer 1</title>
      <path d="M 974.5195 674.4219 C 972.9047 671.1965 969.3322 669.4494 965.7949 670.1553 L 944.8789 674.3389 C 935.2403 676.29636 925.2382 673.6846 917.7871 667.26465 L 895.3294 648.03125 C 892.9337 639.4077 888.9566 631.3044 883.6006 624.1338 L 876.9341 615.2451 C 880.246 610.1035 882.0049 604.1159 882 598 L 882 560.4219 C 882 550.6776 876.6367 541.7243 868.0455 537.1264 C 859.4542 532.5285 849.0296 533.0324 840.9219 538.4375 L 821.5625 551.34375 C 819.3368 552.82735 818 555.3252 818 558 L 818 598 C 817.9943 603.3824 819.3551 608.6782 821.9548 613.3911 L 803.23535 628.3662 C 794.2156 635.6168 787.3898 645.23286 783.52075 656.13965 C 777.7022 640.4441 762.73935 630.0199 746 630 C 741.5818 630.0002 738.0002 633.5818 738 638 L 738 766 C 738.028 791.8242 753.5511 815.1092 777.3779 825.0676 L 762.1084 916.6846 C 761.7218 919.0043 762.3755 921.3766 763.8956 923.171 C 765.4157 924.9653 767.6483 926 770 926 L 794 926 C 797.6709 926.0003 800.8708 923.5018 801.7607 919.9404 L 824.24585 830 L 843.7542 830 L 866.2393 919.9404 C 867.1292 923.5018 870.3291 926.0003 874 926 L 898 926 C 900.3517 926 902.5843 924.9653 904.1044 923.171 C 905.6245 921.3766 906.2782 919.0043 905.8916 916.6846 L 891.4219 829.8665 C 892.0107 829.7627 892.5859 829.593 893.1367 829.36035 L 922.665 897.1934 C 923.9358 900.1124 926.8164 902.0001 930 902 L 954 902 C 956.1217 902.0014 958.1569 901.1589 959.6567 899.6581 C 961.1565 898.1574 961.9978 896.1217 961.9951 894 L 962 894 L 962 782 C 961.97 755.50275 940.4972 734.03 914 734 L 898 734 L 898 718.9048 L 913.9394 722.88965 C 923.2032 725.204 932.9891 724.1299 941.5303 719.8613 L 978.9424 701.1553 C 982.8938 699.17886 984.4953 694.37366 982.5195 690.4219 Z M 898 671.3845 L 905.2561 677.5991 L 898 692.1113 Z M 834 598 L 834 582 L 866 582 L 866 598 C 866 606.83656 858.8366 614 850 614 C 841.1634 614 834 606.83656 834 598 Z M 834 562.28125 L 849.7978 551.749 C 852.9962 549.618 857.1077 549.4199 860.496 551.2337 C 863.8844 553.0474 865.9997 556.57864 866 560.4219 L 866 566 L 834 566 Z M 813.2305 640.86035 L 832.968 625.0708 C 836.3526 627.21045 840.111 628.6914 844.0454 629.4358 L 850 647.29785 L 850 694 L 866 694 L 866 646 C 865.9998 645.14004 865.8613 644.2857 865.5898 643.4697 L 860.5064 628.2195 C 862.1018 627.6651 863.6506 626.9846 865.1382 626.1846 L 870.7998 633.7334 C 878.0474 643.4384 881.9749 655.22044 882 667.333 L 882 734 L 830.8916 734 L 827.1943 721.0596 C 826.7108 719.3551 826.8039 717.5387 827.459 715.8926 L 841.4277 680.9707 L 826.5723 675.0293 L 820.1641 691.04955 L 793.6362 680.4385 L 797.3398 665.624 C 799.8004 655.86 805.3796 647.16545 813.2305 640.86035 Z M 792.66305 719.92095 C 788.7101 712.828 787.6113 704.4943 789.5908 696.6192 L 789.7197 696.10405 L 814.2221 705.9048 L 812.6035 709.9512 C 810.6375 714.89085 810.3588 720.3416 811.81055 725.45605 Z M 786 740.8723 L 808.571 781.5002 C 808.6223 781.656 808.6743 781.8115 808.729 781.9658 C 795.993 781.2752 786.0154 770.7547 786 758 Z M 754 766 L 754 647.3711 C 763.5817 650.77196 769.9882 659.8326 770 670 L 770 758 C 770.0253 780.0809 787.9191 797.9747 810 798 L 858 798 C 868.1674 798.0118 877.228 804.4183 880.6289 814 L 802 814 C 775.5026 813.9704 754.0296 792.4974 754 766 Z M 787.7539 910 L 779.4434 910 L 792.88745 829.3403 C 795.9054 829.7764 798.9507 829.9968 802 830 L 807.75415 830 Z M 860.2458 830 L 875.2227 830 L 888.5567 910 Z M 915.242 806 L 892.0625 786.8066 C 890.7918 783.8876 887.9112 781.9999 884.7275 782 L 835.8887 782 L 837.5781 781.1553 C 841.0209 779.4335 842.7495 775.5041 841.6924 771.8027 L 835.4629 750 L 885.3516 750 C 900.0981 749.974 912.944 760.0505 916.4307 774.3789 L 943.8018 886 Z M 946 782 L 946 827.7852 L 931.9697 770.5684 C 930.2164 763.3779 926.8236 756.6904 922.0566 751.0288 C 936.1465 754.715 945.9808 767.43595 946 782 Z M 934.375 705.5508 C 929.2498 708.1105 923.3788 708.755 917.8203 707.3682 L 909.3225 705.24365 L 918.6314 686.6262 C 927.8189 690.8438 938.1084 692.0351 948.0166 690.0283 L 962.9414 687.043 L 964.6309 690.4219 Z" fill="#434343"/>
      <path d="M 1210 630 C 1198.23 629.9993 1187.0597 635.1926 1179.4741 644.19214 C 1175.5058 635.4623 1169.8331 627.6134 1162.789 621.10645 L 1149.4023 608.7705 C 1150.6418 605.31496 1151.2745 601.6711 1151.2725 598 L 1151.2725 558 C 1151.2725 555.3252 1149.9356 552.82735 1147.71 551.34375 L 1128.3506 538.4375 C 1124.0982 535.6001 1119.1118 534.0621 1114 534.0112 L 1114 470 C 1113.9848 456.75145 1103.2486 446.01515 1090 446 L 930 446 C 916.7514 446.01515 906.0152 456.75145 906 470 L 906 638 C 906.0002 641.2357 907.9494 644.1527 910.9388 645.39096 C 913.9281 646.6292 917.369 645.945 919.6572 643.6572 L 954.9707 608.34375 C 956.4672 606.8381 958.5041 605.9941 960.627 606 L 1088.2852 606 C 1089.066 609.01935 1090.2863 611.90755 1091.907 614.572 L 1084.874 622.25975 C 1072.7192 635.5237 1065.984 652.8656 1066 670.85645 L 1066 700.3481 L 1024.164 710.2139 C 1020.552 711.0652 1017.9999 714.289 1018 718 L 1018 740.4575 C 1003.1595 749.02965 994.013 764.8617 994 782 L 994 894 L 994.0049 894 C 994.0022 896.1217 994.8435 898.1574 996.3433 899.6581 C 997.8431 901.1589 999.8783 902.0014 1002 902 L 1026 902 C 1029.1836 902.0001 1032.0643 900.1124 1033.335 897.1934 L 1062.8633 829.3604 C 1063.53 829.642 1064.2321 829.8314 1064.95 829.9234 L 1049.6504 916.6094 C 1049.2392 918.9383 1049.8796 921.3299 1051.3996 923.1417 C 1052.9195 924.9536 1055.1633 926 1057.5283 926 L 1082 926 C 1085.657 925.9999 1088.8484 923.5201 1089.752 919.9766 L 1112.6882 830 L 1131.7542 830 L 1154.2393 919.9404 C 1155.1292 923.5018 1158.3291 926.0003 1162 926 L 1186.4717 926 C 1188.8299 925.9998 1191.0678 924.9593 1192.5878 923.1563 C 1194.1078 921.3534 1194.755 918.9717 1194.3564 916.6475 L 1178.6418 825.0598 C 1202.4583 815.0964 1217.9723 791.8166 1218 766 L 1218 638 C 1217.9998 633.5818 1214.4182 630.0002 1210 630 Z M 1162 745.6697 C 1164.847 744.2733 1167.5302 742.565 1170 740.5762 L 1170 758 C 1169.9898 767.6564 1164.202 776.3692 1155.3047 780.1221 C 1159.6776 773.5736 1162.0078 765.8743 1162 758 Z M 1119.2715 614 C 1110.4393 613.9898 1103.2821 606.8322 1103.2725 598 L 1103.2725 582 L 1135.2725 582 L 1135.2725 598 C 1135.2623 606.8327 1128.1042 613.99034 1119.2715 614 Z M 1135.2725 562.28125 L 1135.2725 566 L 1103.2725 566 L 1103.2725 560.4219 C 1103.2727 556.5784 1105.3882 553.04693 1108.7769 551.2333 C 1112.1656 549.4197 1116.2774 549.61826 1119.4756 551.75 Z M 922 618.6865 L 922 470 C 922.005 465.5838 925.5838 462.00505 930 462 L 1090 462 C 1094.4162 462.00505 1097.995 465.5838 1098 470 L 1098 539.18164 C 1091.255 544.1572 1087.2736 552.04026 1087.2725 560.4219 L 1087.2725 590 L 960.627 590 C 954.2583 589.9826 948.1474 592.51374 943.6562 597.0293 Z M 1081.7102 647.406 C 1082.8979 648.0913 1084.1286 648.69934 1085.3945 649.2263 L 1098.999 642.1289 C 1098.3436 643.3139 1097.9999 644.6459 1098 646 L 1098 686 L 1114 686 L 1114 648.06445 L 1124.2004 629.6196 C 1130.16 628.6882 1135.7332 626.0856 1140.273 622.114 L 1151.9473 632.87206 C 1163.4384 643.4859 1169.9813 658.4119 1170 674.0547 L 1170 707.2783 C 1169.9833 722.0294 1158.0294 733.9833 1143.2783 734 L 1082 734 L 1082 724.2461 L 1127.8223 712.791 C 1138.5125 710.13 1146.012 700.5242 1146 689.5078 L 1146 670 L 1130 670 L 1130 689.5078 C 1130.0039 693.1802 1127.504 696.3823 1123.9404 697.2695 L 1082 707.7544 L 1082 670.85645 C 1081.9878 656.8635 1087.2262 643.3753 1096.6797 633.0586 Z M 1034 734 L 1034 724.333 L 1066 716.7864 L 1066 734 Z M 1033.9434 751.0288 C 1029.1764 756.6904 1025.7836 763.3779 1024.0303 770.5684 L 1010 827.7852 L 1010 782 C 1010.0192 767.43595 1019.8535 754.715 1033.9434 751.0288 Z M 1020.7578 886 L 1012.1982 886 L 1039.5693 774.3789 C 1043.056 760.0505 1055.9019 749.974 1070.6484 750 L 1143.2783 750 C 1144.1933 750 1145.0991 749.9609 1146 749.904 L 1146 758 C 1145.9848 771.24855 1135.2486 781.9848 1122 782 L 1071.2725 782 C 1068.0888 781.9999 1065.2082 783.8876 1063.9375 786.8066 Z M 1075.7832 910 L 1067.0635 910 L 1081.1831 830 L 1096.1765 830 Z M 1176.9824 910 L 1168.2461 910 L 1148.2458 830 L 1154 830 C 1157.0593 829.9969 1160.1144 829.7752 1163.1421 829.3367 Z M 1202 766 C 1201.9704 792.4974 1180.4974 813.9704 1154 814 L 1075.3711 814 C 1078.772 804.4183 1087.8326 798.0118 1098 798 L 1146 798 C 1168.0809 797.9747 1185.9747 780.0809 1186 758 L 1186 670 C 1186.0118 659.8326 1192.4183 650.77196 1202 647.3711 Z" fill="#434343"/>
      <rect x="978" y="486" width="16" height="16" fill="#434343"/>
      <rect x="1010" y="486" width="64" height="16" fill="#434343"/>
      <rect x="946" y="518" width="72" height="16" fill="#434343"/>
      <rect x="1034" y="518" width="40" height="16" fill="#434343"/>
      <rect x="946" y="550" width="32" height="16" fill="#434343"/>
      <rect x="994" y="550" width="80" height="16" fill="#434343"/>
    </g>
  </g>
</svg>
