<?xml version="1.0" encoding="UTF-8" standalone="no"?>
<!DOCTYPE svg PUBLIC "-//W3C//DTD SVG 1.1//EN" "http://www.w3.org/Graphics/SVG/1.1/DTD/svg11.dtd">
<svg xmlns="http://www.w3.org/2000/svg" version="1.1" viewBox="710.9971 508 480.00293 480.0016" width="80pt" height="80pt">
  <defs/>
  <g stroke="none" stroke-opacity="1" stroke-dasharray="none" fill="none" fill-opacity="1">
    <title>Canvas 1</title>
    <rect fill="white" width="480.00293" height="480.0016"/>
    <g>
      <title>Layer 1</title>
      <path d="M 741.1914 875.9497 C 749.59945 876.4437 757.8605 873.585 764.165 868 L 767 868 L 767 892 C 767.0251 914.081 784.919 931.9749 807 932 L 831 932 L 831 934.8413 C 819.5701 947.7988 820.4945 967.491 833.0879 979.3208 C 838.9956 984.9164 846.8297 988.0247 854.9668 988.0015 C 855.6494 988.0015 856.3369 987.98 857.0254 987.9375 C 869.2134 987.1646 879.8988 979.522 884.5685 968.2376 C 889.2382 956.9531 887.0779 943.9947 879 934.8354 L 879 932 L 1063 932 C 1085.081 931.9749 1102.9749 914.081 1103 892 L 1103 796 C 1102.9749 773.919 1085.081 756.0251 1063 756 L 1031 756 C 1026.5817 756 1023 759.5817 1023 764 L 1023 786.1157 C 1023 788.3908 1023.9689 790.5583 1025.664 792.0757 C 1029.3024 795.32325 1031.2581 800.05475 1030.9746 804.9234 C 1030.4408 812.9609 1024.0688 819.3777 1016.0352 819.9678 C 1009.2254 820.41 1002.8848 816.4841 1000.2452 810.1912 C 997.6057 803.8983 999.2484 796.6238 1004.3359 792.0757 C 1006.0311 790.5583 1007 788.3908 1007 786.1157 L 1007 764 C 1007 759.5817 1003.4183 756 999 756 L 943 756 L 943 636 C 942.9749 613.919 925.081 596.0251 903 596 L 807 596 C 784.919 596.0251 767.0251 613.919 767 636 L 767 668 C 767 672.41826 770.5817 675.99996 775 676 L 797.1162 676 C 799.3914 676.0001 801.5589 675.0312 803.0762 673.3359 C 806.11265 669.9446 810.448 668.00456 815 668 C 819.4233 668.0001 823.6493 669.8312 826.6743 673.0584 C 829.6993 676.2856 831.2535 680.6211 830.9678 685.0352 C 830.378 693.0694 823.9601 699.4417 815.9219 699.9742 C 811.0537 700.2605 806.322 698.3044 803.07715 694.6641 C 801.5594 692.9688 799.3916 691.99994 797.1162 692 L 775 692 C 770.5817 692.00004 767 695.5817 767 700 L 767 820 L 764.1592 820 C 753.6493 810.7341 738.33355 809.3834 726.3642 816.6669 C 714.3948 823.9503 708.556 838.1737 711.95565 851.7662 C 715.3553 865.3587 727.20255 875.1587 741.1914 875.9497 Z M 993.0879 827.3208 C 1005.5422 839.0235 1024.9943 838.8745 1037.2678 826.9823 C 1049.5413 815.09 1050.304 795.6523 1039 782.835 L 1039 772 L 1063 772 C 1076.2486 772.015 1086.985 782.7514 1087 796 L 1087 892 C 1086.985 905.2486 1076.2486 915.985 1063 916 L 943 916 L 943 860 C 943 855.5817 939.4183 852 935 852 L 912.8838 852 C 910.6086 851.9999 908.4411 852.9688 906.9238 854.6641 C 903.8873 858.0554 899.552 859.9954 895 860 C 890.5768 859.9995 886.3511 858.1682 883.3262 854.9411 C 880.3013 851.714 878.747 847.3788 879.0322 842.9648 C 879.622 834.9306 886.0399 828.5583 894.0781 828.0258 C 898.9464 827.7387 903.6785 829.695 906.9228 833.3359 C 908.4406 835.0312 910.6084 836.0001 912.8838 836 L 935 836 C 939.4183 836 943 832.4183 943 828 L 943 772 L 991 772 L 991 782.8408 C 979.5701 795.7985 980.4944 815.4908 993.0879 827.3208 Z M 783 708 L 793.835 708 C 806.6991 719.35 826.2248 718.5374 838.1014 706.1578 C 849.978 693.77815 849.9804 674.23555 838.1068 661.853 C 826.2333 649.4705 806.7078 648.65314 793.8409 660 L 783 660 L 783 636 C 783.0152 622.75145 793.75145 612.01515 807 612 L 903 612 C 916.2486 612.01515 926.9848 622.75145 927 636 L 927 756 L 783 756 Z M 731.3389 833.0454 C 734.3523 829.8111 738.5795 827.9821 743 828 C 747.552 828.0045 751.8874 829.9446 754.9238 833.3359 C 756.4412 835.0312 758.6087 836.0001 760.8838 836 L 775 836 C 779.4183 836 783 832.4183 783 828 L 783 772 L 927 772 L 927 820 L 916.165 820 C 903.3009 808.65 883.7752 809.4626 871.8986 821.8422 C 860.022 834.2218 860.0196 853.7644 871.8932 866.147 C 883.7667 878.5295 903.2922 879.3469 916.1591 868 L 927 868 L 927 916 L 871 916 C 866.5817 916 863 919.5817 863 924 L 863 938.1162 C 862.9999 940.3915 863.9688 942.5591 865.6641 944.0767 C 869.3027 947.3233 871.2586 952.0546 870.9746 956.9228 C 870.441 964.9606 864.0689 971.3776 856.0352 971.9678 C 849.2255 972.4101 842.8848 968.4843 840.2453 962.1915 C 837.6057 955.8986 839.2484 948.6241 844.3359 944.0762 C 846.0311 942.5588 847 940.3913 847 938.1162 L 847 924 C 847 919.5817 843.4183 916 839 916 L 807 916 C 793.75145 915.9848 783.0152 905.2486 783 892 L 783 860 C 783 855.5817 779.4183 852 775 852 L 760.8838 852 C 758.6084 851.9999 756.4406 852.9688 754.92285 854.6641 C 751.6778 858.3047 746.9456 860.2608 742.07715 859.9741 C 734.0393 859.4413 727.62185 853.069 727.0322 845.0351 C 726.7334 840.6129 728.2945 836.2668 731.3389 833.0454 Z" fill="#434343"/>
      <path d="M 1079 660 C 1101.0914 660 1119 642.0914 1119 620 C 1119 597.9086 1101.0914 580 1079 580 C 1056.9086 580 1039 597.9086 1039 620 C 1039.0251 642.081 1056.919 659.9749 1079 660 Z M 1079 596 C 1092.2548 596 1103 606.7452 1103 620 C 1103 633.2548 1092.2548 644 1079 644 C 1065.7452 644 1055 633.2548 1055 620 C 1055.0152 606.75145 1065.7514 596.01515 1079 596 Z" fill="#434343"/>
      <path d="M 1183 588 L 1156.3447 588 L 1156.3184 587.936 L 1175.167 569.0884 C 1178.2907 565.9641 1178.2907 560.8992 1175.167 557.7749 L 1141.2256 523.8335 C 1138.1012 520.70914 1133.0356 520.70914 1129.9111 523.8335 L 1111.0644 542.68115 L 1111 542.6543 L 1111 516 C 1111 511.58174 1107.4183 508.00004 1103 508 L 1055 508 C 1050.5817 508.00004 1047 511.58174 1047 516 L 1047 542.6543 L 1046.9356 542.68115 L 1028.0889 523.8335 C 1024.9645 520.70914 1019.8988 520.70914 1016.7744 523.8335 L 982.833 557.7749 C 979.7093 560.8992 979.7093 565.9641 982.833 569.0884 L 1001.6816 587.936 L 1001.6553 588 L 975 588 C 970.5817 588.00004 967 591.58174 967 596 L 967 644 C 967 648.41826 970.5817 651.99996 975 652 L 1001.6553 652 L 1001.6816 652.064 L 982.833 670.9116 C 979.7093 674.0359 979.7093 679.1008 982.833 682.2251 L 1016.7744 716.1665 C 1019.8988 719.2909 1024.9644 719.2909 1028.0889 716.1665 L 1046.9355 697.31885 L 1047 697.3457 L 1047 724 C 1047 728.4183 1050.5817 731.99996 1055 732 L 1103 732 C 1107.4183 731.99996 1111 728.4183 1111 724 L 1111 697.3457 L 1111.0644 697.31885 L 1129.9111 716.1665 C 1133.0355 719.2909 1138.1012 719.2909 1141.2256 716.1665 L 1175.167 682.2251 C 1178.2907 679.1008 1178.2907 674.0359 1175.167 670.9116 L 1156.3184 652.064 L 1156.3447 652 L 1183 652 C 1187.4183 651.99996 1191 648.41826 1191 644 L 1191 596 C 1191 591.58174 1187.4183 588.00004 1183 588 Z M 1022.4316 699.1958 L 999.8037 676.5684 L 1012.2881 664.08484 C 1018.2429 673.0632 1025.9367 680.7571 1034.915 686.712 Z M 1095 716 L 1063 716 L 1063 698.3901 C 1073.5587 700.5366 1084.4413 700.5366 1095 698.3901 Z M 1079 684 C 1043.6703 683.9601 1015.0399 655.3297 1015 620 L 999 620 C 998.9982 625.37385 999.5376 630.7342 1000.6099 636 L 983 636 L 983 604 L 1007 604 C 1010.2354 603.99984 1013.1522 602.051 1014.3906 599.062 L 1018.5088 589.1211 C 1019.7474 586.1317 1019.0633 582.6906 1016.7754 580.4023 L 999.8037 563.4316 L 1022.4316 540.8042 L 1039.4014 557.7744 C 1041.6893 560.0628 1045.1306 560.74736 1048.1201 559.5088 L 1058.0615 555.3911 C 1061.0509 554.1528 1063 551.2357 1063 548 L 1063 524 L 1095 524 L 1095 541.60986 C 1089.7342 540.5376 1084.3738 539.99825 1079 540 L 1079 556 C 1114.3462 556 1143 584.6538 1143 620 C 1143 655.3462 1114.3462 684 1079 684 Z M 1158.1963 676.5684 L 1135.5684 699.1958 L 1123.085 686.712 C 1132.0633 680.7571 1139.7571 673.0632 1145.712 664.08486 Z M 1145.7119 575.91516 C 1139.7571 566.9368 1132.0633 559.2429 1123.085 553.288 L 1135.5684 540.8042 L 1158.1963 563.4316 Z M 1175 636 L 1157.3901 636 C 1159.5366 625.4413 1159.5366 614.5587 1157.3901 604 L 1175 604 Z" fill="#434343"/>
    </g>
  </g>
</svg>
