<?xml version="1.0" encoding="UTF-8" standalone="no"?>
<!DOCTYPE svg PUBLIC "-//W3C//DTD SVG 1.1//EN" "http://www.w3.org/Graphics/SVG/1.1/DTD/svg11.dtd">
<svg xmlns="http://www.w3.org/2000/svg" version="1.1" viewBox="750 403.0005 432 479.9995" width="7pc" height="80pt">
  <defs/>
  <g stroke="none" stroke-opacity="1" stroke-dasharray="none" fill="none" fill-opacity="1">
    <title>Canvas 1</title>
    <rect fill="white" width="432" height="479.9995"/>
    <g>
      <title>Layer 1</title>
      <path d="M 1021.9507 739.8704 C 1037.3277 754.0725 1046.0503 774.068 1046 795 C 1046 799.4183 1049.5817 803 1054 803 L 1086 803 C 1090.4183 803 1094 799.4183 1094 795 L 1094 659 C 1093.9999 657.2691 1093.4384 655.5849 1092.3999 654.2002 L 1045.3512 591.46875 C 1045.7764 584.782 1045.9927 578.0701 1046 571.333 C 1045.977 507.77823 1018.801 447.26125 971.3149 405.0205 C 968.2835 402.32714 963.7165 402.32714 960.6851 405.0205 C 913.199 447.26125 886.0229 507.77823 886 571.333 C 886 578.0691 886.2163 584.781 886.6488 591.46874 L 839.6001 654.2002 C 838.5616 655.5849 838.0001 657.2691 838 659 L 838 795 C 838 799.4183 841.5817 803 846 803 L 878 803 C 882.4183 803 886 799.4183 886 795 C 885.9497 774.068 894.6724 754.0726 910.0494 739.8706 C 910.4932 743.9271 913.9193 746.9993 918 747 L 923.7537 747 L 918.2388 769.0596 C 917.6415 771.4495 918.1785 773.9814 919.6945 775.9231 C 921.2105 777.8648 923.5366 778.9998 926 779 L 930.0458 779 C 920.1073 808.6101 926.4921 841.2657 946.8511 864.9521 L 959.9258 880.206 C 961.4456 881.9794 963.6645 883 966 883 C 968.3355 883 970.5544 881.9794 972.0742 880.206 L 985.1489 864.9521 C 1005.508 841.2657 1011.8927 808.6101 1001.9542 779 L 1006 779 C 1008.4634 778.9998 1010.7895 777.8648 1012.3055 775.9231 C 1013.8215 773.9814 1014.3585 771.4495 1013.7612 769.0596 L 1008.2463 747 L 1014 747 C 1018.0808 746.9993 1021.507 743.927 1021.9507 739.8704 Z M 1006 731 L 926 731 L 926 699 L 1006 699 Z M 966 539 C 979.2548 539 990 549.74517 990 563 C 990 576.2548 979.2548 587 966 587 C 952.7452 587 942 576.2548 942 563 C 942.0152 549.75145 952.7514 539.01515 966 539 Z M 1078 661.667 L 1078 787 L 1061.6548 787 C 1059.5261 762.1604 1047.2691 739.2915 1027.7632 723.7656 L 1022 719.1553 L 1022 692.4514 L 1025.9448 681.9316 C 1034.0644 660.30055 1039.7733 637.8399 1042.968 614.957 Z M 1008.456 683 L 974 683 L 974 602.1951 C 992.6239 598.3918 1005.9998 582.0083 1005.9998 563 C 1005.9998 543.9917 992.6239 527.6082 974 523.8049 L 974 499 L 1016.8939 499 C 1025.5559 522.1324 1029.995 546.632 1030 571.333 C 1030.0221 607.1868 1023.5732 642.7503 1010.9634 676.3135 Z M 963.4927 428.55956 C 981.8252 446.0555 996.7807 466.77636 1007.6119 489.6865 L 919.3735 489.6865 C 930.2046 466.77636 945.1602 446.0555 963.4927 428.55956 Z M 912.5988 505.6865 L 955.4927 505.6865 L 955.4927 530.49144 C 936.8687 534.2947 923.4928 550.6782 923.4928 569.6865 C 923.4928 588.6948 936.8687 605.0783 955.4927 608.8816 L 955.4927 689.6865 L 921.0367 689.6865 L 918.5293 683.001 C 905.9196 649.4374 899.4707 613.8736 899.4927 578.0195 C 899.4976 553.3185 903.9367 528.81894 912.5988 505.6865 Z M 901.73 730.4521 C 882.2237 745.97785 869.9665 768.8468 867.8379 793.6865 L 851.4927 793.6865 L 851.4927 668.3535 L 886.5247 621.6435 C 889.7194 644.5267 895.4283 666.9877 903.5478 688.6191 L 907.4927 699.1382 L 907.4927 725.8418 Z M 953.2466 769.6865 L 933.7388 769.6865 L 937.7388 753.6865 Z M 960.4922 877.2265 C 942.5341 856.3331 937.9388 827.0797 948.626 801.6865 L 986.3593 801.6865 C 997.0465 827.0797 992.4513 856.3331 974.4932 877.2265 Z M 983.2456 785.6865 L 963.7378 785.6865 L 967.7378 769.6865 L 979.2456 769.6865 Z" fill="#434343"/>
      <rect x="758" y="723" width="16" height="104" fill="#434343"/>
      <rect x="758" y="843" width="16" height="24" fill="#434343"/>
      <rect x="790" y="675" width="16" height="80" fill="#434343"/>
      <rect x="790" y="771" width="16" height="24" fill="#434343"/>
      <rect x="1158" y="723" width="16" height="104" fill="#434343"/>
      <rect x="1158" y="843" width="16" height="24" fill="#434343"/>
      <rect x="1126" y="675" width="16" height="80" fill="#434343"/>
      <rect x="1126" y="771" width="16" height="24" fill="#434343"/>
      <path d="M 750 611 L 766 611 L 766 627 L 782 627 L 782 611 L 798 611 L 798 595 L 782 595 L 782 579 L 766 579 L 766 595 L 750 595 Z" fill="#434343"/>
      <path d="M 1102 475 L 1118 475 L 1118 459 L 1102 459 L 1102 443 L 1086 443 L 1086 459 L 1070 459 L 1070 475 L 1086 475 L 1086 491 L 1102 491 Z" fill="#434343"/>
      <rect x="822" y="539" width="24" height="16" fill="#434343"/>
      <rect x="758" y="515" width="24" height="16" fill="#434343"/>
      <rect x="798" y="475" width="24" height="16" fill="#434343"/>
      <rect x="1078" y="539" width="24" height="16" fill="#434343"/>
      <rect x="1118" y="587" width="24" height="16" fill="#434343"/>
      <rect x="1158" y="523" width="24" height="16" fill="#434343"/>
    </g>
  </g>
</svg>
