<?xml version="1.0" encoding="UTF-8"?>
<svg width="14px" height="12px" viewBox="0 0 14 12" version="1.1" xmlns="http://www.w3.org/2000/svg" xmlns:xlink="http://www.w3.org/1999/xlink">
    <!-- Generator: Sketch 60 (88103) - https://sketch.com -->
    <title>Slice 1</title>
    <desc>Created with Sketch.</desc>
    <g id="Page-1" stroke="none" stroke-width="1" fill="none" fill-rule="evenodd">
        <g id="envelope" fill="#624185" fill-rule="nonzero">
            <path d="M0.106068464,0.929411564 C2.08084174,2.70467834 5.54595479,5.82791405 6.56439486,6.80174383 C6.70111426,6.93317878 6.84775389,7 6.99998595,7 C7.15190888,7 7.29829559,6.93380523 7.43470585,6.80299673 C8.4540171,5.82821236 11.9191302,2.70467834 13.8939315,0.929411564 C14.0168806,0.819096891 14.0356251,0.625196032 13.9360855,0.490330526 C13.705981,0.178687099 13.3629038,0 12.9952088,0 L1.00476314,0 C0.637096154,0 0.29399089,0.178687099 0.0639144876,0.490360357 C-0.0356251017,0.625196032 -0.0168806336,0.819096891 0.106068464,0.929411564 Z" id="Path"></path>
            <path d="M13.8218331,2.03002637 C13.7129694,1.97688476 13.5849012,1.99542394 13.4943206,2.07658567 C12.1692694,3.25445742 10.4234473,4.8107216 9.1068035,5.99834604 C9.03752919,6.06063647 8.99854439,6.15215478 9,6.24808143 C9.00153879,6.34370613 9.04383471,6.43395629 9.11521086,6.49371041 C10.3385964,7.52124575 12.1821971,8.93472204 13.513525,9.93930986 C13.5666181,9.9795586 13.6295869,10 13.6928724,10 C13.7408692,10 13.7888372,9.98837527 13.832947,9.96446155 C13.935534,9.90941771 14,9.79869595 14,9.67791956 L14,2.32221465 C14,2.19672799 13.9303802,2.0825641 13.8218331,2.03002637 Z" id="Path"></path>
            <path d="M0.486444156,9.93927779 C1.81800442,8.93465887 3.66180512,7.52116901 4.88479644,6.49357166 C4.95616807,6.43381569 4.9984613,6.34353255 5,6.24793507 C5.00145551,6.15200546 4.96247319,6.06048431 4.89320326,5.99819196 C3.57661406,4.81053075 1.83058587,3.25421839 0.505647414,2.07631017 C0.414467926,1.99514592 0.286119911,1.97724027 0.178155566,2.02974943 C0.0695866196,2.08228879 0,2.1964562 0,2.32194676 L0,9.67790959 C0,9.79868972 0.0644907025,9.9094149 0.167042436,9.96446045 C0.211120679,9.98837491 0.25911443,10 0.30710818,10 C0.370389682,10 0.433354489,9.97955796 0.486444156,9.93927779 Z" id="Path"></path>
            <path d="M13.8738236,11.0933957 C12.6102196,10.1157014 10.2825294,8.29294488 8.89306299,7.07327524 C8.77987739,6.97351051 8.61598464,6.97669319 8.50458171,7.08061988 C8.2319459,7.33786597 8.00379203,7.55465532 7.84196492,7.71210609 C7.34499525,8.19728091 6.6552705,8.19728091 6.15714068,7.71146343 C5.99590779,7.5543187 5.76778222,7.33688668 5.49511811,7.08058927 C5.38459237,6.97601993 5.22041666,6.97283725 5.1069198,7.07324463 C3.72215058,8.28875231 1.39182887,10.1137429 0.126159197,11.0933651 C0.0557011615,11.1482051 0.0103137361,11.2326685 0.00148525939,11.3260679 C-0.00706025337,11.4194672 0.0215191105,11.512224 0.0807717718,11.58108 C0.309236904,11.8472926 0.631108453,12 0.963308187,12 L13.0364482,12 C13.368648,12 13.6902082,11.8472926 13.9192393,11.5811106 C13.9781807,11.5125606 14.0070713,11.4198039 13.9985258,11.3264045 C13.989669,11.2330357 13.9442816,11.1482357 13.8738236,11.0933957 Z" id="Path"></path>
        </g>
    </g>
</svg>