<?xml version="1.0" encoding="UTF-8"?>
<svg width="14px" height="14px" viewBox="0 0 14 14" version="1.1" xmlns="http://www.w3.org/2000/svg" xmlns:xlink="http://www.w3.org/1999/xlink">
    <!-- Generator: Sketch 60 (88103) - https://sketch.com -->
    <title>Slice 1</title>
    <desc>Created with Sketch.</desc>
    <g id="Page-1" stroke="none" stroke-width="1" fill="none" fill-rule="evenodd">
        <g id="telephone-symbol-button" fill="#624185" fill-rule="nonzero">
            <path d="M13.2297919,0.76861118 C12.7165432,0.256235589 12.0981675,0 11.3751437,0 L2.62507981,0 C1.90205593,0 1.28368025,0.256235589 0.770208147,0.76861118 C0.256831822,1.28108236 9.5773209e-05,1.89822077 9.5773209e-05,2.61986711 L9.5773209e-05,11.3527787 C9.5773209e-05,12.0743613 0.256831822,12.6915635 0.770208147,13.2040346 C1.28368025,13.7165058 1.90205593,13.9727414 2.62507981,13.9727414 L11.3750479,13.9727414 C12.0980718,13.9727414 12.7164475,13.7165058 13.2296961,13.2040346 C13.7431682,12.6915635 13.9999042,12.0743932 13.9999042,11.3527787 L13.9999042,2.61986711 C13.9999042,1.89822077 13.7431363,1.28098677 13.2297919,0.76861118 Z M11.4659367,10.6060887 C11.3383348,10.8850102 11.0512387,11.1277043 10.604712,11.3340119 C10.1580896,11.5403195 9.76149279,11.6434573 9.41504916,11.6434573 C9.31780743,11.6434573 9.21446814,11.6359697 9.10512706,11.6208033 C8.99575405,11.6055413 8.90323713,11.5904705 8.82728898,11.5753041 C8.75137275,11.5601377 8.6509705,11.5328956 8.52652918,11.4934183 C8.40186439,11.4541004 8.31215681,11.4236721 8.25766186,11.4024837 C8.20281573,11.3813272 8.10263696,11.3434112 7.95690206,11.2888632 C7.81103946,11.234124 7.71979951,11.2007643 7.68356532,11.1888797 C6.68704508,10.8247907 5.71315924,10.1683981 4.76225897,9.21935139 C3.8113587,8.27008169 3.15355638,7.2983173 2.78894777,6.30389891 C2.77688035,6.26748045 2.7434555,6.17648208 2.68870515,6.0309994 C2.63405057,5.88554859 2.59596476,5.78540578 2.5747031,5.7308896 C2.55356915,5.6763097 2.52314519,5.58684072 2.48362278,5.46261011 C2.44413229,5.33825206 2.41686885,5.23826856 2.40164091,5.16237287 C2.38638105,5.08666834 2.37131273,4.99423618 2.35608479,4.88504452 C2.34088878,4.77585285 2.33332269,4.67261942 2.33332269,4.57566283 C2.33332269,4.22995826 2.43666198,3.83426194 2.64330865,3.38851015 C2.84992338,2.94282209 3.09293194,2.65628557 3.37249393,2.52890061 C3.69454731,2.39542997 4.00140467,2.32871058 4.29309794,2.32871058 C4.35985187,2.32871058 4.40853659,2.33482812 4.43883284,2.34693574 C4.4692568,2.35920268 4.51941004,2.41365513 4.58932448,2.51070731 C4.65923892,2.60775948 4.73515515,2.73052443 4.81716894,2.87912961 C4.89921466,3.02776664 4.979728,3.17181552 5.05870898,3.31124438 C5.13768995,3.45070511 5.21367003,3.58860459 5.28661729,3.72516586 C5.35953263,3.8615041 5.40508875,3.94804176 5.42328566,3.98430091 C5.44151449,4.01479301 5.4810369,4.07230423 5.54175712,4.15728064 C5.60247733,4.24212961 5.64816115,4.31783413 5.67848934,4.38461724 C5.70881752,4.45133663 5.72404546,4.51502911 5.72404546,4.57566283 C5.72404546,4.66675678 5.6616971,4.77738224 5.53716001,4.90766666 C5.41255906,5.03807853 5.27582684,5.15791216 5.12693143,5.26710383 C4.97803601,5.37629549 4.84136764,5.49307035 4.71679862,5.61739655 C4.59232537,5.74162716 4.52997701,5.84320376 4.52997701,5.92206264 C4.52997701,5.96453491 4.54060784,6.01452666 4.56190142,6.07213347 C4.58316307,6.12986772 4.60292428,6.17686443 4.62115311,6.21318731 C4.63938194,6.24954204 4.66830545,6.3011269 4.70773209,6.36791001 C4.74722258,6.43469313 4.77311327,6.47710168 4.78518069,6.49532684 C5.11933342,7.09570575 5.50373516,7.61273322 5.93809858,8.04640925 C6.37265356,8.480149 6.89059507,8.86361024 7.49224237,9.19717532 C7.51034351,9.20941039 7.55296258,9.23512317 7.62006768,9.2746004 C7.68682161,9.31385459 7.73860299,9.342658 7.77499681,9.3608513 C7.8114864,9.3790446 7.8584472,9.39879914 7.91626229,9.41986004 C7.97407738,9.44101652 8.0241987,9.45169035 8.06691355,9.45169035 C8.16383604,9.45169035 8.29756736,9.35170685 8.46788405,9.15161241 C8.63797727,8.9513268 8.81126293,8.75276174 8.98748563,8.55563048 C9.16358064,8.3586904 9.3062508,8.2601407 9.41584727,8.2601407 C9.47656749,8.2601407 9.54025667,8.2752115 9.60736177,8.30551243 C9.67424339,8.33581336 9.75003192,8.38140812 9.83504661,8.44200998 C9.92025284,8.50286672 9.97794024,8.54212092 10.0083323,8.56056912 L10.4911889,8.82410114 C10.8132742,8.99399025 11.0821415,9.14402922 11.2979185,9.27444109 C11.5136956,9.40485296 11.6306985,9.49425821 11.6489593,9.54268871 C11.6610586,9.57298964 11.6669646,9.62164318 11.6669646,9.68836257 C11.6667412,9.97920047 11.5998595,10.2854915 11.4659367,10.6060887 Z" id="Shape"></path>
        </g>
    </g>
</svg>