<svg viewBox="0 -121 512 512" width="46" height="46" xmlns="http://www.w3.org/2000/svg"><path d="M437.3 168.602c-4.8-6.301-9.3-16.204-4.5-28.204 3.9-10.5 15.9-32.699 24.9-45C510.8 23.7 499.101 22.5 512 0H410.602S403.398 25.2 401 29.398C381.5 69.301 337.898 128.7 311.5 134.7c-26.102 6-22.797-55.5-21-82.199 1.5-24.602 1.2-33.3.3-37.5-.902-6.3-6.3-10.8-12.6-11.7-8.7-.902-21.598-2.402-37.2-2.702-8.102-.297-16.5-.297-25.5 0l-23.398.902c9.296 20.7 15.597 14.398 18.898 38.398 3.898 27.903 2.402 96.301-25.5 96.301C141.102 136.2 91.5 3 89.7 0H0l8.102 20.7c60.3 150.898 135.097 228 232.898 245.402 9.602 1.796 19.5 2.996 29.7 3.597l14.698.301 1.204-14.402c1.5-21.899 12.597-54 32.097-54 29.102 0 37.602 8.703 56.801 32.402 18.3 22.5 31.2 36 60.898 36H512l-10.8-21.602c-16.798-33.898-50.7-63-63.9-79.796zm0 0" fill="#7984eb"/><path d="M501.2 248.398L512 270h-75.602c-29.699 0-42.597-13.5-60.898-36-19.2-23.7-27.7-32.402-56.8-32.402-19.5 0-30.602 32.101-32.098 54L285.398 270l-14.699-.3c-10.199-.602-20.097-1.802-29.699-3.598V.598c15.602.3 28.5 1.8 37.2 2.703 6.3.898 11.698 5.398 12.597 11.699.902 4.2 1.203 12.898-.297 37.5-1.8 26.7-5.102 88.2 21 82.2 26.398-6 70-65.4 89.5-105.302C403.398 25.2 410.598 0 410.598 0H512c-12.898 22.5-1.2 23.7-54.3 95.402-9 12.297-21 34.496-24.9 45-4.8 11.996-.3 21.899 4.5 28.2 13.2 16.796 47.102 45.898 63.9 79.796zm0 0" fill="#4661d1"/></svg>