<svg viewBox="0 0 512 512" width="40" height="40" xmlns="http://www.w3.org/2000/svg"><path d="M437 0H75C33.602 0 0 33.602 0 75v362c0 41.398 33.602 75 75 75h362c41.398 0 75-33.602 75-75V75c0-41.398-33.602-75-75-75zm0 0" fill="#ff5b5b"/><path d="M512 75v362c0 41.398-33.602 75-75 75H256V0h181c41.398 0 75 33.602 75 75zm0 0" fill="#ff3997"/><path d="M407 150c-24.813 0-45-20.188-45-45s20.188-45 45-45 45 20.188 45 45-20.188 45-45 45zm0-60c-8.277 0-15 6.723-15 15s6.723 15 15 15 15-6.723 15-15-6.723-15-15-15zm0 0" fill="#e2e2e7"/><path d="M256 120c-74.398 0-135 60.598-135 135 0 74.398 60.602 135 135 135s136-60.602 136-135c0-74.402-61.602-135-136-135zm0 240c-57.898 0-105-47.102-105-105s47.102-105 105-105 106 47.102 106 105-48.102 105-106 105zm0 0" fill="#ececf1"/><path d="M392 255c0 74.398-61.602 135-136 135v-30c57.898 0 106-47.102 106-105s-48.102-105-106-105v-30c74.398 0 136 60.598 136 135zm0 0" fill="#e2e2e7"/></svg>