<?xml version="1.0" encoding="UTF-8" standalone="no"?>
<!DOCTYPE svg PUBLIC "-//W3C//DTD SVG 1.1//EN" "http://www.w3.org/Graphics/SVG/1.1/DTD/svg11.dtd">
<svg xmlns="http://www.w3.org/2000/svg" version="1.1" viewBox="263 526 292.7104 297" width="73.175pt" height="74.25pt">
  <defs/>
  <g stroke="none" stroke-opacity="1" stroke-dasharray="none" fill="none" fill-opacity="1">
    <title>Canvas 1</title>
    <!-- <rect fill="white" width="292.7104" height="297"/> -->
    <g>
      <title>Layer 1</title>
      <path d="M 486.5109 603.674 C 507.9249 603.674 525.3479 586.252 525.3479 564.837 C 525.3479 543.422 507.9249 526 486.5109 526 C 465.0969 526 447.6749 543.422 447.6749 564.837 C 447.6749 586.252 465.0959 603.674 486.5109 603.674 Z M 486.5109 542.819 C 498.6509 542.819 508.5289 552.697 508.5289 564.837 C 508.5289 576.977 498.6509 586.855 486.5109 586.855 C 474.3709 586.855 464.4939 576.977 464.4939 564.837 C 464.4939 552.697 474.3699 542.819 486.5109 542.819 Z" fill="#434343"/>
      <path d="M 531.4319 720.311 C 517.8109 752.15 487.0909 774.506 450.8819 776.75 L 465.5809 762.05 C 468.8649 758.765 468.8649 753.441 465.5809 750.157 C 462.2959 746.874 456.9729 746.874 453.6879 750.157 L 424.4449 779.401 C 421.1609 782.686 421.1609 788.01 424.4449 791.294 L 453.6879 820.537 C 455.3299 822.178 457.4819 823 459.6349 823 C 461.7879 823 463.9389 822.179 465.5819 820.537 C 468.8659 817.253 468.8659 811.928 465.5819 808.644 L 450.5549 793.618 C 503.7959 790.982 551.5729 750.968 555.2809 698.703 C 556.0999 687.161 555.4959 652.42 555.4959 652.42 C 555.4959 635.84 545.2079 621.179 529.4789 615.937 C 529.4149 615.916 518.5509 612.582 518.5509 612.582 C 514.2719 611.266 509.7159 613.538 508.1829 617.741 L 494.1519 656.237 C 494.1519 656.237 490.6049 634.263 490.3109 633.778 C 490.3279 633.749 490.3499 633.724 490.3669 633.695 L 497.8199 620.786 C 498.6149 619.408 498.6149 617.712 497.8199 616.334 C 497.0249 614.956 495.5539 614.108 493.9639 614.108 L 479.0579 614.108 C 477.4679 614.108 475.9969 614.956 475.2019 616.334 C 474.4069 617.712 474.4069 619.408 475.2019 620.786 L 482.6549 633.695 C 482.6719 633.724 482.6929 633.75 482.7109 633.778 C 482.4169 634.263 478.8699 656.237 478.8699 656.237 L 464.8399 617.741 C 463.3079 613.537 458.7489 611.264 454.4719 612.582 C 454.4719 612.582 443.6079 615.916 443.5439 615.937 C 427.8149 621.179 417.2479 635.84 417.2479 652.42 L 417.2479 711.902 C 417.2479 716.546 421.0129 720.311 425.6569 720.311 L 531.4319 720.311 Z M 434.0659 703.493 L 434.0659 652.42 C 434.0659 643.122 439.9719 634.896 448.7729 631.921 L 451.7709 631.001 L 478.1919 703.492 L 434.0659 703.492 Z M 538.5769 694.347 C 538.5769 699.619 531.6849 703.493 526.1179 703.493 L 494.8289 703.493 L 521.2509 631.002 L 524.2489 631.922 C 533.0509 634.897 538.5769 643.122 538.5769 652.421 C 538.5769 652.421 538.5769 683.161 538.5769 694.347 Z" fill="#434343"/>
      <path d="M 332.5549 745.894 C 347.2089 745.894 359.1309 733.972 359.1309 719.318 C 359.1309 704.665 347.2089 692.742 332.5549 692.742 C 317.9019 692.742 305.9789 704.664 305.9789 719.318 C 305.9799 733.971 317.9019 745.894 332.5549 745.894 Z M 332.5549 709.561 C 337.9349 709.561 342.3129 713.938 342.3129 719.318 C 342.3129 724.698 337.9349 729.075 332.5549 729.075 C 327.1749 729.075 322.7979 724.698 322.7979 719.318 C 322.7979 713.938 327.1749 709.561 332.5549 709.561 Z" fill="#434343"/>
      <path d="M 376.4899 545.452 C 373.2049 542.169 367.8819 542.169 364.5969 545.452 C 361.3129 548.737 361.3129 554.061 364.5969 557.345 L 379.6199 572.367 C 321.4399 575.174 274.9359 621.965 274.4169 684.778 L 264.1269 702.601 C 263.0119 704.532 262.7099 706.828 263.2869 708.982 C 263.8639 711.136 265.2729 712.973 267.2049 714.088 L 276.2629 719.318 L 267.2049 724.548 C 265.2739 725.663 263.8639 727.5 263.2869 729.654 C 262.7089 731.808 263.0119 734.104 264.1269 736.035 L 283.8639 770.22 C 286.1859 774.243 291.3279 775.618 295.3509 773.298 L 304.4089 768.068 L 304.4089 778.527 C 304.4089 783.171 308.1739 786.936 312.8179 786.936 L 352.2909 786.936 C 356.9349 786.936 360.6999 783.171 360.6999 778.527 L 360.6999 768.068 L 369.7579 773.298 C 371.6889 774.413 373.9849 774.715 376.1389 774.138 C 378.2929 773.561 380.1299 772.152 381.2449 770.22 L 400.9809 736.035 C 403.3029 732.013 401.9249 726.87 397.9029 724.548 L 388.8439 719.318 L 397.9029 714.088 C 401.9249 711.765 403.3029 706.623 400.9809 702.601 L 381.2449 668.416 C 380.1299 666.485 378.2929 665.075 376.1389 664.498 C 373.9849 663.918 371.6889 664.223 369.7579 665.338 L 360.6999 670.568 L 360.6999 660.108 C 360.6999 655.464 356.9349 651.699 352.2909 651.699 L 312.8189 651.699 C 308.1749 651.699 304.4099 655.464 304.4099 660.108 L 304.4099 670.568 L 295.3519 665.338 C 294.6199 664.916 293.8509 664.619 293.0679 664.436 C 301.3329 623.356 336.4769 591.893 379.2969 589.24 L 364.5969 603.939 C 361.3129 607.223 361.3129 612.548 364.5969 615.832 C 366.2389 617.473 368.3909 618.295 370.5439 618.295 C 372.6969 618.295 374.8479 617.474 376.4909 615.832 L 405.7349 586.588 C 407.3119 585.01 408.1979 582.871 408.1979 580.641 C 408.1979 578.41 407.3119 576.272 405.7349 574.694 L 376.4899 545.452 Z M 308.6139 692.416 C 311.2169 693.917 314.4199 693.917 317.0229 692.416 C 319.6249 690.914 321.2279 688.138 321.2279 685.133 L 321.2279 668.516 L 343.8829 668.516 L 343.8829 685.133 C 343.8829 688.138 345.4859 690.913 348.0879 692.416 C 350.6909 693.917 353.8959 693.917 356.4969 692.416 L 370.8869 684.108 L 382.2139 703.727 L 367.8239 712.035 C 365.2219 713.537 363.6189 716.313 363.6189 719.318 C 363.6189 722.323 365.2219 725.098 367.8239 726.601 L 382.2139 734.909 L 370.8869 754.528 L 356.4969 746.22 C 353.8939 744.719 350.6889 744.719 348.0879 746.22 C 345.4859 747.722 343.8829 750.498 343.8829 753.503 L 343.8829 770.119 L 321.2279 770.119 L 321.2279 753.503 C 321.2279 750.498 319.6249 747.723 317.0229 746.22 C 314.4199 744.719 311.2169 744.719 308.6139 746.22 L 294.2239 754.528 L 282.8959 734.909 L 297.2859 726.601 C 299.8879 725.099 301.4909 722.323 301.4909 719.318 C 301.4909 716.313 299.8879 713.538 297.2859 712.035 L 282.8959 703.727 L 294.2239 684.108 L 308.6139 692.416 Z" fill="#434343"/>
    </g>
  </g>
</svg>
