<?xml version="1.0" encoding="UTF-8" standalone="no"?>
<!DOCTYPE svg PUBLIC "-//W3C//DTD SVG 1.1//EN" "http://www.w3.org/Graphics/SVG/1.1/DTD/svg11.dtd">
<svg xmlns="http://www.w3.org/2000/svg" version="1.1" viewBox="302 476 283.69125 296.999" width="70.925pt" height="74.25pt">
  <defs/>
  <g stroke="none" stroke-opacity="1" stroke-dasharray="none" fill="none" fill-opacity="1">
    <title>Canvas 1</title>
    <!-- <rect fill="white" width="283.69125" height="296.999"/> -->
    <g>
      <title>Layer 1</title>
      <path d="M 494.65875 666.658 C 494.59375 666.637 481.63975 662.662 481.63975 662.662 C 477.39875 661.356 472.87475 663.581 471.31075 667.736 L 456.14475 708.047 C 456.14475 708.047 451.92275 689.297 451.84775 689.061 L 460.02575 674.895 C 461.52675 672.295 461.52675 669.093 460.02575 666.493 C 458.52475 663.893 455.75175 662.292 452.74975 662.292 L 434.94375 662.292 C 431.94175 662.292 429.16875 663.893 427.66775 666.493 C 426.16675 669.093 426.16675 672.295 427.66775 674.895 L 435.84575 689.061 C 435.77075 689.297 431.54875 708.047 431.54875 708.047 L 416.38275 667.736 C 414.81875 663.582 410.29875 661.358 406.05375 662.662 C 406.05375 662.662 393.09975 666.637 393.03475 666.658 C 374.91775 672.697 362.74575 689.586 362.74575 708.683 L 362.74575 764.597 C 362.74575 769.237 366.50775 772.999 371.14775 772.999 L 516.54775 772.999 C 521.18775 772.999 524.94975 769.237 524.94975 764.597 L 524.94975 708.683 C 524.94775 689.586 512.77475 672.697 494.65875 666.658 Z M 379.54775 756.196 L 379.54775 708.684 C 379.54775 696.863 387.06275 686.405 398.25775 682.63 L 403.43275 681.042 L 431.70875 756.196 L 379.54775 756.196 Z M 508.14375 756.196 L 455.98375 756.196 L 484.25975 681.042 L 489.43475 682.63 C 500.62975 686.404 508.14475 696.862 508.14475 708.684 L 508.14475 756.196 Z" fill="#434343"/>
      <path d="M 443.84575 648.805 C 468.52175 648.805 488.59675 628.73 488.59675 604.053 C 488.59675 579.377 468.52175 559.302 443.84575 559.302 C 419.16975 559.302 399.09475 579.377 399.09475 604.053 C 399.09475 628.73 419.16975 648.805 443.84575 648.805 Z M 443.84575 576.105 C 459.25575 576.105 471.79275 588.642 471.79275 604.052 C 471.79275 619.463 459.25575 632 443.84575 632 C 428.43575 632 415.89875 619.463 415.89875 604.052 C 415.89875 588.643 428.43575 576.105 443.84575 576.105 Z" fill="#434343"/>
      <path d="M 583.23075 598.02 L 560.51275 575.302 C 557.23075 572.022 551.91175 572.022 548.62975 575.302 C 545.34875 578.583 545.34875 583.904 548.62975 587.185 L 557.09675 595.652 L 518.42275 595.652 C 514.54275 560.972 486.92775 533.38 452.24875 529.497 L 452.24875 504.687 L 460.62375 513.062 C 462.26475 514.702 464.41475 515.523 466.56475 515.523 C 468.71475 515.523 470.86475 514.702 472.50575 513.062 C 475.78675 509.781 475.78675 504.46 472.50575 501.179 L 449.78675 478.46 C 446.50475 475.18 441.18575 475.18 437.90375 478.46 L 415.18575 501.178 C 411.90475 504.459 411.90475 509.78 415.18575 513.061 C 418.46775 516.341 423.78675 516.341 427.06875 513.061 L 435.44375 504.686 L 435.44375 529.496 C 400.76475 533.379 373.14875 560.971 369.26975 595.651 L 330.59475 595.651 L 339.06175 587.184 C 342.34275 583.903 342.34275 578.582 339.06175 575.301 C 335.77975 572.021 330.46075 572.021 327.17875 575.301 L 304.46075 598.02 C 301.17975 601.301 301.17975 606.622 304.46075 609.903 L 327.17875 632.621 C 328.81975 634.261 330.96975 635.082 333.11975 635.082 C 335.27075 635.082 337.41975 634.261 339.06075 632.621 C 342.34175 629.34 342.34175 624.019 339.06075 620.738 L 330.77675 612.455 L 377.20275 612.455 C 381.84275 612.455 385.60475 608.693 385.60475 604.053 C 385.60475 571.939 411.73075 545.813 443.84475 545.813 C 475.95875 545.813 502.08475 571.939 502.08475 604.053 C 502.08475 608.693 505.84675 612.455 510.48675 612.455 L 556.91275 612.455 L 548.62875 620.738 C 545.34775 624.019 545.34775 629.34 548.62875 632.621 C 550.26975 634.261 552.41975 635.082 554.56975 635.082 C 556.71975 635.082 558.86975 634.261 560.51075 632.621 L 583.22875 609.903 C 586.51175 606.621 586.51175 601.301 583.23075 598.02 Z" fill="#434343"/>
    </g>
  </g>
</svg>
