<?xml version="1.0" encoding="UTF-8" standalone="no"?>
<!DOCTYPE svg PUBLIC "-//W3C//DTD SVG 1.1//EN" "http://www.w3.org/Graphics/SVG/1.1/DTD/svg11.dtd">
<svg xmlns="http://www.w3.org/2000/svg" version="1.1" viewBox="238 446 289.606 297" width="72.4pt" height="74.25pt">
  <defs/>
  <g stroke="none" stroke-opacity="1" stroke-dasharray="none" fill="none" fill-opacity="1">
    <title>Canvas 1</title>
    <!-- <rect fill="white" width="289.606" height="297"/> -->
    <g>
      <title>Layer 1</title>
      <path d="M 373.474 676.144 L 373.474 618.194 C 373.474 601.931 363.108 587.549 347.68 582.407 C 347.616 582.386 337.027 579.136 337.027 579.136 C 332.722 577.815 328.149 580.096 326.609 584.32 L 314.918 616.398 C 314.918 616.398 310.873 598.585 310.732 598.264 L 317.734 586.137 C 318.711 584.446 318.712 582.361 317.734 580.669 C 316.757 578.977 314.953 577.935 312.999 577.935 L 298.476 577.935 C 296.523 577.935 294.718 578.977 293.741 580.669 C 292.763 582.361 292.764 584.446 293.741 586.137 L 300.743 598.264 C 300.601 598.585 296.556 616.398 296.556 616.398 L 284.865 584.32 C 283.324 580.096 278.746 577.811 274.447 579.136 C 274.447 579.136 263.859 582.385 263.795 582.407 C 248.366 587.55 238 601.931 238 618.194 L 238 676.144 C 238 680.811 241.783 684.594 246.45 684.594 L 365.024 684.594 C 369.69 684.594 373.474 680.811 373.474 676.144 Z M 254.901 667.694 L 254.901 618.195 C 254.901 609.25 260.583 601.334 269.051 598.47 L 271.734 597.647 L 297.264 667.694 Z M 356.573 667.694 L 314.21 667.694 L 339.74 597.647 L 342.423 598.47 C 350.891 601.333 356.573 609.248 356.573 618.195 L 356.573 667.694 Z" fill="#434343"/>
      <path d="M 305.737 570.962 C 326.742 570.962 343.831 553.873 343.831 532.868 C 343.831 511.864 326.742 494.775 305.737 494.775 C 284.733 494.775 267.644 511.864 267.644 532.868 C 267.644 553.873 284.733 570.962 305.737 570.962 Z M 305.737 511.676 C 317.423 511.676 326.93 521.182 326.93 532.869 C 326.93 544.556 317.423 554.062 305.737 554.062 C 294.051 554.062 284.544 544.555 284.544 532.869 C 284.544 521.183 294.051 511.676 305.737 511.676 Z" fill="#434343"/>
      <path d="M 501.813 582.407 C 501.749 582.386 491.16 579.136 491.16 579.136 C 486.856 577.815 482.282 580.096 480.742 584.32 L 469.051 616.398 C 469.051 616.398 465.006 598.585 464.864 598.264 L 471.866 586.137 C 472.843 584.446 472.844 582.361 471.866 580.669 C 470.889 578.977 469.085 577.935 467.131 577.935 L 452.609 577.935 C 450.656 577.935 448.851 578.977 447.874 580.669 C 446.896 582.361 446.897 584.446 447.874 586.137 L 454.876 598.264 C 454.734 598.585 450.689 616.398 450.689 616.398 L 438.998 584.32 C 437.458 580.096 432.877 577.811 428.58 579.136 C 428.58 579.136 417.992 582.385 417.928 582.407 C 402.499 587.55 392.133 601.931 392.133 618.194 L 392.133 676.144 C 392.133 680.811 395.916 684.594 400.583 684.594 L 519.156 684.594 C 523.823 684.594 527.606 680.811 527.606 676.144 L 527.606 618.194 C 527.608 601.932 517.242 587.55 501.813 582.407 Z M 409.035 667.694 L 409.035 618.195 C 409.035 609.25 414.717 601.334 423.185 598.47 L 425.868 597.647 L 451.398 667.694 Z M 510.707 667.694 L 468.343 667.694 L 493.873 597.647 L 496.556 598.47 C 505.024 601.333 510.706 609.248 510.706 618.195 L 510.706 667.694 Z" fill="#434343"/>
      <path d="M 421.778 532.868 C 421.778 553.873 438.867 570.962 459.871 570.962 C 480.876 570.962 497.965 553.873 497.965 532.868 C 497.965 511.864 480.876 494.775 459.871 494.775 C 438.867 494.775 421.778 511.864 421.778 532.868 Z M 459.871 511.676 C 471.557 511.676 481.064 521.182 481.064 532.869 C 481.064 544.556 471.557 554.062 459.871 554.062 C 448.185 554.062 438.678 544.555 438.678 532.869 C 438.678 521.183 448.185 511.676 459.871 511.676 Z" fill="#434343"/>
      <path d="M 327.366 485.231 C 330.642 487.729 335.318 487.101 337.817 483.828 C 348.932 469.264 365.791 460.912 384.069 460.912 C 397.112 460.912 409.419 465.184 419.445 472.912 C 416.377 473.836 414.142 476.68 414.142 480.049 C 414.142 484.167 417.48 487.505 421.598 487.505 L 438.001 487.505 C 442.119 487.505 445.457 484.167 445.457 480.049 L 445.457 463.646 C 445.457 459.528 442.119 456.19 438.001 456.19 C 434.199 456.19 431.069 459.037 430.609 462.714 C 417.658 451.956 401.372 446 384.069 446 C 361.102 446 339.923 456.49 325.963 474.78 C 323.465 478.053 324.093 482.732 327.366 485.231 Z" fill="#434343"/>
      <path d="M 442.525 703.769 C 439.249 701.27 434.573 701.899 432.074 705.172 C 420.959 719.736 404.1 728.088 385.822 728.088 C 372.779 728.088 360.472 723.816 350.446 716.088 C 353.514 715.164 355.749 712.32 355.749 708.951 C 355.749 704.833 352.411 701.495 348.293 701.495 L 331.89 701.495 C 327.772 701.495 324.434 704.833 324.434 708.951 L 324.434 725.354 C 324.434 729.472 327.772 732.81 331.89 732.81 C 335.692 732.81 338.822 729.963 339.282 726.286 C 352.232 737.044 368.519 743 385.822 743 C 408.789 743 429.968 732.51 443.928 714.22 C 446.426 710.947 445.798 706.268 442.525 703.769 Z" fill="#434343"/>
    </g>
  </g>
</svg>
