<?xml version="1.0" encoding="UTF-8" standalone="no"?>
<!DOCTYPE svg PUBLIC "-//W3C//DTD SVG 1.1//EN" "http://www.w3.org/Graphics/SVG/1.1/DTD/svg11.dtd">
<svg xmlns="http://www.w3.org/2000/svg" xmlns:xl="http://www.w3.org/1999/xlink" version="1.1" viewBox="128 207 18 15" width="18pt" height="15pt" xmlns:dc="http://purl.org/dc/elements/1.1/">
  <metadata> Produced by OmniGraffle 7.4.3 
    <dc:date>2020-01-14 16:35:44 +0000</dc:date>
  </metadata>
  <defs/>
  <g stroke="none" stroke-opacity="1" stroke-dasharray="none" fill="none" fill-opacity="1">
    <title>Canvas 1</title>
    <rect fill="white" width="17.605" height="14.025"/>
    <g>
      <title>Layer 1</title>
      <path d="M 145.535 210.088 L 143.055 215.588 C 142.9314 215.8684 142.66096 216.0558 142.355 216.073 L 135.235 216.548 L 135.645 217.725 L 143.405 217.725 C 144.31614 217.725 145.05482 218.46353 145.055 219.37467 C 145.05518 220.2858 144.3168 221.02463 143.40567 221.025 C 142.49453 221.02537 141.75555 220.28714 141.755 219.376 L 134.055 219.376 C 134.05445 220.28714 133.31547 221.02537 132.40433 221.025 C 131.4932 221.02463 130.75482 220.2858 130.755 219.37467 C 130.75518 218.46353 131.49386 217.725 132.405 217.725 L 133.895 217.725 L 130.715 208.65 L 128.825 208.65 C 128.36937 208.65 128 208.28063 128 207.825 C 128 207.36937 128.36937 207 128.825 207 L 131.305 207 C 131.6555 207.00265 131.96705 207.22392 132.085 207.554 L 132.565 208.927 L 144.775 208.927 C 144.99459 208.92594 145.20556 209.01235 145.3613 209.16716 C 145.51705 209.32196 145.60474 209.5324 145.605 209.752 C 145.60246 209.86734 145.57873 209.98124 145.535 210.088 Z M 143.505 210.575 L 133.145 210.575 Z" fill="white"/>
    </g>
  </g>
</svg>
