<?xml version="1.0" encoding="UTF-8" standalone="no"?>
<!DOCTYPE svg PUBLIC "-//W3C//DTD SVG 1.1//EN" "http://www.w3.org/Graphics/SVG/1.1/DTD/svg11.dtd">
<svg xmlns="http://www.w3.org/2000/svg" xmlns:xl="http://www.w3.org/1999/xlink" version="1.1" viewBox="153 395 18 18" width="18pt" height="18pt" xmlns:dc="http://purl.org/dc/elements/1.1/">
  <metadata> Produced by OmniGraffle 7.4.3 
    <dc:date>2020-01-14 16:36:31 +0000</dc:date>
  </metadata>
  <defs/>
  <g stroke="none" stroke-opacity="1" stroke-dasharray="none" fill="none" fill-opacity="1">
    <title>Canvas 1</title>
    <rect fill="white" width="17.65707" height="17.650288"/>
    <g>
      <title>Layer 2</title>
      <path d="M 170.17456 409.8308 C 170.81908 410.47695 170.81773 411.52326 170.17156 412.1678 C 169.52539 412.8123 168.47908 412.81095 167.83456 412.1648 L 163.00456 407.3288 C 160.13205 409.03036 156.44227 408.32937 154.3939 405.6929 C 152.34553 403.05646 152.57827 399.3079 154.93704 396.9451 C 157.29581 394.58226 161.04397 394.3431 163.68393 396.38693 C 166.3239 398.4308 167.0312 402.11935 165.33456 404.9948 L 170.17456 409.8308 Z M 159.65456 396.6978 C 156.92075 396.6978 154.70456 398.91397 154.70456 401.6478 C 154.70456 404.3816 156.92075 406.5978 159.65456 406.5978 C 162.38837 406.5978 164.60456 404.3816 164.60456 401.6478 C 164.60346 398.91443 162.38791 396.6989 159.65456 396.6978 Z" fill="white"/>
    </g>
  </g>
</svg>
