<?xml version="1.0" encoding="UTF-8" standalone="no"?>
<!DOCTYPE svg PUBLIC "-//W3C//DTD SVG 1.1//EN" "http://www.w3.org/Graphics/SVG/1.1/DTD/svg11.dtd">
<svg xmlns="http://www.w3.org/2000/svg" xmlns:xl="http://www.w3.org/1999/xlink" version="1.1" viewBox="226 175 390 512" width="390pt" height="512pt" xmlns:dc="http://purl.org/dc/elements/1.1/">
  <metadata> Produced by OmniGraffle 7.4.3 
    <dc:date>2020-01-12 22:28:25 +0000</dc:date>
  </metadata>
  <defs/>
  <g stroke="none" stroke-opacity="1" stroke-dasharray="none" fill="none" fill-opacity="1">
    <title>Canvas 1</title>
    <!-- <rect fill="white" width="512" height="416"/> -->
    <g>
      <title>Layer 4</title>
      <path d="M 286.94642 453.21875 C 287.58705 451.6211 293.9972 426.9883 294.44642 425.3203 C 284.4386 410.2617 273.32142 360.9492 281.84877 320.92188 C 291.048 262.1914 353.28627 233.3203 412.048 233.3203 L 412.048 233.21094 C 485.6183 233.2578 540.6886 274.1914 540.7472 344.6875 C 540.7941 399.8672 507.5519 472.8047 450.7902 472.8047 C 450.77455 472.8047 450.76283 472.8047 450.7472 472.8047 C 430.4894 472.8047 404.84096 463.6172 398.1144 454.59375 C 390.35267 444.1953 388.44642 431.3633 392.548 417.65234 C 402.59877 385.5703 415.41517 347.14062 416.91127 321.51562 C 418.298 297.33203 401.13783 281.59766 378.88392 281.59766 C 362.13783 281.59766 340.38783 291.32422 329.548 318.65625 C 320.59486 341.3633 320.78627 365.1367 330.13392 391.32812 C 333.77846 401.5664 313.97767 468.3125 307.63392 490.0469 C 291.8722 544.03906 270.29408 612.35156 274.90736 650.3945 L 279.3605 687 L 301.72767 657.6875 C 332.6808 617.168 364.6847 512.35547 373.21205 486.85156 C 398.423 519.5 450.923 520.4375 457.0441 520.4375 C 532.2277 520.4375 617.4816 445.78125 615.0636 341.875 C 612.9425 250.7539 546.255 175 426.4308 175 L 426.4308 175.11719 C 312.45424 175.11719 245.9308 235.95312 229.64564 312.8203 C 214.73158 384.09375 247.89955 438.33984 286.94642 453.21875" fill="#f38181"/>
    </g>
  </g>
</svg>
