<?xml version="1.0" encoding="UTF-8" standalone="no"?>
<!DOCTYPE svg PUBLIC "-//W3C//DTD SVG 1.1//EN" "http://www.w3.org/Graphics/SVG/1.1/DTD/svg11.dtd">
<svg xmlns="http://www.w3.org/2000/svg" xmlns:xl="http://www.w3.org/1999/xlink" version="1.1" viewBox="436 825 512 416" width="512pt" height="416pt" xmlns:dc="http://purl.org/dc/elements/1.1/">
  <metadata> Produced by OmniGraffle 7.4.3 
    <dc:date>2020-01-12 22:30:44 +0000</dc:date>
  </metadata>
  <defs/>
  <g stroke="none" stroke-opacity="1" stroke-dasharray="none" fill="none" fill-opacity="1">
    <title>Canvas 1</title>
    <!-- <rect fill="white" width="512" height="416"/> -->
    <g>
      <title>Layer 2</title>
      <path d="M 948 874.248 C 928.96 882.6 908.672 888.136 887.52 890.824 C 909.28 877.832 925.888 857.416 933.696 832.808 C 913.408 844.904 891.008 853.448 867.136 858.216 C 847.872 837.704 820.416 825 790.464 825 C 732.352 825 685.568 872.168 685.568 929.992 C 685.568 938.312 686.272 946.312 688 953.928 C 600.736 949.672 523.52 907.848 471.648 844.136 C 462.592 859.848 457.28 877.832 457.28 897.192 C 457.28 933.544 476 965.768 503.904 984.424 C 487.04 984.104 470.496 979.208 456.48 971.496 C 456.48 971.816 456.48 972.232 456.48 972.648 C 456.48 1023.656 492.864 1066.024 540.576 1075.784 C 532.032 1078.12 522.72 1079.24 513.056 1079.24 C 506.336 1079.24 499.552 1078.856 493.184 1077.448 C 506.784 1119.016 545.376 1149.576 591.264 1150.568 C 555.552 1178.504 510.208 1195.336 461.12 1195.336 C 452.512 1195.336 444.256 1194.952 436 1193.896 C 482.496 1223.88 537.6 1241 597.024 1241 C 790.176 1241 895.776 1081 895.776 942.312 C 895.776 937.672 895.616 933.192 895.392 928.744 C 916.224 913.96 933.728 895.496 948 874.248 Z" fill="#fff"/>
    </g>
  </g>
</svg>
