<?xml version="1.0" encoding="UTF-8" standalone="no"?>
<!DOCTYPE svg PUBLIC "-//W3C//DTD SVG 1.1//EN" "http://www.w3.org/Graphics/SVG/1.1/DTD/svg11.dtd">
<svg xmlns="http://www.w3.org/2000/svg" version="1.1" viewBox="293 401 450 512" width="28.125pt" height="32pt">
  <defs/>
  <g stroke="none" stroke-opacity="1" stroke-dasharray="none" fill="none" fill-opacity="1">
    <title>Canvas 1</title>
    <!-- <rect fill="white" width="450" height="512"/> -->
    <g>
      <title>Layer 1</title>
      <path d="M 518 461 C 460.103 461 413 508.103 413 566 C 413 601.943 431.126 635.015 461.487 654.467 C 492.49 674.33 530.547 676.441 565.913 660.17 C 573.438 656.708 576.733 647.8 573.27 640.274 C 569.808 632.749 560.901 629.454 553.374 632.916 C 527.514 644.814 499.92 643.461 477.671 629.207 C 455.961 615.298 443 591.669 443 566 C 443 524.645 476.645 491 518 491 C 559.355 491 593 524.645 593 566 C 593 574.271 586.271 581 578 581 C 570.442 581 563.382 575.268 563.002 566.228 C 563.001 566.152 563 566.076 563 566 C 563 541.187 542.813 521 518 521 C 493.187 521 473 541.187 473 566 C 473 590.813 493.187 611 518 611 C 529.516 611 540.031 606.647 547.999 599.506 C 555.966 606.648 566.483 611 578 611 C 602.813 611 623 590.813 623 566 C 623 508.103 575.897 461 518 461 Z M 532.789 568.406 C 531.631 575.535 525.45 581 518 581 C 509.729 581 503 574.271 503 566 C 503 557.729 509.729 551 518 551 C 525.691 551 532.04 556.82 532.895 564.285 C 532.671 565.648 532.634 567.035 532.789 568.406 Z" fill="#434343"/>
      <path d="M 742.999 597.976 C 742.995 594.097 741.433 590.22 738.606 587.393 L 683 531.787 L 683 416 C 683 407.716 676.284 401 668 401 L 368 401 C 359.716 401 353 407.716 353 416 L 353 531.787 L 297.394 587.393 C 297.342 587.445 297.298 587.503 297.247 587.556 C 294.436 590.452 293.007 594.265 293.001 597.976 L 293 598.005 L 293 868 C 293 892.845 313.216 913 338 913 L 698 913 C 722.839 913 743 892.793 743 868 L 743 598.005 Z M 683 574.213 L 706.787 598 L 683 621.787 Z M 383 538.005 L 383 537.995 L 383 431 L 653 431 L 653 537.995 L 653 538.005 L 653 651.787 L 571.787 733 L 464.213 733 L 383 651.787 Z M 353 574.213 L 353 621.787 L 329.213 598 Z M 323 861.787 L 323 634.213 L 436.787 748 Z M 344.214 883 L 464.213 763 L 571.787 763 L 691.786 883 Z M 713 861.787 L 599.213 748 L 713 634.213 Z" fill="#434343"/>
    </g>
  </g>
</svg>
