<?xml version="1.0" encoding="UTF-8" standalone="no"?>
<!DOCTYPE svg PUBLIC "-//W3C//DTD SVG 1.1//EN" "http://www.w3.org/Graphics/SVG/1.1/DTD/svg11.dtd">
<svg xmlns="http://www.w3.org/2000/svg" version="1.1" viewBox="201 196 512 512" width="32pt" height="32pt">
  <defs/>
  <g stroke="none" stroke-opacity="1" stroke-dasharray="none" fill="none" fill-opacity="1">
    <title>Canvas 1</title>
    <!-- <rect fill="white" width="512" height="512"/> -->
    <g>
      <title>Layer 1</title>
      <path d="M 276 708 L 443 708 L 443 526 L 383 526 L 383 466 L 443 466 L 443 391 C 443 349.64453 476.64453 316 518 316 L 593 316 L 593 376 L 533 376 C 516.45703 376 503 389.45703 503 406 L 503 466 L 590.293 466 L 580.293 526 L 503 526 L 503 708 L 638 708 C 679.3555 708 713 674.3555 713 633 L 713 271 C 713 229.64453 679.3555 196 638 196 L 276 196 C 234.64453 196 201 229.64453 201 271 L 201 633 C 201 674.3555 234.64453 708 276 708 M 231 271 C 231 246.1875 251.1875 226 276 226 L 638 226 C 662.8125 226 683 246.1875 683 271 L 683 633 C 683 657.8125 662.8125 678 638 678 L 533 678 L 533 556 L 605.707 556 L 625.707 436 L 533 436 L 533 406 L 623 406 L 623 286 L 518 286 C 460.10156 286 413 333.10156 413 391 L 413 436 L 353 436 L 353 556 L 413 556 L 413 678 L 276 678 C 251.1875 678 231 657.8125 231 633 L 231 271" fill="#434343"/>
    </g>
  </g>
</svg>
