<!-- <?xml version="1.0" encoding="UTF-8" standalone="no"?> -->
<!DOCTYPE svg PUBLIC "-//W3C//DTD SVG 1.1//EN" "http://www.w3.org/Graphics/SVG/1.1/DTD/svg11.dtd">
<svg xmlns="http://www.w3.org/2000/svg" version="1.1" viewBox="177 332 512 512" width="32pt" height="32pt">
  <defs/>
  <g stroke="none" stroke-opacity="1" stroke-dasharray="none" fill="none" fill-opacity="1">
    <title>Canvas 1</title>
    <!-- <rect fill="white" width="512" height="512"/> -->
    <g>
      <title>Layer 1</title>
      <path d="M 252 844 L 614 844 C 655.3555 844 689 810.3555 689 769 L 689 407 C 689 365.64453 655.3555 332 614 332 L 252 332 C 210.64453 332 177 365.64453 177 407 L 177 769 C 177 810.3555 210.64453 844 252 844 M 207 407 C 207 382.1875 227.1875 362 252 362 L 614 362 C 638.8125 362 659 382.1875 659 407 L 659 769 C 659 793.8125 638.8125 814 614 814 L 252 814 C 227.1875 814 207 793.8125 207 769 L 207 407" fill="#434343"/>
      <path d="M 433 723 C 507.4375 723 568 662.4375 568 588 C 568 513.5625 507.4375 453 433 453 C 358.5625 453 298 513.5625 298 588 C 298 662.4375 358.5625 723 433 723 M 433 483 C 490.89844 483 538 530.10156 538 588 C 538 645.8984 490.89844 693 433 693 C 375.10156 693 328 645.8984 328 588 C 328 530.10156 375.10156 483 433 483" fill="#434343"/>
      <path d="M 583 483 C 607.8125 483 628 462.8125 628 438 C 628 413.1875 607.8125 393 583 393 C 558.1875 393 538 413.1875 538 438 C 538 462.8125 558.1875 483 583 483 M 583 423 C 591.2695 423 598 429.73047 598 438 C 598 446.26953 591.2695 453 583 453 C 574.7305 453 568 446.26953 568 438 C 568 429.73047 574.7305 423 583 423" fill="#434343"/>
    </g>
  </g>
</svg>
