<?xml version="1.0" encoding="UTF-8" standalone="no"?>
<!DOCTYPE svg PUBLIC "-//W3C//DTD SVG 1.1//EN" "http://www.w3.org/Graphics/SVG/1.1/DTD/svg11.dtd">
<svg xmlns="http://www.w3.org/2000/svg" version="1.1" viewBox="188 297 512 512" width="32pt" height="32pt">
  <defs/>
  <g stroke="none" stroke-opacity="1" stroke-dasharray="none" fill="none" fill-opacity="1">
    <title>Canvas 1</title>
    <!-- <rect fill="white" width="512" height="512"/> -->
    <g>
      <title>Layer 1</title>
      <path d="M 668.5469 567.375 C 668.84766 562.59375 669 557.78125 669 553 C 669 428.3828 568.0664 327 444 327 C 439.21484 327 434.39453 327.15234 429.6094 327.45312 C 403.60938 307.77344 371.3203 297 338 297 C 255.28906 297 188 364.7383 188 448 C 188 480.71484 198.77344 512.65234 218.45312 538.6094 C 218.15234 543.3945 218 548.21484 218 553 C 218 677.3789 319.6328 779 444 779 C 448.78516 779 453.60547 778.8477 458.3906 778.5469 C 484.34766 798.2266 516.28516 809 549 809 C 631.9297 809 700 740.9102 700 658 C 700 625.96094 688.8711 594.0117 668.5469 567.375 M 549 779 C 499.26953 779 470.3008 749.0703 467.8906 747.6523 C 463.8047 747.957 455.8633 749 444 749 C 335.9258 749 248 661.0742 248 553 C 248 541.10156 249.05078 533.08984 249.35156 529.1133 C 247.96094 526.7539 218 497.7539 218 448 C 218 381.28125 271.83203 327 338 327 C 388.9922 327 417.70703 356.9453 420.1094 358.34766 C 424.0781 358.0508 432.1094 357 444 357 C 551.52344 357 639 444.9258 639 553 C 639 564.89844 637.9492 572.91016 637.6484 576.8867 C 639.0469 579.22266 670 609.6992 670 658 C 670 724.71875 615.71875 779 549 779" fill="#434343"/>
      <path d="M 444 508 C 429.1836 508 414.73047 504.2578 405.33203 497.9844 C 402.39062 496.01953 400.4336 494.27344 399.22656 493 C 400.4336 491.72266 402.39844 489.97266 405.34766 488.0039 C 431.91406 470.27734 478.5469 480.46484 488.4375 492.6289 C 503.7656 511.4883 520 507.5586 524.207 508 C 541.21875 508 556.3906 498.45703 563.8008 483.09375 C 571.1719 467.8164 569.21875 450.1094 558.6992 436.8867 C 513 379.41016 410.3789 375.7578 354.41016 413.1367 C 324.91406 432.78516 308 461.89453 308 493 C 308 524.1055 324.91016 553.21094 354.3789 572.83984 C 378.3164 588.8281 410.98047 598 444 598 C 458.8164 598 473.26953 601.7422 482.66797 608.0156 C 485.66016 610.0156 487.4375 611.8203 488.3672 613 C 487.4375 614.1797 485.65625 615.9922 482.65234 617.9961 C 456.5508 635.40625 408.8711 626.0508 398.5664 613.3672 C 381.09766 591.8789 338.58594 591.0156 323.1992 622.90625 C 315.83203 638.1797 317.78516 655.8867 328.3008 669.1133 C 355.09766 702.8164 401.27344 718 444 718 C 476.85547 718 508.3242 709.0703 532.58984 692.8672 C 562.08594 673.21484 579 644.1055 579 613 C 579 558.53906 525.0703 508 444 508 M 515.9414 667.90625 C 496.54297 680.8633 470.9922 688 444 688 C 410.3789 688 372.6133 676.6406 351.78125 650.4453 C 346.97266 644.3984 349.08984 638.2891 350.21875 635.9414 C 355.70312 624.5742 371.26953 627.35156 375.28516 632.293 C 396.3203 658.1758 461.4844 668.1836 499.3086 642.9492 C 512.0078 634.46875 519 623.832 519 613 C 519 602.16406 512.0117 591.53125 499.3203 583.0625 C 484.97656 573.4883 464.8164 568 444 568 C 416.7617 568 390.17187 560.6719 371.02734 547.8828 C 350.03906 533.90234 338 513.89844 338 493 C 338 472.10156 350.04297 452.09375 371.0586 438.09375 C 414.6211 409.0039 499.8281 411.04688 535.21875 455.5547 C 540.02734 461.60547 537.91406 467.71094 536.78125 470.0586 C 535.8828 471.9219 532.3203 478 524.207 478 C 516.8047 477.6836 515.78516 478.71484 511.71484 473.71094 C 491.03516 448.2656 426.9844 437.5078 388.6914 463.0508 C 379.2539 469.35547 368 479.66797 368 493 C 368 506.33984 379.2461 516.64453 388.6797 522.9375 C 403.02344 532.5117 423.1836 538 444 538 C 470.9922 538 496.5469 545.1406 515.97266 558.1172 C 536.96094 572.09766 549 592.10156 549 613 C 549 633.89844 536.957 653.90625 515.9414 667.90625" fill="#434343"/>
    </g>
  </g>
</svg>
