<?xml version="1.0" encoding="UTF-8" standalone="no"?>
<!DOCTYPE svg PUBLIC "-//W3C//DTD SVG 1.1//EN" "http://www.w3.org/Graphics/SVG/1.1/DTD/svg11.dtd">
<svg xmlns="http://www.w3.org/2000/svg" version="1.1" viewBox="303 429 512.0042 480.99405" width="32pt" height="30pt">
  <defs/>
  <g stroke="none" stroke-opacity="1" stroke-dasharray="none" fill="none" fill-opacity="1">
    <title>Canvas 1</title>
    <!-- <rect fill="white" width="512.0042" height="480.99405"/> -->
    <g>
      <title>Layer 1</title>
      <path d="M 811.1937 434.0119 C 806.7637 429.0519 799.7737 427.7219 793.9837 430.2519 L 311.98374 641.2519 C 306.64374 643.5919 303.13374 648.8219 303.00374 654.6619 C 302.87374 660.4919 306.14374 665.8719 311.38374 668.4519 L 426.47374 725.0519 L 455.15374 897.1119 C 456.08374 903.6419 461.21374 908.8919 467.89374 909.8419 C 472.69374 910.5319 477.46374 908.8419 480.76374 905.4419 L 571.62374 814.5819 L 701.2837 907.2019 C 705.4437 910.1619 710.8037 910.8119 715.5237 908.9419 C 720.2537 907.0719 723.7137 902.9219 724.7137 897.9319 L 814.7137 446.9319 C 815.6037 442.4619 814.4537 437.6719 811.1937 434.0119 Z M 438.35374 697.4619 L 353.60374 655.7819 L 688.4237 509.2119 Z M 485.29374 742.0519 L 471.34374 811.8019 L 456.29374 721.5019 L 640.2637 583.0119 L 489.38374 734.4019 C 487.26374 736.5219 485.85374 739.2819 485.29374 742.0519 Z M 494.42374 849.3519 L 510.16374 770.6819 L 546.87374 796.9019 Z M 699.8337 869.2919 L 523.10374 743.0619 L 775.5737 489.7519 Z" fill="#434343"/>
    </g>
  </g>
</svg>
