<?xml version="1.0" encoding="UTF-8" standalone="no"?>
<!DOCTYPE svg PUBLIC "-//W3C//DTD SVG 1.1//EN" "http://www.w3.org/Graphics/SVG/1.1/DTD/svg11.dtd">
<svg xmlns="http://www.w3.org/2000/svg" version="1.1" viewBox="334 434 512 512" width="32pt" height="32pt">
  <defs/>
  <g stroke="none" stroke-opacity="1" stroke-dasharray="none" fill="none" fill-opacity="1">
    <title>Canvas 1</title>
    <!-- <rect fill="white" width="512" height="512"/> -->
    <g>
      <title>Layer 1</title>
      <path d="M 457.83203 909.4648 C 497.3906 933.2695 542.6211 945.8164 589.09375 945.8164 C 729.918 945.8164 846 830.9023 846 689.90625 C 846 549.0742 730.082 434 589.09375 434 C 448.53516 434 334.1836 548.8008 334.1836 689.90625 C 334.1836 737 346.73438 782.5742 370.53516 822.1641 L 334 946 L 457.83203 909.4648 M 364.1758 689.90625 C 364.1758 565.33594 465.0742 463.9883 589.09375 463.9883 C 714.21484 463.9883 816.0117 565.33594 816.0117 689.90625 C 816.0117 814.4805 714.21484 915.8242 589.09375 915.8242 C 546.03906 915.8242 504.1992 903.6289 468.1094 880.5508 L 462.34375 876.8672 L 378.35547 901.6484 L 403.1328 817.65625 L 399.4492 811.8945 C 376.3711 775.7969 364.1758 733.6172 364.1758 689.90625 L 364.1758 689.90625" fill="#434343"/>
      <path d="M 458.6289 642.7539 C 463.58203 668.7656 478.28516 718.7969 521.09375 761.6055 C 563.90234 804.4141 613.9336 819.1211 639.9492 824.0742 C 669.7383 829.7461 713.4531 830.6016 734.8164 809.2383 L 746.7266 797.3281 C 752.7383 791.3164 756.0508 783.3203 756.0508 774.8164 C 756.0508 766.3125 752.7383 758.3203 746.7266 752.3086 L 699.09766 704.6797 C 693.082 698.6641 685.08984 695.3555 676.5859 695.3555 C 668.082 695.3555 660.08984 698.6641 654.0742 704.6797 L 642.168 716.5859 C 634.8945 723.8594 621.16406 723.8906 613.83594 716.6758 L 566.3281 667.1758 C 566.2578 667.1016 566.1875 667.02734 566.1133 666.957 C 558.8281 659.6719 558.8281 647.8164 566.1133 640.53125 L 578.0195 628.625 C 590.46484 616.1797 590.46484 596.043 578.0195 583.60156 L 530.3906 535.97266 C 517.98047 523.5625 497.78516 523.5625 485.3711 535.97266 L 473.46484 547.8828 L 473.46484 547.8789 C 456.41406 564.9336 450.73047 601.28516 458.6289 642.7539 M 494.6719 569.08984 C 507.1719 556.875 506.5039 556.6406 507.8828 556.6406 C 508.35547 556.6406 508.8281 556.8203 509.1875 557.1797 C 559.375 607.6367 557.3594 604.6719 557.3594 606.1172 C 557.3594 606.6211 557.1758 607.0625 556.8203 607.4219 L 544.91016 619.3281 C 525.9453 638.293 525.8711 668.9922 544.78906 688.043 L 592.3242 737.5742 C 592.39844 737.6445 592.46875 737.71875 592.543 737.793 C 611.5039 756.7539 644.3516 756.8164 663.375 737.793 L 675.28125 725.8867 C 676 725.168 677.1719 725.168 677.8906 725.8867 C 728.0781 776.3398 726.0625 773.375 726.0625 774.8203 C 726.0625 775.3281 725.8789 775.7656 725.5234 776.125 L 713.6133 788.03125 C 705.4531 796.1914 679.4609 801.0742 645.5586 794.6172 C 622.9336 790.3047 579.4297 777.53125 542.3008 740.4023 C 505.1719 703.2734 492.39844 659.7695 488.08984 637.1445 C 481.6289 603.2422 486.5117 577.2461 494.6719 569.08984 L 494.6719 569.08984" fill="#434343"/>
    </g>
  </g>
</svg>
