<?xml version="1.0" encoding="UTF-8" standalone="no"?>
<!DOCTYPE svg PUBLIC "-//W3C//DTD SVG 1.1//EN" "http://www.w3.org/Graphics/SVG/1.1/DTD/svg11.dtd">
<svg xmlns="http://www.w3.org/2000/svg" xmlns:xl="http://www.w3.org/1999/xlink" version="1.1" viewBox="72 525 25 20" width="25pt" height="20pt" xmlns:dc="http://purl.org/dc/elements/1.1/">
  <metadata> Produced by OmniGraffle 7.4.3 
    <dc:date>2019-12-27 13:16:59 +0000</dc:date>
  </metadata>
  <defs/>
  <g stroke="none" stroke-opacity="1" stroke-dasharray="none" fill="none" fill-opacity="1">
    <title>Canvas 1</title>
    <rect fill="white" width="9.092" height="15.592"/>
    <g>
      <title>Layer 8</title>
      <path d="M 96.5 542 L 96.5 544 C 96.5 544.547 96.047 545 95.5 545 L 73.5 545 C 72.953 545 72.5 544.547 72.5 544 L 72.5 542 C 72.5 541.453 72.953 541 73.5 541 L 95.5 541 C 96.047 541 96.5 541.453 96.5 542 Z M 96.5 534 L 96.5 536 C 96.5 536.547 96.047 537 95.5 537 L 73.5 537 C 72.953 537 72.5 536.547 72.5 536 L 72.5 534 C 72.5 533.453 72.953 533 73.5 533 L 95.5 533 C 96.047 533 96.5 533.453 96.5 534 Z M 96.5 526 L 96.5 528 C 96.5 528.547 96.047 529 95.5 529 L 73.5 529 C 72.953 529 72.5 528.547 72.5 528 L 72.5 526 C 72.5 525.453 72.953 525 73.5 525 L 95.5 525 C 96.047 525 96.5 525.453 96.5 526 Z" fill="#212020"/>
    </g>
  </g>
</svg>
