<?xml version="1.0" encoding="UTF-8" standalone="no"?>
<!DOCTYPE svg PUBLIC "-//W3C//DTD SVG 1.1//EN" "http://www.w3.org/Graphics/SVG/1.1/DTD/svg11.dtd">
<svg xmlns="http://www.w3.org/2000/svg" xmlns:xl="http://www.w3.org/1999/xlink" version="1.1" viewBox="72 525 29 22" width="29pt" height="22pt" xmlns:dc="http://purl.org/dc/elements/1.1/">
  <metadata> Produced by OmniGraffle 7.4.3 
    <dc:date>2019-12-27 13:18:32 +0000</dc:date>
  </metadata>
  <defs/>
  <g stroke="none" stroke-opacity="1" stroke-dasharray="none" fill="none" fill-opacity="1">
    <title>Canvas 1</title>
    <rect fill="white" width="28" height="22"/>
    <g>
      <title>Layer 5</title>
      <path d="M 98.5 544.5 L 98.5 532.5 C 98.172 532.875 97.812 533.219 97.422 533.531 C 95.188 535.25 92.938 537 90.766 538.812 C 89.594 539.796 88.141 541 86.516 541 L 86.485 541 C 84.86 541 83.407 539.797 82.235 538.812 C 80.063 536.999 77.813 535.249 75.579 533.531 C 75.188 533.218 74.829 532.875 74.501 532.5 L 74.501 544.5 C 74.501 544.766 74.735 545 75.001 545 L 98.001 545 C 98.267 545 98.501 544.766 98.501 544.5 Z M 98.5 528.078 C 98.5 527.687 98.594 527 98 527 L 75 527 C 74.734 527 74.5 527.234 74.5 527.5 C 74.5 529.281 75.391 530.828 76.797 531.938 C 78.891 533.579 80.985 535.235 83.063 536.891 C 83.891 537.563 85.391 539 86.485 539 L 86.516 539 C 87.61 539 89.11 537.563 89.938 536.891 C 92.016 535.235 94.11 533.578 96.204 531.938 C 97.22 531.141 98.501 529.407 98.501 528.079 Z M 100.5 527.5 L 100.5 544.5 C 100.5 545.875 99.375 547 98 547 L 75 547 C 73.625 547 72.5 545.875 72.5 544.5 L 72.5 527.5 C 72.5 526.125 73.625 525 75 525 L 98 525 C 99.375 525 100.5 526.125 100.5 527.5 Z" fill="#ffc222"/>
    </g>
  </g>
</svg>
