<?xml version="1.0" encoding="UTF-8" standalone="no"?>
<!DOCTYPE svg PUBLIC "-//W3C//DTD SVG 1.1//EN" "http://www.w3.org/Graphics/SVG/1.1/DTD/svg11.dtd">
<svg xmlns="http://www.w3.org/2000/svg" xmlns:xl="http://www.w3.org/1999/xlink" version="1.1" viewBox="72 525 23 22" width="23pt" height="22pt" xmlns:dc="http://purl.org/dc/elements/1.1/">
  <metadata> Produced by OmniGraffle 7.4.3 
    <dc:date>2019-12-27 13:19:30 +0000</dc:date>
  </metadata>
  <defs/>
  <g stroke="none" stroke-opacity="1" stroke-dasharray="none" fill="none" fill-opacity="1">
    <title>Canvas 1</title>
    <rect fill="white" width="22.001" height="21.999"/>
    <g>
      <title>Layer 3</title>
      <path d="M 94.499 542.375 C 94.499 542.937 94.249 544.031 94.015 544.547 C 93.687 545.313 92.812 545.813 92.109 546.203 C 91.187 546.703 90.25 547 89.203 547 C 87.75 547 86.437 546.406 85.109 545.922 C 84.156 545.578 83.234 545.156 82.375 544.625 C 79.719 542.984 76.516 539.781 74.875 537.125 C 74.344 536.266 73.922 535.344 73.578 534.391 C 73.094 533.063 72.5 531.75 72.5 530.297 C 72.5 529.25 72.797 528.313 73.297 527.391 C 73.688 526.688 74.188 525.813 74.953 525.485 C 75.469 525.251 76.562 525.001 77.125 525.001 C 77.234 525.001 77.344 525.001 77.453 525.048 C 77.781 525.157 78.125 525.923 78.281 526.236 C 78.781 527.127 79.265 528.033 79.781 528.908 C 80.031 529.314 80.5 529.814 80.5 530.299 C 80.5 531.252 77.672 532.643 77.672 533.486 C 77.672 533.908 78.063 534.455 78.281 534.83 C 79.859 537.674 81.828 539.643 84.672 541.221 C 85.047 541.44 85.594 541.83 86.016 541.83 C 86.86 541.83 88.25 539.002 89.203 539.002 C 89.687 539.002 90.187 539.471 90.594 539.721 C 91.469 540.237 92.375 540.721 93.266 541.221 C 93.579 541.377 94.344 541.721 94.454 542.049 C 94.501 542.158 94.501 542.268 94.501 542.377 Z" fill="#ffc222"/>
    </g>
  </g>
</svg>
