<?xml version="1.0" encoding="UTF-8" standalone="no"?>
<!DOCTYPE svg PUBLIC "-//W3C//DTD SVG 1.1//EN" "http://www.w3.org/Graphics/SVG/1.1/DTD/svg11.dtd">
<svg xmlns="http://www.w3.org/2000/svg" xmlns:xl="http://www.w3.org/1999/xlink" version="1.1" viewBox="71 525 27 22" width="13pt" height="10pt" xmlns:dc="http://purl.org/dc/elements/1.1/">
  <metadata> Produced by OmniGraffle 7.4.3 
    <dc:date>2019-12-27 13:19:51 +0000</dc:date>
  </metadata>
  <defs/>
  <g stroke="none" stroke-opacity="1" stroke-dasharray="none" fill="none" fill-opacity="1">
    <title>Canvas 1</title>
    <rect fill="white" width="26" height="22"/>
    <g>
      <title>Layer 2</title>
      <path d="M 83.6095 528 L 83.6095 539 C 83.6095 543.406 80.0155 547 75.6095 547 L 74.6095 547 C 74.0625 547 73.6095 546.547 73.6095 546 L 73.6095 544 C 73.6095 543.453 74.0625 543 74.6095 543 L 75.6095 543 C 77.8125 543 79.6095 541.203 79.6095 539 L 79.6095 538.5 C 79.6095 537.672 78.9375 537 78.1095 537 L 74.6095 537 C 72.9535 537 71.6095 535.656 71.6095 534 L 71.6095 528 C 71.6095 526.344 72.9535 525 74.6095 525 L 80.6095 525 C 82.2655 525 83.6095 526.344 83.6095 528 Z M 97.6095 528 L 97.6095 539 C 97.6095 543.406 94.0155 547 89.6095 547 L 88.6095 547 C 88.0625 547 87.6095 546.547 87.6095 546 L 87.6095 544 C 87.6095 543.453 88.0625 543 88.6095 543 L 89.6095 543 C 91.8125 543 93.6095 541.203 93.6095 539 L 93.6095 538.5 C 93.6095 537.672 92.9375 537 92.1095 537 L 88.6095 537 C 86.9535 537 85.6095 535.656 85.6095 534 L 85.6095 528 C 85.6095 526.344 86.9535 525 88.6095 525 L 94.6095 525 C 96.2655 525 97.6095 526.344 97.6095 528 Z" fill="#fff"/>
    </g>
  </g>
</svg>
