<svg xmlns="http://www.w3.org/2000/svg" xmlns:xl="http://www.w3.org/1999/xlink" version="1.1" viewBox="102.4 193 89.2 64.1" width="28pt" height="23pt" xmlns:dc="http://purl.org/dc/elements/1.1/">
  <g stroke="none" stroke-opacity="1" stroke-dasharray="none" fill="none" fill-opacity="1">
    <title>Canvas 1</title>
    <!-- <rect fill="white" width="89.2" height="64.1"/> -->
    <g>
      <title>Layer 1</title>
      <path d="M 183.1 233.5 L 110.9 233.5 C 106.2 233.5 102.4 229.7 102.4 225 C 102.4 220.3 106.2 216.5 110.9 216.5 L 183.1 216.5 C 187.8 216.5 191.6 220.3 191.6 225 C 191.6 229.7 187.8 233.5 183.1 233.5 Z" fill="white"/>
      <path d="M 183.1 210 L 110.9 210 C 106.2 210 102.4 206.2 102.4 201.5 C 102.4 196.8 106.2 193 110.9 193 L 183.1 193 C 187.8 193 191.6 196.8 191.6 201.5 C 191.6 206.2 187.8 210 183.1 210 Z" fill="white"/>
      <path d="M 183.1 257.1 L 110.9 257.1 C 106.2 257.1 102.4 253.3 102.4 248.6 C 102.4 243.9 106.2 240 110.9 240 L 183.1 240 C 187.8 240 191.6 243.8 191.6 248.5 C 191.6 253.2 187.8 257.1 183.1 257.1 Z" fill="white"/>
    </g>
  </g>
</svg>
