<svg version="1.0" xmlns="http://www.w3.org/2000/svg" width="341.333" height="341.333" viewBox="0 0 256 256"><g fill="none" stroke="#00555b" stroke-width=".5"><path d="M103.5 13C81.8 18.7 65 32.3 55.3 51.9c-3.7 7.5-5.8 10.5-9.2 13-4.5 3.5-7.4 8.7-8.6 15.6-.5 2.6-2 5.3-4.2 7.6-2.4 2.6-3.6 4.9-4 7.8-.4 2.8-2.4 6.9-5.9 12.1-5.7 8.5-5.7 8.5-7.3 26-1.2 12.7-.6 19.3 2.8 27.5 1.1 2.7 2.5 6.8 3.1 9.1.7 2.9 2.5 5.4 6 8.7 2.8 2.6 5.4 4.7 5.8 4.7.4 0 3.1 2.2 6 5 5.7 5.4 10.7 8 15.6 8 2.7 0 3.5.7 6.4 5.5 3.1 5.1 3.2 5.6 1.8 7.8-2.9 4.4-5.8 14.2-5.9 20.2-.1 5.9 1 9.2 4.1 12.7 2.2 2.6 9.8 2.4 15.1-.4 5.1-2.8 15.2-12.7 18.9-18.5 2.5-4 3-4.3 7.2-4.3 5.1 0 17.1-5.1 26.2-11.1l5.6-3.8 4.9 1.9c2.6 1 7.5 3.3 10.7 5.1 3.2 1.8 8.4 4 11.5 4.9 4.9 1.6 5.9 2.3 8.5 6.6 7.2 12.3 16.7 20.4 23.9 20.4 3.1 0 4.6-.7 7.2-3.3 4.9-4.9 6.2-10.1 4.6-19.5-.7-4.2-1.9-9.5-2.7-11.7-1.3-3.9-1.2-4.2 1.9-9 1.9-2.8 3.6-5.8 4-6.8.6-1.7.9-1.7 2.9-.3 5.1 3.6 14.3 1 18.2-5.2 1.4-2.2 3-4.3 3.6-4.7.5-.3 1.5-1.6 2.2-2.8.9-1.8.5-1.7-2.4.8-1.9 1.7-3.3 3.3-3.2 3.6.2.4-1.3 1.4-3.4 2.3-2.9 1.3-3.1 1.6-.9 1.1 2.6-.5 2.7-.4 1.7 1.4-1.7 3.3-11.1 5.2-15.1 3.1-2.4-1.3-2.5-3.2-.1-2.3 1.4.5 1.3.3-.3-1-2.5-1.9-1.4-3.3 1.5-1.7 1.1.6 2.6.9 3.3.6.7-.2.5-.5-.4-.5-.9-.1-2.1-.7-2.8-1.4-.9-1.1-.2-1.2 3.8-.3 3.5.7 5.9.6 8.2-.2l3.4-1.1-4.1.5c-5.8.8-12.3-1.2-16.1-4.9-3.8-3.6-4.6-1.7-1.1 2.8 2.1 2.6 2.1 2.8.4 8.1-1.7 5.5-8.5 14.8-13 17.7-3.3 2.2-4.3 2.2-2.4-.1 3.8-4.4 2.6-4.2-2.4.5-6.6 6.2-8.5 6.8-20.3 6.8-8.1-.1-9.7-.4-15.5-3.3-3.6-1.8-5.6-2.9-4.5-2.6 1.1.4 5.1.9 8.8 1.2 5.6.4 8.4-.1 15.3-2.3 4.6-1.5 8.7-3.1 8.9-3.6.3-.4-2.7.3-6.7 1.7-11.6 3.9-15.8 4-27.8.8l-10.5-2.9 10.5-.7c12.7-.9 22-3.4 29.7-7.9 6-3.6 14.3-11.1 14.3-13 0-.6 1.6-3.8 3.7-7 3.5-5.8 3.7-5.9 5.6-4.2 4.2 3.8.3 15.4-8.1 24.7-3.5 3.7-3.8 4.3-1.4 2.4 6.4-5.3 10.3-11.2 11.7-17.8 1-5 1.2-5 5-3.4 1.9.8 5.6 1.3 8.2 1.3l4.8-.2-5.5-.7c-6.6-.8-8.4-1.7-12.7-6.2l-3.2-3.3h7.7c5.9-.1 8.7-.6 11.9-2.3 6-3.1 6.2-4.3.2-1.3-5.1 2.5-14.4 3.9-17.6 2.7-1.4-.6-.5-1.4 3.8-3.9 8.9-5.2 11.8-7.8 16.6-15 4.1-6.2 8.9-16.4 8-17.3-.1-.2-1.6 2.5-3.2 5.9-2.9 6.1-3 6.1-3.7 3.2-.7-2.8-.7-2.8-.4.5.4 3.9-2.7 9.2-8.6 14.6-3.5 3.4-11.7 8.8-12.3 8.2-.2-.2.9-4.6 2.6-9.8 4.8-15.4 8.7-30.8 10.5-42.2l1.7-10.7 2.7 1.9c4.2 3 8 9.1 7.4 12-.4 2.1-.3 2.2.4.5.8-1.8 1.1-1.7 3.1 1.5 1.2 1.9 2.1 4.8 2 6.5-.1 1.6.2 3.9.7 5 1.5 3.4.9 21.5-.9 26.5-1.3 3.7-1.3 4.1-.1 2.5.8-1.1 1.7-3.6 2.1-5.7.5-3.5 2.2-5.3 2.4-2.6 0 .7.4 3.4.8 6 1 6.1-.4 9.3-6.5 14.8-3.1 2.8-3.8 3.7-1.9 2.6 1.7-1 4.1-2.9 5.6-4.2 3.6-3.4 4-3 2.2 2.2-1 3.1-2.6 5.2-4.7 6.5-1.7 1-2.6 1.9-2.1 1.9.6 0 2.1-.7 3.3-1.6 1.2-.8 2.2-1.2 2.3-.7 0 .4.7-1.2 1.5-3.7 2.1-6.5 2.5-14.6.9-21.5-.7-3.3-2.1-12-3.1-19.4-1.7-12.5-2.1-13.8-5.7-19.5-2.2-3.3-5.8-7.8-8.2-10.1-2.4-2.3-4.9-6-5.9-8.7-1-2.6-4.2-7.4-7.4-11-3.2-3.4-7-8.9-8.6-12-2.5-5.3-11.4-14.8-13.7-14.8-.6 0-2.3-2.9-3.9-6.5-11.6-25.8-33.4-39.6-62.5-39.4-6.4 0-12.5.7-17 1.9zm33.1 1c4.4 1 9.2 2.4 10.6 3 2.3 1.1 2.4 1.5 1.4 4.1-.7 2-1.5 2.8-2.6 2.3-.8-.3-4.2-1.2-7.5-2.1-7.5-1.9-27-1.3-36 1.2s-19.7 7.8-24.4 12c-2.3 2.1-4.3 3.6-4.5 3.4-.2-.2-.8-1.4-1.5-2.6-1-1.9-.6-2.5 2.8-5.5C92 15.3 116.2 9.1 136.6 14zm21.5 8.5c5.6 3.6 11.3 9 15.4 14.5 4.7 6.4 4.4 7.3-.7 2.3-5.2-4.9-12.4-9.8-18.3-12.4-4.6-2-5.5-3.5-3.3-5.7 1.7-1.7 2.3-1.5 6.9 1.3zm-18.2.6c2.6.5 9.3 3.3 15 6.1 11.3 5.6 21.3 13.9 25.7 21.3 5.6 9.6 9.8 28.5 8.5 38.5l-.7 5.5-1.3-6c-2.5-11.3-4.9-16.1-10.6-21.3-6.4-5.9-13.9-9.6-26.5-13-8.3-2.3-11.3-2.6-24-2.5-22.6.1-35.1 3.9-51.2 15.7-9.1 6.7-13 12.2-15.3 21.7-1.9 7.8-1.7 21.8.4 25.7.7 1.2.8 2.2.2 2.2-.5 0-1.6-1.5-2.4-3.3-5-10.6-4.9-31.6.2-46.7 4-11.8 7.8-18.5 14.9-26.1 6.5-7 11-9.9 22.2-14 15.2-5.5 31-6.9 44.9-3.8zM71 37.9c.8 1.6.3 2.8-2.9 6.6-7.2 8.7-14.6 27.6-15.8 40.2-.3 3.5-1 6.3-1.6 6.3-.6 0-.8-3.9-.5-10.8.8-15.6 5.6-28.6 15-40.5 3.4-4.2 4.3-4.5 5.8-1.8zm72.8 16.2c13.3 2.9 24.2 7.2 27.8 11 1.6 1.8 2.5 3 1.9 2.7-.5-.2-4-1.8-7.7-3.6-13.5-6.4-21.3-8.4-34.6-9-23.1-.9-42.3 4.6-56.7 16.3-6.5 5.3-7.4 4.5-1.2-1.2 15.7-14.5 46-21.5 70.5-16.2zm-6.1 3c9.7 1.3 23.8 5.9 32.3 10.6 10.5 5.6 13.5 10.2 15.6 23.5 1.3 8 1.3 9.9-.1 17.5-2.5 13.4-8.7 23.7-19.1 32.1-13.1 10.5-25 15.1-40.9 15.9-12.4.7-19.3-.9-32.5-7.3-7.5-3.8-10.9-6.2-16.7-12.1-4-4-7.3-7-7.3-6.5s2.9 3.8 6.3 7.4c7.3 7.5 16.9 13.6 27.7 17.5 6.7 2.5 8.8 2.7 20 2.7 11 0 13.4-.3 20.5-2.8 9.7-3.3 20.6-9.9 28.6-17.3 3.2-3 5.9-5.2 5.9-4.7 0 1.6-8.1 11.3-12.3 14.8-7.2 5.9-23.5 12.4-31.7 12.7-1.4 0-1.9.3-1.2.6 2 .8 12.9-1.6 19.5-4.2 7.7-3.2 7.3-2.1-.6 1.5-6.6 3-15.7 5.1-21.6 4.9-3.3-.1-3.4-.2-1.1-.9 1.7-.5-.5-.8-6.5-.9-5-.1-11.6-.8-14.8-1.6-7.6-2-17.9-7.3-24.9-12.9-6.7-5.3-15-15.5-14.3-17.4.2-.7-.6-3-1.9-5-3-4.5-6.5-14.9-7.3-21.1-.7-5.8 1.8-15.9 5.1-20.7 3.4-5 15-14 23.1-17.9 16.2-7.8 33.6-10.7 50.2-8.4zm55.6 6.8c3.8 3.5 8.3 10.8 7.3 11.8-.2.3-3-1.2-6-3.4-4.3-2.9-5.8-4.7-6.6-7.6-.6-2.1-1.4-4.6-1.7-5.5-.6-1.5-.5-1.5 1.3-.3 1 .8 3.6 3.1 5.7 5zM48.9 71.5c-1.1 6.8-1.2 7.1-5.5 9.7-4.9 3.1-5.2 2.7-2.9-5 1-3.4 2.8-6.3 5.2-8.6 2.1-1.9 3.8-3.4 4-3.3.1.2-.3 3.4-.8 7.2zm160.8 16.3c1.8 2.2 4.2 6 5.4 8.5l2.2 4.5-3.1 15.5c-4 19.6-11.3 44.1-15.8 53.3-3.8 7.8-11.6 16.4-17.3 19.3-3.7 1.9-11.9 4.4-18.1 5.5-6.3 1.2-43.3 3.6-54.6 3.6-13 0-23.4-2.3-32.5-7.1-7.6-4.1-19.5-14.2-24.2-20.7-5.4-7.3-12.2-20.7-14.7-28.7-3-10-6-29.6-6-39.5v-8.6l3.8-3.6c3.3-3.2 12-8.4 12.6-7.6 1.3 1.7 2.6 12.8 2.1 17.9-.6 5.3-.2 7.8 1.9 14.4 3.7 11.3 11.5 25.7 14.7 27.2 2 1 3.5 3.6 6.5 11 2.1 5.4 6 13 8.5 16.9 5.4 8.2 4.9 8 23.4 9.1 21.9 1.2 60.9-4.4 66.9-9.6 4.3-3.8 11.1-21.1 13.6-34.6 1-5.2 2.3-8.4 5.2-12.6 4.6-6.6 6.2-14.8 5.6-28.9-.2-6.8-.7-9.1-2.5-11.5-1.2-1.7-2.5-4.7-2.9-6.8l-.7-3.9 8.4 6.5c4.6 3.6 9.8 8.3 11.6 10.5zm-15.4 9.5c-.1 13.7-1.2 18.8-4.6 23.1l-2.4 3 .5-6c.2-3.2 1.3-8 2.4-10.6 1.7-4 2-6.4 1.6-14.8-.3-9-.2-9.8 1.2-8.5 1.2 1.3 1.5 4 1.3 13.8zm-139.9 9.1c.9 3.8 2.4 8.1 3.4 9.4.9 1.4 2 3 2.3 3.6 1.4 2.4 6.9 16.3 7.5 19 .6 2.6.5 2.7-1.5 1.7-2.6-1.4-12.2-21.1-14.5-29.8-1.1-4-1.4-7.6-1-10.4.8-5.1 1.3-4.2 3.8 6.5zm-22 25.6l.8 4.5-2.6-3.4c-1.4-1.9-2.6-3.1-2.6-2.5 0 .5 1.6 2.9 3.5 5.3s3.5 5.1 3.5 6c0 .9 1.5 5.1 3.4 9.3 1.9 4.3 3.1 7.8 2.7 7.8-.3 0-4.1-3-8.4-6.6-4.3-3.6-7.4-5.7-6.8-4.6 1.4 2.6 7 7.4 13.6 11.7 3.1 1.9 5.4 3.9 5.1 4.4-1.2 1.8-16.1-1.9-22.6-5.7l-2.5-1.4 2.3 2c3.1 2.8 11.5 5.8 18.5 6.7 6.4.8 7.9 2.1 5.1 4.2-2.4 1.9-11.7 1.2-16.5-1.1-3-1.5-3.1-1.5-1.4-.1 4.5 3.6 13.3 5 20.5 3.3.9-.2 1.4.4 1.3 1.5 0 1.1.4 1.6 1.2 1.3.8-.3 1.8.7 2.5 2.5 1.1 2.5 1 3.2-.5 4.9-2.5 2.8-8.9 4.4-12.3 3.1l-2.7-.9 3.3-.1c4-.1 9.2-2.2 11.1-4.5 1.2-1.4.5-1.3-3 .6-6.2 3.2-15 3.2-18.2-.1-2-2.2-2-2.3-.2-1.6 1.1.4 3.6.9 5.5 1.1l3.5.3-3.8-.9c-2-.5-5.4-1.8-7.5-2.9-3.4-1.7-4.1-2.8-6.6-9.8-4.5-12.5-5.7-19-5-26.3l.6-6.5 2 3.5c1 1.9 1.7 2.7 1.3 1.6-1.9-6.2-2.6-10.7-2.3-14.6.3-3.5.5-4.1 1.2-2.5.4 1.1 2 4.9 3.4 8.4s2.8 5.9 2.9 5.4c.2-.5-.8-3.4-2.1-6.5-4.7-10.7-4.6-12.2 1.8-22.1l3.1-4.8 1.6 12.8c.9 7 1.9 14.8 2.3 17.3zm146.1 18.1c-2.4 4.6-8 10.4-13.6 13.9-2.7 1.8-4.9 3.4-4.9 3.7 0 .9 8.3-4.2 12.1-7.5 2.1-1.9 3.9-3.1 3.9-2.7 0 .3-1.1 2.7-2.4 5.4-1.7 3.2-3.6 5.3-5.8 6.4-4.9 2.3-21.7 5.4-35.9 6.8-12.5 1.1-40 .8-42.9-.5-1.4-.6-8-10.6-8-12.1 0-.3 1.5.5 3.3 1.8 3.5 2.7 7.7 5 7.7 4.4 0-.3-2.9-2.6-6.4-5.2-5.5-4-8.6-8.1-8.6-11.1 0-.2 3.2 2.1 7 5 3.9 3 9.4 6.6 12.3 8 6.2 3.1 17.4 5.6 23.7 5.4 3.9-.1 4-.2 1-.5-15.7-1.6-28.3-6.5-37-14.4l-4.5-4 4.8 3.1c8 5.3 15.4 8 27.4 10 13.5 2.3 19.5 2.5 28.3.6 9.3-2 16.9-5.1 24.1-9.8 3.5-2.2 5.7-3.3 5-2.4-3.6 4.3-19.5 12.6-30.6 16l-5 1.5 4.5-.6c10.8-1.3 27.4-10.1 36.1-19 3-2.9 5.5-5.3 5.6-5.3.2 0-.4 1.4-1.2 3.1zM61.3 183.5c1.6 2 3.2 3.3 3.8 3 .5-.4 2.4.5 4.2 1.9 5.1 3.9 15.7 8.5 23.3 10.1 3.8.8 11.6 1.5 17.4 1.5 12.8 0 41-1.7 50.5-3.1 10.9-1.5 22.2-5.6 26.6-9.6 2.2-2 3.9-3.1 3.9-2.5 0 1.7-8.6 8.7-14.7 12-9 4.7-16.7 6.2-38.7 7.5-24.7 1.3-34.6 1.3-37.5-.2-1.2-.7-5.8-1.8-10.2-2.6-9.5-1.7-16.9-5.4-21.1-10.7-1.7-2.2-3.3-3.6-3.6-3.3-1.1 1.1 9.2 10.4 13.8 12.4 2.6 1.1 7.7 2.5 11.5 3.1 3.7.6 7.6 1.5 8.7 2.1 2.9 1.6 14.6 2.2 21.1 1.1 3.4-.5 5.4-.5 4.9 0-1.6 1.6-14.6 5.8-18.2 5.8-1.9.1-5.3.5-7.5 1-3 .7-1.9.8 4.5.4 6.6-.4 10.4-1.3 17-4 11.6-4.7 11.8-4.8 9.5-2.9-1.1.9-6.5 3.9-11.9 6.6-8.5 4.2-10.8 4.9-15.8 4.9-8 0-20.2-2.6-26.4-5.6-6.2-2.9-14.2-11.2-17.8-18.2-3.5-6.9-3.4-9.6.2-4.6 4.4 6 9.2 10.3 14.5 13 2.6 1.3 4.7 2.2 4.7 1.9 0-.2-1.8-1.4-4.1-2.5-7.5-3.9-16.9-14.8-16.9-19.8 0-3.1 1-2.8 4.3 1.3zm-6.8 4.2c.1 1 .9 3.3 1.8 5l1.8 3.3h-2.6c-3.4 0-10.7-3.5-13.5-6.6l-2.3-2.4h3.9c2.1-.1 5-.7 6.4-1.5 2.7-1.5 4.2-.7 4.5 2.2zm19.2 24.8c2.3 1.5 7.3 3.5 11 4.5l6.8 1.8-4.8.1c-5.8.1-9.6-1.4-16.2-6.4l-5-3.7 4 4.1c6.1 6.4 11 8.3 19.9 7.9l7.5-.3-1.6 2.5c-6.7 10.2-17.8 19.5-24.7 20.5-6.3 1-8.2 0-10.2-5-2.2-6-1.5-14.2 2-22.5 1.6-3.6 2.9-7.3 2.9-8.2.1-1.6.3-1.6 2.2.1 1.1 1 3.9 3.1 6.2 4.6zm123.7-1.4c-3.5 3.8-14.3 8-20.4 7.8-1.4 0 .4-.8 4-1.8 3.6-.9 9-3.3 12-5.2 5.9-3.9 7.5-4.2 4.4-.8zm6.2 4.1c.7 3.5 1.3 9 1.4 12.4 0 5.2-.4 6.7-2.9 10.2-3.3 4.5-7.1 5.9-11.5 4.2-5.1-1.9-19.6-17.3-19.6-20.8 0-.6.9-.8 1.9-.5 2.7.7 12.7-1.5 18.7-4.2 2.9-1.3 6.2-3.7 7.5-5.4 1.2-1.7 2.5-2.9 2.7-2.6.2.2 1 3.2 1.8 6.7z"/><path d="M23.1 139.7c-1.3 1.3-2 2.3-1.4 2.3 1.1 0 4.9-3.8 4.2-4.3-.2-.2-1.5.7-2.8 2zM66 222.5c0 .7 10.1 5.7 10.6 5.3.2-.2-2.1-1.6-5.1-3.1-3-1.5-5.5-2.5-5.5-2.2zm125.3.3c-3.5 1.4-6.1 2.7-6 2.9.7.6 10.2-2.6 12.2-4.1 2.8-2.1 1-1.8-6.2 1.2zm35.8-101.2c0 1.1.3 1.4.6.6.3-.7.2-1.6-.1-1.9-.3-.4-.6.2-.5 1.3zm-1.5 4.9c-.9 2.6-.7 3.2.5 1.2.6-1 .9-2.1.6-2.3-.2-.3-.7.2-1.1 1.1zm-2.4 8.5c0 1.9.2 2.7.5 1.7.2-.9.2-2.5 0-3.5-.3-.9-.5-.1-.5 1.8z"/></g></svg>