<svg width="238" height="563" xmlns="http://www.w3.org/2000/svg"><g id="Page-1" fill="none" stroke="#00C4BA" stroke-width="4" fill-rule="evenodd"><g id="energiaBuran2-bg"><path id="Path" stroke="#00C4BA" stroke-width=".318" stroke-linecap="round" stroke-linejoin="round" d="M49.637 113.672v16.613m0-16.613v16.613m-7.035-16.613l-.012 16.613m.012-16.613l-.012 16.613m-5.961-16.613v16.613m0-16.613v16.613m-5.336-16.613v16.613m0-16.613v16.613m-4.043-16.613l-.008 16.613m.008-16.613l-.008 16.613m-3.09-16.613v16.613m0-16.613v16.613m-2.875-16.613v16.613m0-16.613v16.613m-2.527-16.613v16.613m0-16.613v16.613m-2.242-16.613v16.613m0-16.613v16.613m29.328-16.613l-.012 16.613m.012-16.613l-.012 16.613m-6.445-16.613l-.012 16.613m.012-16.613l-.012 16.613m-5.469-16.613l-.007 16.613m.007-16.613l-.007 16.613m-4.883-16.613l-.012 16.613m.012-16.613l-.012 16.613m-3.371-16.613v16.613m0-16.613v16.613m-2.957-16.613v16.613m0-16.613v16.613m-2.746-16.613v16.613m0-16.613v16.613m-2.309-16.613v16.613m0-16.613v16.613m-1.863-16.613v16.613m0-16.613v16.613m38.434-16.613v16.613m0-16.613v16.613m4.496-16.613l-.012 16.613m.012-16.613l-.012 16.613m7.051-16.613l-.012 16.613m.012-16.613l-.012 16.613m5.981-16.613v16.613m0-16.613v16.613m5.332-16.613l-.008 16.613m.008-16.613l-.008 16.613m4.054-16.613v16.613m0-16.613v16.613m3.094-16.613v16.613m0-16.613v16.613m2.879-16.613l-.012 16.613m.012-16.613l-.012 16.613m2.539-16.613l-.011 16.613m.011-16.613l-.011 16.613m2.254-16.613l-.008 16.613m.008-16.613l-.008 16.613M62.48 113.672v16.613m0-16.613v16.613m6.458-16.613v16.613m0-16.613v16.613m5.48-16.613v16.613m0-16.613v16.613m4.891-16.613v16.613m0-16.613v16.613m3.382-16.613l-.007 16.613m.007-16.613l-.007 16.613m2.964-16.613v16.613m0-16.613v16.613m2.743-16.613v16.613m0-16.613v16.613m2.312-16.613l-.012 16.613m.012-16.613l-.012 16.613m1.875-16.613l-.007 16.613m.007-16.613l-.007 16.613"/><path d="M87.133 522.574c0 5.43-.215 9.77-3.473 13.028-3.254 3.257-6.293 4.562-6.293 4.562v3.906s2.172 3.473 2.824 6.95c.649 3.472 1.735 10.636 1.735 10.636h-20.18s1.082-7.164 1.734-10.636c.653-3.477 2.82-6.95 2.82-6.95v-3.906s-3.038-1.305-6.292-4.562c-3.254-3.258-3.473-7.598-3.473-13.028" id="Path" stroke="#00C4BA" stroke-width="1.271" stroke-linecap="round" stroke-linejoin="round"/><path d="M87.133 522.574c0 5.43-.215 9.77-3.473 13.028-3.254 3.257-6.293 4.562-6.293 4.562v3.906s2.172 3.473 2.824 6.95c.649 3.472 1.735 10.636 1.735 10.636h-20.18s1.082-7.164 1.734-10.636c.653-3.477 2.82-6.95 2.82-6.95v-3.906s-3.038-1.305-6.292-4.562c-3.254-3.258-3.473-7.598-3.473-13.028m-3.89 0c0 5.43-.22 9.77-3.473 13.028-3.254 3.257-6.293 4.562-6.293 4.562v3.906s2.168 3.473 2.82 6.95c.653 3.472 1.739 10.636 1.739 10.636H27.253s1.086-7.164 1.738-10.636c.649-3.477 2.82-6.95 2.82-6.95v-3.906s-3.039-1.305-6.292-4.562c-3.258-3.258-3.473-7.598-3.473-13.028" id="Path" stroke="#00C4BA" stroke-width="1.271" stroke-linecap="round" stroke-linejoin="round"/><path d="M52.645 522.574c0 5.43-.22 9.77-3.473 13.028-3.254 3.257-6.293 4.562-6.293 4.562v3.906s2.168 3.473 2.82 6.95c.653 3.472 1.739 10.636 1.739 10.636H27.253s1.086-7.164 1.738-10.636c.649-3.477 2.82-6.95 2.82-6.95v-3.906s-3.039-1.305-6.292-4.562c-3.258-3.258-3.473-7.598-3.473-13.028m70.966-409.07l-78.071-.024m78.071.024l-78.071-.024m78.071 60.418l-74.657-.023m74.657.023l-74.657-.023m74.227 348.047l-78.789-.024m78.789.024l-78.789-.024m74.227-403.73v403.516m0-403.516v403.516" id="Path" stroke="#00C4BA" stroke-width="1.271" stroke-linecap="round" stroke-linejoin="round"/><path d="M54.02.316c3.906 0 4.636 7.82 4.636 7.82s21.84 8.692 27.918 41.278c6.074 32.586 6.508 64.3 6.508 64.3v408.063" id="Path" stroke="#00C4BA" stroke-width=".636" stroke-linecap="round" stroke-linejoin="round"/><path d="M54.02.316c3.906 0 4.636 7.82 4.636 7.82s21.84 8.692 27.918 41.278c6.074 32.586 6.508 64.3 6.508 64.3v408.063" id="Path" stroke="#00C4BA" stroke-width=".636" stroke-linecap="round" stroke-linejoin="round"/><path id="Path" stroke="#00C4BA" stroke-width="1.271" stroke-linecap="round" stroke-linejoin="round" d="M88.578 118.168l4.586-.023m-4.586.023l4.586-.023"/><path id="Path" stroke="#00C4BA" stroke-width=".318" stroke-linecap="round" stroke-linejoin="round" d="M49.637 134.34v16.613m0-16.613v16.613m-7.035-16.613l-.012 16.613m.012-16.613l-.012 16.613m-5.961-16.613v16.613m0-16.613v16.613m-5.336-16.613v16.613m0-16.613v16.613M27.25 134.34l-.008 16.613m.008-16.613l-.008 16.613m-3.09-16.613v16.613m0-16.613v16.613m-2.875-16.613v16.613m0-16.613v16.613M18.75 134.34v16.613m0-16.613v16.613m-2.242-16.613v16.613m0-16.613v16.613m29.328-16.613l-.012 16.613m.012-16.613l-.012 16.613m-6.445-16.613l-.012 16.613m.012-16.613l-.012 16.613m-5.469-16.613l-.007 16.613m.007-16.613l-.007 16.613m-4.883-16.613l-.012 16.613m.012-16.613l-.012 16.613m-3.371-16.613v16.613m0-16.613v16.613m-2.957-16.613v16.613m0-16.613v16.613m-2.746-16.613v16.613m0-16.613v16.613m-2.309-16.613v16.613m0-16.613v16.613M15.75 134.34v16.613m0-16.613v16.613m38.434-16.613v16.613m0-16.613v16.613m4.496-16.613l-.012 16.613m.012-16.613l-.012 16.613m7.051-16.613l-.012 16.613m.012-16.613l-.012 16.613m5.981-16.613v16.613m0-16.613v16.613m5.332-16.613l-.008 16.613m.008-16.613l-.008 16.613m4.054-16.613v16.613m0-16.613v16.613m3.094-16.613v16.613m0-16.613v16.613m2.879-16.613l-.012 16.613m.012-16.613l-.012 16.613m2.539-16.613l-.011 16.613m.011-16.613l-.011 16.613m2.254-16.613l-.008 16.613m.008-16.613l-.008 16.613M62.48 134.34v16.613m0-16.613v16.613m6.458-16.613v16.613m0-16.613v16.613m5.48-16.613v16.613m0-16.613v16.613m4.891-16.613v16.613m0-16.613v16.613m3.382-16.613l-.007 16.613m.007-16.613l-.007 16.613m2.964-16.613v16.613m0-16.613v16.613m2.743-16.613v16.613m0-16.613v16.613m2.312-16.613l-.012 16.613m.012-16.613l-.012 16.613m1.875-16.613l-.007 16.613m.007-16.613l-.007 16.613"/><path d="M53.73.316c-3.906 0-4.632 7.82-4.632 7.82S27.254 16.829 21.18 49.415c-6.078 32.586-6.512 64.3-6.512 64.3v408.063" id="Path" stroke="#00C4BA" stroke-width=".636" stroke-linecap="round" stroke-linejoin="round"/><path d="M53.73.316c-3.906 0-4.632 7.82-4.632 7.82S27.254 16.829 21.18 49.415c-6.078 32.586-6.512 64.3-6.512 64.3v408.063" id="Path" stroke="#00C4BA" stroke-width=".636" stroke-linecap="round" stroke-linejoin="round"/><path id="Path" stroke="#00C4BA" stroke-width="1.271" stroke-linecap="round" stroke-linejoin="round" d="M19.301 113.574v408.11m0-408.11v408.11m73.062-412.438H14.918m77.445 0H14.918m77.445-4.223H14.918m77.445 0H14.918m76.035-4.925H16.324m74.629 0H16.324m74.629-7.035l-74.629-.004m74.629.004l-74.629-.004"/><path id="Path" stroke="#00C4BA" stroke-width="1.271" stroke-linecap="square" d="M74.004 114.723h4.586v8.59h-4.586z"/><path id="Path" stroke="#00C4BA" stroke-width="1.271" stroke-linecap="square" d="M74.004 114.723h4.586v8.59h-4.586z"/><path id="Path" stroke="#00C4BA" stroke-width="2.542" stroke-linecap="round" stroke-linejoin="round" d="M49.066 8.52l9.457-.024m-9.457.024l9.457-.024"/><path d="M57.953 8.52C65.176 20 71.707 26.313 74.801 74.523c1.758 27.415 1.031 44.766 1.031 44.766" id="Path" stroke="#00C4BA" stroke-width="1.907" stroke-linecap="round" stroke-linejoin="round"/><path d="M57.953 8.52C65.176 20 71.707 26.313 74.801 74.523c1.758 27.415 1.031 44.766 1.031 44.766" id="Path" stroke="#00C4BA" stroke-width="1.907" stroke-linecap="round" stroke-linejoin="round"/><path id="Path" stroke="#00C4BA" stroke-width="1.271" stroke-linecap="round" stroke-linejoin="round" d="M46.77 558.746H27.848m18.922 0H27.848m18.347-2.871l-17.773.004m17.773-.004l-17.773.004m17.488-2.871H28.707m17.203 0H28.707m16.629-2.582l-16.055.004m16.055-.004l-16.055.004m15.196-2.586H30.141m14.336 0H30.141m12.617-3.727h-10.61m10.61 0h-10.61m10.61-4.015h-10.61m10.61 0h-10.61m14.622-3.442H27.848m18.922 0H27.848m22.363-3.156H24.406m25.805 0H24.406m26.949-3.441H23.262m28.093 0H23.262m28.093-3.157H23.262m28.093 0H23.262m28.093-2.582H23.262m28.093 0H23.262m39.281 34.422h18.922m-18.922 0h18.922m-18.348-2.871l17.774.004m-17.774-.004l17.774.004m-17.489-2.871h17.203m-17.203 0h17.203m-16.628-2.582l16.054.004m-16.054-.004l16.054.004m-15.195-2.586h14.336m-14.336 0h14.336m-12.617-3.727h10.609m-10.609 0h10.609m-10.609-4.015h10.609m-10.609 0h10.609m-14.621-3.442h18.922m-18.922 0h18.922m-22.363-3.156h25.804m-25.804 0h25.804m-26.953-3.441h28.098m-28.098 0h28.098m-28.098-3.157h28.098m-28.098 0h28.098m-28.098-2.582h28.098m-28.098 0h28.098"/><path id="Path" stroke="#00C4BA" stroke-width=".318" stroke-linecap="round" stroke-linejoin="round" d="M49.637 157.316v16.614m0-16.614v16.614m-7.035-16.614l-.012 16.614m.012-16.614l-.012 16.614m-5.961-16.614v16.614m0-16.614v16.614m-5.336-16.614v16.614m0-16.614v16.614m-4.043-16.614l-.008 16.614m.008-16.614l-.008 16.614m-3.09-16.614v16.614m0-16.614v16.614m-2.875-16.614v16.614m0-16.614v16.614m-2.527-16.614v16.614m0-16.614v16.614m-2.242-16.614v16.614m0-16.614v16.614m29.328-16.614l-.012 16.614m.012-16.614l-.012 16.614m-6.445-16.614l-.012 16.614m.012-16.614l-.012 16.614m-5.469-16.614l-.007 16.614m.007-16.614l-.007 16.614m-4.883-16.614l-.012 16.614m.012-16.614l-.012 16.614m-3.371-16.614v16.614m0-16.614v16.614m-2.957-16.614v16.614m0-16.614v16.614m-2.746-16.614v16.614m0-16.614v16.614m-2.309-16.614v16.614m0-16.614v16.614m-1.863-16.614v16.614m0-16.614v16.614m38.434-16.614v16.614m0-16.614v16.614m4.496-16.614l-.012 16.614m.012-16.614l-.012 16.614m7.051-16.614l-.012 16.614m.012-16.614l-.012 16.614m5.981-16.614v16.614m0-16.614v16.614m5.332-16.614l-.008 16.614m.008-16.614l-.008 16.614m4.054-16.614v16.614m0-16.614v16.614m3.094-16.614v16.614m0-16.614v16.614m2.879-16.614l-.012 16.614m.012-16.614l-.012 16.614m2.539-16.614l-.011 16.614m.011-16.614l-.011 16.614m2.254-16.614l-.008 16.614m.008-16.614l-.008 16.614M62.48 157.316v16.614m0-16.614v16.614m6.458-16.614v16.614m0-16.614v16.614m5.48-16.614v16.614m0-16.614v16.614m4.891-16.614v16.614m0-16.614v16.614m3.382-16.614l-.007 16.614m.007-16.614l-.007 16.614m2.964-16.614v16.614m0-16.614v16.614m2.743-16.614v16.614m0-16.614v16.614m2.312-16.614l-.012 16.614m.012-16.614l-.012 16.614m1.875-16.614l-.007 16.614m.007-16.614l-.007 16.614"/><path id="Path" stroke="#00C4BA" stroke-width="1.271" stroke-linecap="square" d="M30.86 154.16h4.203v11.848h-4.204z"/><path id="Path" stroke="#00C4BA" stroke-width="1.271" stroke-linecap="square" d="M30.86 154.16h4.203v11.848h-4.204zm28.69 0h4.208v11.848H59.55z"/><path id="Path" stroke="#00C4BA" stroke-width="1.271" stroke-linecap="square" d="M59.55 154.16h4.208v11.848H59.55zm-17.214-30.637h7.266v29.848h-7.266z"/><path id="Path" stroke="#00C4BA" stroke-width="1.271" stroke-linecap="square" d="M42.336 123.523h7.266v29.848h-7.266z"/><path id="Path" stroke="#00C4BA" stroke-width=".636" stroke-linecap="round" stroke-linejoin="round" d="M.695 458.117l37.731-.012m-37.731.012l37.731-.012M.371 286.855v-43.632s-.648-7.489 2.602-15.953c3.254-8.47 13.336-29.958 13.336-29.958l14.636-30.933h2.93l9.43 49.168s1.629 5.207 1.629 10.094v317.797H9.152s-3.738-.325-5.203-2.282c-3.074-4.101-3.254-4.883-3.254-4.883v-78.148l2.278-16.93v-39.074l2.601-14.328v-91.496l-5.203-9.442z"/><path d="M.371 286.855v-43.632s-.648-7.489 2.602-15.953c3.254-8.47 13.336-29.958 13.336-29.958l14.636-30.933h2.93l9.43 49.168s1.629 5.207 1.629 10.094v317.797H9.152s-3.738-.325-5.203-2.282c-3.074-4.101-3.254-4.883-3.254-4.883v-78.148l2.278-16.93v-39.074l2.601-14.328v-91.496l-5.203-9.442zm4.879 86.606l39.031-.012m-39.031.012l39.031-.012M5.25 359.461l39.031-.012m-39.031.012l39.031-.012M5.25 345.461l39.031-.012m-39.031.012l39.031-.012M5.25 331.785l39.031-.012m-39.031.012l39.031-.012M5.25 318.758l39.031-.008m-39.031.008l39.031-.008M5.25 387.785l39.031-.008m-39.031.008l39.031-.008m-7.484-205.781c-3.574-1.297-7.805-1.941-12.031-1.941m12.031 1.941c-3.574-1.297-7.805-1.941-12.031-1.941m14.961 20.828c-8.133-3.25-15.094-3.57-23.094-3.57m23.094 3.57c-8.133-3.25-15.094-3.57-23.094-3.57m26.347 18.871c-14.96-1.614-21.14-.965-34.476-.965m34.476.965c-14.96-1.614-21.14-.965-34.476-.965m36.101 11.394l-40.656-.008m40.656.008l-40.656-.008M.371 243.219l44.559-.008m-44.559.008l44.559-.008" id="Path" stroke="#00C4BA" stroke-width=".636" stroke-linecap="round" stroke-linejoin="round"/><path id="Path" stroke="#00C4BA" stroke-width=".636" stroke-linecap="square" d="M8.504 278.387h8.453v7.8H8.504z"/><path id="Path" stroke="#00C4BA" stroke-width=".636" stroke-linecap="square" d="M8.504 278.387h8.453v7.8H8.504zm1.625-17.258h5.851v3.57h-5.85z"/><path id="Path" stroke="#00C4BA" stroke-width=".636" stroke-linecap="square" d="M10.129 261.129h5.851v3.57h-5.85z"/><path id="Path" stroke="#00C4BA" stroke-width=".636" stroke-linecap="round" stroke-linejoin="round" d="M13.055 243.219v35.156m0-35.156v35.156M.371 286.199l38.055-.011m-38.055.011l38.055-.011m-4.227-.313l-.004-42.016m.004 42.016l-.004-42.016m1.629 42.016v-42.016m0 42.016v-42.016m9.106-18.546s-2.602-8.793-5.203-12.7c-2.602-3.906-9.758-9.117-9.758-9.117v5.211s7.48 13.672 7.48 17.582c0 3.906.653 16.93.653 16.93v42.652l-9.11 13.672v87.91l4.23 10.418H44.93V225.313z"/><path d="M44.93 225.313s-2.602-8.793-5.203-12.7c-2.602-3.906-9.758-9.117-9.758-9.117v5.211s7.48 13.672 7.48 17.582c0 3.906.653 16.93.653 16.93v42.652l-9.11 13.672v87.91l4.23 10.418H44.93V225.313zm-17.563-43.305l-4.554 13.336m4.554-13.336l-4.554 13.336m2.605-13.66l-5.859 13.011m5.859-13.011l-5.859 13.011m10.734-12.363l-1.949 13.664m1.949-13.664l-1.949 13.664m4.551-13.012l-.325 13.012m.325-13.012l-.325 13.012m2.602-12.687l1.301 13.664m-1.301-13.664l1.301 13.664m-20.164 45.91l1.953-15.946 3.25-12.042" id="Path" stroke="#00C4BA" stroke-width=".636" stroke-linecap="round" stroke-linejoin="round"/><path id="Path" stroke="#00C4BA" stroke-width=".636" stroke-linecap="round" stroke-linejoin="round" d="M16.309 242.883l1.953-15.946 3.25-12.042M7.527 242.883l2.278-15.946 4.226-11.718"/><path id="Path" stroke="#00C4BA" stroke-width=".636" stroke-linecap="round" stroke-linejoin="round" d="M7.527 242.883l2.278-15.946 4.226-11.718m13.66-16.281l-2.601 14.316m2.601-14.316l-2.601 14.316m-3.25-14.316l-4.231 13.992m4.231-13.992l-4.231 13.992M5.25 296.293l25.695-.012m-25.695.012l25.695-.012"/><path id="Path" stroke="#00C4BA" stroke-width=".636" stroke-linecap="square" d="M34.848 238.336H44.93v4.875H34.848z"/><path id="Path" stroke="#00C4BA" stroke-width=".636" stroke-linecap="square" d="M34.848 238.336H44.93v4.875H34.848z"/><path id="Path" stroke="#00C4BA" stroke-width=".636" stroke-linecap="round" stroke-linejoin="round" d="M34.848 238.336l.976-11.406m-.976 11.406l.976-11.406M9.8 387.453V300.2s-.323-5.86-2.273-5.86c-1.953 0-2.277 3.583-2.277 3.583"/><path d="M9.8 387.453V300.2s-.323-5.86-2.273-5.86c-1.953 0-2.277 3.583-2.277 3.583m21.793 89.53V300.2s.324-5.86 2.277-5.86c1.95 0 2.274 1.63 2.274 1.63" id="Path" stroke="#00C4BA" stroke-width=".636" stroke-linecap="round" stroke-linejoin="round"/><path d="M27.043 387.453V300.2s.324-5.86 2.277-5.86c1.95 0 2.274 1.63 2.274 1.63" id="Path" stroke="#00C4BA" stroke-width=".636" stroke-linecap="round" stroke-linejoin="round"/><path id="Path" stroke="#00C4BA" stroke-width=".636" stroke-linecap="square" d="M9.48 441.188h6.176v26.035H9.48z"/><path id="Path" stroke="#00C4BA" stroke-width=".636" stroke-linecap="square" d="M9.48 441.188h6.176v26.035H9.48zm-1.953-37.446h9.758v31.246H7.527z"/><path id="Path" stroke="#00C4BA" stroke-width=".636" stroke-linecap="square" d="M7.527 403.742h9.758v31.246H7.527z"/><path id="Path" stroke="#00C4BA" stroke-width=".636" stroke-linecap="round" stroke-linejoin="round" d="M15.98 404.719v28.64H7.527l-1.3-7.808v-14.649l4.226-6.183z"/><path id="Path" stroke="#00C4BA" stroke-width=".636" stroke-linecap="round" stroke-linejoin="round" d="M15.98 404.719v28.64H7.527l-1.3-7.808v-14.649l4.226-6.183z"/><path id="Path" stroke="#00C4BA" stroke-width=".636" stroke-linecap="round" stroke-linejoin="round" d="M12.73 431.082l.325-20.18 1.3-4.882"/><path id="Path" stroke="#00C4BA" stroke-width=".636" stroke-linecap="round" stroke-linejoin="round" d="M12.73 431.082l.325-20.18 1.3-4.882m-1.625 92.472v-30.941m0 30.941v-30.941m0-.645V441.5m0 25.406V441.5m-3.25 8.805l5.852-.012m-5.852.012l5.852-.012M9.48 458.77l5.852-.012m-5.852.012l5.852-.012m14.961-67.715v49.164l3.906 17.582-.004 78.14"/><path id="Path" stroke="#00C4BA" stroke-width=".636" stroke-linecap="round" stroke-linejoin="round" d="M30.293 391.043v49.164l3.906 17.582-.004 78.14m-33.5-39.39l38.055-.012m-38.055.012l38.055-.012"/><path id="Path" stroke="#00C4BA" stroke-width=".636" stroke-linecap="round" stroke-linejoin="round" d="M33.223 397.879v42l5.527 17.91v78.137H.695"/><path id="Path" stroke="#00C4BA" stroke-width=".636" stroke-linecap="round" stroke-linejoin="round" d="M33.223 397.879v42l5.527 17.91v78.137H.695m35.782-77.809l-.004 37.758m.004-37.758l-.004 37.758"/><path id="Path" fill="#00555B" d="M36.477 458.281h2.273v2.27h-2.273z"/><path id="Path" stroke="#00C4BA" stroke-width=".636" fill="#00555B" stroke-linecap="square" d="M36.477 458.281h2.273v2.27h-2.273z"/><path id="Path" stroke="#00C4BA" stroke-width=".636" stroke-linecap="square" d="M36.477 458.281h2.273v2.27h-2.273z"/><path id="Path" fill="#00555B" d="M36.477 463.375h2.273v2.266h-2.273z"/><path id="Path" stroke="#00C4BA" stroke-width=".636" fill="#00555B" stroke-linecap="square" d="M36.477 463.375h2.273v2.266h-2.273z"/><path id="Path" stroke="#00C4BA" stroke-width=".636" stroke-linecap="square" d="M36.477 463.375h2.273v2.266h-2.273z"/><path id="Path" fill="#00555B" d="M36.477 468.469h2.273v2.265h-2.273z"/><path id="Path" stroke="#00C4BA" stroke-width=".636" fill="#00555B" stroke-linecap="square" d="M36.477 468.469h2.273v2.265h-2.273z"/><path id="Path" stroke="#00C4BA" stroke-width=".636" stroke-linecap="square" d="M36.477 468.469h2.273v2.265h-2.273z"/><path id="Path" fill="#00555B" d="M36.477 473.563h2.273v2.265h-2.273z"/><path id="Path" stroke="#00C4BA" stroke-width=".636" fill="#00555B" stroke-linecap="square" d="M36.477 473.563h2.273v2.265h-2.273z"/><path id="Path" stroke="#00C4BA" stroke-width=".636" stroke-linecap="square" d="M36.477 473.563h2.273v2.265h-2.273z"/><path id="Path" fill="#00555B" d="M36.477 478.652h2.273v2.27h-2.273z"/><path id="Path" stroke="#00C4BA" stroke-width=".636" fill="#00555B" stroke-linecap="square" d="M36.477 478.652h2.273v2.27h-2.273z"/><path id="Path" stroke="#00C4BA" stroke-width=".636" stroke-linecap="square" d="M36.477 478.652h2.273v2.27h-2.273z"/><path id="Path" fill="#00555B" d="M36.477 483.746h2.273v2.27h-2.273z"/><path id="Path" stroke="#00C4BA" stroke-width=".636" fill="#00555B" stroke-linecap="square" d="M36.477 483.746h2.273v2.27h-2.273z"/><path id="Path" stroke="#00C4BA" stroke-width=".636" stroke-linecap="square" d="M36.477 483.746h2.273v2.27h-2.273z"/><path id="Path" fill="#00555B" d="M36.477 488.84h2.273v2.27h-2.273z"/><path id="Path" stroke="#00C4BA" stroke-width=".636" fill="#00555B" stroke-linecap="square" d="M36.477 488.84h2.273v2.27h-2.273z"/><path id="Path" stroke="#00C4BA" stroke-width=".636" stroke-linecap="square" d="M36.477 488.84h2.273v2.27h-2.273z"/><path id="Path" fill="#00555B" d="M36.477 493.934h2.273v2.27h-2.273z"/><path id="Path" stroke="#00C4BA" stroke-width=".636" fill="#00555B" stroke-linecap="square" d="M36.477 493.934h2.273v2.27h-2.273z"/><path id="Path" stroke="#00C4BA" stroke-width=".636" stroke-linecap="square" d="M36.477 493.934h2.273v2.27h-2.273zm-16.59 4.558h5.851v13.828h-5.851z"/><path id="Path" stroke="#00C4BA" stroke-width=".636" stroke-linecap="square" d="M19.887 498.492h5.851v13.828h-5.851zm-10.407.324h6.34v10.41H9.48z"/><path id="Path" stroke="#00C4BA" stroke-width=".636" stroke-linecap="square" d="M9.48 498.816h6.34v10.41H9.48zm-6.996-.488h4.391v13.992h-4.39z"/><path id="Path" stroke="#00C4BA" stroke-width=".636" stroke-linecap="square" d="M2.484 498.328h4.391v13.992h-4.39zm4.879 11.399h5.532v5.847H7.363z"/><path id="Path" stroke="#00C4BA" stroke-width=".636" stroke-linecap="square" d="M7.363 509.727h5.532v5.847H7.363zm6.18 0h5.531v5.847h-5.531z"/><path id="Path" stroke="#00C4BA" stroke-width=".636" stroke-linecap="square" d="M13.543 509.727h5.531v5.847h-5.531z"/><path id="Path" stroke="#00C4BA" stroke-width=".636" stroke-linecap="round" stroke-linejoin="round" d="M30.133 435.324l-27.16-.011m27.16.011l-27.16-.011m27.16 5.222l-26.996-.012m26.996.012l-26.996-.012m3.738-5.035v4.547m0-4.547v4.547m5.531-4.547v4.547m0-4.547v4.547m5.856-4.547l-.004 4.547m.004-4.547l-.004 4.547M6.55 520.871c0 .942-.765 1.703-1.706 1.703a1.705 1.705 0 01-1.707-1.703c0-.941.765-1.703 1.707-1.703.941 0 1.707.762 1.707 1.703z"/><path d="M6.55 520.871c0 .942-.765 1.703-1.706 1.703a1.705 1.705 0 01-1.707-1.703c0-.941.765-1.703 1.707-1.703.941 0 1.707.762 1.707 1.703zm6.669 0c0 .942-.766 1.703-1.707 1.703a1.705 1.705 0 01-1.707-1.703c0-.941.765-1.703 1.707-1.703.941 0 1.707.762 1.707 1.703z" id="Path" stroke="#00C4BA" stroke-width=".636" stroke-linecap="round" stroke-linejoin="round"/><path d="M13.219 520.871c0 .942-.766 1.703-1.707 1.703a1.705 1.705 0 01-1.707-1.703c0-.941.765-1.703 1.707-1.703.941 0 1.707.762 1.707 1.703zm4.551 0c0 .942-.762 1.703-1.704 1.703-.945 0-1.71-.761-1.71-1.703 0-.941.765-1.703 1.71-1.703.942 0 1.704.762 1.704 1.703z" id="Path" stroke="#00C4BA" stroke-width=".636" stroke-linecap="round" stroke-linejoin="round"/><path d="M17.77 520.871c0 .942-.762 1.703-1.704 1.703-.945 0-1.71-.761-1.71-1.703 0-.941.765-1.703 1.71-1.703.942 0 1.704.762 1.704 1.703zm4.554 0c0 .942-.765 1.703-1.707 1.703a1.705 1.705 0 01-1.707-1.703c0-.941.766-1.703 1.707-1.703.942 0 1.707.762 1.707 1.703z" id="Path" stroke="#00C4BA" stroke-width=".636" stroke-linecap="round" stroke-linejoin="round"/><path d="M22.324 520.871c0 .942-.765 1.703-1.707 1.703a1.705 1.705 0 01-1.707-1.703c0-.941.766-1.703 1.707-1.703.942 0 1.707.762 1.707 1.703zm0 10.419c0 .94-.765 1.706-1.707 1.706a1.709 1.709 0 01-1.707-1.707 1.708 1.708 0 013.414 0z" id="Path" stroke="#00C4BA" stroke-width=".636" stroke-linecap="round" stroke-linejoin="round"/><path d="M22.324 531.29c0 .94-.765 1.706-1.707 1.706a1.709 1.709 0 01-1.707-1.707 1.708 1.708 0 013.414 0zm-15.614 0c0 .94-.76 1.706-1.702 1.706a1.71 1.71 0 01-1.711-1.707c0-.937.765-1.703 1.71-1.703.942 0 1.704.766 1.704 1.703z" id="Path" stroke="#00C4BA" stroke-width=".636" stroke-linecap="round" stroke-linejoin="round"/><path d="M6.71 531.29c0 .94-.76 1.706-1.702 1.706a1.71 1.71 0 01-1.711-1.707c0-.937.765-1.703 1.71-1.703.942 0 1.704.766 1.704 1.703zm27.489-14.563l-33.504-.012m33.504.012l-33.504-.012m34.481 19.223v4.671H22.39v2.805H9.285v-2.805H3.297" id="Path" stroke="#00C4BA" stroke-width=".636" stroke-linecap="round" stroke-linejoin="round"/><path id="Path" stroke="#00C4BA" stroke-width=".636" stroke-linecap="round" stroke-linejoin="round" d="M35.176 535.938v4.671H22.39v2.805H9.285v-2.805H3.297M38.75 484.98l5.855-.011m-5.855.011l5.855-.011m-5.855-1.781l5.855-.008m-5.855.008l5.855-.008m-5.855-4.223l5.855-.012m-5.855.012l5.855-.012m-21.781-81.047c0 1.688-2.398 3.059-5.355 3.059-2.957 0-5.356-1.371-5.356-3.059 0-1.687 2.399-3.058 5.356-3.058s5.355 1.37 5.355 3.058z"/><path d="M22.824 397.898c0 1.688-2.398 3.059-5.355 3.059-2.957 0-5.356-1.371-5.356-3.059 0-1.687 2.399-3.058 5.356-3.058s5.355 1.37 5.355 3.058z" id="Path" stroke="#00C4BA" stroke-width=".636" stroke-linecap="round" stroke-linejoin="round"/><path d="M22.441 397.707c0 1.582-1.628 2.863-3.632 2.863-2.008 0-3.637-1.28-3.637-2.863 0-1.582 1.629-2.867 3.637-2.867 2.003 0 3.632 1.285 3.632 2.867z" id="Path" stroke="#00C4BA" stroke-width=".636" stroke-linecap="round" stroke-linejoin="round"/><path d="M22.441 397.707c0 1.582-1.628 2.863-3.632 2.863-2.008 0-3.637-1.28-3.637-2.863 0-1.582 1.629-2.867 3.637-2.867 2.003 0 3.632 1.285 3.632 2.867zm10.711 28.727l11.477-.012m-11.477.012l11.477-.012" id="Path" stroke="#00C4BA" stroke-width=".636" stroke-linecap="round" stroke-linejoin="round"/><path id="Path" stroke="#00C4BA" stroke-width=".636" stroke-linecap="square" d="M35.832 401.156h9.18v25.266h-9.18z"/><path id="Path" stroke="#00C4BA" stroke-width=".636" stroke-linecap="square" d="M35.832 401.156h9.18v25.266h-9.18z"/><path d="M40.422 413.215v6.125s-2.68.191-2.488 2.105c.191 1.914.765 1.723 2.68 1.914 1.91.192 2.1-1.148 2.1-2.105 0-.957-.765-2.106-.765-2.106v-11.867s.766-1.148.766-2.488c0-1.336-.766-1.336-2.676-1.336-1.914 0-2.488.383-2.488 1.527 0 1.149 2.87 2.106 2.87 2.106v6.125z" id="Path" stroke="#00C4BA" stroke-width=".636" stroke-linecap="round" stroke-linejoin="round"/><path d="M40.422 413.215v6.125s-2.68.191-2.488 2.105c.191 1.914.765 1.723 2.68 1.914 1.91.192 2.1-1.148 2.1-2.105 0-.957-.765-2.106-.765-2.106v-11.867s.766-1.148.766-2.488c0-1.336-.766-1.336-2.676-1.336-1.914 0-2.488.383-2.488 1.527 0 1.149 2.87 2.106 2.87 2.106v6.125z" id="Path" stroke="#00C4BA" stroke-width=".636" stroke-linecap="round" stroke-linejoin="round"/><path d="M9.984 542.332v3.512s-2.058 3.125-2.675 6.25c-.618 3.12-1.649 9.562-1.649 9.562h19.152s-1.027-6.441-1.644-9.562c-.621-3.125-2.68-6.25-2.68-6.25v-3.512" id="Path" fill="#00555B"/><path d="M9.984 542.332v3.512s-2.058 3.125-2.675 6.25c-.618 3.12-1.649 9.562-1.649 9.562h19.152s-1.027-6.441-1.644-9.562c-.621-3.125-2.68-6.25-2.68-6.25v-3.512" id="Path" stroke="#00C4BA" stroke-width=".636" fill="#00555B" stroke-linecap="round" stroke-linejoin="round"/><path d="M9.984 542.332v3.512s-2.058 3.125-2.675 6.25c-.618 3.12-1.649 9.562-1.649 9.562h19.152s-1.027-6.441-1.644-9.562c-.621-3.125-2.68-6.25-2.68-6.25v-3.512" id="Path" stroke="#00C4BA" stroke-width=".636" stroke-linecap="round" stroke-linejoin="round"/><path d="M29.11 542.332v3.512s-2.06 3.125-2.676 6.25c-.618 3.12-1.649 9.562-1.649 9.562h19.156s-1.03-6.441-1.648-9.562c-.617-3.125-2.676-6.25-2.676-6.25v-3.512" id="Path" fill="#00555B"/><path d="M29.11 542.332v3.512s-2.06 3.125-2.676 6.25c-.618 3.12-1.649 9.562-1.649 9.562h19.156s-1.03-6.441-1.648-9.562c-.617-3.125-2.676-6.25-2.676-6.25v-3.512" id="Path" stroke="#00C4BA" stroke-width=".636" fill="#00555B" stroke-linecap="round" stroke-linejoin="round"/><path d="M29.11 542.332v3.512s-2.06 3.125-2.676 6.25c-.618 3.12-1.649 9.562-1.649 9.562h19.156s-1.03-6.441-1.648-9.562c-.617-3.125-2.676-6.25-2.676-6.25v-3.512m51.684-84.215l-35.832-.012m35.832.012l-35.832-.012m36.144-171.25v-43.632s1.797-7.489-1.457-15.953c-3.25-8.47-12.57-29.958-12.57-29.958L62.953 166.38h-2.93l-9.43 49.168s-1.628 5.207-1.628 10.094v317.797h35.777s3.742-.325 5.207-2.282c3.074-4.101 1.34-4.883 1.34-4.883v-78.148l.398-16.93-.074-154.34z" id="Path" stroke="#00C4BA" stroke-width=".636" stroke-linecap="round" stroke-linejoin="round"/><path d="M91.613 286.855v-43.632s1.797-7.489-1.457-15.953c-3.25-8.47-12.57-29.958-12.57-29.958L62.953 166.38h-2.93l-9.43 49.168s-1.628 5.207-1.628 10.094v317.797h35.777s3.742-.325 5.207-2.282c3.074-4.101 1.34-4.883 1.34-4.883v-78.148l.398-16.93-.074-154.34zm-2.965 86.606l-39.035-.012m39.035.012l-39.035-.012m39.035-13.988l-39.035-.012m39.035.012l-39.035-.012m39.035-13.988l-39.035-.012m39.035.012l-39.035-.012m39.035-13.664l-39.035-.012m39.035.012l-39.035-.012m39.035-13.015l-39.035-.008m39.035.008l-39.035-.008m39.035 69.035l-39.035-.008m39.035.008l-39.035-.008m7.485-205.781c3.578-1.297 7.804-1.941 12.035-1.941m-12.035 1.941c3.578-1.297 7.804-1.941 12.035-1.941m-14.965 20.828c8.133-3.25 15.094-3.57 23.094-3.57m-23.094 3.57c8.133-3.25 15.094-3.57 23.094-3.57m-26.344 18.871c14.96-1.614 21.14-.965 34.477-.965m-34.477.965c14.96-1.614 21.14-.965 34.477-.965m-36.102 11.394l40.656-.008m-40.656.008l40.656-.008m3.578 16.614l-44.562-.008m44.562.008l-44.562-.008" id="Path" stroke="#00C4BA" stroke-width=".636" stroke-linecap="round" stroke-linejoin="round"/><path id="Path" stroke="#00C4BA" stroke-width=".636" stroke-linecap="square" d="M70.438 278.387h8.453v7.8h-8.454z"/><path id="Path" stroke="#00C4BA" stroke-width=".636" stroke-linecap="square" d="M70.438 278.387h8.453v7.8h-8.454zm.972-17.258h5.852v3.57H71.41z"/><path id="Path" stroke="#00C4BA" stroke-width=".636" stroke-linecap="square" d="M71.41 261.129h5.852v3.57H71.41z"/><path id="Path" stroke="#00C4BA" stroke-width=".636" stroke-linecap="round" stroke-linejoin="round" d="M74.34 243.219l-.004 35.156m.004-35.156l-.004 35.156m19.191 7.824l-38.058-.011m38.058.011l-38.058-.011m4.23-.313v-42.016m0 42.016v-42.016m-1.625 42.016v-42.016m0 42.016v-42.016m-9.109-18.546s1.84-8.793 4.441-12.7c2.602-3.906 8.227-9.117 8.227-9.117v5.211s-8.246 13.574-8.246 17.48c0 3.907-.653 16.93-.653 16.93v42.653l9.11 13.671v87.91l-4.23 10.419-8.65.101V225.313z"/><path d="M48.965 225.313s1.84-8.793 4.441-12.7c2.602-3.906 8.227-9.117 8.227-9.117v5.211s-8.246 13.574-8.246 17.48c0 3.907-.653 16.93-.653 16.93v42.653l9.11 13.671v87.91l-4.23 10.419-8.65.101V225.313zm17.566-43.305l4.551 13.336m-4.551-13.336l4.551 13.336m-2.602-13.66l5.856 13.011m-5.856-13.011l5.856 13.011m-10.731-12.363l1.946 13.664m-1.946-13.664l1.946 13.664M61 182.984l.324 13.012M61 182.984l.324 13.012m-2.601-12.687l-1.301 13.664m1.301-13.664l-1.301 13.664M68.79 242.5l-.04-15.563-1.168-12.042" id="Path" stroke="#00C4BA" stroke-width=".636" stroke-linecap="round" stroke-linejoin="round"/><path id="Path" stroke="#00C4BA" stroke-width=".636" stroke-linecap="round" stroke-linejoin="round" d="M68.79 242.5l-.04-15.563-1.168-12.042m12.285 27.988l-1.512-15.946L76 215.22"/><path id="Path" stroke="#00C4BA" stroke-width=".636" stroke-linecap="round" stroke-linejoin="round" d="M79.867 242.883l-1.512-15.946L76 215.22m-2.41-15.9l4.226 13.993M73.59 199.32l4.226 13.993m10.832 82.98l-25.699-.012m25.699.012l-25.699-.012"/><path id="Path" stroke="#00C4BA" stroke-width=".636" stroke-linecap="square" d="M48.965 238.336h10.082v4.875H48.965z"/><path id="Path" stroke="#00C4BA" stroke-width=".636" stroke-linecap="square" d="M48.965 238.336h10.082v4.875H48.965z"/><path id="Path" stroke="#00C4BA" stroke-width=".636" stroke-linecap="round" stroke-linejoin="round" d="M59.051 238.336l-.977-11.406m.977 11.406l-.977-11.406m23.344 160.523V300.2s.324-5.86 2.273-5.86c1.954 0 2.278 3.583 2.278 3.583"/><path d="M81.418 387.453V300.2s.324-5.86 2.273-5.86c1.954 0 2.278 3.583 2.278 3.583m-20.262 89.53V300.2s-.324-5.86-2.277-5.86c-1.95 0-2.274 1.63-2.274 1.63" id="Path" stroke="#00C4BA" stroke-width=".636" stroke-linecap="round" stroke-linejoin="round"/><path d="M65.707 387.453V300.2s-.324-5.86-2.277-5.86c-1.95 0-2.274 1.63-2.274 1.63" id="Path" stroke="#00C4BA" stroke-width=".636" stroke-linecap="round" stroke-linejoin="round"/><path id="Path" stroke="#00C4BA" stroke-width=".636" stroke-linecap="square" d="M71.355 441.188h6.176v26.035h-6.176z"/><path id="Path" stroke="#00C4BA" stroke-width=".636" stroke-linecap="square" d="M71.355 441.188h6.176v26.035h-6.176zm-1.245-37.446h9.757v31.246H70.11z"/><path id="Path" stroke="#00C4BA" stroke-width=".636" stroke-linecap="square" d="M70.11 403.742h9.757v31.246H70.11z"/><path id="Path" stroke="#00C4BA" stroke-width=".636" stroke-linecap="round" stroke-linejoin="round" d="M69.883 404.719v28.64h9.984l-.23-7.808v-14.649l-2.696-6.183z"/><path id="Path" stroke="#00C4BA" stroke-width=".636" stroke-linecap="round" stroke-linejoin="round" d="M69.883 404.719v28.64h9.984l-.23-7.808v-14.649l-2.696-6.183z"/><path id="Path" stroke="#00C4BA" stroke-width=".636" stroke-linecap="round" stroke-linejoin="round" d="M71.602 431.082l-.325-20.18-1.3-4.882"/><path id="Path" stroke="#00C4BA" stroke-width=".636" stroke-linecap="round" stroke-linejoin="round" d="M71.602 431.082l-.325-20.18-1.3-4.882m4.687 92.472v-30.941m0 30.941v-30.941m-.383-.645V441.5m0 25.406V441.5m3.254 8.805l-5.859-.012m5.859.012l-5.859-.012m5.859 8.477l-5.859-.012m5.859.012l-5.859-.012M58.438 396.18v43.644l-3.903 17.582v78.14"/><path id="Path" stroke="#00C4BA" stroke-width=".636" stroke-linecap="round" stroke-linejoin="round" d="M58.438 396.18v43.644l-3.903 17.582v78.14m36.766-39.007l-36.156-.012m36.156.012l-36.156-.012"/><path id="Path" stroke="#00C4BA" stroke-width=".636" stroke-linecap="round" stroke-linejoin="round" d="M57.008 397.879v41.89l-4.727 17.86v77.933h39.02"/><path id="Path" stroke="#00C4BA" stroke-width=".636" stroke-linecap="round" stroke-linejoin="round" d="M57.008 397.879v41.89l-4.727 17.86v77.933h39.02m-36.938-77.445v37.758m0-37.758v37.758"/><path id="Path" stroke="#00C4BA" stroke-width=".636" stroke-linecap="square" d="M52.086 458.281h2.273v2.27h-2.273z"/><path id="Path" stroke="#00C4BA" stroke-width=".636" stroke-linecap="square" d="M52.086 458.281h2.273v2.27h-2.273zm0 5.094h2.273v2.266h-2.273z"/><path id="Path" stroke="#00C4BA" stroke-width=".636" stroke-linecap="square" d="M52.086 463.375h2.273v2.266h-2.273zm0 5.094h2.273v2.265h-2.273z"/><path id="Path" stroke="#00C4BA" stroke-width=".636" stroke-linecap="square" d="M52.086 468.469h2.273v2.265h-2.273zm0 5.094h2.273v2.265h-2.273z"/><path id="Path" stroke="#00C4BA" stroke-width=".636" stroke-linecap="square" d="M52.086 473.563h2.273v2.265h-2.273zm0 5.089h2.273v2.27h-2.273z"/><path id="Path" stroke="#00C4BA" stroke-width=".636" stroke-linecap="square" d="M52.086 478.652h2.273v2.27h-2.273zm0 5.094h2.273v2.27h-2.273z"/><path id="Path" stroke="#00C4BA" stroke-width=".636" stroke-linecap="square" d="M52.086 483.746h2.273v2.27h-2.273zm0 5.094h2.273v2.27h-2.273z"/><path id="Path" stroke="#00C4BA" stroke-width=".636" stroke-linecap="square" d="M52.086 488.84h2.273v2.27h-2.273zm0 5.094h2.273v2.27h-2.273z"/><path id="Path" stroke="#00C4BA" stroke-width=".636" stroke-linecap="square" d="M52.086 493.934h2.273v2.27h-2.273zm10.332 4.558h5.852v13.828h-5.852z"/><path id="Path" stroke="#00C4BA" stroke-width=".636" stroke-linecap="square" d="M62.418 498.492h5.852v13.828h-5.852zm9.922.324h6.34v10.41h-6.34z"/><path id="Path" stroke="#00C4BA" stroke-width=".636" stroke-linecap="square" d="M72.34 498.816h6.34v10.41h-6.34zm8.945-.488h4.387v13.992h-4.387z"/><path id="Path" stroke="#00C4BA" stroke-width=".636" stroke-linecap="square" d="M81.285 498.328h4.387v13.992h-4.387zm-6.019 11.399h5.527v5.847h-5.527z"/><path id="Path" stroke="#00C4BA" stroke-width=".636" stroke-linecap="square" d="M75.266 509.727h5.527v5.847h-5.527zm-6.18 0h5.527v5.847h-5.527z"/><path id="Path" stroke="#00C4BA" stroke-width=".636" stroke-linecap="square" d="M69.086 509.727h5.527v5.847h-5.527z"/><path id="Path" stroke="#00C4BA" stroke-width=".636" stroke-linecap="round" stroke-linejoin="round" d="M58.785 435.324l32.137-.011m-32.137.011l32.137-.011m-31.945 5.222l31.785-.012m-31.785.012l31.785-.012m-3.739-5.035v4.547m0-4.547v4.547m-5.531-4.547v4.547m0-4.547v4.547m-5.855-4.547v4.547m0-4.547v4.547m8.238 80.836c0 .942-.766 1.703-1.707 1.703a1.705 1.705 0 01-1.707-1.703c0-.941.766-1.703 1.707-1.703.941 0 1.707.762 1.707 1.703z"/><path d="M83.875 520.871c0 .942-.766 1.703-1.707 1.703a1.705 1.705 0 01-1.707-1.703c0-.941.766-1.703 1.707-1.703.941 0 1.707.762 1.707 1.703zm-6.668 0c0 .942-.766 1.703-1.707 1.703a1.705 1.705 0 01-1.707-1.703c0-.941.766-1.703 1.707-1.703.941 0 1.707.762 1.707 1.703z" id="Path" stroke="#00C4BA" stroke-width=".636" stroke-linecap="round" stroke-linejoin="round"/><path d="M77.207 520.871c0 .942-.766 1.703-1.707 1.703a1.705 1.705 0 01-1.707-1.703c0-.941.766-1.703 1.707-1.703.941 0 1.707.762 1.707 1.703zm-4.555 0c0 .942-.765 1.703-1.703 1.703-.945 0-1.71-.761-1.71-1.703a1.706 1.706 0 013.413 0z" id="Path" stroke="#00C4BA" stroke-width=".636" stroke-linecap="round" stroke-linejoin="round"/><path d="M72.652 520.871c0 .942-.765 1.703-1.703 1.703-.945 0-1.71-.761-1.71-1.703a1.706 1.706 0 013.413 0zm-4.55 0c0 .942-.766 1.703-1.707 1.703a1.703 1.703 0 110-3.406c.94 0 1.707.762 1.707 1.703z" id="Path" stroke="#00C4BA" stroke-width=".636" stroke-linecap="round" stroke-linejoin="round"/><path d="M68.102 520.871c0 .942-.766 1.703-1.707 1.703a1.703 1.703 0 110-3.406c.94 0 1.707.762 1.707 1.703zm0 10.419a1.706 1.706 0 11-3.416.002 1.706 1.706 0 013.416-.003z" id="Path" stroke="#00C4BA" stroke-width=".636" stroke-linecap="round" stroke-linejoin="round"/><path d="M68.102 531.29a1.706 1.706 0 11-3.416.002 1.706 1.706 0 013.416-.003zm15.608 0c0 .94-.76 1.706-1.702 1.706a1.71 1.71 0 01-1.711-1.707c0-.937.766-1.703 1.71-1.703.942 0 1.704.766 1.704 1.703z" id="Path" stroke="#00C4BA" stroke-width=".636" stroke-linecap="round" stroke-linejoin="round"/><path d="M83.71 531.29c0 .94-.76 1.706-1.702 1.706a1.71 1.71 0 01-1.711-1.707c0-.937.766-1.703 1.71-1.703.942 0 1.704.766 1.704 1.703zm-28.749-14.563l35.957-.012m-35.957.012l35.957-.012m-38.637 19.223l2.676 4.671h12.688v2.805h15.757v-2.805h7.196" id="Path" stroke="#00C4BA" stroke-width=".636" stroke-linecap="round" stroke-linejoin="round"/><path id="Path" stroke="#00C4BA" stroke-width=".636" stroke-linecap="round" stroke-linejoin="round" d="M52.281 535.938l2.676 4.671h12.688v2.805h15.757v-2.805h7.196M55.145 484.98l-5.856-.011m5.856.011l-5.856-.011m5.856-1.781l-5.856-.008m5.856.008l-5.856-.008m5.856-4.223l-5.856-.012m5.856.012l-5.856-.012m16.766-280.937s1.527 8.035 2.293 12.629c.765 4.59 5.355 4.59 4.59-1.532-.766-6.125-1.532-11.48-1.532-11.48"/><path d="M66.055 198.008s1.527 8.035 2.293 12.629c.765 4.59 5.355 4.59 4.59-1.532-.766-6.125-1.532-11.48-1.532-11.48m1.532 12.254l-4.208.754m4.208-.754l-4.208.754m1.915-13.391l-4.211.754m4.211-.754l-4.211.754m3.828-4.969l-4.211.754m4.211-.754l-4.211.754m4.742 2.805s-2.023-9.367-3.066-14.727c-1.051-5.359-5.633-5.117-4.493 2.043a1020.062 1020.062 0 002.235 13.414" id="Path" stroke="#00C4BA" stroke-width=".636" stroke-linecap="round" stroke-linejoin="round"/><path d="M70.793 196.586s-2.023-9.367-3.066-14.727c-1.051-5.359-5.633-5.117-4.493 2.043a1020.062 1020.062 0 002.235 13.414m-3.856 1.622l2.602 14.316m-2.602-14.316l2.602 14.316m27.469 73.211l-8.036 10.34v91.132l8.036 13.407" id="Path" stroke="#00C4BA" stroke-width=".636" stroke-linecap="round" stroke-linejoin="round"/><path id="Path" stroke="#00C4BA" stroke-width=".636" stroke-linecap="round" stroke-linejoin="round" d="M91.684 286.465l-8.036 10.34v91.132l8.036 13.407m-.383.004l-33.664-.008m33.664.008l-33.664-.008m31.371.008v33.308m0-33.308v33.308m-8.801-36.758c0 1.688-1.973 3.059-4.398 3.059-2.43 0-4.399-1.371-4.399-3.059 0-1.687 1.969-3.058 4.399-3.058 2.425 0 4.398 1.37 4.398 3.058z"/><path d="M80.207 397.898c0 1.688-1.973 3.059-4.398 3.059-2.43 0-4.399-1.371-4.399-3.059 0-1.687 1.969-3.058 4.399-3.058 2.425 0 4.398 1.37 4.398 3.058z" id="Path" stroke="#00C4BA" stroke-width=".636" stroke-linecap="round" stroke-linejoin="round"/><path d="M77.691 397.707c0 1.582-1.336 2.867-2.984 2.867s-2.984-1.285-2.984-2.867 1.336-2.867 2.984-2.867 2.984 1.285 2.984 2.867z" id="Path" stroke="#00C4BA" stroke-width=".636" stroke-linecap="round" stroke-linejoin="round"/><path d="M77.691 397.707c0 1.582-1.336 2.867-2.984 2.867s-2.984-1.285-2.984-2.867 1.336-2.867 2.984-2.867 2.984 1.285 2.984 2.867zm11.696-108.559v108.743m0-108.743v108.743M68.18 435.488v4.547m0-4.547v4.547m-19.34-13.601l8.031-.012m-8.031.012l8.031-.012m-5.887-13.207v6.125s2.282.191 2.118 2.105c-.16 1.914-.653 1.723-2.278 1.914-1.629.192-1.793-1.148-1.793-2.105 0-.957.653-2.106.653-2.106l-.004-11.867c.004 0-.649-1.148-.649-2.488 0-1.336.653-1.336 2.282-1.336 1.628 0 2.117.383 2.117 1.527 0 1.149-2.446 2.106-2.446 2.106v6.125z" id="Path" stroke="#00C4BA" stroke-width=".636" stroke-linecap="round" stroke-linejoin="round"/><path d="M50.984 413.215v6.125s2.282.191 2.118 2.105c-.16 1.914-.653 1.723-2.278 1.914-1.629.192-1.793-1.148-1.793-2.105 0-.957.653-2.106.653-2.106l-.004-11.867c.004 0-.649-1.148-.649-2.488 0-1.336.653-1.336 2.282-1.336 1.628 0 2.117.383 2.117 1.527 0 1.149-2.446 2.106-2.446 2.106v6.125z" id="Path" stroke="#00C4BA" stroke-width=".636" stroke-linecap="round" stroke-linejoin="round"/><path d="M73.488 542.332v3.512s-2.058 3.125-2.675 6.25c-.622 3.12-1.649 9.562-1.649 9.562h19.152s-1.027-6.441-1.648-9.562c-.617-3.125-2.676-6.25-2.676-6.25v-3.512" id="Path" fill="#00555B"/><path d="M73.488 542.332v3.512s-2.058 3.125-2.675 6.25c-.622 3.12-1.649 9.562-1.649 9.562h19.152s-1.027-6.441-1.648-9.562c-.617-3.125-2.676-6.25-2.676-6.25v-3.512" id="Path" stroke="#00C4BA" stroke-width=".636" fill="#00555B" stroke-linecap="round" stroke-linejoin="round"/><path d="M73.488 542.332v3.512s-2.058 3.125-2.675 6.25c-.622 3.12-1.649 9.562-1.649 9.562h19.152s-1.027-6.441-1.648-9.562c-.617-3.125-2.676-6.25-2.676-6.25v-3.512" id="Path" stroke="#00C4BA" stroke-width=".636" stroke-linecap="round" stroke-linejoin="round"/><path d="M54.36 542.332v3.512s-2.06 3.125-2.676 6.25c-.618 3.12-1.649 9.562-1.649 9.562h19.156s-1.03-6.441-1.648-9.562c-.617-3.125-2.68-6.25-2.68-6.25v-3.512" id="Path" fill="#00555B"/><path d="M54.36 542.332v3.512s-2.06 3.125-2.676 6.25c-.618 3.12-1.649 9.562-1.649 9.562h19.156s-1.03-6.441-1.648-9.562c-.617-3.125-2.68-6.25-2.68-6.25v-3.512" id="Path" stroke="#00C4BA" stroke-width=".636" fill="#00555B" stroke-linecap="round" stroke-linejoin="round"/><path d="M54.36 542.332v3.512s-2.06 3.125-2.676 6.25c-.618 3.12-1.649 9.562-1.649 9.562h19.156s-1.03-6.441-1.648-9.562c-.617-3.125-2.68-6.25-2.68-6.25v-3.512" id="Path" stroke="#00C4BA" stroke-width=".636" stroke-linecap="round" stroke-linejoin="round"/><path id="Path" stroke="#00C4BA" stroke-width="2.542" stroke-linecap="round" stroke-linejoin="round" d="M93.73 234.184l5.731-.028m-5.731.028l5.731-.028m-6.879 157.321l4.586-.024m-4.586.024l4.586-.024"/><path d="M128.953 215.285c5.317 14.707 7.004 18.395 8.95 22.305 1.94 3.914 3.886 7.437 7 9.004 3.109 1.562 6.609 3.129 7.39 6.652.777 3.52.777 18 .777 18l5.055 181.977s3.5-.391 7.777 0c4.282.394 7.391 1.96 9.727 4.308 2.332 2.344 50.168 47.742 54.45 52.047 4.276 4.305 6.612 9.395 6.612 12.524v18.003h-7.004l-.386-8.609-2.723-2.742v10.566s-53.672-25.437-57.176-27.785c-3.5-2.348-2.722-1.566-3.886-5.086-1.168-3.523-5.059-17.222-5.059-17.222l-1.945-.391v15.656h-3.887v-14.48h-5.832l-.39 19.566-12.06.39-.777-1.956h-5.054c-4.282 0-8.946-.39-10.89-1.563-1.946-1.176-5.056-3.523-5.056-9.394 0-5.868-.39-14.48-.39-14.48l1.945-.391v-2.348h-5.832v9.39l2.719 21.528-6.223-21.527-5.445-24.262s-3.887-16.828-3.887-32.871c0-16.047-1.168-45.79-1.168-63.403 0-17.609 0-81.007.387-95.488.39-14.48.781-47.742.781-47.742s1.164-20.352 3.5-26.223c2.332-5.87 3.89-8.218 7.39-8.218 3.5 0 8.266 2.078 12.446 9.785 2.332 4.304 6.61 10.175 8.164 14.48z" id="Path" stroke="#00C4BA" stroke-width=".636" stroke-linecap="round" stroke-linejoin="round"/><path d="M128.953 215.285c5.317 14.707 7.004 18.395 8.95 22.305 1.94 3.914 3.886 7.437 7 9.004 3.109 1.562 6.609 3.129 7.39 6.652.777 3.52.777 18 .777 18l5.055 181.977s3.5-.391 7.777 0c4.282.394 7.391 1.96 9.727 4.308 2.332 2.344 50.168 47.742 54.45 52.047 4.276 4.305 6.612 9.395 6.612 12.524v18.003h-7.004l-.386-8.609-2.723-2.742v10.566s-53.672-25.437-57.176-27.785c-3.5-2.348-2.722-1.566-3.886-5.086-1.168-3.523-5.059-17.222-5.059-17.222l-1.945-.391v15.656h-3.887v-14.48h-5.832l-.39 19.566-12.06.39-.777-1.956h-5.054c-4.282 0-8.946-.39-10.89-1.563-1.946-1.176-5.056-3.523-5.056-9.394 0-5.868-.39-14.48-.39-14.48l1.945-.391v-2.348h-5.832v9.39l2.719 21.528-6.223-21.527-5.445-24.262s-3.887-16.828-3.887-32.871c0-16.047-1.168-45.79-1.168-63.403 0-17.609 0-81.007.387-95.488.39-14.48.781-47.742.781-47.742s1.164-20.352 3.5-26.223c2.332-5.87 3.89-8.218 7.39-8.218 3.5 0 8.266 2.078 12.446 9.785 2.332 4.304 6.61 10.175 8.164 14.48z" id="Path" stroke="#00C4BA" stroke-width=".636" stroke-linecap="round" stroke-linejoin="round"/><path d="M116.121 194.543l.777 6.652-3.109.39s1.555 10.177 2.723 17.22c1.164 7.043 1.941 8.218 1.941 8.218l-2.332 1.957 2.723 1.958 1.168 5.476s-3.5-1.957-6.614-.781c-3.113 1.172-6.222.781-6.222.781s-1.75 7.828-1.364 51.266c.391 43.437 8.56 95.093 8.95 120.922.386 25.828-5.64 53.613-5.64 53.613l-3.892 1.172-3.89 1.175s-3.11-16.437-3.5-24.656c-.387-8.219-1.555-63.394-1.555-84.136 0-20.739.387-102.918 1.168-117.399.777-14.48-.39-27.785 2.723-35.61 3.11-7.827 2.332-11.741 7.777-11.741s8.168 3.523 8.168 3.523" id="Path" fill="#00555B"/><path d="M116.121 194.543l.777 6.652-3.109.39s1.555 10.177 2.723 17.22c1.164 7.043 1.941 8.218 1.941 8.218l-2.332 1.957 2.723 1.958 1.168 5.476s-3.5-1.957-6.614-.781c-3.113 1.172-6.222.781-6.222.781s-1.75 7.828-1.364 51.266c.391 43.437 8.56 95.093 8.95 120.922.386 25.828-5.64 53.613-5.64 53.613l-3.892 1.172-3.89 1.175s-3.11-16.437-3.5-24.656c-.387-8.219-1.555-63.394-1.555-84.136 0-20.739.387-102.918 1.168-117.399.777-14.48-.39-27.785 2.723-35.61 3.11-7.827 2.332-11.741 7.777-11.741s8.168 3.523 8.168 3.523z" id="Path" stroke="#00C4BA" stroke-width=".636" fill="#00555B" stroke-linecap="round" stroke-linejoin="round"/><path d="M116.121 194.543l.777 6.652-3.109.39s1.555 10.177 2.723 17.22c1.164 7.043 1.941 8.218 1.941 8.218l-2.332 1.957 2.723 1.958 1.168 5.476s-3.5-1.957-6.614-.781c-3.113 1.172-6.222.781-6.222.781s-1.75 7.828-1.364 51.266c.391 43.437 8.56 95.093 8.95 120.922.386 25.828-5.64 53.613-5.64 53.613l-3.892 1.172-3.89 1.175s-3.11-16.437-3.5-24.656c-.387-8.219-1.555-63.394-1.555-84.136 0-20.739.387-102.918 1.168-117.399.777-14.48-.39-27.785 2.723-35.61 3.11-7.827 2.332-11.741 7.777-11.741s8.168 3.523 8.168 3.523zm30.723 53.211c-.387 2.144-.196 3.121-1.942 2.34-1.75-.781-4.863-.781-5.058-2.145-.192-1.367 0-4.097 1.168-4.097" id="Path" stroke="#00C4BA" stroke-width=".636" stroke-linecap="round" stroke-linejoin="round"/><path d="M146.844 247.754c-.387 2.144-.196 3.121-1.942 2.34-1.75-.781-4.863-.781-5.058-2.145-.192-1.367 0-4.097 1.168-4.097" id="Path" stroke="#00C4BA" stroke-width=".636" stroke-linecap="round" stroke-linejoin="round"/><path d="M144.898 250.11c1.946.78 1.946.195 1.75 2.34-.191 2.144-.386 2.534-2.527 1.948-2.137-.585-4.664.196-4.664-2.34 0-2.535-.777-2.144.387-3.706" id="Path" stroke="#00C4BA" stroke-width=".636" stroke-linecap="round" stroke-linejoin="round"/><path d="M144.898 250.11c1.946.78 1.946.195 1.75 2.34-.191 2.144-.386 2.534-2.527 1.948-2.137-.585-4.664.196-4.664-2.34 0-2.535-.777-2.144.387-3.706m13.222 15.07c-1.746 0-1.746.195-1.746 2.73 0 2.536.192 3.118 1.555 3.118" id="Path" stroke="#00C4BA" stroke-width=".636" stroke-linecap="round" stroke-linejoin="round"/><path d="M153.066 263.422c-1.746 0-1.746.195-1.746 2.73 0 2.536.192 3.118 1.555 3.118m.195 2.367c-20.03 1.55-30.144 1.36-46.867 1.937m46.867-1.937c-20.03 1.55-30.144 1.36-46.867 1.937m28.195 44.242l19.836-1.586m-19.836 1.586l19.836-1.586m-21.777-42.636l6.996 181.176m-6.996-181.176l6.996 181.176m-2.719-91.555l18.278-1.586m-18.278 1.586l18.278-1.586m-16.723 46.98l18.277-1.582m-18.277 1.582l18.277-1.582m-17.109 47.371l18.277-1.585m-18.277 1.585l18.277-1.585m16.726 61.449l-.39-16.035 3.114-3.91 22.168 15.25-7 12.906" id="Path" stroke="#00C4BA" stroke-width=".636" stroke-linecap="round" stroke-linejoin="round"/><path id="Path" stroke="#00C4BA" stroke-width=".636" stroke-linecap="round" stroke-linejoin="round" d="M174.46 514.262l-.39-16.035 3.114-3.91 22.168 15.25-7 12.906"/><path id="Path" stroke="#00C4BA" stroke-width=".636" stroke-linecap="round" stroke-linejoin="round" d="M172.516 513.48l-.391-15.644 3.504-5.477h3.5l51.726 35.204-.39 2.347-1.555 1.567"/><path id="Path" stroke="#00C4BA" stroke-width=".636" stroke-linecap="round" stroke-linejoin="round" d="M172.516 513.48l-.391-15.644 3.504-5.477h3.5l51.726 35.204-.39 2.347-1.555 1.567"/><path id="Path" stroke="#00C4BA" stroke-width=".636" stroke-linecap="round" stroke-linejoin="round" d="M194.684 523.652l6.613-12.117 25.277 17.2"/><path id="Path" stroke="#00C4BA" stroke-width=".636" stroke-linecap="round" stroke-linejoin="round" d="M194.684 523.652l6.613-12.117 25.277 17.2m-68.062-39.899l-.387-35.633m.387 35.633l-.387-35.633m-45.117 57.141l-6.223-20.332h3.5z"/><path id="Path" stroke="#00C4BA" stroke-width=".636" stroke-linecap="round" stroke-linejoin="round" d="M113.008 510.344l-6.223-20.332h3.5zM148.79 490l-.153-8.39-3.348-23.887-7.973.98-2.136 22.692 1.164 28.168"/><path id="Path" stroke="#00C4BA" stroke-width=".636" stroke-linecap="round" stroke-linejoin="round" d="M148.79 490l-.153-8.39-3.348-23.887-7.973.98-2.136 22.692 1.164 28.168"/><path d="M141.012 490.785c0 .856-.61 1.555-1.364 1.555-.75 0-1.359-.7-1.359-1.555 0-.86.61-1.558 1.36-1.558.753 0 1.363.699 1.363 1.558" id="Path" fill="#00555B"/><path d="M141.012 490.785c0 .856-.61 1.555-1.364 1.555-.75 0-1.359-.7-1.359-1.555 0-.86.61-1.558 1.36-1.558.753 0 1.363.699 1.363 1.558z" id="Path" stroke="#00C4BA" stroke-width=".636" fill="#00555B" stroke-linecap="round" stroke-linejoin="round"/><path d="M141.012 490.785c0 .856-.61 1.555-1.364 1.555-.75 0-1.359-.7-1.359-1.555 0-.86.61-1.558 1.36-1.558.753 0 1.363.699 1.363 1.558zm3.113 18.774l-.777-27.97 1.941-23.667" id="Path" stroke="#00C4BA" stroke-width=".636" stroke-linecap="round" stroke-linejoin="round"/><path id="Path" stroke="#00C4BA" stroke-width=".636" stroke-linecap="round" stroke-linejoin="round" d="M144.125 509.559l-.777-27.97 1.941-23.667"/><path d="M141.203 495.48c0 .86-.605 1.555-1.36 1.555-.75 0-1.359-.695-1.359-1.555 0-.859.61-1.554 1.36-1.554.754 0 1.36.695 1.36 1.554" id="Path" fill="#00555B"/><path d="M141.203 495.48c0 .86-.605 1.555-1.36 1.555-.75 0-1.359-.695-1.359-1.555 0-.859.61-1.554 1.36-1.554.754 0 1.36.695 1.36 1.554z" id="Path" stroke="#00C4BA" stroke-width=".636" fill="#00555B" stroke-linecap="round" stroke-linejoin="round"/><path d="M141.203 495.48c0 .86-.605 1.555-1.36 1.555-.75 0-1.359-.695-1.359-1.555 0-.859.61-1.554 1.36-1.554.754 0 1.36.695 1.36 1.554z" id="Path" stroke="#00C4BA" stroke-width=".636" stroke-linecap="round" stroke-linejoin="round"/><path d="M141.398 500.566c0 .86-.609 1.559-1.359 1.559s-1.36-.7-1.36-1.559c0-.855.61-1.554 1.36-1.554.75 0 1.36.699 1.36 1.554" id="Path" fill="#00555B"/><path d="M141.398 500.566c0 .86-.609 1.559-1.359 1.559s-1.36-.7-1.36-1.559c0-.855.61-1.554 1.36-1.554.75 0 1.36.699 1.36 1.554z" id="Path" stroke="#00C4BA" stroke-width=".636" fill="#00555B" stroke-linecap="round" stroke-linejoin="round"/><path d="M141.398 500.566c0 .86-.609 1.559-1.359 1.559s-1.36-.7-1.36-1.559c0-.855.61-1.554 1.36-1.554.75 0 1.36.699 1.36 1.554z" id="Path" stroke="#00C4BA" stroke-width=".636" stroke-linecap="round" stroke-linejoin="round"/><path d="M141.594 505.46c0 .856-.61 1.556-1.36 1.556-.754 0-1.359-.7-1.359-1.555 0-.86.605-1.555 1.36-1.555.75 0 1.359.696 1.359 1.555" id="Path" fill="#00555B"/><path d="M141.594 505.46c0 .856-.61 1.556-1.36 1.556-.754 0-1.359-.7-1.359-1.555 0-.86.605-1.555 1.36-1.555.75 0 1.359.696 1.359 1.555z" id="Path" stroke="#00C4BA" stroke-width=".636" fill="#00555B" stroke-linecap="round" stroke-linejoin="round"/><path d="M141.594 505.46c0 .856-.61 1.556-1.36 1.556-.754 0-1.359-.7-1.359-1.555 0-.86.605-1.555 1.36-1.555.75 0 1.359.696 1.359 1.555z" id="Path" stroke="#00C4BA" stroke-width=".636" stroke-linecap="round" stroke-linejoin="round"/><path d="M147.04 504.09c0 .86-.481 1.555-1.071 1.555s-1.067-.696-1.067-1.555c0-.86.477-1.555 1.067-1.555s1.07.695 1.07 1.555" id="Path" fill="#00555B"/><path d="M147.04 504.09c0 .86-.481 1.555-1.071 1.555s-1.067-.696-1.067-1.555c0-.86.477-1.555 1.067-1.555s1.07.695 1.07 1.555z" id="Path" stroke="#00C4BA" stroke-width=".636" fill="#00555B" stroke-linecap="round" stroke-linejoin="round"/><path d="M147.04 504.09c0 .86-.481 1.555-1.071 1.555s-1.067-.696-1.067-1.555c0-.86.477-1.555 1.067-1.555s1.07.695 1.07 1.555z" id="Path" stroke="#00C4BA" stroke-width=".636" stroke-linecap="round" stroke-linejoin="round"/><path d="M147.04 500.176c0 .86-.481 1.554-1.071 1.554s-1.067-.695-1.067-1.554c0-.86.477-1.555 1.067-1.555s1.07.695 1.07 1.555" id="Path" fill="#00555B"/><path d="M147.04 500.176c0 .86-.481 1.554-1.071 1.554s-1.067-.695-1.067-1.554c0-.86.477-1.555 1.067-1.555s1.07.695 1.07 1.555z" id="Path" stroke="#00C4BA" stroke-width=".636" fill="#00555B" stroke-linecap="round" stroke-linejoin="round"/><path d="M147.04 500.176c0 .86-.481 1.554-1.071 1.554s-1.067-.695-1.067-1.554c0-.86.477-1.555 1.067-1.555s1.07.695 1.07 1.555z" id="Path" stroke="#00C4BA" stroke-width=".636" stroke-linecap="round" stroke-linejoin="round"/><path d="M147.04 495.676c0 .86-.481 1.554-1.071 1.554s-1.067-.695-1.067-1.554c0-.86.477-1.555 1.067-1.555s1.07.695 1.07 1.555" id="Path" fill="#00555B"/><path d="M147.04 495.676c0 .86-.481 1.554-1.071 1.554s-1.067-.695-1.067-1.554c0-.86.477-1.555 1.067-1.555s1.07.695 1.07 1.555z" id="Path" stroke="#00C4BA" stroke-width=".636" fill="#00555B" stroke-linecap="round" stroke-linejoin="round"/><path d="M147.04 495.676c0 .86-.481 1.554-1.071 1.554s-1.067-.695-1.067-1.554c0-.86.477-1.555 1.067-1.555s1.07.695 1.07 1.555zm-31.114-15.84l19.445-.02m-19.445.02l19.445-.02" id="Path" stroke="#00C4BA" stroke-width=".636" stroke-linecap="round" stroke-linejoin="round"/><path d="M114.176 482.574l.39 14.863c.196 2.934.778 7.43 5.832 9.188 5.055 1.762 15.75 1.371 15.75 1.371l-1.168-25.812-20.804.39" id="Path" fill="#00555B"/><path d="M114.176 482.574l.39 14.863c.196 2.934.778 7.43 5.832 9.188 5.055 1.762 15.75 1.371 15.75 1.371l-1.168-25.812-20.804.39z" id="Path" stroke="#00C4BA" stroke-width=".636" fill="#00555B" stroke-linecap="round" stroke-linejoin="round"/><path d="M114.176 482.574l.39 14.863c.196 2.934.778 7.43 5.832 9.188 5.055 1.762 15.75 1.371 15.75 1.371l-1.168-25.812-20.804.39zm1.945-.39h18.859m-18.859 0h18.859" id="Path" stroke="#00C4BA" stroke-width=".636" stroke-linecap="round" stroke-linejoin="round"/><path d="M118.844 510.54l10.886 1.956s1.637-9.137-.19-11.344c-.974-1.172.386-2.347.386-2.347l5.054-16.621-11.082-.196s-1.168 12.711-.195 14.473c.973 1.758.195 3.52.195 3.52-3.109.976-5.054 10.558-5.054 10.558z" id="Path" stroke="#00C4BA" stroke-width=".636" stroke-linecap="round" stroke-linejoin="round"/><path d="M118.844 510.54l10.886 1.956s1.637-9.137-.19-11.344c-.974-1.172.386-2.347.386-2.347l5.054-16.621-11.082-.196s-1.168 12.711-.195 14.473c.973 1.758.195 3.52.195 3.52-3.109.976-5.054 10.558-5.054 10.558zm.582-1.958l10.113 1.957m-10.113-1.957l10.113 1.957m-9.527-4.105l10.109 1.953m-10.109-1.953l10.109 1.953m-9.527-4.106l10.109 1.953m-10.109-1.953l10.109 1.953m-8.75-3.91l8.168 1.567m-8.168-1.567l8.168 1.567m-6.805-3.52l6.223 1.172m-6.223-1.172l6.223 1.172" id="Path" stroke="#00C4BA" stroke-width=".636" stroke-linecap="round" stroke-linejoin="round"/><path id="Path" fill="#00555B" d="M154.82 490.012h3.305v14.07h-3.305z"/><path id="Path" stroke="#00C4BA" stroke-width=".636" fill="#00555B" stroke-linecap="square" d="M154.82 490.012h3.305v14.07h-3.305z"/><path id="Path" stroke="#00C4BA" stroke-width=".636" stroke-linecap="square" d="M154.82 490.012h3.305v14.07h-3.305z"/><path d="M157.734 455.965h6.032c3.109 0 4.277.976 6.414 2.933 2.14 1.957 64.367 62.602 64.367 62.602l1.945 18.195v-18.39c0-3.524-3.695-9-6.027-11.149-2.336-2.156-50.754-48.91-54.84-52.433-4.082-3.52-7.387-4.692-10.305-4.692h-7.195l-.39 2.934" id="Path" fill="#00555B"/><path d="M157.734 455.965h6.032c3.109 0 4.277.976 6.414 2.933 2.14 1.957 64.367 62.602 64.367 62.602l1.945 18.195v-18.39c0-3.524-3.695-9-6.027-11.149-2.336-2.156-50.754-48.91-54.84-52.433-4.082-3.52-7.387-4.692-10.305-4.692h-7.195l-.39 2.934z" id="Path" stroke="#00C4BA" stroke-width=".636" fill="#00555B" stroke-linecap="round" stroke-linejoin="round"/><path d="M157.734 455.965h6.032c3.109 0 4.277.976 6.414 2.933 2.14 1.957 64.367 62.602 64.367 62.602l1.945 18.195v-18.39c0-3.524-3.695-9-6.027-11.149-2.336-2.156-50.754-48.91-54.84-52.433-4.082-3.52-7.387-4.692-10.305-4.692h-7.195l-.39 2.934z" id="Path" stroke="#00C4BA" stroke-width=".636" stroke-linecap="round" stroke-linejoin="round"/><path id="Path" fill="#00555B" d="M177.184 494.316l51.921 36.18 1.75-2.933-51.53-35.008h-3.696l1.555 1.761"/><path id="Path" stroke="#00C4BA" stroke-width=".636" fill="#00555B" stroke-linecap="round" stroke-linejoin="round" d="M177.184 494.316l51.921 36.18 1.75-2.933-51.53-35.008h-3.696z"/><path id="Path" stroke="#00C4BA" stroke-width=".636" stroke-linecap="round" stroke-linejoin="round" d="M177.184 494.316l51.921 36.18 1.75-2.933-51.53-35.008h-3.696z"/><path id="Path" fill="#00555B" d="M130.707 440.504h5.055v9.766h-5.055z"/><path id="Path" stroke="#00C4BA" stroke-width=".636" fill="#00555B" stroke-linecap="square" d="M130.707 440.504h5.055v9.766h-5.055z"/><path id="Path" stroke="#00C4BA" stroke-width=".636" stroke-linecap="square" d="M130.707 440.504h5.055v9.766h-5.055z"/><path id="Path" stroke="#00C4BA" stroke-width=".636" stroke-linecap="round" stroke-linejoin="round" d="M110.094 479.836l-.391-17.238m.391 17.238l-.391-17.238M106.98 327.21c3.856 25.263 7.387 56.349 7.778 82.173.39 25.824-3.11 38.347-3.11 38.347 1.227-31.324-.777-40.304-.777-61.043 0-20.738-3.89-59.476-3.89-59.476z"/><path d="M106.98 327.21c3.856 25.263 7.387 56.349 7.778 82.173.39 25.824-3.11 38.347-3.11 38.347 1.227-31.324-.777-40.304-.777-61.043 0-20.738-3.89-59.476-3.89-59.476zm17.551-117.92c.235.687.211 1.358-.054 1.483-.262.125-.672-.335-.907-1.023-.234-.688-.21-1.355.055-1.48.262-.13.672.332.906 1.02z" id="Path" stroke="#00C4BA" stroke-width=".636" stroke-linecap="round" stroke-linejoin="round"/><path d="M124.531 209.29c.235.687.211 1.358-.054 1.483-.262.125-.672-.335-.907-1.023-.234-.688-.21-1.355.055-1.48.262-.13.672.332.906 1.02zm4.082 7.444c.235.688.211 1.356-.054 1.48-.262.13-.676-.335-.907-1.019-.238-.687-.21-1.355.051-1.484.266-.125.676.336.91 1.023z" id="Path" stroke="#00C4BA" stroke-width=".636" stroke-linecap="round" stroke-linejoin="round"/><path d="M128.613 216.734c.235.688.211 1.356-.054 1.48-.262.13-.676-.335-.907-1.019-.238-.687-.21-1.355.051-1.484.266-.125.676.336.91 1.023z" id="Path" stroke="#00C4BA" stroke-width=".636" stroke-linecap="round" stroke-linejoin="round"/></g></g></svg>