<svg width="1554" height="1565" xmlns="http://www.w3.org/2000/svg"><g id="Page-1" fill="none" stroke="#00C4BA" stroke-width="5"><g id="energiaBuran1-bg" fill="none" stroke="#00C4BA" stroke-width="5"><path d="M774.898 1.598c-4.398 5.734-9.597 24.925-11.597 43.05-.399 4.399-1.067 9.73-1.332 11.997-.934 7.73-3.336 72.636-4.668 129.949-2.668 108.09-5.332 207.117-6.668 237.906-.664 16.926-1.332 43.984-1.332 60.242v29.723l-2.934.535c-1.734.266-9.597 1.73-17.73 3.332-33.067 6.129-70 22.79-100.532 45.45-16.664 12.394-22.132 17.859-25.863 26.386-6 13.46-6.668 23.059-6.933 107.559-.133 43.183-.668 81.168-1.2 84.234-.668 3.598-1.867 5.863-3.203 6.266-1.199.265-11.863.933-23.597 1.464-23.332.934-92.13 4-131.993 5.996-13.867.668-46.668 2.133-72.664 3.333-26 1.066-61.066 2.535-77.996 3.332-80.133 3.468-98.265 4.132-168.66 6.664-109.863 3.734-105.328 3.468-109.328 6.398-3.602 2.8-6.402 10.262-6.538 17.86-.13 6.53 4.67 12.128 12.936 14.93 3.465 1.198 15.598 3.198 26.934 4.265 11.332 1.062 50.395 5.328 86.66 9.328 36.266 4.133 74.133 8.262 83.996 9.328 9.867 1.066 28.266 3.066 40.668 4.531 58.395 6.801 153.059 16.66 209.988 21.992 19.47 1.868 54.532 5.2 77.997 7.332 52.398 4.93 64.933 6.532 66.53 7.997 1.2 1.199.266 5.066-4.933 21.59-3.465 10.93-.265 6.933 4.934-6.13 5.601-14.128 7.601-16.792 10.933-13.996 1.465 1.2 2 3.2 1.465 6.532-.797 5.863-21.996 74.105-27.597 88.765-5.067 13.196-6.801 15.86-10 14.66-2.934-1.066-2.266-5.863 3.336-24.12 2.265-7.2 3.863-13.864 3.597-14.528-1.597-4.398-12.664 33.453-20.398 68.906-2.399 11.328-3.867 12.926-9.867 10.66-7.332-2.796-41.465-28.921-49.598-38.117-4.399-5.066-13.598-13.328-20.266-18.527-18.132-13.992-23.465-19.324-23.465-23.723 0-14.129-32.8-27.457-37.332-15.195-1.734 4.266-4.668 3.465-4.668-1.2 0-1.866-.664-4.132-1.464-4.929-3.332-3.332-43.332-4.266-45.332-1.2-.399.665-10.664 1.2-22.934 1.2-20.93 0-22.664.266-29.465 3.332-17.598 8.262-40.398 29.852-57.996 54.91-7.332 10.395-11.734 15.461-14.934 17.059-2.53 1.199-11.199 2.8-19.332 3.734-17.199 1.863-15.199-.668-20.53 23.856-4.403 20.257-4.934 18.925 12 33.054 6.132 5.2 11.862 10.528 12.53 11.864.801 1.332 2 8.261 2.668 15.593 2.399 21.723 8.532 43.317 18.266 64.375 8.398 17.86 10.531 20.258 22.133 24.657 13.332 5.199 19.062 8.53 30.797 18.66 11.867 9.996 14.531 11.195 19.066 8.129 4-2.532 7.2-1.735 7.2 1.734 0 3.863 1.331 4.262 4.933 1.996 5.867-3.863 7.066-.398 9.598 26.926 1.203 13.726.402 17.324-3.067 12.527-1.199-1.734-2.133-4-2.133-5.199 0-4.398-2.664 2-2.664 6.664 0 6.664-1.734 8.664-7.066 8.266-5.203-.535-8.535 2.664-19.469 18.793-8 11.726-10.133 13.992-19.598 21.058-8.8 6.528-11.734 12.262-14.53 28.121-2.669 14.926-2.669 53.047 0 66.774 3.597 18.527 3.464 19.058-8.669 34.254l-10.8 13.46 7.601 14.66c4.266 8.13 9.465 16.263 11.73 18.126 4 3.332 4.27 3.332 19.602 2.402 18.399-1.066 17.73-1.336 37.598 13.86 29.465 22.39 62.664 37.05 77.465 34.253 2.53-.535 11.066-5.464 19.062-11.062 24.133-17.195 38.399-22.793 43.2-16.926 2.265 2.664 8.265 1.598 16.398-2.933 11.336-6.399 9.336-7.864-3.332-2.532-6.399 2.797-8.532 3.067-10 1.864-2.532-1.996-12.797-17.723-16.532-25.188l-3.066-5.863 4.266-3.602c2.265-1.863 9.332-6.129 15.601-9.328l11.332-5.863 4.664 5.328c5.2 5.867 15.2 24.926 15.2 28.789 0 4 2 3.066 7.601-3.598l5.2-6.129 9.867 6.13 10 6.132 5.199-5.734c16.664-18.125 22.133-25.453 22.133-29.453-.133-4.797-3.602-10.395-4.536-7.332-.265 1.066-1.199 3.734-1.867 6-3.199 10.261-18.398 28.52-23.597 28.52-3.735 0-11.868-5.329-12.399-8.263-.535-2.398 12.797-19.324 21.598-27.457 4.265-3.863 7.199-5.597 10-5.597 3.066 0 3.734-.531 3.199-2.531-.266-1.332.402-3.465 1.602-4.665 2.132-2.132 2.132-2.398.132-4.664-2.8-3.199-2.668-5.601 1.2-18.129 1.867-5.863 3.734-13.992 4.132-17.992.536-4 1.47-8.398 2.133-9.73 1.067-2.133 1.469-2.133 5.336-.133 6.531 3.465 11.73 9.863 11.73 14.66 0 6-5.73 22.39-10.53 30.121-4.403 6.934-3.602 8.93 2.663 6.399 3.204-1.332 4.403-3.2 6.668-10.66 1.465-4.934 3.735-14.797 5.067-22.125 1.332-7.2 3.332-15.063 4.531-17.329 2.668-5.199 8.8-12.527 10.402-12.527.664 0 6.133 3.863 12.133 8.527 6.133 4.536 13.598 9.997 16.664 11.864 5.735 3.597 8.266 8.265 6 10.531-.933.93-2.8.531-6-1.469-2.531-1.465-4.933-2.797-5.465-2.797-.402 0 .399 3.067 1.868 6.664 3.464 8.797 3.332 11.727-.668 20.793-3.735 8.395-3.735 9.996 0 5.864 3.734-4.133 6.933-3.2 14.8 3.863 4.133 3.465 10.266 8.133 14 9.996 5.598 3.066 27.465 11.996 46.797 18.926 7.465 2.668 52.262 4.933 88.797 4.398 27.2-.398 32.13-.797 33.996-2.664 1.2-1.199 4.801-2.668 8.133-3.066 8.668-1.332 39.598-10.93 49.2-15.328 4.667-1.996 12.663-7.461 17.866-11.86 5.333-4.531 10.133-8.265 10.93-8.265.668 0 2.403 1.468 3.867 3.332 3.735 4.664 4.266 4.132 2.133-2-1.066-3.063-2.265-12.66-2.797-21.457l-.8-15.993 3.867-4c4-4.132 21.73-15.859 24.133-15.859 3.996 0 10.265 11.063 11.597 20.656 1.867 12.93 7.735 35.32 10.133 38.254 2.133 2.664 3.734 3.067 12.133 3.067 12.398 0 12.8 1.199 4.531 13.328l-6.133 8.93 11.867 12.792c6.536 7.2 13.735 14.262 16.133 15.86l4.266 2.933 9.2-3.464c10.933-4 15.468-3.465 17.468 2.265 1.465 4 5.332 7.063 11.598 9.465 3.199 1.2 3.066.797-1.465-3.066l-5.067-4.399 4.797-10.262c3.602-7.597 4.8-11.597 4.402-15.062-.535-4.398-.402-4.531 2-2.266 2.399 2.133 2.665 2.133 5.868-2l3.199-4.265 5.598 2c9.601 3.332 24.933 13.726 24.933 16.793 0 3.465-11.2 24.925-16 30.656l-3.598 4.266-7.867-4.399-7.867-4.265 5.332 4.796c7.067 6.266 10.668 7.067 14.535 3.465 1.598-1.597 4.664-2.797 6.934-2.797 6.265 0 21.062 7.996 39.863 21.325 9.598 6.93 18.399 12.394 19.598 12.264 5.601-.268 32.398-10.397 45.332-17.194 7.867-4.133 21.332-12.797 30-19.328 8.664-6.532 17.2-12.528 19.066-13.328 2.266-.801 7.067-.801 15.067.132 15.465 2 20.93.668 26.265-6.796 4.664-6.399 14.664-24.391 14.664-26.254 0-.801-4.265-7.73-9.332-15.598-5.199-7.727-9.734-15.594-10.132-17.324-.403-1.602.53-8.664 2.132-15.461 4.266-17.461 4.266-46.516.133-66.375-3.867-18.258-6.668-24.39-13.066-28.387-6.934-4.398-15.73-14.129-24.133-26.523-8.664-12.797-11.598-14.93-19.066-13.73-5.333.933-5.465.933-4.93-2.798.398-3.066-.27-3.867-4.137-5.066-2.398-.934-5.2-2.664-6.266-4.129-1.066-1.336-1.867-1.734-1.867-.934 0 2.93-6.398 1.598-18.398-3.597-6.399-2.801-16.664-6.801-22.797-8.664-20.402-6.399-23.2-9.465-15.734-16.395 6.132-5.597 12.132-7.062 28.933-7.062 7.73 0 17.863-.668 22.531-1.47 9.868-1.597 10.668-.933 10.934 7.466.133 2.933.398 4.133.8 2.664 1.598-7.328 3.466-11.328 5.2-11.328 2 0 2.934 3.199 3.465 11.996l.402 5.996 1.598-8.66c.933-4.801 2.8-9.73 4.265-11.063 2.403-2.535 2.668-2.535 6.536-.27 4.8 2.934 5.332 2.669 19.066-9.062 11.2-9.46 22.797-16.793 28.133-17.86 9.863-1.73 17.73-9.73 26.262-26.788 9.336-18.528 14.132-34.918 16.8-56.91.934-8.133 2.399-16.262 3.067-18.13.8-1.995 5.867-7.327 11.199-11.859 12.934-10.93 15.734-15.062 15.734-22.66 0-7.46-6-25.722-9.867-30.12-1.867-2.134-5.734-3.864-12.133-5.333-17.464-3.996-18.933-4.531-22.53-7.328-1.868-1.465-7.2-8.266-11.735-14.93-10.399-15.324-37.2-42.515-49.73-50.644-17.067-10.93-24.665-11.196-24.665-.934 0 6.399-2.8 8.93-7.734 7.195-4.133-1.464-6.133-8.527-2.399-8.527 4.93 0 1.598-2.266-5.468-3.734-25.73-5.328-51.73-7.063-61.996-4.262-4.266 1.2-4.934 1.996-5.332 5.73-.403 4.797-4 5.997-4.801 1.598-.266-1.465-1.2-3.465-1.867-4.398-2.266-2.664-10.532-1.864-17.735 1.734-6.664 3.2-18.398 12.66-15.73 12.66.8 0 2.133-.8 2.933-1.863 3.067-3.602 14.664-7.598 21.2-7.2 5.867.4 6.265.669 5.867 3.868-.403 4.797 1.863 5.328 11.73 3.062 10.266-2.398 12-3.332 8.266-4.664-3.73-1.332-3.73-3.465-.133-4.53 4.402-1.466 22.133-.934 25.066.667 3.735 1.863 3.602 5.465-.265 9.063-5.336 4.93-11.602 3.199-11.602-3.332 0-3.2-2.8-5.332-5.199-3.735-.934.535-.531 2.535 1.066 5.735 3.47 6.93 9.2 25.59 9.735 31.718l.398 5.067-8 2.93-8 2.933 6 .531c4.668.27 6.133.934 6.535 3.067.664 4-2.535 20.125-4.535 22.925-2.133 2.664-2.265 2.664-11.867-5.464-9.465-7.997-8.93-4.665.934 5.199 10.132 10.129 12.8 10.66 21.199 4.262 6.933-5.329 7.469-8.528 4.535-27.454-2.668-16.527-2.668-17.46.266-17.46 5.734 0 33.597 15.859 42.796 24.523 5.735 5.332 22.536 27.723 26.668 35.586 1.735 3.332 2.934 7.062 2.399 8.129-.399 1.203-5.465 3.601-11.2 5.465-16.663 5.464-55.73 14.261-62.663 14.261-6-.133-6.532-.398-9.73-5.465-3.868-6.261-18.934-20.656-25.47-24.39-2.796-1.598.133 1.867 7.735 9.062 12.398 11.73 18.531 19.727 17.066 22.125-1.867 2.934-9.465 5.598-25.734 8.797-9.332 1.867-19.996 4.531-23.598 5.867-7.734 2.797-12.265 1.73-17.867-4.53-1.863-1.868-3.863-3.47-4.531-3.47-.668 0 .8 2.266 3.465 5.2 6.535 7.332 8.132 13.062 8.132 31.054.137 15.328.137 15.461-4 20.66-5.597 6.93-16.265 12.528-25.73 13.329-14.133 1.332-32.266-6.665-28.664-12.532.797-1.332 3.332-3.062 5.598-3.863 7.199-2.266 7.601-3.332 6-15.195-1.598-12.13-3.067-14.66-8.665-14.66-8.668 0-11.335-5.067-7.066-13.461 4.398-8.266 13.2-12.395 35.328-16.395 1.867-.266-2.133-.531-8.797-.398-11.867.265-12.265.398-20.535 5.996-10.664 7.066-12.398 6-7.996-4.664 4.133-10.13 8.797-17.059 16.93-24.657 7.867-7.332 13.601-10.398 27.066-14.527 9.067-2.934 9.602-3.2 5.465-3.601-8.133-.797-23.996 6.8-36.797 17.593-3.598 3.2-8.266 6.797-10.266 8.133-5.066 3.195-4.933 1.066.801-11.062 6.934-14.262 18.266-30.657 27.067-39.055 17.062-16.258 42.664-29.852 46.664-24.922.797.934 2.933 6.531 4.933 12.395 1.864 6 4.399 12.128 5.598 13.73 2.668 3.863 6.934 3.863 7.465 0 .27-2.133 2.27-4 6.402-6l6-2.797-6-.535c-5.601-.398-6.133-.8-9.066-6.664-1.735-3.332-4.266-11.996-5.735-19.324-3.066-14.797-4.398-17.196-6.53-11.598-2.27 6-5.337 8.531-10 8.531-2.403 0-5.868-1.199-7.735-2.664l-3.332-2.668-.801 3.2c-.531 2-4.133 5.464-10 9.328-9.2 6-22.531 16.93-44.129 36.12-14.402 12.93-27.2 21.458-35.066 23.59-5.332 1.333-6.801 1.333-10.668-.53-4-1.868-4.664-3.067-6.133-9.997-1.332-7.199-8.399-31.59-17.73-61.976-2.133-7.2-4.536-13.461-5.337-13.864-.796-.53-1.066.137-.53 1.602 5.464 18.258 11.597 42.648 11.198 45.582-.668 5.465-5.199 4.797-8.132-1.2-2.266-4.796-17.465-56.378-24.266-82.1-4-15.595-4.266-22.524-.934-23.59 4.133-1.2 22.934-3.333 48.93-5.466 37.465-3.066 82.133-7.199 85.996-7.996 1.867-.402 24.668-2.8 50.668-5.332 43.195-4.265 96.129-9.996 173.992-18.66 16.133-1.734 51.598-5.597 78.66-8.531 173.329-18.793 162.66-17.059 166.528-26.922 4.133-10.394 2-23.058-4.266-24.39-6.535-1.465-40.531-3.333-82.93-4.797-64.132-2.133-145.859-5.2-159.328-6-6.53-.399-25.464-1.332-41.996-1.996-60-2.668-149.195-6.801-172.66-8-13.2-.665-37.2-1.864-53.332-2.665-52.129-2.53-75.594-3.863-75.996-4.265-.266-.266-1.066-32.785-1.867-72.371-1.73-82.5-3.465-119.153-6.133-125.285-5.066-12.528-42.797-41.184-71.063-54.247-16.398-7.593-39.464-15.19-57.996-19.058-8.933-1.863-16.8-3.996-17.468-4.664-1.332-1.332-2.664-36.52-4.797-133.95-.801-36.652-2-80.5-2.668-97.292-.801-16.926-2.266-62.11-3.332-100.63-2.535-87.831-4.27-124.484-6.801-143.94-3.734-28.657-8.668-41.72-13.602-35.723zm5.204 31.59c.796 9.195 2.265 19.457 3.199 22.789 2.265 7.199 4.133 42.117 6 107.293.797 26.39 2 63.308 2.664 81.968.8 18.66 2.27 66.907 3.336 107.29 4.265 154.472 4.265 161.937.133 161.937-1.067 0-2.801-1.598-4.133-3.465-1.735-2.664-2.535-3.066-4-1.867-2.403 2-21.332 3.332-28 2.133l-5.067-1.067.801-42.781c.531-23.59 1.867-72.906 2.934-109.559 2.133-74.238 4-145.41 6-233.242.664-32.254 1.73-60.91 2.133-63.574.398-2.8 1.73-5.598 2.933-6.266 1.598-.933 2.266-4.53 3.067-15.593.933-14.262 2-23.192 3.464-27.188 1.332-3.867 3.067 4.133 4.536 21.191zm43.863 490.609c25.597 5.195 52.531 16.125 66.93 27.055 8 6.128 10.933 7.597 14.8 7.597 7.332 0 34.532 22.258 40.664 33.188 1.735 2.93 2.668 5.465 2.133 5.465-1.597 0-9.066-6.133-25.465-20.66-8.535-7.731-16.132-13.997-16.933-13.997-1.735.137 16.668 17.86 26.531 25.59 8.402 6.664 17.469 20.66 18.934 28.79.535 3.464 1.066 50.913 1.066 105.558 0 105.558 0 104.629-6.266 105.558-2 .27-3.066 1.336-3.066 3.067 0 2.133.8 2.668 4 2.398 8.266-.664 9.867-1.597 11.332-7.062 1.734-6.266 5.066-8.797 13.332-10.13 10.668-1.6 10.535-3.066-.133-3.198-12.398 0-14-1.2-12.664-10.262.399-3.332 1.067-6.531 1.465-6.797 1.2-1.2 82.664 2.266 86.664 3.73 2.266.801 4.664 2.665 5.332 4.399 1.066 2.531 2.668 3.066 10 3.598 11.2.933 15.2 3.199 28.797 16.261 6.137 5.996 11.203 10.395 11.203 9.864 0-.403-2.668-4.399-6-8.93-6.668-9.063-6.934-10.129-3.734-12.531 1.867-1.465.8-1.996-7.602-3.864-10.797-2.53-14.664-4.132-14.664-6.398 0-1.598 30-.934 76.664 1.601 13.2.665 51.328 2.532 84.66 3.997 96.93 4.265 116.13 5.332 127.996 6.664 6.266.668 11.735 1.332 12.399 1.332.535 0 .933.668.933 1.468 0 1.067-1.597 1.332-4.664.797-7.336-1.199-5.468.934 4.266 5.067 17.867 7.73 22.133 15.46 13.066 24.125-6.265 5.863-17.468 9.863-27.464 9.863h-8l5.066-6.266 5.066-6.132-7.336 4.8c-3.996 2.664-10.664 5.996-14.664 7.328-8.668 2.934-18.668 4.668-18.668 3.332 0-.664 1.868-3.464 4-6.261 6-7.996 4.934-9.996-2-3.602-3.199 2.934-8.664 6.801-11.996 8.399-3.336 1.597-6 3.332-6 3.867 0 .398 11.067.531 24.664.133 16.801-.403 24.664-.133 24.664.797 0 1.867-12.265 3.734-49.328 7.597-27.199 2.801-89.199 9.598-127.328 13.996-16.398 1.864-84.398 8.395-89.332 8.528-6.93.27-5.598-2.399 3.067-5.73 6.535-2.665 8.27-3.864 8.27-6.13 0-1.601 2.398-6.133 5.331-9.996 3.067-4.133 5.332-8.531 5.332-10.531-.133-3.063-.398-2.93-2.664 1.867-1.469 2.934-5.734 8.129-9.469 11.594-10 9.066-26.53 17.328-26.53 13.195 0-.664 4.398-4.531 9.866-8.527 5.332-4.133 11.2-9.598 12.93-12.399 3.336-5.46 5.336-19.191 2.668-19.191-.8 0-1.465 2.133-1.465 4.664 0 9.066-4.402 16.66-13.867 23.461-6.399 4.797-8 4.797-6.934.398.801-3.066.668-3.332-2.132-2.398-1.735.531-5.2 2.266-7.735 3.863-5.465 3.332-16.133 7.73-16.93 6.797-.27-.265 2.93-2.664 7.2-5.195 8.265-5.067 16.664-12.93 13.863-12.93-.934 0-3.465 1.465-5.73 3.332-7.2 6.133-8.266 3.73-3.067-6.531 3.867-7.465 4.266-13.992 1.332-22.125-2.668-7.73-2.668-10.262.133-7.863 2.934 2.398 6 8.664 8.668 17.859l2.398 7.996V853c.133-7.332-2.265-12.262-11.597-24.523-3.868-4.934-6.801-9.465-6.403-9.73 2.27-2.4 19.067 15.062 23.602 24.655 2.133 4.266 3.332 5.465 3.598 3.868.8-3.735-4.801-11.461-19.332-26.391l-13.735-14.129-13.73 2.535c-7.465 1.332-20.801 2.93-29.598 3.598-11.336.664-14.8 1.199-12 2 18.797 4.531 21.598 5.597 31.73 12.262 6 3.863 11.2 6.796 11.465 6.394.403-.266-1.332-2.531-3.597-4.93-2.399-2.398-4.266-4.797-4.266-5.332 0-2.265 8.797 3.868 14.93 10.13 7.336 7.597 9.336 7.863 4.27.534-3.337-4.933-2.536-6.132 2.132-3.597 3.2 1.73 8.8 11.195 10 16.926 1.465 7.464-4 21.058-10.266 24.921-3.867 2.399-4 0-.27-7.062 3.602-7.2 6.134-19.992 3.47-18.262-.668.403-1.735 3.2-2.27 6.133-.531 2.934-2.133 7.195-3.73 9.465-3.868 5.73-15.067 13.191-19.465 13.191l-3.469-.133 3.2-2.265c6.265-4.399 13.468-12.395 13.468-14.926 0-3.734-1.602-3.332-4.137 1.2-3.199 5.464-9.996 10.261-23.062 15.991l-11.602 5.067 12.399 3.066c6.8 1.598 14.133 3.864 16.402 5.063 3.73 1.867 3.73 2 1.2 2.933-1.47.664-17.735 2.399-36.134 3.864-34.398 2.933-40.53 4-44.265 7.332-4.797 4.265-24.664 6.265-89.594 8.93-50.266 2-71.332 1.066-65.066-2.934 1.066-.664 5.336-1.2 9.601-1.2 5.598 0 7.735-.398 7.332-1.73-.8-2.266-6.133-4.668-12.531-5.598-7.469-1.199-11.2 1.996-12.133 10.395-1.199 9.996-9.332 13.726-15.469 7.062-4-4.398-6.796-4.664-63.593-6.128-68.266-1.868-99.063-4.399-103.996-8.797-3.47-2.934-17.47-5.465-49.868-9.196-16.796-1.867-31.195-3.734-31.863-4.265-.668-.403-.668-1.2 0-1.867 1.598-1.598 16.266-5.2 21.332-5.2 8.133 0 4.668-3.863-10-11.328-5.465-2.664-11.465-5.465-13.332-6.129-3.332-1.199-3.066-.933 1.598 3.996 2.933 2.934 4.933 5.73 4.535 6.266-1.2 1.2-11.867-5.332-18.934-11.598-6.53-5.863-8.265-4.797-2.8 1.735 3.734 4.398 4.27 6.398 1.468 6.398-2.8 0-8.668-7.597-13.066-16.66-3.067-6.531-3.734-7.332-3.734-4.266 0 2 .933 5.864 2 8.532 4 9.593 1.734 12.527-4.934 6.129-2-2-3.73-2.93-3.73-2.133 0 1.734 6.53 7.465 13.73 12.394 9.2 6.266 6.8 9.067-3.332 3.867-7.067-3.597-17.734-13.593-19.734-18.527-.93-2.266-2.133-3.996-2.797-3.996-1.735 0 .933 7.328 4.664 12.793 4 5.863 4.402 8.531 1.468 8.531-1.335 0-.27 1.598 2.665 4.133 9.066 7.996 4.668 8.793-9.2 1.598-6.933-3.598-11.863-5.2-18.398-5.73-11.2-1.2-22.266-6.4-30-14.395-6.531-6.93-7.598-5.864-1.73 1.867 2.132 2.797 4 5.73 4 6.394 0 2-12.536 0-19.333-3.332-3.601-1.73-9.867-6.394-13.734-10.261-8.531-8.93-9.066-7.598-.934 2.664 3.332 4.265 6 8 6 8.265 0 .399-1.066.801-2.265 1.067-1.336.265 9.332 2.664 23.597 5.465 26.133 5.062 51.997 12.129 51.997 14.394 0 .664-1.2 1.2-2.797 1.2-5.602 0-52.797-4.266-102.532-9.333-115.859-11.726-161.859-17.324-164.39-19.855-.668-.668 3.199-1.602 10-2.403l11.066-1.066-8.933-3.062c-11.47-4-17.067-8.93-17.067-15.329 0-11.46 13.2-18.66 39.73-21.457l5.735-.535-8.8 9.196c-7.598 8-10.134 11.863-8.134 11.863.399 0 3.868-3.2 7.735-7.063 6.933-6.797 18.398-12.797 25.465-13.062 2.668-.133 2.668-.266-.399-1.2-1.867-.534-9.336-1.066-16.8-1.199-29.465-.27-62.532-2-57.864-2.933 5.73-1.2 64.395-4.664 111.328-6.531 19.067-.801 53.598-2.399 76.664-3.465 53.73-2.664 114.125-3.067 118.395-.801 1.598.934 2.933 2.402 2.933 3.332 0 .934-4.402 5.066-9.734 9.2-5.465 4.26-10.933 9.062-12.398 10.66-3.336 3.867-.668 2.132 10.797-6.665 9.335-7.195 19.066-12.925 20.132-11.86.403.267-5.332 6.93-12.797 14.794-7.335 7.863-13.335 14.926-13.335 15.726 0 .801 5.066-3.332 11.203-9.328 9.464-9.332 14.132-12.664 14.132-10.398 0 .27-3.601 4.933-8 10.398-9.335 11.328-10.668 14.926-2.27 5.864 6.27-6.664 9.735-7.996 8.27-3.332-.933 2.664-.668 2.664 3.864-.801 6.402-4.797 8.27-3.73 3.867 2.398-4.934 7.067-2.664 7.864 3.2 1.067 4.269-5.063 13.6-12.13 16-12.13.402 0-.4 1.337-1.868 2.934-3.73 4.133-9.332 13.063-10.398 16.66-1.465 5.067 1.464 3.333 4-2.265 2.8-6.266 11.867-15.063 18.265-17.727 7.465-3.199 20.934-4.93 39.598-5.199 18.8-.266 20.133.133 20.133 6.399 0 6.93 12 13.996 15.601 9.195 2.93-4.13 2.133-5.996-2.535-5.73-3.465.402-4.398-.133-5.2-2.93-.534-1.867-.933-50.914-1.066-109.028l-.132-105.691 13.066-13.594c18.398-19.324 22.398-24.125 11.465-14.129-11.867 11.063-19.067 16.528-20.133 15.328-1.602-1.597 3.066-7.863 12.668-16.925 12.266-11.461 24.797-19.86 29.598-19.86 2.398 0 7.066-2.664 14.132-8.129 23.332-17.996 57.196-29.324 95.063-31.59 20.266-1.332 50.531.403 66.797 3.735zM593.309 799.289c0 2.133.398 6.129.933 8.93l.801 5.195-26.535-.797c-27.465-.933-47.996-3.332-60.13-7.066-7.866-2.531-11.331-5.332-7.866-6.664 2.133-.797 47.597-2.664 75.863-2.93l16.934-.27v3.602zM38.266 824.344l-.801 4.664 4.265-3.196c2.403-1.734 6.266-3.734 8.801-4.667 5.332-1.73 17.067-1.997 18-.266.399.668-.668 3.332-2.535 5.996-1.867 2.668-3.332 5.465-3.332 6 0 .664 1.602 3.996 3.465 7.328 2 3.469 3.203 6.664 2.668 7.067-2.8 2.93-21.465-2.934-27.73-8.532-2.27-2-2.403-1.867-2.403 1.332 0 1.867-.531 3.867-1.332 4.266-2 1.2-9.734-2.93-14.668-7.996-2.531-2.531-4.93-4.664-5.465-4.664-.535 0-.668 2.133-.265 4.797.664 4.265.53 4.797-1.735 4.265-1.601-.265-3.332-2.531-4.531-6.133-2.668-7.73-.934-10.261 6.797-10.261 3.469 0 7.2-.934 9.2-2.399 1.733-1.199 5.335-2.265 7.866-2.265 4.403 0 4.403.133 3.735 4.664zm65.328-2.399c.27.801-1.067 2.532-3.2 3.73-3.597 2.134-3.597 2.134-.398 1.47 1.867-.27 7.465-2.133 12.399-4 8.398-3.2 24.933-4.93 24.933-2.665 0 .399-1.867 3.2-4.133 5.997l-4.132 5.199 11.464-5.465c8.399-4 13.598-5.73 19.868-6.133 10.664-.93 12.132.8 5.73 6.531-3.2 2.801-4.797 5.332-4.797 7.598l.133 3.465 1.867-3.465c3.598-6.531 22.399-14.527 34.399-14.527 7.996 0 8.265 2.265.93 8.797-4.798 4.398-5.333 5.464-5.333 11.195 0 5.066.801 7.332 4.133 11.46l4.133 5.2-5.73.398c-3.067.27-8.133-.398-11.067-1.597-3.066-1.067-11.602-2.133-19.465-2.399-15.336-.535-24.8-3.734-32.402-10.93-4.93-4.53-5.465-4.398-2.266.801 3.469 5.73 3.336 7.329-.531 8.262-3.867.934-18.535-3.465-24.133-7.195-5.332-3.469-8.668-3.602-5.601-.27 1.335 1.336 2.27 3.602 2.27 4.934 0 2-.802 2.266-6.802 1.465-13.734-1.867-29.199-11.196-29.199-17.594 0-3.2 5.332-7.195 14.133-10.527 6.133-2.266 22.133-2.133 22.797.265zm1296.746-.133c14.531 3.731 22.265 9.063 22.265 15.329 0 7.062-15.066 15.859-30.796 17.992l-6.934.933 4.133-7.332c5.332-9.328 5.465-14.66.531-19.59-2-2-4.531-4-5.465-4.265-1.199-.402-1.601-1.602-1.066-2.934 1.066-2.933 6.664-2.933 17.332-.133zm41.066 2.665c9.864 4.398 15.2 10.128 13.067 13.996-1.868 3.465-11.868 9.863-20.801 13.195-8.399 3.066-9.867 3.2-12.8.934-2-1.47-1.868-2.133 1.733-7.465 2.266-3.2 4-7.063 4-8.532 0-1.464-2.8-5.195-6.265-8.394l-6.266-5.73 3.332-1.47c4.801-2 14.934-.53 24 3.466zm29.465-2.133c9.066 2.8 15.73 7.597 15.73 11.332 0 4.261-5.331 9.726-12.265 12.527-9.066 3.598-19.863 5.863-21.2 4.531-.53-.535.134-3.73 1.47-6.93 3.597-7.73 3.332-9.597-1.336-15.46-2.133-2.801-4-5.864-4-6.797 0-2.8 11.468-2.399 21.601.797zm32.133-.532c2.398 1.2 6.531 4.266 9.2 6.93 2.796 2.668 5.331 4.399 5.862 4 .403-.402-.53-3.199-2-6.133-3.332-6.53-2-7.996 5.204-5.597 15.464 5.066 16.664 15.996 2.398 21.86-4.398 1.866-5.2 1.866-6.934.132-2.53-2.664-3.199-2.531-11.867 1.465-5.199 2.265-9.199 3.199-13.199 2.933-6.266-.398-6.266-.535-3.465-9.996 1.465-5.199 1.332-5.996-1.469-9.863-1.597-2.133-2.664-4.93-2.265-5.996 1.066-2.668 13.066-2.399 18.535.265zm40.129 7.465c.8 2.266.535 4.532-.664 7.063-2.535 5.066-4.403 4.93-4.934-.531-.933-9.73 2.934-14.13 5.598-6.532zm-892.227 87.965c6.399 2.664 6.934 2.797 10.934.664 3.597-1.863 6.265-1.996 20.797-.93 9.199.665 22.531 1.333 29.734 1.333 13.332 0 18.266 1.332 18.266 4.664s-2.403 3.465-13.2.668c-12.132-3.067-12.535-3.067-11.468-1.47.402.802 4.933 2.669 10.133 4.266 5.199 1.602 10.8 4 12.265 5.333 2.403 1.867 2.535 2.53 1.067 4.398-2.266 2.664-5.465 2.133-26.664-4.133-22.399-6.531-23.868-5.465-2.801 2.133 11.601 4.266 17.332 7.332 17.332 9.328 0 4.133-28.664 17.328-40.93 18.793-6 .8-9.465 2-12.531 4.531-5.735 4.801-8.668 4.399-11.867-1.597l-2.668-4.93.8 10.66c.536 8.266.266 11.195-1.199 13.328-2.668 3.598-5.734.934-6.933-6.129-1.067-6.132-1.735-6.398-6-1.867-5.868 6.266-11.465 3.465-20.133-9.863-4.668-7.195-4.668-9.73-.668-23.457 5.601-18.926 7.336-21.59 10.402-16.66 2.399 3.863 3.73 3.332 2.934-1.2-.934-4.265 1.332-9.464 4-9.464 2.265 0 5.465 3.734 7.199 8.664l1.332 4 .133-4.934c.133-4.797 1.2-9.062 2.402-9.062.266 0 3.598 1.332 7.332 2.933zm280.653 3.996c-1.067 8.664-12 48.649-15.598 56.645-1.867 4.265-3.2 5.867-4.934 5.465-2-.399-2.398-1.73-2.132-9.063.265-6.398 0-8.129-1.067-6.398-1.867 3.332-6 2.933-11.066-.93-2.801-2.133-8-4-14.668-5.2-10.399-2-31.864-11.194-37.996-16.394l-3.332-2.664 4.132-2.265c10.532-5.332 67.063-24.793 72.395-24.793 2.133 0 2.535.668 2.133 2.933-.399 1.735-1.332 6.531-2.133 10.797-.934 4.266-3.066 12.129-4.797 17.324-3.601 10.399-3.734 11.598-2 11.598 1.598 0 4.531-7.73 8.133-21.324 4.133-15.594 7.598-22.66 10.93-22.66 2.535 0 2.668.535 2 6.93zm-179.59-3.332c0 2-7.336 8.399-9.602 8.399-2.664 0-2.8-.133-1.597-3.332 1.199-3.067 11.199-7.598 11.199-5.067zm16 1.067c0 3.734-34.399 27.324-42.934 29.324-2.933.8-3.734.531-3.734-1.067 0-2.398 28.8-22.257 39.332-27.058 8-3.73 7.336-3.73 7.336-1.2zm48.129-.664c3.332 1.863 3.468 7.996.132 7.996-3.066 0-8.796-5.996-7.597-7.864 1.066-1.867 4.133-1.867 7.465-.132zm29.066-.536c3.465.801 4 1.336 3.332 3.602-.664 2.129-.398 2.531 1.602 1.73 6.664-2.53 19.863-4.796 31.863-5.464 13.066-.801 13.332-.801 9.336 1.468-6.934 3.996-57.2 20.391-58.531 19.059-2.403-2.133 1.066-8.398 5.863-10.93l4.668-2.398-6.668.398c-6.266.399-6.664.266-6.664-2.933 0-4.399 6.265-6.262 15.2-4.532zm-40.531 5.73c12.398 6.934 31.73 20.395 32.398 22.528.668 2.266-10.8 7.196-15.465 6.664-5.867-.668-4.668-4.398 1.465-4.265 6.668.265 5.465-1.067-12.265-13.328-7.735-5.465-15.602-11.329-17.332-13.329-3.067-3.199-3.067-3.464-.668-3.464 1.332 0 6.8 2.398 11.867 5.195zM942.625 936.7c5.734 17.86 6.402 24.258 2.934 29.856-4.399 7.066-10.399 11.996-14.399 11.996-4.535 0-8.8-4.664-7.867-8.797 5.469-24.656 12.398-47.848 14-46.781.668.398 3.066 6.53 5.332 13.726zm-148.527-8.394c11.734 6.93 16.402 20.656 6.933 20.656-3.332 0-4.797-3.996-2-5.996 1.735-1.332-1.73-1.735-18.133-2.399-11.066-.402-21.332-1.066-22.53-1.601-3.598-1.465-2.802-4.13 2.265-7.996 10.133-7.864 22.933-8.797 33.465-2.664zm-34.13 15.328c1.466.797 2.266 2.265 1.864 3.332-1.066 2.664-3.863 2.531-6.531-.137-1.735-1.863-1.867-2.531-.399-3.332 2.133-1.465 2.133-1.465 5.067.137zm26.4 3.597c.265 1.2-1.47 1.73-6.266 1.73-6.403 0-8.934-1.597-5.067-3.194 2.93-1.203 10.664-.137 11.332 1.464zm-45.333 2.665c-.265 1.199-2.398 3.066-4.8 4-3.868 1.597-4.4 1.464-5.2-.403-1.066-2.797 2.8-5.863 7.332-5.863 2.27 0 3.067.668 2.668 2.266zm69.598 8.53c27.332 2.4 45.73 8.13 77.46 23.993 36.669 18.125 66.266 40.383 78 58.242 2.665 4.133 6.134 8.93 7.598 10.527l2.536 2.934-3.735 3.465c-6 5.598-114.527 68.64-125.062 72.64-5.2 1.997-26.133 16.391-31.996 22.126-3.868 3.73-6.536 5.062-10.934 5.597-10.266 1.067-7.867-2 10.797-13.328 12.933-7.867 105.996-61.043 135.195-77.305 19.067-10.53 25.735-16.66 9.332-8.261-14.797 7.328-138.66 78.367-152.66 87.297-15.465 9.996-19.066 13.726-16.797 17.195 1.598 2.531 1.2 2.664-8 2.664-16.133 0-17.199-1.2-30.265-31.32-2.801-6.664-7.868-17.993-11.2-25.325-32.668-71.972-54.664-124.218-55.73-132.613-.535-3.066.265-3.601 10.133-6.933 18.93-6.532 35.863-9.864 60.664-12.262 11.066-.934 40.531-.664 54.664.668zm82.93 10.665c2.933 2.797 3.73 4.394 2.664 5.46-3.2 3.2-14.797-3.195-13.2-7.327 1.336-3.465 6.133-2.668 10.535 1.867zm-480.915-1.203c4.399 2 2 3.734-5.332 3.734-6.398 0-7.601.8-9.332 5.996-2 5.598-5.336 5.73-8.668.403-3.464-5.735-3.332-8.797.399-10.399 4.27-1.73 18.933-1.598 22.933.266zm260.657-.266c0 1.469-5.332 6.664-6.801 6.664-2.664 0-2.664-3.332.133-5.597 3.203-2.532 6.668-3.2 6.668-1.067zm282.789 14.395c3.066 9.062 2.265 11.863-2.535 10.398-1.465-.535-4.266-2.402-6.133-4.133-2.668-2.531-3.465-4.531-3.465-8.93 0-3.199.934-7.199 2.133-8.93l2.265-3.198 2.399 3.199c1.336 1.73 3.734 7.062 5.336 11.594zm-599.844-7.864c5.469 2.934 13.469 6.133 17.734 7.332 4.266 1.067 8.266 2.797 8.801 3.73 2 2.934 1.332 8.532-1.203 10.798-4.797 4.398-34.398 18.39-40.398 19.191-9.997 1.2-11.465-.398-12.532-13.195-.53-6.664-1.867-13.063-3.464-16.125-1.336-2.801-2.536-6.133-2.536-7.465 0-5.996 10.801-9.195 11.735-3.465.265 1.465 1.465 3.73 2.664 4.93 3.601 4.265 16.265 2.398 16.265-2.266 0-2.531-.664-2.531-4.398 0-2.668 1.735-3.332 1.735-6-.133-1.598-1.066-2.934-3.066-2.934-4.398 0-5.73 3.868-5.465 16.266 1.066zm23.734-3.199c2.664 3.2-.668 6-7.468 6-6.266 0-9.864-3.469-6.93-6.398 2.266-2.266 12.398-2 14.398.398zm235.989 4.266c3.734 5.863 3.867 6.398 1.734 8.664-2.668 3.066-13.734 10.394-15.465 10.394-1.734 0-.133-9.062 3.2-17.992 1.597-4.265 3.597-7.332 4.663-7.332 1.067 0 3.735 2.8 5.868 6.266zm582.109-4.266c.531 1.067-.133 3.598-1.465 5.465-1.734 2.531-3.07 3.2-6.27 2.934-2.265-.266-4.796-1.47-5.597-2.801-1.2-2-.934-2.93 1.73-5.063 3.735-3.066 10.536-3.332 11.602-.535zm68.129 25.723c17.601 17.195 32.668 38.785 40.266 57.71 13.734 34.255 15.867 73.04 6 107.427-6.934 24.39-22.133 49.714-29.864 49.714-3.066 0-3.203-.8-.668-9.062 1.598-5.067-2.265-3.465-8.132 3.332l-5.602 6.394-5.863-5.597c-3.336-2.93-8.535-7.063-11.602-9.063-2.934-2-5.465-3.863-5.465-3.996 0-.27 2.399-5.598 5.332-11.996 9.735-21.324 16.133-44.785 16.801-62.375.266-9.465.93-12.398 3.332-15.73 6.531-9.196 4.133-23.59-4.535-27.188-5.598-2.266-8.797-5.996-14.797-17.059-2.8-5.066-9.2-14.664-14.266-21.328-5.203-6.796-9.601-13.593-10-15.191-.535-2.133-2.132-3.2-5.601-3.867-2.664-.531-7.598-2.797-10.934-5.196-3.332-2.402-10.531-6.53-16.133-9.199-11.199-5.465-17.73-11.195-16.93-15.058.266-1.602 3.067-3.2 9.333-5.2 4.933-1.597 10.933-4.53 13.597-6.53l4.668-3.598 4.532 4.796c6.933 7.332 13.468 6 19.601-3.863l2.934-4.664 11.73 7.996c6.403 4.531 16.403 12.66 22.266 18.39zm-815.164-23.192c6.535 2.668 10.668 7.868 9.601 11.73-3.336 10.798-11.867 10.263-18.8-1.331-1.332-2.399-4.532-5.067-7.465-6.266-5.203-2-6.403-3.863-3.336-5.062 3.336-1.47 15.867-.801 20 .93zm-33.332 3.332c6.933 1.47 13.867 3.2 15.465 4 4 2.133 4.668 6.93 2.27 15.196-2.934 10.129-2.802 12.793.53 11.996 2.133-.535 2.668 0 2.668 2.797 0 2.933-.535 3.465-4 3.465-3.066 0-4.398.8-5.199 3.199-1.867 4.664-4.402 4.933-15.332 2.133-13.066-3.332-21.336-7.465-20.265-10.262.53-1.2 2.398-9.063 4.265-17.594 2-8.531 3.73-15.86 4.133-16.527.8-1.332 1.2-1.332 15.465 1.597zm266.12 25.727c9.735 20.125 51.333 112.754 64.134 142.875 3.066 7.332 5.867 16.262 6.265 19.992.536 6.266 0 7.996-6.933 21.461-7.2 13.992-7.598 15.059-6.934 22.258.801 8.93 4.535 16.258 8.535 16.793 1.868.265 2.532 1.2 2.133 2.664-.8 3.332 4.266 7.465 13.867 11.46 13.332 5.602 23.996 4 36.532-5.194 8.796-6.399 13.066-15.594 14.53-31.59.669-6.797 1.333-12.528 1.333-12.66 0-.133 2.535-1.465 5.734-2.801 3.067-1.465 37.73-20.79 76.93-43.18 68.129-38.918 98.531-55.715 100.394-55.715 3.067 0 18.801 45.051 23.332 66.64 13.868 65.044-.265 129.95-41.996 193.259-13.199 19.992-37.597 44.652-57.863 58.246-46.133 31.187-95.332 47.18-145.863 47.313-53.863.136-103.992-16.66-148.66-49.712-14.532-10.664-36.797-33.187-48.262-48.382-22.133-29.59-40.398-72.77-45.867-108.356-2.797-19.062-2.934-57.445-.133-76.637 8.668-57.98 34.266-108.757 73.863-146.343 15.067-14.395 57.2-43.985 62.664-43.985.934 0 6.535 9.73 12.266 21.594zm-365.183-19.195c0 2.132-4.933 8-18.132 21.992-26.133 27.191-40.665 54.246-43.598 80.902-.668 5.996-.668 5.996.668 1.332 8.933-29.054 15.2-42.914 26.664-59.574 6.535-9.332 29.734-33.188 35.465-36.254 2.668-1.332 3.066-1.2 4.265 1.867.801 1.996 1.336 6.13 1.336 9.328 0 8.532 1.868 12.262 7.332 14.528 6 2.531 6 5.597-.132 11.597-2.536 2.399-10 12.262-16.532 21.856-11.066 16.262-16.8 21.992-21.734 21.992-1.2 0-3.332 1.598-4.8 3.465-3.731 4.797-3.599 12.394.534 22.793 2.266 5.465 4.266 15.058 6 28.121 3.067 23.457 4.797 29.855 13.73 48.781l6.802 14.395-5.868 5.199c-3.332 2.93-8.664 6.93-11.73 9.195-7.336 4.797-8.8 4.133-16.934-8.133-12.531-18.656-17.199-31.984-24.8-70.503l-3.864-19.325.664 13.328c.934 19.325 6.934 42.25 17.067 64.641 6.933 15.328 7.867 18.66 5.465 19.59-3.2 1.203-10.266-6.664-15.465-17.324-5.598-11.196-11.332-29.188-13.868-43.45-2.132-12.261-2.398-40.117-.398-54.378 2.535-19.329 14-48.25 27.332-69.309 5.469-8.527 26.934-30.652 34-34.918 4.531-2.802 10.531-3.73 10.531-1.734zm607.707 3.332c.536 2.933-3.597 4.668-5.066 2.133-1.332-2 .934-5.598 3.2-4.797.8.265 1.6 1.464 1.866 2.664zm-285.054 0c0 1.066-1.067 2.8-2.532 4.133-2.132 2-2.535 2-4.132.132-1.336-1.597-1.336-2.398 0-3.996 2-2.535 6.664-2.668 6.664-.27zm303.59 8.93c11.464 7.597 21.062 18.261 22.265 24.523.531 2.8.664 5.332.266 5.734-2.535 2.531-34.133-26.523-34.133-31.187 0-2.668 1.066-4.399 2.8-4.399.4 0 4.4 2.399 8.802 5.328zm-316.79-1.864c1.602 2 .133 3.863-13.066 16.39-8.133 7.731-16.664 15.196-18.93 16.528-3.867 2.266-4.27 2.266-4.933.27-.535-1.2-.27-4.532.664-7.332 2.535-8.399 25.601-27.989 32.933-27.989.801 0 2.399.934 3.332 2.133zm-163.324 16.125c14 6.93 29.598 19.059 36.664 28.524 10.399 13.726 24.934 43.582 22.934 46.914-.402.668-5.203-3.2-10.668-8.532l-10-9.859 6.668 9.996c10.398 15.727 16.266 28.79 14.266 32.121-.536.664-4-1.469-7.868-4.8-3.867-3.333-7.465-5.997-8-5.997-.53 0 2.266 3.864 6.403 8.528 4.133 4.668 7.465 9.73 7.465 11.199 0 3.332-5.868 8.262-9.868 8.262-5.066 0-7.465 3.066-10.265 13.062-3.2 11.461-2.934 11.996 7.465 16.258 4 1.601 7.336 3.332 7.336 3.867 0 2.133-7.735 8.129-13.47 10.527-3.331 1.47-9.464 3.332-13.597 4.266-4.266.8-7.601 1.734-7.601 2s5.734.133 12.668-.266c15.066-.933 16.132.399 6.265 7.864-13.867 10.261-27.332 14.66-46.265 14.793-15.598 0-24.399-2.532-36.266-10.93-12.531-8.93-20.93-20.523-27.195-38.117l-2.403-6.664v4.797c-.265 11.863 16.535 34.921 33.332 45.582 11.465 7.332 20.399 9.332 37.067 8.664 11.464-.532 15.73-1.332 22.797-4.266 18.265-7.598 20.668-6.797 9.734 3.465-14.266 13.195-36.531 25.324-55.73 30.39-11.2 2.93-32.665 4.93-38.266 3.598-6.133-1.597-8-11.062-4.531-22.523 2.132-7.2 1.332-9.864-7.067-22.125-3.867-5.598-6.137-10.797-7.336-16.528-1.597-7.73-2-8.398-5.597-9.062-6-1.066-17.868.934-20.668 3.465-1.332 1.199-2.532 3.73-2.532 5.465 0 3.066.133 3.066 4.532-1.602 3.199-3.332 5.601-4.797 7.601-4.398 4.934.668 4.399 3.199-2.535 10.265-6.133 6.531-9.598 8.395-9.598 5.328 0-2.664-2.402.137-3.199 3.735-1.601 6.261-6.27 15.058-8.133 15.058-4.132 0-16.668-17.59-24.535-34.785-7.465-15.992-13.066-51.18-9.066-56.512 1.867-2.398 2.535-2.53 13.066-.933 6.133.933 22.266 4 35.735 6.933 13.464 2.93 24.796 5.063 25.199 4.797.664-.8-7.336-3.066-43.067-11.996-28.265-7.195-42.53-12.527-45.066-16.926-1.863-3.066 0-8.93 3.469-10.796 9.199-4.93 47.332 2 49.863 9.195 1.867 5.2 2.934 5.598 9.469 3.601 8.531-2.535 8.797-2.535 11.332 2.93 2 4 2.797 4.668 5.332 3.867 12.531-3.734 16.933-3.867 32.265-.402 8.934 2 15.868 5.598 19.067 9.996l2.664 3.602 8.668-1.735c10.133-2 16.133-1.066 18.933 2.934 3.067 4.398 2.532 11.195-1.336 14.926-3.199 3.199-5.863 3.867-15.332 3.597-4.132-.133-3.73.137 3.067 2.403 8.535 2.664 12.933 5.863 12.933 9.328 0 2.933 6.801 12.93 12.133 17.992 3.465 3.332 3.067 2.398-2.133-4.664l-6.265-8.664.664-13.328c.8-15.993 2.668-20.926 11.601-30.922 3.598-4.13 6.399-7.863 6-8.13-.265-.398-4.535 2.4-9.468 6.267-4.93 3.73-9.598 6.796-10.532 6.796-.933 0-4.933-1.468-8.933-3.199-4-1.734-10.266-3.597-13.867-4.133-15.2-2-29.864-8.796-29.864-13.726 0-6.133 22.532-25.992 36.399-31.988 8.933-4 9.867-5.864 2-4-12.668 2.8-27.465 13.996-37.867 28.523-3.864 5.332-7.332 8.797-9.465 9.332-4.531 1.2-15.465-.934-48.399-9.2l-27.332-6.929-.398-4.266c-.8-8.53 13.73-30.789 28.133-42.914 9.597-8 21.062-15.73 29.332-19.593 7.465-3.465 15.066-4.266 15.863-1.602.402.934-.664 6.531-2.133 12.664-2.8 11.594-2.398 14.262 1.602 10.66 2.398-2.129 2.531-2.129 4 .934.8 1.734 2.133 5.867 2.933 9.062.797 3.067 1.864 6.934 2.266 8.399.531 1.734-1.469.531-6.266-3.73-6.668-6-9.336-7.465-9.336-5.2 0 1.465 8.934 9.73 14.403 13.594l4.398 2.934 9.867-9.465c6.133-5.996 12.399-10.66 17.2-12.793 8.132-3.598 8.8-4.399 12-16.66 3.332-12.395 5.332-15.196 10.53-14.13 2.267.4 8.4 3.067 13.735 5.731zm-47.867 13.996c7.602 2.266 13.734 4.531 13.734 4.93 0 .402-3.066 2.265-6.8 4.133-3.598 1.734-10 6.265-14 9.863-5.864 5.2-7.73 6.129-8.664 4.664-1.868-3.066-6.403-23.855-5.602-25.988 1.066-2.801 6.266-2.266 21.332 2.398zm567.043 8.93c0 3.465-2.8 5.73-4.934 3.996-2.132-1.863-2.265-5.461-.132-7.594 1.867-1.867 5.066.266 5.066 3.598zm-402.648-1.867c1.332 1.601 1.332 2.398 0 4-2.801 3.332-5.332 2.398-5.332-2 0-4.399 2.53-5.332 5.332-2zm593.84 2.8c1.066 2.93.933 10.262-.266 12.13-1.067 1.597-8.266 4.796-9.2 3.995-.265-.265.801-4.53 2.266-9.328 2.668-8.664 5.469-11.328 7.2-6.797zm-927.16 15.86c1.335 1.598.8 4.133-2.665 13.594-2.27 6.398-4.535 15.593-4.933 20.394-.934 10.527-2.266 13.328-6.266 13.328-3.734 0-13.2-6.664-16.27-11.332-4.265-6.394.137-30.918 5.868-33.453 2.535-1.066 17.066-4.266 20.398-4.398 1.203-.133 2.934.8 3.867 1.867zm789.3.531c0 2.934-19.867 18.793-23.598 18.793-5.336 0 3.598-9.594 14.93-16.125 7.066-4.133 8.668-4.531 8.668-2.668zm-503.18 3.867c6.668 4.93 14.668 13.996 12.801 14.66-2.398.801-9.332-3.464-15.601-9.593-9.2-8.797-7.2-12.266 2.8-5.067zm806.102 1.332c.797.801 3.332 8.399 5.73 16.793l4.403 15.461-5.602 4.531c-9.734 7.73-15.066 11.465-16.398 11.465-1.469 0-12.399-42.52-12.399-47.984 0-2.93.266-3.063 11.465-2.266 6.266.27 12 1.2 12.8 2zm-311.457 13.864c-2.664 12.527-7.996 32.918-9.465 35.586l-1.598 3.199-2.136-3.2c-2.797-3.867-2.93-10.93-.266-13.195 1.2-.933 2-4.664 2.266-10.398.402-8.395.668-8.93 4.933-11.86 5.735-3.867 7.067-3.867 6.266-.132zm-482.379 6.53l9.734 7.997-7.066 13.328c-8.133 15.328-7.332 16.125-11.734-10.266-2.93-17.992-3.067-19.191-1.598-19.191.531 0 5.332 3.598 10.664 8.133zm426.785-2c-1.734 2.134-6 2.532-7.203.665-1.2-2.133 4.934-5.598 6.934-3.863 1.336 1.066 1.336 1.867.27 3.199zm-11.867 4.4c0 2.265-9.867 9.46-12.934 9.46-5.734 0-2.132-4.93 6.266-8.527 5.469-2.402 6.668-2.535 6.668-.934zm307.187 7.995c4.797 4.532 4.532 9.598-.668 13.993-2.265 1.867-4.535 3.468-5.199 3.468-.668 0-2.8.664-4.668 1.332-3.199 1.2-3.332 1.465-1.465 3.465 1.598 1.465 2.133 4.797 2.133 13.196 0 18.39-4.668 36.519-15.066 57.578-6.133 12.66-17.867 26.254-21.867 25.457-1.73-.27-3.2-3.868-5.73-13.73-4.934-18.927-7.602-23.458-14.403-23.325-1.598.133-1.2.668 1.203 2 4.133 2.266 8.266 10.797 7.598 16.129-.399 3.73-.668 3.598-8.399-6.133-4.402-5.465-8.535-10.394-9.332-10.93-3.066-2.265-5.066-.53-8.933 7.864-2.27 5.066-6.536 12.664-9.602 16.925l-5.465 7.868v33.984l-16 .8c-9.465.532-18.933.4-23.066-.398-14.934-2.933-44.266-19.46-57.863-32.789-7.465-7.062-8-9.195-2.399-8.398 5.598.8 4.93-.266-2.668-4.93-3.734-2.133-8.266-5.598-10.133-7.465-3.332-3.465-3.332-3.73-1.066-4.93 1.465-.667 8.531-1.6 15.867-1.867 8.399-.398 14.797-1.464 17.465-2.796 7.73-4 20.531-20.66 20.531-26.657 0-3.465 4.934-6.398 12.133-7.199l7.2-.8-7.598-1.598c-10.266-2-11.735-3.465-11.735-12.13 0-6.53.266-7.331 3.469-8.53 5.066-1.997 15.332-1.598 19.73.667 4.399 2.266 7.465 1.735 7.465-1.199 0-2.933 7.203-8.265 14.934-10.93 6.668-2.265 30-3.331 37.734-1.73 2.133.399 2.797-.27 3.067-3.332l.53-3.867 9.602.933c9.465.801 9.598.801 12.532-3.066 2-2.664 5.332-4.664 11.199-6.664 11.332-3.598 13.465-3.863 25.332-3.73 8.8.265 10.668.664 13.601 3.464zm-302.12 4.399c-.801 2.265-8.934 7.73-11.333 7.73-3.066 0-1.336-3.066 3.598-6.398 4.8-3.2 8.535-3.863 7.734-1.332zm-28 1.332c-.669 2-14.133 10.394-16.665 10.394-3.468 0 .133-4.261 6.797-7.996 7.2-4.265 10.668-5.062 9.867-2.398zm6.933 10.93c0 3.464-12 10.128-17.734 10.128-2.797-.132-2.664-.265 1.066-3.332 3.867-3.332 13.734-8.664 15.734-8.664.536 0 .934.801.934 1.868zm-36.266 6.398c-.668 2.133-12.265 8.527-17.73 9.863-3.735.93-3.867.797-2-1.468 1.863-2.266 16.664-9.997 19.062-9.997.668 0 .934.801.668 1.602zm6.934 11.992c-1.867 1.469-7.734 4.934-13.066 7.465-9.465 4.531-13.465 4.934-9.465.934 2.933-2.934 20.133-11.329 23.199-11.329 2.398.133 2.398.266-.668 2.93zm-379.984 3.469c0 1.863-3.067 4.262-5.598 4.262-2.402 0-3.336-2.664-1.469-4.399 1.2-1.332 7.067-1.199 7.067.137zm494.644 1.598c0 1.734-.934 2.664-2.664 2.664-1.734 0-2.668-.93-2.668-2.664 0-1.735.934-2.665 2.668-2.665 1.73 0 2.664.93 2.664 2.665zm-154.66 0c0 2.664-5.2 6.398-16.531 11.73-6.399 3.063-12.266 5.598-13.2 5.598-2 0 13.735-11.332 21.332-15.461 6.668-3.465 8.399-3.867 8.399-1.867zm-345.184 6.796c2.532 1.332 2.801 2.266 2.133 7.997-.398 3.601-1.601 8.265-2.531 10.265-1.602 3.195-2.535 3.598-7.867 3.465-3.336-.133-8.668-1.602-11.867-3.2l-5.598-2.933.531-6.531c.399-3.863 1.735-7.73 3.2-9.328 2.265-2.531 3.468-2.801 10.8-2.133 4.668.531 9.598 1.465 11.2 2.398zm522.38 1.332c2.132 6.399 1.863 15.196-.669 17.329-1.199.933-6 2-10.668 2.265l-8.53.531-1.868-4.398c-3.2-7.863-3.735-13.992-1.465-15.86 2.531-2.132 9.066-3.73 16.266-3.863 4.933-.132 5.597.266 6.933 3.996zm-171.462 3.465c1.602 1.47-1.867 4.399-5.199 4.399-4 0-4.133-1.864-.133-3.73 3.598-1.735 4.266-1.868 5.332-.669zm-19.199 12.532c-1.601 2.93-4.266 4.398-6.8 3.597-1.067-.398-.4-1.867 2-4.265 4-3.996 7.199-3.598 4.8.668zm-27.332 1.332c-3.2 3.597-13.734 9.73-14.8 8.664-.4-.403 1.6-3.2 4.534-6.133 3.735-3.598 6.532-5.332 9.067-5.332 3.734 0 3.734 0 1.2 2.8zm8.8 8.394c0 3.332-16.398 12.797-17.866 10.266-1.465-2.133 11.601-11.996 16.265-12.13.801 0 1.602.802 1.602 1.864zm-29.464 9.332c4.531 4.797 4 11.063-2 21.723l-4.934 8.93-9.199-9.86c-4.933-5.465-9.469-11.062-9.867-12.531-1.066-3.2 1.598-5.598 9.598-8.797 8.8-3.465 12.8-3.332 16.402.535zm-435.848 14.13c3.598 7.327 6.664 14.526 6.664 15.991 0 2.399-.53 2.664-5.597 1.867-8.27-1.199-23.469-6-25.067-7.863-1.066-1.2.133-3.601 4.133-8.797 5.598-7.332 12-14.527 12.8-14.527.134 0 3.333 5.996 7.067 13.328zm821.164-.403c4.532 4.8 8.532 10.398 9.067 12.261.398 1.868 1.73 4.133 2.797 4.934 1.066.797 3.867 7.063 6.132 13.992 4.668 13.863 4.668 13.863 15.067 9.996 7.066-2.664 21.734-3.996 24.402-2.265 1.598 1.066 1.332 2-2 5.597-10 10.664-21.734 14.664-26.668 9.2-3.066-3.47-6-3.47-6 0 0 4.128-2.398 4.796-32.133 9.996-3.464.53-3.73.265-7.597-14.395-6.266-23.191-6.133-21.86-2-23.992 2.133-1.066 7.066-2.934 11.066-4.266 10.664-3.465 10.934-4.664.531-2.664-13.73 2.532-18.53 2.797-18.265.934.27-.8 2.402-4.399 4.933-7.863 3.735-5.465 6.266-10.93 8.266-18.793.934-3.465 4.535-1.336 12.402 7.328zm-677.171 2c1.601 5.863 0 10.394-3.735 10.394-6 0-7.066-5.328-2.8-13.593 3.066-6.13 4.136-5.598 6.535 3.199zm254.656-7.063c0 .664-3.336 3.063-7.332 5.328-5.203 2.934-8.535 6.133-12 11.598-4.668 7.195-7.602 8.664-8.403 4.133-.53-2.535 8.801-12.93 16.266-18.528 4.934-3.597 11.469-5.066 11.469-2.53zm267.187 3.2c4.668 5.996 6.266 10.925 4.399 12.792-2.399 2.399-8.664 1.735-10.266-1.066-2.398-4.531-1.465-16.125 1.469-16.125.531 0 2.531 1.996 4.398 4.398zm-250.39 11.992c3.734 4 4.535 6 4.535 10.53 0 8.395-4.801 15.993-11.332 18.126-8 2.668-18.801.933-23.469-3.598-7.2-7.199-6.266-20.66 1.734-27.457 3.868-3.332 5.067-3.597 14.133-3.066 9.469.402 10.133.668 14.399 5.465zm-473.711 7.863c4.398 5.867 5.734 10.398 3.465 11.863-3.868 2.399-19.997.266-21.864-2.797-.933-1.468 11.067-13.328 13.465-13.328.934 0 3.2 1.996 4.934 4.262zm53.465 2.535l10.796 2.664-.664 11.863c-.535 8.664-1.336 12.395-2.933 14.262-1.332 1.465-2.399 3.465-2.399 4.531 0 1.067-.933 3.332-2.136 5.063-2 2.8-2.934 3.066-9.73 2.398-10.266-1.066-25.466-5.996-26.4-8.394-.8-2.266 1.067-12.13 5.333-27.055l2.8-9.73 7.2.796c4 .536 12.133 2.133 18.133 3.602zm881.562 2.664c4 3.867 7.2 7.332 7.2 7.73 0 1.465-24.4-.53-24.934-2-.532-1.73 7.199-12.527 9.066-12.527.668 0 4.668 3.067 8.668 6.797zm-190.394 7.73c8.27 6.532 18.668 13.864 23.066 16.262 13.465 7.73 12.8 6.13 7.2 17.325-5.868 11.863-9.864 16.394-18.532 20.793-8.668 4.398-36 15.062-38.664 15.062-1.602 0-2.133-1.469-2.133-6.664 0-8.93 2.797-15.328 9.73-21.727 3.067-2.933 4.934-5.597 4-5.863-.8-.266-3.066 1.066-5.066 3.066-3.332 3.333-3.734 3.333-5.73 1.333-2.668-2.668-2.801-14.66-.403-19.329 2.133-3.996 5.602-3.062 7.2 1.868 1.734 5.464 3.734 7.73 5.335 6.132.665-.668-.136-4.265-2.402-9.332-3.2-7.062-3.598-9.195-2.934-16.125 1.067-9.597 2.266-14.664 3.47-14.664.398 0 7.597 5.332 15.863 11.864zm-551.176-3.597c3.199 4.531 2.668 13.46-1.2 21.059-4.8 9.46-4.398 13.992 2.133 23.855 4.133 6 5.735 9.863 6.266 14.797.27 3.73.934 6.664 1.336 6.664.398 0 2.398-2 4.398-4.399 4.133-4.933 5.2-4.53 6.133 2.93.668 5.067.399 5.465-3.066 6.934-5.735 2.129-12.664.531-25.598-6-6.402-3.2-14.668-6.797-18.398-7.996-3.735-1.2-8.27-3.868-10.133-5.864-4.137-4.265-13.067-20.261-13.067-23.191 0-1.066 3.598-4.266 8.133-7.066 4.531-2.797 12.797-8.528 18.531-12.926 16.801-12.531 20.934-13.996 24.532-8.797zm10.535.266c1.066 2.53-2 4.933-4.27 3.464-2.265-1.332-.933-5.332 1.735-5.332.933 0 2.133.801 2.535 1.868zm230.523.398c1.2 1.336 3.067 4.398 4.266 6.8 1.2 2.4 3.734 5.063 5.465 5.864 3.734 1.73 4.535 6.399 1.066 6.399-2.531 0-11.465-9.067-14.398-14.797-3.067-5.864-.531-8.93 3.601-4.266zm51.063-.93c2.535 4.13-9.067 19.993-14.664 19.993-2.934 0-2.535-1.47 2-6.934 2.265-2.664 4.93-7.063 6-9.594 2-4.664 4.93-6.133 6.664-3.465zm237.324 0c.531.797.133 2.399-.8 3.465-1.466 1.73-1.868 1.73-3.598 0-1.07-1.066-1.47-2.535-1.07-3.332 1.202-1.867 4.402-1.867 5.468-.133zm185.727.266c-.801 2.133-4.801 4.531-5.868 3.332-1.199-1.2 2-4.934 4.399-4.934 1.066 0 1.734.668 1.469 1.602zm-909.43 10.527c11.465 1.469 16.398 3.867 16.398 7.864 0 2.933-6 8-9.597 8-3.735 0-11.469-3.602-16.133-7.465-5.734-4.664-7.067-7.2-4.8-8.664 2.398-1.465 1.733-1.465 14.132.265zm462.781 8.133c2.399 2.399 2 8.797-.668 10.129-3.199 1.73-8-.266-9.066-3.734-1.735-5.329 5.867-10.262 9.734-6.395zm-261.054 5.195c.796 1.47 1.863 6.934 2.265 11.996.8 9.333.8 9.465-2.265 8.93-6.801-.933-11.602-13.992-7.47-20.39 2.669-4 5.47-4.266 7.47-.536zM383.05 1248.18c26.133 2 29.465 3.066 30.93 9.996 1.601 7.465-5.997 11.996-27.598 16.527-5.735 1.067-13.867 3.863-18.266 6.129-12.265 6.133-12.8 5.863-14.664-6.398-.8-5.598-1.867-14.66-2.402-20.125l-.801-9.864 4.535.934c2.531.535 15.2 1.734 28.266 2.8zm729.035 7.73c3.867 7.328 2.668 8.93-6 8.93-4 0-7.602-.535-8-1.2-.399-.667 1.2-4.933 3.465-9.464 4.8-9.196 4.933-9.063 10.535 1.734zm-653.707-2.265c1.601 3.332 2.668 6.664 2.27 7.328-1.204 1.867-12.133 1.468-13.868-.532-1.066-1.332-.535-3.199 2.133-7.332 2-3.066 4.266-5.597 5.066-5.597.801 0 2.801 2.8 4.399 6.133zm574.11 18.793c1.066 2.664-2.532 8.394-5.2 8.394-2.398 0-2.398-.266-.531-6.797 1.597-5.062 4.133-5.73 5.73-1.598zm-557.177 7.062c14.266 3.863 30.532 10.262 34.266 13.46l3.067 2.669-15.332-.535c-8.399-.266-13.465-.133-11.333.398 2.266.535 7.332 1.735 11.332 2.668 8.934 2 23.731 7.063 30.133 10.395l4.797 2.53-9.465 1.47c-5.199.933-12.664 2.797-16.664 4.265-12.27 4.664-23.336 16.39-21.867 23.59.266 1.73 1.734.133 4.668-5.066 7.332-13.059 19.598-19.324 36.531-18.66 2 .136 6.664 2.27 10.399 4.8 5.867 4.133 7.465 4.532 12 3.864 5.199-.797 5.332-.797 9.332 6.265 5.199 9.196 5.199 12.262-.266 16.395-11.867 9.062-18.668 7.328-23.601-6.266-.93-2.797-.797-4.664.668-7.73 2.402-4.399 1.066-4.93-3.332-1.465-3.735 3.066-3.2 5.996 2.933 16.125 6 9.863 7.332 10.398 15.863 7.73 8.27-2.797 9.868-1.863 8.668 5.332-1.601 8.532-6.53 16.66-14.265 22.926-4 3.2-7.465 6.395-7.735 7.063-.933 2.53 7.332-2.797 15.735-10.13 6.133-5.331 9.066-7.062 10-6.132 2.133 2.133 2.664 42.117.797 53.312-2.664 15.73-15.996 39.852-28.93 52.247-10.535 10.132-30.133 19.195-25.465 11.863 1.332-2.133 1.067-3.73-1.469-9.196-4.8-10.128-9.597-14.66-17.066-15.593-8.664-1.2-14.399-3.067-23.465-7.598-8.933-4.531-11.066-4.133-17.066 2.531-6.133 7.067-5.2 13.196 4.8 30.79 4.133 7.597 7.332 14.128 6.801 14.527-2.8 2.8-29.867-2.133-44.531-8.13-18.266-7.331-38.934-24.39-50.531-41.452-6.934-10.395-16.801-30.121-19.735-39.317-2.933-9.863-4-35.054-2.132-51.18.933-8.128 3.066-16.925 5.464-23.324 4.536-11.46 4.801-13.46 2-13.46-2.398 0-2.53-3.868-.398-8.665 2-4.265 4.535-3.597 4 1.067-.398 2.664.668 4.531 3.734 7.062 2.266 2 7.2 8.532 10.934 14.664 3.73 6.13 7.863 12.125 9.2 13.329 2.933 2.53 15.597 2.796 21.597.398 3.199-1.332 3.601-2.133 3.601-7.996v-6.531l-5.734 5.996c-5.066 5.199-6.535 6-11.2 6-6 0-12.398-4.934-12.398-9.465 0-3.2-.27-3.2 8.797.8 10 4.4 10.403 4.266 2.535-1.199-9.601-6.53-12.132-9.597-10-12.129 2-2.398 17.868-11.863 23.332-13.996l3.735-1.464-.934 6.398c-.402 3.465-1.199 8.129-1.601 10.395-1.465 7.062 2.933 1.066 6-8.262 3.734-11.2 3.601-13.73-1.868-25.727-6.265-13.86-6.132-15.46 1.336-18.656 5.332-2.266 18.797-5.465 30.664-7.2 8.266-1.198 28.399.536 38.664 3.2zm660.774 0c10.531 2.664 21.863 6.93 24.266 9.063 1.597 1.332 2.265 4 2.265 8.398 0 5.863-.265 6.531-2.8 6.129-2.266-.133-3.598 1.2-6 5.73-3.868 7.465-3.868 9.996-.399 17.996 1.598 3.598 3.2 11.196 3.867 18.125 1.067 11.063 2.664 15.86 5.465 15.86.535 0 3.2-2.133 5.867-4.664 5.067-4.797 16.266-10.797 17.598-9.598 1.469 1.469-5.2 10.129-10 13.195-4.797 2.934-4.797 3.067-1.598 3.598 2.531.27 4.531-.93 8.664-5.598 4.27-4.664 11.336-15.859 15.067-23.722.132-.532-2.399-1.2-5.73-1.465-4.138-.535-10-3.067-18.669-8.266-6.933-4.129-12.664-7.996-12.664-8.394 0-1.735 14.531-26.524 17.332-29.457 1.465-1.598 4.133-2.93 5.73-2.93 2.27 0 27.333 12.793 30.133 15.46.266.134-1.464 3.599-3.734 7.595-2.266 4-4.133 8.132-4.133 9.066 0 1.063 1.469 5.063 3.336 8.93 1.73 3.73 3.598 9.195 4.133 11.86.8 4.132.531 4.663-1.336 4-2.797-1.067-2.797.933.402 10.128 5.868 16.926 7.067 55.313 2.133 70.906-3.734 12.262-15.199 33.188-24 44.25-19.863 24.79-47.597 40.383-77.863 43.848-7.465.8-7.867 1.066-7.73 4.398.265 3.2-.137 3.465-4.934 3.465-5.734 0-8.266-3.066-3.602-4.265 1.735-.399 2.801-1.73 2.801-3.598 0-1.598 3.332-9.73 7.332-18.125 4-8.398 7.332-16.793 7.332-18.66 0-4-3.465-9.465-8.398-13.328-4.133-3.2-5.598-2.934-17.2 2.8-4.132 2.13-11.867 4.532-17.332 5.329-10.8 1.601-13.464 3.332-17.332 11.195-4.265 8.398-8.933 13.996-11.867 13.996-8.664 0-31.066-23.855-41.199-43.582-4.797-9.598-7.332-20.258-9.332-39.719-.8-8.129-1.734-16.129-1.867-17.992-.531-4-.531-4 9.469 14.395 8.265 15.058 14.265 22.125 23.597 27.59 8.399 4.93 8.934 3.597.934-2.266-6.668-5.067-17.2-17.996-21.735-26.793-3.199-6.262-6.398-20.656-6.398-28.922v-5.996l7.332 8.262c9.066 9.996 19.867 15.73 32.399 17.062 9.601.934 10.535-1.2 1.203-2.398-8.536-1.2-18.27-4.801-23.2-8.399-2.402-1.867-6.27-7.332-8.933-12.66-7.469-14.797-5.867-19.86 4.398-15.195 2.801 1.199 6.266 2 7.602 1.734 2.531-.402 16.398-18.926 16.531-21.86 0-.933-2.934-3.464-6.668-5.863-3.598-2.402-6.664-5.066-6.664-6 0-3.199 11.465-7.597 19.73-7.597 9.868-.133 16 2.535 24.934 11.062 8.8 8.266 11.2 7.864 3.465-.398-7.066-7.73-16.797-12.93-26.399-14.13-10.933-1.331-10.132-3.862 2.934-9.327 12.668-5.2 14.8-6.93 9.066-6.93-11.199 0-2-6.664 18.266-13.195 24.934-7.996 44.664-9.2 64.133-4.133zm-749.836 9.598c3.867 6.129 8.266 13.992 9.734 17.59l2.934 6.398-4.27 4.398c-4.664 4.801-24.398 14.66-27.199 13.594-2-.797-19.465-29.055-19.465-31.453 0-1.332 28.399-21.059 30.668-21.324.399-.133 3.864 4.797 7.598 10.797zm147.727-.801c4.8 1.867 8.535 16.527 4.132 16.527-2.265 0-11.464-9.996-11.464-12.394 0-1.868 2.53-4.934 4.132-4.934.532 0 2 .402 3.2.8zm496.777.531c3.734 2.133 3.07 6.133-1.863 11.598-8.27 8.797-12 1.199-4.668-9.332 2.933-4.13 2.933-4.13 6.53-2.266zm-685.434 14.664c3.465 3.465 2 6.528-5.336 11.86-5.73 4.132-20.93 10.265-22.265 9.062-1.2-1.332 7.867-15.457 12.668-19.723 5.199-4.668 11.066-5.066 14.933-1.199zm884.227 2.266c3.734 2.265 13.066 14.66 13.066 17.59 0 .668-.535 1.601-1.199 2.132-2.8 1.602-26-9.859-27.465-13.726-.933-2.399 5.2-8.262 8.797-8.262 1.469 0 4.535 1.067 6.8 2.266zm-68.93 4.531c0 1.066-1.332 2-2.933 2.266-3.332.53-4-.934-1.465-3.465 2-2 4.398-1.336 4.398 1.2zm13.2 17.86c6 3.331 12 6.93 13.464 7.996 2.668 2.132 2.668 2.132-.664 4.664-1.867 1.468-8 5.066-13.734 7.996-11.465 6.132-10.934 6.398-12.133-5.996-.398-4.399-2-11.196-3.465-15.196l-2.8-7.195 4.265.934c2.398.398 9.2 3.464 15.066 6.796zm-154.794 1.464c8.664 5.465 9.067 6.93 4.399 16.262-6.399 12.395-5.73 12.129-16.531 5.195-5.332-3.465-9.602-7.195-9.602-8.261 0-1.2 1.867-5.598 4-9.996 4.934-9.731 6.8-9.997 17.734-3.2zm-679.039 2.399c0 3.734-.933 6.933-2.53 8.93-2.403 3.066-2.403 3.066-8.536.667-7.465-2.8-10-5.464-8-8.53 1.469-2.532 11.469-6.798 16.133-6.798 2.535-.133 2.933.535 2.933 5.73zm896.762.133c5.332 2.535 11.469 6.132 13.602 8 2.664 2.265 5.465 3.332 8 3.062 7.73-.531 11.863 6.664 16.265 28.258 11.067 54.379-13.336 119.02-58.531 154.605-23.734 18.66-48.398 29.723-66.797 29.856l-10 .133.399-4.399c.402-3.73.132-4.265-2.934-4.265-4.531 0-7.066-4.133-8.664-14.66-2.8-16.794-2.668-16.794 18-25.856 19.332-8.531 30.797-15.328 40.262-24.125 28-25.988 45.199-74.902 39.066-111.422-2.934-17.195-2.934-16.93 1.465-21.86 3.601-4.132 3.734-4.663 1.469-4.663-4 0-7.332-4.532-8-11.329-.668-5.867-.668-6 2.933-6 2 0 8.133 2.133 13.465 4.665zm-908.894 11.996l8.132 3.734v27.453c0 37.719 1.2 47.184 8 61.309 8.801 18.394 17.2 31.457 25.2 39.187 11.601 11.328 27.199 21.856 45.332 30.52 9.066 4.398 17.464 9.199 18.664 10.664 1.601 1.867 4.668 2.93 10.535 3.597 10 1.2 12.133 2.665 9.2 6.797-2.267 3.2-15.2 13.328-17.067 13.328-.532 0-2-1.597-2.934-3.597l-1.867-3.465-.934 5.2c-1.199 6.26-2.93 8.527-6.265 8.527-1.598 0-2.532.933-2.532 2.53 0 1.337-.8 3.2-1.867 4-2.933 2.4-15.199 2-23.465-.933-11.867-4.129-37.332-17.457-45.867-23.988-29.332-22.66-55.195-61.176-62.262-92.899-2.8-12.394-2.535-61.175.399-74.37 3.469-15.329 8.133-22.657 12.933-19.727 1.333.933 1.2 2.398-.535 7.597-3.863 11.461-6 28.391-5.863 47.848l.266 18.66 1.066-13.328c2.668-30.52 6.934-53.312 11.598-60.242 1.734-2.8 2.8-3.2 7.066-2.668 2.668.402 8.535 2.266 13.067 4.266zm651.972 29.722c-2.133 17.059-.933 32.653 3.2 43.184 2 5.062 5.066 15.195 7.066 22.523 3.867 15.328 3.734 15.86-5.598 15.86-8.265 0-10.8-2.797-14-15.86-3.469-13.593-2.933-23.457 1.332-26.922 1.469-1.199 2.801-2.8 2.801-3.464 0-.536-2.934-5.868-6.535-11.73-5.598-8.798-6.399-10.93-5.2-13.329 1.47-2.664 17.47-21.992 18-21.59.133.133-.398 5.195-1.066 11.328zm-389.715 3.2c3.2 3.464 5.864 7.328 5.864 8.53 0 4.13-9.598 19.192-12.133 19.192-2.266 0-3.863-5.598-5.2-18.793-.663-7.597-1.73-15.328-2.132-17.058l-.934-3.2 4.266 2.532c2.402 1.332 7.066 5.332 10.27 8.796zm377.715 27.59c2.133 1.331.934 5.995-1.465 5.195-.8-.266-2.402-1.864-3.468-3.465-1.73-2.664-1.73-2.93.535-2.93 1.465 0 3.332.531 4.398 1.2zm-373.715 1.73c1.2 2-3.601 5.465-5.336 3.734-.796-.8-.664-2 .536-3.332 2-2.402 3.464-2.535 4.8-.402zm73.594 28.922c16.535 8.265 41.067 15.863 70.797 21.992 5.336 1.2 10.535 2.664 11.469 3.465.933.8 2.133 4.133 2.664 7.465 1.203 8.128 4.133 10.796 13.199 11.863 8.402 1.066 29.602-.27 33.066-2.133 1.332-.668 2.801-4.266 3.735-8.398.8-3.996 2.265-7.864 3.066-8.664.934-.665 12-3.73 24.664-6.665 25.465-5.863 45.867-12.527 60.399-19.457 8.933-4.265 9.734-4.398 13.332-2.53 10.8 5.46 7.199 20.124-7.598 30.652-12.8 9.062-50.664 21.324-75.465 24.523-6 .668-27.332 1.332-47.332 1.332-37.062 0-36.797 0-63.062-6.129-42.133-9.996-66.399-24.926-63.332-39.05.668-3.2 7.867-13.462 9.468-13.462.266 0 5.2 2.266 10.93 5.196zm-375.715 33.054c2.532 5.73 8.133 15.594 12.266 22.125 4.266 6.399 7.734 12.13 7.734 12.793 0 1.602-11.336 4.535-18.265 4.668-5.203.133-6.403-.402-9.735-4.53-5.332-6.267-12-19.063-12-22.661 0-1.598.668-4.133 1.465-5.73 2.137-4 12-16.926 13.067-16.926.402 0 2.933 4.664 5.468 10.261zm987.559-2c2.133 2.399 5.598 6.664 7.598 9.332l3.734 4.93-6.402 12.262c-7.864 14.66-11.2 18.527-16.133 18.527-6.133 0-19.465-2.531-20.797-3.867-.8-.797 1.066-5.063 5.332-11.727 3.601-5.73 8.934-14.66 11.734-19.726 5.067-9.465 8.399-13.996 10-13.996.399 0 2.664 2 4.934 4.265zm-807.434.403c4.266 1.863 10.664 3.73 14 4.261 10.399 1.336 9.2 3.067-10.8 14.262l-13.333 7.465-7.601-7.863c-8.664-8.93-9.598-12.395-4.399-17.992 4.266-4.532 11.332-4.665 22.133-.133zm636.239.398c5.066 4.531 5.332 6.797 1.734 12.13-1.867 2.663-5.602 7.062-8.266 9.597l-4.668 4.531-9.867-5.2c-11.2-5.995-19.73-12.394-18.93-14.527.266-.8 3.73-2.132 7.73-3.066 4-.934 10.536-2.934 14.536-4.398 8-3.067 13.598-2.797 17.73.933zm-316.52-1.598c3.2.665 4.133 1.598 4.133 3.997 0 4.53-4.266 6.132-18.266 6.93-10 .534-12.933.269-15.73-1.598-4.801-3.2-4.403-7.063 1.066-8.664 4.934-1.465 22.664-1.868 28.797-.665zm225.191 18.126c14.266 15.593 15.067 18.257 6.934 22.39-2.8 1.465-6.402 2.664-7.867 2.664-3.465 0-20.266-16.66-23.332-23.054-2.535-5.333-1.469-12.13 2.531-17.997l2.137-2.93 3.597 2.798c2 1.468 9.2 8.796 16 16.129zm-512.511 2c.535 1.73.398 3.062-.266 3.062-1.469 0-4.266-5.996-4.266-9.063 0-1.863.266-1.73 1.864.403.933 1.465 2.133 3.996 2.668 5.598zm558.11-6.266c0 2-5.067 4.265-6 2.664-.4-.664-.4-1.996 0-2.664 1.065-1.735 6-1.735 6 0zm-599.31 35.984c0 2.403-8.265 3.602-10.265 1.602-2.399-2.399.398-4.399 5.332-4 3.336.265 4.933 1.066 4.933 2.398zm658.508 6.266c4.532 15.062 3.465 21.058-3.066 16.926-1.867-1.332-6.402-4.664-10-7.73l-6.535-5.329 6.535-3.066c8-3.598 12.133-3.868 13.066-.801z" id="Shape"/><path d="M769.7 72.637c0 2.933.269 4 .534 2.265.266-1.597.266-3.996 0-5.328-.402-1.199-.668.133-.535 3.063zm11.6 47.316c0 2.133.665 4 1.333 4 .8 0 1.332-1.867 1.332-4 0-2.266-.531-4-1.332-4-.668 0-1.332 1.734-1.332 4zm-11.6 85.301c0 18.39.269 22.258.8 13.328.398-6.93.398-18.66 0-25.992-.531-9.86-.8-6.528-.8 12.664zm13.468 6.664c0 15.727.266 22.258.398 14.262.266-7.864.266-20.66 0-28.657-.132-7.863-.398-1.332-.398 14.395zm-13.336 69.972c0 9.462.137 13.196.402 8.262.266-4.93.266-12.793 0-17.324-.265-4.531-.402-.535-.402 9.063zm16 121.286c0 19.726.266 28.12.402 18.394.266-9.597.266-25.86 0-35.988-.136-10.129-.402-2.266-.402 17.594zm-18.664 49.312c0 17.594.266 24.66.398 15.594.266-9.062.266-23.457 0-31.984-.132-8.532-.398-1.2-.398 16.39z" id="Path"/><path d="M803.965 554.316c-8.664.934-10.664 2-10.664 5.598 0 3.332 1.597 3.2 3.73-.133 1.602-2.531 1.867-2.664 3.867-.531 1.735 1.73 4.133 1.996 12.266 1.465 5.602-.266 11.469-1.067 12.934-1.602 2.535-.797 3.199 0 5.867 6.801 1.597 4.262 4.531 14.926 6.664 23.723 2.137 9.195 4.668 16.66 5.867 17.46 1.067.93 6.402 2.266 11.734 3.196 5.332.934 12.665 2.535 16.266 3.602 3.602 1.066 6.934 1.597 7.2 1.199 1.331-1.332-12.532-6.399-20.4-7.332-10.398-1.332-14-3.2-14-7.328 0-1.735.4-3.47 1.067-3.868 1.602-.933 24.266 6.797 31.598 10.93 4.535 2.399 7.469 5.2 9.336 8.93 1.598 2.933 4.797 6.398 7.066 7.73l4.399 2.532 4.265-4.532c2.403-2.531 5.332-6.664 6.801-9.195 2.399-4.531 2.399-4.531-2 .8-2.535 2.798-5.469 6.395-6.668 7.864-2.133 2.664-2.265 2.531-6.398-3.867-2.266-3.598-4.133-7.328-4.133-8.262 0-.933 2.398-4.398 5.332-7.598 2.934-3.199 5.332-6.265 5.332-6.796 0-1.332-7.066-9.997-22.398-27.723l-12.532-14.262-27.465.133c-15.199.133-30.933.668-34.933 1.066zm46.398 8.797c3.867 2.801 18.934 25.723 18.934 29.055 0 3.066-3.336 2.531-12.8-2-10.934-5.063-19.731-19.723-16.267-26.79 1.465-2.796 6.133-2.929 10.133-.265zm24.266 6.797c8 7.465 16.398 19.461 15.734 22.66-1.336 6.797-8 1.2-18.402-15.996-3.73-5.863-6.664-11.195-6.664-11.726 0-2.403 3.2-.668 9.332 5.062zm22.664 25.723c0 1.734-6.797 8.133-8.797 8.133-2.933 0-2.133-2.133 2.266-5.868 4.133-3.597 6.531-4.398 6.531-2.265zM667.57 574.574l-16.797 20.395 4.532 4.93c7.199 7.996 7.734 9.597 4.265 14.66-1.597 2.398-3.597 4.53-4.53 4.8-.802.266-4-1.601-6.935-4.398-3.066-2.668-5.464-4.399-5.464-3.867 0 2.133 8.265 12.527 10.53 13.328 1.466.402 6.266-.8 11.067-2.797 12.133-5.2 29.067-10.664 38-12.531 10.399-2.133 12.399-3.864 9.73-7.996-1.066-1.598-1.866-1.332-5.066 1.734-3.066 2.93-5.867 3.996-12.664 4.93-4.8.8-11.867 2.398-15.867 3.867-9.066 3.332-13.332 3.863-14 1.73-.8-2.265 12.399-8.129 34.266-14.925 21.332-6.664 31.73-8.133 35.066-4.664 1.598 1.597 2 2.796 1.067 3.863-1.067 1.199 1.73 1.465 11.597 1.066 16.801-.668 20.801-1.597 21.332-5.332.403-2.398-.133-2.93-3.465-2.93-4.398 0-5.601-1.734-5.734-8.398l-.133-4.266-1.867 4.532-2 4.53-10.664-.796c-5.867-.535-13.2-2-16.402-3.465l-5.864-2.535-.8 3.867c-.403 2.399-1.602 3.864-2.934 3.864-1.867 0-2-.801-1.332-5.063.531-2.668 1.465-8.664 2-13.328 1.2-10.399 2.664-11.996 8.531-9.863 4.668 1.597 23.465 2 28.531.53 2.27-.663 2.668-1.464 1.735-2.929-1.067-1.734-6.934-2.133-37.067-2.402l-35.996-.399-16.668 20.258zm45.73-11.46c2 2.398-.132 11.995-4.265 18.925-3.73 6.266-25.066 15.86-25.066 11.195 0-4.398 14-26.523 18.933-29.988 3.735-2.664 8.266-2.664 10.399-.133zm-30.128 12.66c-8.8 14.527-15.469 21.992-18.266 20.925-3.468-1.332-2.668-4.93 2.797-13.195 14.668-21.988 28.266-28.922 15.469-7.73zm-21.332 21.46c3.597 2.797 4.664 6.532 1.863 6.532-2.133 0-7.73-5.465-7.73-7.598 0-2.398 1.734-2.133 5.867 1.066z" id="Shape"/><path d="M759.434 566.18c-.532 1.73-.668 3.465-.266 3.863 1.332 1.469 2.398-.531 1.867-3.863l-.535-3.067-1.066 3.067zm68.531 15.191c-2.266 2.934-10.535 4.934-20.934 5.067-5.73 0-7.332-.532-9.465-3.333l-2.668-3.332-1.199 4.93c-.668 3.2-2.265 5.598-4.265 6.531-4.934 2.536-5.735 4-3.47 5.868 2.802 2.398 36.669 3.73 36.669 1.464 0-.8-1.203-1.464-2.535-1.464-4.532 0-4.266-2.266.132-3.2 8.403-1.601 12.668-7.066 10.536-13.062-.668-1.735-1.067-1.735-2.801.531z" id="Path"/><path d="M753.434 651.879c-9.465 1.598-14 3.863-14.532 7.332-.668 4.664 3.2 7.46 8.801 6.394 9.863-1.73 13.332-3.996 14.266-8.93l.933-4.663 3.465 3.867c6.133 6.797 19.465 6.527 22.531-.535 1.2-2.532 1.47-2.399 3.868 2.531 2 4.133 3.332 5.332 6.535 5.598l4 .402-3.336-2.668-3.332-2.797h3.597c2 0 4.801 1.332 6.403 2.93l2.664 2.933 4-3.863c2.27-2.133 3.601-4.265 2.933-4.933-3.867-3.864-46.664-6.262-62.796-3.598zm24.933 4.797c-1.332.265-3.469.265-4.668 0-1.332-.399-.265-.664 2.266-.664 2.535 0 3.601.265 2.402.664zm-24.398 3.066c.531.801-.668 1.332-2.535 1.332-1.868 0-3.465-.664-3.465-1.332 0-.8 1.199-1.332 2.531-1.332 1.469 0 3.066.531 3.469 1.332z" id="Shape"/><path d="M829.297 661.61c0 .398 1.867 1.863 4 3.464 4.133 2.93 5.469 1.73 1.867-1.867-1.867-2-5.867-2.934-5.867-1.598zm-213.723 7.062c-.535.398-.8 11.996-.668 25.59l.133 24.789 1.336-24.39c.664-13.329 1.598-24.255 2.133-24.255.398 0 6.531 5.196 13.465 11.461 6.933 6.266 17.597 15.461 23.734 20.258 6.133 4.934 10.93 9.863 10.93 11.063 0 3.066 2.535 4.53 4.402 2.667 2.531-2.535 5.598-1.601 13.066 3.598 10.665 7.461 11.997 7.863 4.532 1.465-3.598-3.2-8.664-7.73-11.332-9.996l-4.535-4.266 8.535-9.73c14.265-16.39 14.398-17.059 1.199-3.598-7.067 7.2-13.465 13.063-14.399 13.063-3.335 0-9.867-4.399-19.867-13.594-11.73-10.797-29.332-25.059-30.797-25.059-.535 0-1.468.403-1.867.934zm90.797 3.066c-5.734 5.063-3.066 5.196 2.934 0 2.53-2.133 3.863-3.867 3.066-4-.933 0-3.601 1.735-6 4zm207.192 13.86c-9.47 9.73-12.133 12.797-10.536 12.797.133 0 5.735-5.465 12.266-11.997 6.535-6.664 11.332-11.996 10.535-11.996-.8 0-6.27 5.067-12.265 11.196zm-58.934-8.129c0 .531 4.535 5.73 10 11.73 11.066 11.727 14.535 17.324 13.332 21.192-.664 1.996-.266 2.664 1.867 2.664 1.735 0 3.2 1.465 4.266 4.664 2 5.332 3.867 6.133 3.867 1.601 0-5.332-7.867-16.793-20.664-29.988-6.934-7.066-12.535-12.531-12.668-11.863z" id="Path"/><path d="M770.766 683.066c-2.266 2.664-4.133 5.864-4.133 7.196 0 3.468 6.265 5.734 14.8 5.465 12.665-.399 13.2-.266 13.2 3.066 0 4.133 3.199 6.797 11.332 9.465 6.933 2.265 22.8 12.793 19.332 12.793-1.2 0-7.067-.664-13.2-1.332-13.066-1.735-15.597-.934-4.53 1.332 9.464 2 19.597 6.398 30.663 13.328 9.465 6.133 12 6.531 11.868 2.398-.133-1.863 1.465-3.996 4.53-5.996 12.267-8.261 16.267-11.328 15.47-11.996-.403-.398-4.801 1.735-9.735 4.664-5.066 3.067-11.066 6-13.465 6.399-3.867.8-5.066.265-9.336-3.73-2.664-2.669-10.53-8.798-17.464-13.731-9.868-7.196-12-9.328-10.266-10.262 1.332-.8 2.133-3.066 2.133-6.398 0-3.997-.8-5.73-4-8.528-3.465-2.933-5.332-3.332-12.531-3.199-6.536.133-9.602-.535-13.2-2.8-6-3.731-6.668-3.598-11.468 1.866zm11.199 4.266c2.137 2.133 2.137 2.266-.133 3.996-4.133 2.934-12.531 1.867-12.531-1.73 0-4.266 9.066-6 12.664-2.266zm24.402 1.73c3.73 3.47 3.996 9.333.399 9.333-2.399 0-9.465-6.93-9.465-9.196 0-3.601 5.199-3.601 9.066-.136zm-61.734-1.862c-3.2 2.929-3.598 3.995-2.93 8.929 1.73 12.793 1.332 12.394 14.266 10.262l9.332-1.598-2.668-3.332c-1.598-2.133-2.664-5.465-2.664-8.531 0-9.196-8.27-12.395-15.336-5.73zm13.469.663c1.332 2.266-3.868 6.532-9.2 7.465-6.132.934-6.402-.8-.8-5.465 4.265-3.597 8.398-4.531 10-2z" id="Shape"/><path d="M773.3 700.258c0 1.203 4.934 1.601 7.333.668 2-.801 1.469-1.067-2.266-1.067-2.8-.132-5.066.133-5.066.399zm163.993 5.066c-.8 2.399-1.867 13.727-2.133 25.059-.535 18.39-.398 20.125 1.2 15.992l1.867-4.664 1.601 11.062c.93 6.13 2 11.997 2.266 12.926.531 1.067-.403 2-2.403 2.266-2 .27-3.199 1.469-3.464 3.469-.536 3.597 2.933 9.593 5.601 9.593 2.531 0 3.332-4.664 4.399-25.054.668-15.594.53-17.86-1.47-20.125-3.73-4.133-5.066-12.13-2.796-16.66 2.266-4.536 2.531-11.864.664-15.598-2-3.598-3.465-3.195-5.332 1.734zm-210.789 12.528c-6.137 4.8-13.469 10.265-16.133 11.996-4.668 2.933-7.336 7.199-9.734 15.328-.801 2.797-.399 2.531 2.8-1.332 2-2.399 5.465-5.332 7.731-6.399 2.27-.933 6.535-3.73 9.602-6.133 3.734-3.062 9.066-5.328 16.664-7.46 18.8-5.067 20.132-5.465 13.199-4.801-3.332.27-10.133.933-15.332 1.336l-9.332.93 4-3.333c9.597-7.996 10.531-8.793 9.199-8.93-.8 0-6.531 4-12.664 8.798zm48.531-1.2c2 .266 4.93.266 6.664 0 1.602-.265 0-.53-3.734-.53-3.598 0-5.067.265-2.93.53zm-111.062 15.727c0 1.867.664 3.332 1.332 3.332.8 0 1.332-1.465 1.332-3.332 0-1.863-.532-3.332-1.332-3.332-.668 0-1.332 1.469-1.332 3.332zM773.3 735.71c0 .669 1.735 1.337 3.868 1.337 2.266 0 4.398-.668 4.797-1.336.535-.797-1.067-1.332-3.863-1.332-2.668 0-4.801.535-4.801 1.332zm-12.667 2.669c-.531.8.8 1.332 2.933 1.332 2.934 0 3.336-.266 1.735-1.332-2.535-1.602-3.602-1.602-4.668 0zm28.667-.801c0 .399 4.4 3.2 9.731 6.266 5.2 3.062 11.602 7.062 14 8.797 5.2 3.863 7.867 2.797 2.934-1.2-7.2-5.867-26.664-15.996-26.664-13.863z" id="Path"/><path d="M667.04 743.977c-3.067 3.863-4.669 12.128-5.337 27.988-.93 19.324 0 21.191 7.602 15.594 3.332-2.532 4.53-2.797 6.398-1.465 7.067 5.062 9.067 3.73 10.133-6.664 1.203-11.864-.531-17.594-7.066-23.59-3.067-2.8-5.465-6.266-5.465-7.598 0-2.668-2.266-5.867-4.133-5.867-.535 0-1.469.8-2.133 1.602zm3.597 20.925c0 1.996-3.73 4.399-5.332 3.465-1.067-.668-1.067-1.469.133-2.8 1.734-2 5.199-2.532 5.199-.665z" id="Shape"/><path d="M745.035 747.043c-7.332 5.328-15.867 15.727-20.531 25.055-5.469 10.664-2.934 11.46 2.797.8 3.469-6.53 8.8-13.46 15.601-20.257 5.73-5.598 9.868-10.266 9.332-10.266-.535 0-3.734 2.133-7.199 4.668zm135.86 1.73c-2.665 3.465-6 7.465-7.598 8.93-5.867 5.332-6.934 9.195-5.2 19.059 2.266 13.195 4.93 16.66 9.2 11.597 2.531-3.066 6.133-2.398 10.933 1.864 3.598 3.199 4.133 4.398 2.93 6.265-.797 1.332-3.2 2.934-5.332 3.465-7.734 2.266-23.2-1.2-23.2-5.195 0-1.067-.53-1.602-1.066-1.203-2.265 1.336-.132 8.53 2.934 9.332 2.668.664 31.465 1.199 31.465.398 0-.133-1.2-12.262-2.531-26.922-2.535-25.988-4.133-33.988-6.668-33.988-.668 0-3.332 2.8-5.867 6.398zm-25.997 5.598c0 2.531.266 3.598.664 2.266.266-1.2.266-3.332 0-4.664-.398-1.2-.664-.133-.664 2.398zm-158.929 4.664c0 2.934.535 4.531 1.336 4 .797-.398 1.332-2.265 1.332-4 0-1.73-.535-3.597-1.332-3.996-.801-.535-1.336 1.066-1.336 3.996zm-84.262 5.598c-.266 5.066 0 12.93.398 17.726.536 6.664.801 4.532.934-9.062.27-18.524-.531-23.856-1.332-8.664zm208.258-4.129c0 .797 1.867 3.062 4 5.195 2.265 2.133 4 3.2 4 2.535 0-.8-1.735-3.066-4-5.199-2.133-2.133-4-3.2-4-2.531zm37.332 14.527c0 2.93.531 4.532 1.332 3.996.8-.398 1.336-2.265 1.336-3.996 0-1.734-.535-3.597-1.336-4-.8-.531-1.332 1.067-1.332 4zm-163.594 7.329c0 3.331.266 4.667.535 2.933.266-1.598.266-4.266 0-5.996-.27-1.602-.535-.27-.535 3.062zm138.262 5.331c0 2.133.668 4 1.332 4 .8 0 1.332-1.867 1.332-4 0-2.265-.531-3.996-1.332-3.996-.664 0-1.332 1.73-1.332 3.996zm-173.059 9.332c.532 4.262 6.664 6.528 17.996 6.528 10 .136 15.067-1.598 15.067-5.063 0-2.398-.266-2.398-3.598-.8-3.734 1.734-10.266 2.53-19.332 2.132-3.2-.133-6-1.199-7.734-3.199l-2.934-2.93.535 3.332zm-185.859 8.797c-4.266 1.332-7.2 3.196-8.535 5.598-1.332 1.996-4.797 7.46-7.864 12.262a3580.258 3580.258 0 01-8.132 12.66c-1.336 2.133 4.132-2.664 12.132-10.93 9.2-9.328 16.797-15.86 20.266-17.46 9.598-4.263 3.863-5.731-7.867-2.13zm358.383 3.864c-4.266 9.597-4.934 11.593-3.465 10.664 2.265-1.47 6.8-11.332 6.265-13.73-.265-1.466-1.199-.532-2.8 3.066zm-382.782 2c-2.933.53-14.668 2.664-26 4.664-11.332 2-21.199 4.132-22 4.797-.664.8-.53 1.199.403 1.199s1.597 1.199 1.597 2.668c0 2.398.403 2.398 6.934-1.067 5.2-2.668 9.332-3.734 16.934-4.133l10-.398-6 6.93c-12.266 14.66-13.332 15.992-12.266 15.992.664 0 5.863-4.93 11.73-10.793 12.266-12.395 20.934-18.527 26.266-18.527 2 0 3.734-.668 3.734-1.332 0-1.47-3.464-1.47-11.332 0zm611.305-.934c0 .398 3.203 3.066 7.067 5.996 3.734 2.934 11.335 9.332 16.8 14.262 11.2 10.129 14.532 10.531 4.668.535-8-8.266-28.535-23.191-28.535-20.793zm-338.653 2c0 1.598 3.735 6.398 4.403 5.598 1.067-1.067-1.469-6.664-3.066-6.664-.668 0-1.336.53-1.336 1.066zm387.317 5.063c6.535 3.066 18 4.398 18 2 0-1.333-16.797-5.465-21.597-5.333-2.266 0-1.47.934 3.597 3.332zm-831.961 2c-8.133 4.398-14.668 10.128-17.734 15.726-4.8 8.399-3.465 13.863 4.8 20.793 2.266 2 4.266 4.398 4.266 5.332 0 2.266 3.2 2.93 28.664 5.195 11.067 1.067 21.336 2.403 23.067 2.801 6.265 2 2.402-1.465-5.73-5.2-4.669-2.132-11.602-5.862-15.337-8.26-3.863-2.532-7.199-4.532-7.597-4.532-.403 0 1.199 2.133 3.465 4.664 2.27 2.664 4.132 5.332 4.132 5.996 0 2-9.332 1.602-16.797-.664-8.265-2.398-18.265-8.797-21.332-13.328-2.27-3.465-2.27-3.867.797-9.598 3.735-7.062 12.535-14.926 17.735-15.992 4.132-.8 5.867-2.668 4-4.531-.668-.668-3.332 0-6.399 1.597zm22.532-1.598c.53.797 1.734 1.465 2.667 1.465 1.067 0 2.532.933 3.598 2.133 1.332 1.73 1.332 2.265-.265 3.332-3.735 2.265 1.867 1.332 8-1.602 4.53-1.996 5.597-2.93 4.398-4.129-2.133-2.133-19.598-3.332-18.399-1.2zm24.796 0c0 1.996 3.735 4.398 6.27 3.863 1.863-.398 1.465-1.066-1.867-2.797-2.403-1.336-4.403-1.734-4.403-1.066zm1017.024-.27c-2.797.27-5.067 1.067-5.067 1.867 0 .668 3.067 2.801 6.934 4.934 3.867 1.996 9.066 5.598 11.469 7.996 2.531 2.399 4.93 3.996 5.332 3.73 1.066-1.066-3.469-7.195-6.934-9.46-5.199-3.469-5.199-5.735-.398-7.864l4.265-1.867h-5.336c-2.93.133-7.597.399-10.265.664zm-1005.024 3.469c0 .93-2.933 4.797-6.664 8.527-3.601 3.735-6.668 7.73-6.668 8.93 0 1.469 1.332.668 4.266-2.531 2.27-2.664 8.668-7.465 14.266-10.664l10.132-5.996h-7.597c-5.465 0-7.735.53-7.735 1.734zm37.868 0c-4.536 2.664-8.934 6.527-14.266 12.793-7.2 8.531-6.133 9.598 2.133 1.867 9.066-8.664 12.664-10.797 21.863-13.73l7.734-2.399-7.332-.133c-4 0-8.535.668-10.132 1.602zm789.433-.402c-24.8 1.066-23.734.933-22.8 2.531 1.464 2.402 7.6 2.934 9.597.8 2.402-2.265 4.668-2.398 16.934-.663 12.265 1.73 18.535 5.328 25.066 13.992 4.398 5.863 5.465 8.398 5.465 12.664 0 2.93-.531 5.863-.93 6.664-.402.664-.27 1.332.531 1.332 2 0 4.133-4.664 4.133-9.062 0-4.133-1.597-6.665-12.531-19.461l-6.668-7.864 10.934.668c9.464.532 12.53 1.332 21.332 5.864 7.332 3.73 10.8 6.398 12.132 9.195 1.602 3.2 2.133 3.598 2.536 1.601.53-2.8-3.204-7.332-9.868-11.863-2.535-1.734-4.535-3.465-4.535-4.133 0-1.332 33.465-1.066 47.2.403 14.667 1.73 23.332 5.328 29.464 12.394 2.535 2.93 5.067 4.93 5.47 4.531.929-.8-2.802-6.53-10-15.328l-4.669-5.597-48.797.265c-26.8.133-58.265.668-69.996 1.067zm145.992 3.332c4.668 2.531 10.801 6.93 13.598 9.597 3.469 3.332 5.066 4.266 5.066 2.797 0-2.398-9.996-11.992-15.73-14.926-2.266-1.199-5.867-2.132-7.867-2.132-3.2 0-2.399.8 4.933 4.664zm-581.308-.134c0 1.333 20.531 16.794 22.398 16.794 2.535 0 2.934.402-9.199-8.395-11.867-8.398-13.2-9.332-13.2-8.398zm394.648 4.134c0 1.863 10.801 15.593 11.602 14.793.398-.399-.801-3.067-2.801-5.996-4-5.73-8.8-10.532-8.8-8.797zm-309.32 5.332c-2.531 2.531-3.863 4.664-3.2 4.664 1.47 0 6-4.531 7.735-7.73 1.598-2.801.133-1.868-4.535 3.066z" id="Path"/><path d="M1158.484 834.074c2.801 4.133 5.465 5.598 5.465 3.2 0-1.2-3.332-4.399-6.531-6.266-1.2-.664-.668.8 1.066 3.066zm98.93-.398c0 .664.797 2.531 1.863 3.863 2.934 3.867 2.403 10.262-1.199 15.461-4.797 7.063-14.93 11.996-26.797 13.195-5.468.532-10 .664-10 .399 0-.266 2-2.93 4.532-5.996 4.933-6.266 7.468-10.532 7.468-13.063 0-.933-1.734 1.067-4 4.531-5.601 8.93-15.066 14.395-29.199 16.926-9.602 1.735-11.2 1.2-9.465-3.332 1.73-4.398.399-4.262-8.8 1.336l-7.735 4.664h12c14.266 0 61.332-2.398 65.598-3.332 1.734-.402 2.933-1.734 2.933-3.332 0-1.469 2.133-4.664 4.664-7.2 7.336-7.327 7.735-14.394 1.336-21.722-1.734-2-3.199-3.199-3.199-2.398zm-458.383 7.594c-4.664 1.203-6 3.734-2 3.734 3.067-.133 8.934-3.465 7.469-4.266-.668-.398-3.2-.133-5.469.532zm-480.379 4.265c0 .535.934 2.934 1.868 5.465 2.535 5.73 5.332 6.398 3.332.8-1.332-3.597-5.2-8.265-5.2-6.265zM500.113 849c0 4.398.133 4.531 1.332 1.469.801-2.133.801-3.735-.132-4.664-.934-.934-1.333.133-1.2 3.195zm271.453-3.062c2.399.265 6.668.265 9.332 0 2.801-.27.934-.536-4.265-.536-5.067 0-7.332.266-5.067.535zM1108.219 849c0 2.535.265 3.602.668 2.266.265-1.2.265-3.332 0-4.664-.403-1.2-.668-.133-.668 2.398zm-877.961 4c6.265 8.398 11.465 10.93 21.465 10.395l7.597-.399-8.664-3.2c-9.465-3.464-18.933-8.53-21.332-11.46-.933-1.066-2.133-2-2.8-2-.669 0 .933 2.934 3.734 6.664zm251.452-2c0 2.934.27 4 .536 2.266.266-1.598.266-3.996 0-5.332-.398-1.2-.668.136-.535 3.066zm807.567 1.867c-3.332 3.465-8.132 7.196-10.664 8.262-2.535 1.2-6.133 2.8-8 3.601-2.8 1.2-1.734 1.465 7.067 1.465 9.863.133 10.398 0 9.597-2.53-.664-2 .668-4.532 4.535-9.2 8.665-10.262 6.934-11.328-2.535-1.598zm-846.097 1.867c.668 8.395 6.132 19.59 9.468 19.59 2.797 0 2.532-1.066-1.336-5.465-3.066-3.73-6-11.328-6-15.859 0-1.066-.664-2.934-1.464-4-1.067-1.465-1.2 0-.668 5.734zm12.8-1.468c1.067 6.797 4.399 13.73 9.067 18.66 5.465 5.863 6 4.265.933-2.399-2.668-3.332-5.734-9.73-7.066-13.996-2.668-9.195-4.266-10.394-2.934-2.265zm679.973-.797c0 1.863.531 3.062 1.332 2.531.8-.402 1.332-2 1.332-3.465 0-1.336-.531-2.535-1.332-2.535-.668 0-1.332 1.602-1.332 3.469zm-782.637 1.199c0 .266 1.868 2.664 4.137 5.195 2.266 2.668 4.531 6.399 5.067 8.399 1.066 4.133 5.73 5.597 17.464 5.597h6l-9.601-4.398c-5.2-2.531-12.133-6.93-15.465-9.996-5.465-5.067-7.602-6.399-7.602-4.797zm-22.398 9.996c.668 2.266 2 4.399 2.8 4.93 2.266 1.332 18.266 1.597 18.266.265 0-.664-1.066-1.199-2.265-1.199-1.332 0-6-1.863-10.399-3.996-4.402-2.133-8.402-4-8.933-4-.535 0-.266 1.867.531 4zm830.23-1.867c-2 2.531-12.664 7.996-21.863 11.328l-6.668 2.398 12-.265c8.399-.133 12-.801 12.133-2 .133-.797.266-2.133.398-2.93 0-.668 2-3.332 4.27-6 2.266-2.531 3.598-4.664 2.797-4.664-.664 0-2 .934-3.067 2.133zm-35.863 6.663c-4.668 4-11.2 8.532-14.398 9.997-3.067 1.598-5.602 3.066-5.336 3.2.933.933 19.734-3.067 21.469-4.532 2-1.469 8.132-14.66 7.332-15.46-.266-.134-4.266 2.929-9.067 6.796zm-47.73-2.8c-1.868 3.867.265 4.531 2.398.8 1.602-3.198 1.735-4.132.266-4.132-.664 0-1.864 1.469-2.664 3.332zM755.3 900.848c-6.132.668-8.132 1.332-8.398 3.066-.933 5.2 14.399 4.664 26.664-.934l7.067-3.199-8.664.133c-4.801.133-12.27.535-16.668.934zm-593.972-56.645c0 1.867 4.797 6.133 7.067 6.133 1.73 0-1.602-5.2-4.403-6.664-2.133-1.067-2.664-1.067-2.664.531zm503.977 77.437c0 1.2 9.867 4.798 12 4.266 1.332-.27.53-1.199-2.266-2.668-4-2.133-9.734-3.066-9.734-1.597zm-24 11.594c0 4 5.066 21.059 6.265 21.059.934 0-.664-11.328-2.53-17.324-1.868-6.266-3.735-8.133-3.735-3.735zm-12 3.332c.136 2.399 5.203 23.993 6.535 27.059l1.332 3.332v-3.2c.133-4.53-5.2-26.655-6.664-27.589-.668-.398-1.203-.266-1.203.398zm607.976 51.047c-1.734 3.465-2.668 7.598-2.535 12.262l.133 7.066 1.336-5.597c2-9.2 4.664-9.465 14.133-1.336 9.73 8.133 23.73 23.86 30.398 33.855 2.531 3.996 8.399 14.926 12.934 24.524 9.332 19.992 11.863 21.058 3.597 1.597-9.867-22.921-17.73-34.918-35.465-53.976-7.066-7.598-14.398-15.996-16.265-18.793-1.735-2.668-3.735-4.934-4.399-4.934-.668 0-2.402 2.403-3.867 5.332zm-4 27.325c-.933 1.199-1.336 2.53-.8 2.93 1.066 1.202 5.066-1.2 5.867-3.333.664-2.265-3.067-1.996-5.067.403zm70.797 73.304c0 4.133.266 4.797 1.2 3.067.8-1.336.933-3.332.132-5.332-1.2-2.668-1.332-2.399-1.332 2.265zm4.266 25.324c0 4.399.265 5.996.535 3.598.266-2.398.266-6 0-7.996-.27-2-.535 0-.535 4.398zm-4.266 25.321c0 4.133.266 4.8 1.2 3.066.8-1.332.933-3.332.132-5.332-1.2-2.664-1.332-2.398-1.332 2.266zm-2 15.063c-4 7.73-14.265 33.85-13.601 34.519.933.933 7.066-11.461 12.402-25.324 4.531-11.727 5.2-16.926 1.2-9.196zm-846.765-102.36c-2 .8-.934 1.2 3.867 1.2 3.601.132 6.265-.134 6-.4-1.465-1.203-7.465-1.734-9.868-.8zm21.468 2.797c.93 1.468 18.531 10.531 20.531 10.531 2.934 0-.265-2.8-7.066-6.266-8.133-3.996-14.668-6.129-13.465-4.265zm11.598 42.117c2 .266 5.2.266 7.332 0 2-.266.27-.531-3.73-.531s-5.735.265-3.602.53zm-101.461 28.656c-1.867 1.867-2.133 6.399-.535 6.399.668 0 2.8-1.868 4.933-4l3.868-3.996h-3.332c-1.868 0-4 .664-4.934 1.597zm12.398 2.399c-.535.8.934 1.332 3.602 1.332 3.332 0 3.863-.399 2.398-1.332-2.535-1.73-4.933-1.73-6 0zm14 4c2.664 1.73 5.332 1.73 5.332 0 0-.801-1.601-1.332-3.597-1.332-2.934 0-3.336.265-1.735 1.332zm827.965-22.661c0 .668 1.598 1.336 3.465 1.336 1.867 0 3.066-.535 2.535-1.336-.402-.796-2-1.332-3.468-1.332-1.333 0-2.532.536-2.532 1.332zm-15.601 3.602c-9.864 2.266-11.332 4.531-2 2.93 7.601-1.2 10.933-2.399 10.933-3.996 0-.668-.133-1.2-.265-1.067-.266 0-4.133.934-8.668 2.133zm-42.399 9.863c-24.133 5.73-37.195 9.461-38.664 10.926-.8.8-.398.934 1.332.535 6.403-1.734 23.332-3.867 25.2-3.199 1.203.531 2.132 2.266 2.132 3.863 0 6.133 2.27 6.801 3.067.934.8-6.262 3.07-8.527 10.27-10.527 2.53-.668 8.53-2.399 13.331-3.868 14.133-4.129 2.266-3.199-16.668 1.336zm-16.531 36.785c-2.398 5.063-6.133 11.993-8.398 15.461-4.801 7.461-4.27 9.594.796 3.598 5.204-6.133 10.133-15.195 12.27-21.992 2.531-8.797.398-7.332-4.668 2.933zm-19.465 26.657c-1.469 1.066-9.2 5.328-17.332 9.195-11.867 5.863-13.734 7.195-9.601 6.664 7.066-.934 22.668-8.266 27.066-12.93 4.133-4.265 4-6.129-.133-2.93zm-66.398 13.726c.8.934 4.398 2 8 2.266 5.066.535 6.133.398 4.8-.934-.8-.933-4.402-2-8-2.265-5.066-.532-6.132-.399-4.8.933zm-611.172 99.563c1.2.265 3.332.265 4.664 0 1.2-.403.133-.668-2.399-.668-2.535 0-3.601.265-2.265.668zm-15.735 5.328c-11.066 7.2-28.398 27.191-27.066 31.191.27.93 3.336-2.27 6.668-6.933 6.664-9.328 14.934-17.594 23.598-23.192 2.933-1.996 5.468-3.863 5.468-4.129 0-1.468-3.867 0-8.668 3.063zm-33.332 48.648c-.53 1.332-.53 3.465 0 4.664 1.067 2.266 1.067 2.266 1.602 0 .398-1.199.398-3.332 0-4.664-.535-2.132-.535-2.132-1.602 0zm63.332 12.664c0 5.73 10.399 17.86 20.266 23.59 3.2 1.73 9.332 3.863 13.598 4.664 9.601 1.735 10.133 1.735 10.133.266 0-.664-2.801-1.465-6.266-1.996-13.465-1.735-26.664-10.797-32.399-22.125-3.066-6-5.332-7.863-5.332-4.399zm-62.398 13.726c0 2.532.266 3.599.668 2.267.266-1.2.266-3.332 0-4.665-.402-1.199-.668-.132-.668 2.399zm136.66 17.993c-1.199 3.332-1.597 6-.933 6 1.468 0 3.336-3.469 4.535-8.398 1.465-5.864-1.469-4.133-3.602 2.398zm-131.594 3.465c-.132 5.73 14.664 22.39 28.266 31.59 14.266 9.73 18.934 11.328 35.598 11.726 12.933.27 14.133.27 7.468-.796-30-4.266-48.933-14.13-62-32.122-9.597-13.195-9.199-12.664-9.332-10.398zm118.129 20.527c-5.734 6.262-9.734 11.328-9.066 11.328 1.598 0 20.266-19.726 20.266-21.457 0-.668-.266-1.199-.403-1.199-.265 0-5.199 5.063-10.797 11.328zm-25.067 17.461c-2.132 1.063-3.733 2.266-3.733 2.532 0 1.73 5.336.398 8.132-2 3.868-3.2 1.067-3.598-4.398-.532zm552.911-143.414c-.402.668-.402 2 0 2.668.934 1.598 6-.668 6-2.668 0-1.73-4.934-1.73-6 0zm11.731 3.602c1.203.265 3.07.265 4 0 .8-.403-.133-.668-2.399-.668-2.133 0-2.933.265-1.601.668zm11.601 2.133c0 .265 3.332 2.796 7.465 5.597 10.535 7.328 21.2 19.59 27.066 31.453 2.801 5.598 5.47 10.93 5.735 11.996.398 1.067 1.199 1.465 1.73.934 1.735-1.734-10.797-25.86-16.93-32.523-8.933-9.727-25.066-20.926-25.066-17.457zm105.863 24.121c-.8 2.265 2.664 7.465 5.067 7.465 1.597 0 0-5.465-2.403-7.864-1.464-1.734-1.867-1.601-2.664.399zm-126.128 28.39c-.801 9.996-3.2 14.926-13.735 27.055-4.664 5.465-8.265 10.262-7.863 10.664 1.066.934 18.797-18.129 21.2-22.793 2.398-4.664 4.265-22.523 2.398-22.523-.801 0-1.735 3.464-2 7.597zm59.73 34.785c-1.2 2.399-2 5.465-1.734 6.665.402 1.601 1.199.667 2.8-2.797 2.934-6.532 2-9.73-1.066-3.868zm-6.266 17.196c-4.668 5.597-5.468 7.062-4.132 7.062 1.597 0 7.597-7.863 6.664-8.797-.399-.265-1.465.536-2.532 1.735zm-15.332 18.523c-4.27 3.332-12.27 8.664-17.734 11.598-5.465 2.93-9.332 5.598-8.531 5.863 3.332 1.2 24.53-11.863 31.597-19.457 5.465-5.734 3.868-5.2-5.332 1.996zm-54.132 20.125c3.066.27 8.132.27 11.332 0 3.066-.265.535-.531-5.73-.531-6.27 0-8.802.266-5.602.531zm179.324-103.957c-3.73 1.867-5.864 4.399-3.73 4.399 1.597 0 10-4.664 10-5.598 0-1.469-1.337-1.2-6.27 1.2zm18.668 13.992c.668 3.2 1.734 6.934 2.398 8.399.8 2.133 1.067 1.867 1.067-1.735.132-3.73-2.934-12.261-4.399-12.261-.266 0 .133 2.535.934 5.597zm5.066 22.395c0 5.328.266 5.598 1.465 2.93 1.066-2.133 1.066-3.73 0-5.997-1.2-2.53-1.465-2.265-1.465 3.067zm.668 28.789c-.402 1.2-.8 5.73-.668 10.262l.133 8.261 1.734-5.332c2.133-6.129 2.532-15.324.801-15.324-.668 0-1.601.93-2 2.133zm-4.137 26.121c-.53 2.398-.265 5.863.403 7.598 1.066 3.066 1.199 2.933 2.668-2.399 1.332-5.73.93-9.465-1.203-9.465-.532 0-1.465 2-1.868 4.266zm-15.199 41.449c-1.598 2.668-2.797 5.598-2.531 6.532.265.8 1.867-.665 3.601-3.333 1.598-2.664 2.797-5.597 2.532-6.53-.266-.798-1.868.667-3.602 3.331zm-14.797 21.727c-16.265 18.793-17.867 21.324-7.468 11.195 9.867-9.465 19.468-21.457 17.199-21.191-.532 0-4.93 4.531-9.73 9.996zm-34.133 30.519c-3.597 2.535-5.597 4.668-4.398 4.668 2 0 13.2-7.332 13.2-8.664 0-1.601-2.669-.402-8.802 3.996zm-21.73 11.332c-9.734 3.864-14.402 6.664-10.934 6.664 2.399 0 21.332-8 22.266-9.464 1.066-1.868-.668-1.465-11.332 2.8zm-24.402 8.93c1.601.266 4 .266 5.336 0 1.199-.402-.133-.668-3.067-.535-2.933 0-4 .266-2.27.535zm-853.028-118.488c0 3.465 7.067 28.254 8.266 28.254 1.734 0 1.332-3.73-1.734-14.793-2.665-9.73-6.399-17.594-6.532-13.461z" id="Path"/></g></g></svg>