<svg width="93" height="441" xmlns="http://www.w3.org/2000/svg" xmlns:xlink="http://www.w3.org/1999/xlink"><defs><path id="path-1" d="M0 0h5v4H0z"/><path d="M.043 3.375s.754-.656 1.805-.656c1.054 0 2.18.511 2.18.511L3.351.816H.57L.043 3.375" id="path-3"/><path id="path-5" d="M0 0h92v570H0z"/><path id="path-7" d="M.383.418h23.144v1.766H.383z"/><path id="path-9" d="M0 0h92v570H0z"/><path id="path-11" d="M0 0h12v15H0z"/><path id="path-13" d="M.375 14.086h8.926l2.004-11.598L7.117.313 2.563 1.94.374 14.086"/><path id="path-15" d="M0 0h92v570H0z"/><path id="path-17" d="M0 0h12v15H0z"/><path id="path-19" d="M11.805 14.07H3.46L.859 2.668 4.152.496 7.43 1.582l4.375 12.488"/><path id="path-21" d="M0 0h92v570H0z"/></defs><g id="Page-1" fill="none" stroke="#00C4BA" stroke-width="1" fill-rule="evenodd"><g id="oneRocketSoyuz-bg" transform="translate(0 1)"><path id="Path" stroke="#00C4BA" stroke-width=".636" stroke-linecap="square" d="M34.383 172.066h23.144v1.766H34.383z"/><path id="Path" stroke="#00C4BA" stroke-width=".636" stroke-linecap="round" stroke-linejoin="round" d="M54.02 198.957l-.008 6.856m.008-6.856l-.008 6.856m-20.524 69.082l24.719-.086m-24.719.086l24.719-.086m-24.898-27.094l25.379-.039m-25.379.039l25.379-.039m-24.875-14.238l24.644-.036m-24.644.036l24.644-.036M34.25 219.711l23.328-.039m-23.328.039l23.328-.039m-25.144 45.555l27.281-.086m-27.281.086l27.281-.086m-26.918-3.719l26.98-.086m-26.98.086l26.98-.086M34.281 205.86l-2 60.265 27.739.086-2.977-60.352z"/><path id="Path" stroke="#00C4BA" stroke-width=".636" stroke-linecap="round" stroke-linejoin="round" d="M34.281 205.86l-2 60.265 27.739.086-2.977-60.352z"/><path id="Path" stroke="#00C4BA" stroke-width=".636" stroke-linecap="round" stroke-linejoin="round" d="M53.316 203.68h-1.504l.993 10.027 1.203 52.531-3.313 32.91 1.207 4.98 4.211-37.89-1.656-52.531z"/><path id="Path" stroke="#00C4BA" stroke-width=".636" stroke-linecap="round" stroke-linejoin="round" d="M53.316 203.68h-1.504l.993 10.027 1.203 52.531-3.313 32.91 1.207 4.98 4.211-37.89-1.656-52.531zM46 205.859l-.008 60.188M46 205.859l-.008 60.188m-21.695 38.828l-8.64 68.207s4.523 0 9.347.305c4.824.3 9.648 1.207 9.648 1.207s4.825-2.114 10.856-2.114 11.46 1.508 11.46 1.508 3.919-.3 9.95-.906c6.031-.602 9.371-.465 9.371-.465l-7.969-68.344-44.023.602z"/><path d="M24.297 304.875l-8.64 68.207s4.523 0 9.347.305c4.824.3 9.648 1.207 9.648 1.207s4.825-2.114 10.856-2.114 11.46 1.508 11.46 1.508 3.919-.3 9.95-.906c6.031-.602 9.371-.465 9.371-.465l-7.969-68.344-44.023.602z" id="Path" stroke="#00C4BA" stroke-width=".636" stroke-linecap="round" stroke-linejoin="round"/><path d="M17.36 369.203s4.222.29 8.445.578c4.218.293 9.949.875 9.949.875s4.523-1.746 11.156-1.746c6.633 0 10.938 1.746 10.938 1.746s2.332-.582 9.265-1.164c6.938-.582 8.649-.949 8.649-.949" id="Path" stroke="#00C4BA" stroke-width=".636" stroke-linecap="round" stroke-linejoin="round"/><path d="M17.36 369.203s4.222.29 8.445.578c4.218.293 9.949.875 9.949.875s4.523-1.746 11.156-1.746c6.633 0 10.938 1.746 10.938 1.746s2.332-.582 9.265-1.164c6.938-.582 8.649-.949 8.649-.949m-57.196-11.738s4.012 0 8.02.289c4.012.293 9.453.875 9.453.875s4.3-1.75 10.602-1.75c6.3 0 9.277 1.75 9.277 1.75s3.328-.582 9.914-1.164c6.59-.586 8.606-.996 8.606-.996" id="Path" stroke="#00C4BA" stroke-width=".636" stroke-linecap="round" stroke-linejoin="round"/><path d="M18.566 356.805s4.012 0 8.02.289c4.012.293 9.453.875 9.453.875s4.3-1.75 10.602-1.75c6.3 0 9.277 1.75 9.277 1.75s3.328-.582 9.914-1.164c6.59-.586 8.606-.996 8.606-.996m-54.665-9.59s3.797 0 7.598.293c3.8.297 8.957.883 8.957.883s4.07-2.348 10.043-2.348c5.969 0 8.938 1.976 8.938 1.976s3.004-.804 9.242-1.39c6.242-.586 8.62-.957 8.62-.957" id="Path" stroke="#00C4BA" stroke-width=".636" stroke-linecap="round" stroke-linejoin="round"/><path d="M19.773 346.219s3.797 0 7.598.293c3.8.297 8.957.883 8.957.883s4.07-2.348 10.043-2.348c5.969 0 8.938 1.976 8.938 1.976s3.004-.804 9.242-1.39c6.242-.586 8.62-.957 8.62-.957M20.98 336.55s3.555 0 7.114.294c3.558.293 8.386.883 8.386.883s3.81-2.352 9.403-2.352c5.59 0 9.398 1.762 9.398 1.762s1.782-.586 7.625-1.172c5.844-.59 8.895-1.176 8.895-1.176" id="Path" stroke="#00C4BA" stroke-width=".636" stroke-linecap="round" stroke-linejoin="round"/><path d="M20.98 336.55s3.555 0 7.114.294c3.558.293 8.386.883 8.386.883s3.81-2.352 9.403-2.352c5.59 0 9.398 1.762 9.398 1.762s1.782-.586 7.625-1.172c5.844-.59 8.895-1.176 8.895-1.176m-49.613-7.906s3.378 0 6.757.293c3.383.293 7.97.883 7.97.883s3.62-2.352 8.933-2.352c5.312 0 8.933 1.762 8.933 1.762s1.692-.586 7.246-1.172c5.555-.59 8.453-1.176 8.453-1.176" id="Path" stroke="#00C4BA" stroke-width=".636" stroke-linecap="round" stroke-linejoin="round"/><path d="M22.188 326.883s3.378 0 6.757.293c3.383.293 7.97.883 7.97.883s3.62-2.352 8.933-2.352c5.312 0 8.933 1.762 8.933 1.762s1.692-.586 7.246-1.172c5.555-.59 8.453-1.176 8.453-1.176m-47.39-8.516s3.223 0 6.45.293c3.222.293 7.6.586 7.6.586s3.454-2.343 8.52-2.343c5.07 0 8.524 1.757 8.524 1.757s1.613-.586 6.91-1.171c5.297-.586 8.062-.88 8.062-.88" id="Path" stroke="#00C4BA" stroke-width=".636" stroke-linecap="round" stroke-linejoin="round"/><path d="M23.09 316.605s3.223 0 6.45.293c3.222.293 7.6.586 7.6.586s3.454-2.343 8.52-2.343c5.07 0 8.524 1.757 8.524 1.757s1.613-.586 6.91-1.171c5.297-.586 8.062-.88 8.062-.88m-43.351 1.813l-1.219 9.887m1.219-9.887l-1.219 9.887m-.289 10.055l-1.219 9.281m1.219-9.281l-1.219 9.281m-.59 11.262l-1.218 12m1.218-12l-1.218 12m21.343-62.754l-.316 8.675m.316-8.675l-.316 8.675m-.207 11.563l-.313 8.68m.313-8.68l-.313 8.68m-.289 10.66l-.316 10.488m.316-10.488l-.316 10.488m24.359-50.371l1.496 8.98m-1.496-8.98l1.496 8.98m1 10.657l1.496 8.98m-1.496-8.98l1.496 8.98m1.219 10.36l1.797 10.789m-1.797-10.789l1.797 10.789m-18.383 1.593l.59 11.7m-.59-11.7l.59 11.7m-1.797-33.149l.59 9.586m-.59-9.586l.59 9.586m-1.797-29.828l.289 10.492m-.289-10.492l.289 10.492m3.629-20.461l-.012 33.149m.012-33.149l-.012 33.149" id="Path" stroke="#00C4BA" stroke-width=".636" stroke-linecap="round" stroke-linejoin="round"/><path id="Path" stroke="#00C4BA" stroke-width=".636" stroke-linecap="round" stroke-linejoin="round" d="M56.96 373.816l-1.526-36.347-2.266-31.383"/><path id="Path" stroke="#00C4BA" stroke-width=".636" stroke-linecap="round" stroke-linejoin="round" d="M56.96 373.816l-1.526-36.347-2.266-31.383m-18.07 68.5l5.09-68.801m-5.09 68.801l5.09-68.801m-3.758-7.555l20.043-.082m-20.043.082l20.043-.082"/><path id="Path" fill="#00555B" d="M32.281 266.281h1.797v3.922h-1.797z"/><path id="Path" stroke="#00C4BA" stroke-width=".636" fill="#00555B" stroke-linecap="square" d="M32.281 266.281h1.797v3.922h-1.797z"/><path id="Path" stroke="#00C4BA" stroke-width=".636" stroke-linecap="square" d="M32.281 266.281h1.797v3.922h-1.797z"/><path d="M33.2 272.188c-.555-.899-.59-1.75-.075-1.887.52-.137 1.402.492 1.957 1.39.555.899.59 1.75.074 1.887-.52.137-1.402-.492-1.957-1.39z" id="Path" stroke="#00C4BA" stroke-width=".636" stroke-linecap="round" stroke-linejoin="round"/><path d="M33.2 272.188c-.555-.899-.59-1.75-.075-1.887.52-.137 1.402.492 1.957 1.39.555.899.59 1.75.074 1.887-.52.137-1.402-.492-1.957-1.39zm-.4-4.536c-.452.903-.48 1.754-.058 1.887.418.137 1.137-.488 1.59-1.387.453-.902.48-1.754.059-1.89-.418-.137-1.137.492-1.59 1.39z" id="Path" stroke="#00C4BA" stroke-width=".636" stroke-linecap="round" stroke-linejoin="round"/><path d="M32.8 267.652c-.452.903-.48 1.754-.058 1.887.418.137 1.137-.488 1.59-1.387.453-.902.48-1.754.059-1.89-.418-.137-1.137.492-1.59 1.39z" id="Path" stroke="#00C4BA" stroke-width=".636" stroke-linecap="round" stroke-linejoin="round"/><path d="M32.277 266.281l-.527 1.66-1.059.075.606.605-6.781 36.332s5.285.563 6.328.606c1.96.074 6.476.753 6.476.753l-4.593-34.375v-2.261l-.45-3.395z" id="Path" stroke="#00C4BA" stroke-width=".636" stroke-linecap="round" stroke-linejoin="round"/><path d="M32.277 266.281l-.527 1.66-1.059.075.606.605-6.781 36.332s5.285.563 6.328.606c1.96.074 6.476.753 6.476.753l-4.593-34.375v-2.261l-.45-3.395zm-2.179 10.348l3.152.445m-3.152-.445l3.152.445m-3.531 1.672l3.605.442m-3.605-.442l3.605.442m-2.926-4.52l2.325.141m-2.325-.141l2.325.141m-1.797-3.012l1.644-.008m-1.644.008l1.644-.008" id="Path" stroke="#00C4BA" stroke-width=".636" stroke-linecap="round" stroke-linejoin="round"/><path d="M32.797 275.793c0 .5-.317.902-.707.902-.395 0-.711-.402-.711-.902 0-.496.316-.898.71-.898.391 0 .708.402.708.898z" id="Path" stroke="#00C4BA" stroke-width=".636" stroke-linecap="round" stroke-linejoin="round"/><path d="M32.797 275.793c0 .5-.317.902-.707.902-.395 0-.711-.402-.711-.902 0-.496.316-.898.71-.898.391 0 .708.402.708.898zm-3.543 4.312l-1.274.97-.523 2.16 1.2.742-1.348 1.418.972.746z" id="Path" stroke="#00C4BA" stroke-width=".636" stroke-linecap="round" stroke-linejoin="round"/><path id="Path" stroke="#00C4BA" stroke-width=".636" stroke-linecap="round" stroke-linejoin="round" d="M29.254 280.105l-1.274.97-.523 2.16 1.2.742-1.348 1.418.972.746z"/><path id="Path" fill="#00555B" d="M43.29 266.36h5.19v5.202h-5.19z"/><path id="Path" stroke="#00C4BA" stroke-width=".636" fill="#00555B" stroke-linecap="square" d="M43.29 266.36h5.19v5.202h-5.19z"/><path id="Path" stroke="#00C4BA" stroke-width=".636" stroke-linecap="square" d="M43.29 266.36h5.19v5.202h-5.19z"/><path id="Path" stroke="#00C4BA" stroke-width=".636" stroke-linecap="round" stroke-linejoin="round" d="M33.488 278.219l24.418-.086m-24.418.086l24.418-.086m-7.226-3.238l-.012 2.937m.012-2.937l-.012 2.937m4.687-3.242l1.043-8.09m-1.043 8.09l1.043-8.09m.915-.066l1.343 3.238m-1.343-3.238l1.343 3.238m-13.996-2.02c.453.903.48 1.754.059 1.887-.418.137-1.137-.488-1.59-1.387-.453-.902-.48-1.754-.059-1.89.418-.137 1.137.492 1.59 1.39z"/><path d="M44.66 267.652c.453.903.48 1.754.059 1.887-.418.137-1.137-.488-1.59-1.387-.453-.902-.48-1.754-.059-1.89.418-.137 1.137.492 1.59 1.39zm2.54 0c-.454.903-.481 1.754-.06 1.887.422.137 1.141-.488 1.594-1.387.453-.902.48-1.754.059-1.89-.422-.137-1.14.492-1.594 1.39z" id="Path" stroke="#00C4BA" stroke-width=".636" stroke-linecap="round" stroke-linejoin="round"/><path d="M47.2 267.652c-.454.903-.481 1.754-.06 1.887.422.137 1.141-.488 1.594-1.387.453-.902.48-1.754.059-1.89-.422-.137-1.14.492-1.594 1.39zm-.302 2.59c0 .727-.421 1.32-.937 1.32s-.938-.593-.938-1.32c0-.726.422-1.316.938-1.316s.937.59.937 1.316z" id="Path" stroke="#00C4BA" stroke-width=".636" stroke-linecap="round" stroke-linejoin="round"/><path d="M46.898 270.242c0 .727-.421 1.32-.937 1.32s-.938-.593-.938-1.32c0-.726.422-1.316.938-1.316s.937.59.937 1.316z" id="Path" stroke="#00C4BA" stroke-width=".636" stroke-linecap="round" stroke-linejoin="round"/><path d="M45.094 271.418l-1.203 6.707-3.844 27.883s3.316-.906 6.027-.906c3.016 0 6.63.753 6.63.753l-4.52-27.73-1.582-6.707h-1.508z" id="Path" stroke="#00C4BA" stroke-width=".636" stroke-linecap="round" stroke-linejoin="round"/><path d="M45.094 271.418l-1.203 6.707-3.844 27.883s3.316-.906 6.027-.906c3.016 0 6.63.753 6.63.753l-4.52-27.73-1.582-6.707h-1.508z" id="Path" stroke="#00C4BA" stroke-width=".636" stroke-linecap="round" stroke-linejoin="round"/><path d="M46.074 279.574s-.449 1.41-.597 2.153c-.149.742 0 2.449 0 2.449h1.27s.148-1.633 0-2.375c-.15-.742-.673-2.227-.673-2.227z" id="Path" stroke="#00C4BA" stroke-width=".636" stroke-linecap="round" stroke-linejoin="round"/><path d="M46.074 279.574s-.449 1.41-.597 2.153c-.149.742 0 2.449 0 2.449h1.27s.148-1.633 0-2.375c-.15-.742-.673-2.227-.673-2.227z" id="Path" stroke="#00C4BA" stroke-width=".636" stroke-linecap="round" stroke-linejoin="round"/><path d="M46.52 285.914c0 .332-.149.602-.333.602-.183 0-.332-.27-.332-.602 0-.328.149-.598.333-.598.183 0 .332.27.332.598" id="Path" fill="#00555B"/><path d="M46.52 285.914c0 .332-.149.602-.333.602-.183 0-.332-.27-.332-.602 0-.328.149-.598.333-.598.183 0 .332.27.332.598z" id="Path" stroke="#00C4BA" stroke-width=".636" fill="#00555B" stroke-linecap="round" stroke-linejoin="round"/><path d="M46.52 285.914c0 .332-.149.602-.333.602-.183 0-.332-.27-.332-.602 0-.328.149-.598.333-.598.183 0 .332.27.332.598z" id="Path" stroke="#00C4BA" stroke-width=".636" stroke-linecap="round" stroke-linejoin="round"/><path id="Path" fill="#00555B" d="M43.738 280.406l.973 2.078v1.258l-1.422 1.188.45-4.524"/><path id="Path" stroke="#00C4BA" stroke-width=".636" fill="#00555B" stroke-linecap="round" stroke-linejoin="round" d="M43.738 280.406l.973 2.078v1.258l-1.422 1.188z"/><path id="Path" stroke="#00C4BA" stroke-width=".636" stroke-linecap="round" stroke-linejoin="round" d="M43.738 280.406l.973 2.078v1.258l-1.422 1.188z"/><g id="Clipped" transform="translate(44 274)"><mask id="mask-2" fill="#fff"><use xlink:href="#path-1"/></mask><g mask="url(#mask-2)"><mask id="mask-4" fill="#fff"><use xlink:href="#path-3"/></mask><g id="surface12-Clipped" mask="url(#mask-4)"><g transform="translate(-44 -397)"><mask id="mask-6" fill="#fff"><use xlink:href="#path-5"/></mask><g id="surface12" stroke="none" stroke-width="1" fill="none" fill-rule="evenodd" mask="url(#mask-6)"><path d="M.707.691h20.336v20.352H.707z" transform="translate(37 388)" fill="#00555B" fill-rule="nonzero" id="Path"/></g></g></g></g></g><path d="M44.043 277.375s.754-.656 1.805-.656c1.054 0 2.18.511 2.18.511l-.676-2.414H44.57l-.527 2.559z" id="Path" stroke="#00C4BA" stroke-width=".636" stroke-linecap="round" stroke-linejoin="round"/><path d="M44.043 277.375s.754-.656 1.805-.656c1.054 0 2.18.511 2.18.511l-.676-2.414H44.57l-.527 2.559zm.445-5.187c.555-.899.59-1.75.075-1.887-.52-.137-1.403.492-1.958 1.39-.554.899-.59 1.75-.074 1.887.52.137 1.403-.492 1.957-1.39z" id="Path" stroke="#00C4BA" stroke-width=".636" stroke-linecap="round" stroke-linejoin="round"/><path d="M44.488 272.188c.555-.899.59-1.75.075-1.887-.52-.137-1.403.492-1.958 1.39-.554.899-.59 1.75-.074 1.887.52.137 1.403-.492 1.957-1.39zm3.114 0c-.559-.899-.59-1.75-.075-1.887.516-.137 1.399.492 1.957 1.39.555.899.586 1.75.07 1.887-.515.137-1.398-.492-1.952-1.39z" id="Path" stroke="#00C4BA" stroke-width=".636" stroke-linecap="round" stroke-linejoin="round"/><path d="M47.602 272.188c-.559-.899-.59-1.75-.075-1.887.516-.137 1.399.492 1.957 1.39.555.899.586 1.75.07 1.887-.515.137-1.398-.492-1.952-1.39z" id="Path" stroke="#00C4BA" stroke-width=".636" stroke-linecap="round" stroke-linejoin="round"/><path id="Path" fill="#00555B" d="M42.535 273.836h.367v.898h-.367z"/><path id="Path" stroke="#00C4BA" stroke-width=".636" fill="#00555B" stroke-linecap="square" d="M42.535 273.836h.367v.898h-.367z"/><path id="Path" stroke="#00C4BA" stroke-width=".636" stroke-linecap="square" d="M42.535 273.836h.367v.898h-.367z"/><path id="Path" fill="#00555B" d="M49.324 273.762h.364v.894h-.364z"/><path id="Path" stroke="#00C4BA" stroke-width=".636" fill="#00555B" stroke-linecap="square" d="M49.324 273.762h.364v.894h-.364z"/><path id="Path" stroke="#00C4BA" stroke-width=".636" stroke-linecap="square" d="M49.324 273.762h.364v.894h-.364zm-4.222-2.117h1.644v2.562h-1.644z"/><path id="Path" stroke="#00C4BA" stroke-width=".636" stroke-linecap="square" d="M45.102 271.645h1.644v2.562h-1.644z"/><path id="Path" fill="#00555B" d="M57.617 266.281h1.797v3.922h-1.797z"/><path id="Path" stroke="#00C4BA" stroke-width=".636" fill="#00555B" stroke-linecap="square" d="M57.617 266.281h1.797v3.922h-1.797z"/><path id="Path" stroke="#00C4BA" stroke-width=".636" stroke-linecap="square" d="M57.617 266.281h1.797v3.922h-1.797z"/><path d="M58.5 272.188c.555-.899.59-1.75.07-1.887-.515-.137-1.398.492-1.953 1.39-.558.899-.59 1.75-.074 1.887s1.398-.492 1.957-1.39z" id="Path" stroke="#00C4BA" stroke-width=".636" stroke-linecap="round" stroke-linejoin="round"/><path d="M58.5 272.188c.555-.899.59-1.75.07-1.887-.515-.137-1.398.492-1.953 1.39-.558.899-.59 1.75-.074 1.887s1.398-.492 1.957-1.39zm.398-4.536c.454.903.48 1.754.059 1.887-.422.137-1.14-.488-1.594-1.387-.453-.902-.48-1.754-.058-1.89.422-.137 1.14.492 1.593 1.39z" id="Path" stroke="#00C4BA" stroke-width=".636" stroke-linecap="round" stroke-linejoin="round"/><path d="M58.898 267.652c.454.903.48 1.754.059 1.887-.422.137-1.14-.488-1.594-1.387-.453-.902-.48-1.754-.058-1.89.422-.137 1.14.492 1.593 1.39z" id="Path" stroke="#00C4BA" stroke-width=".636" stroke-linecap="round" stroke-linejoin="round"/><path d="M59.426 266.281l.527 1.66 1.055.075-.606.605 7.985 35.879s-4.684.41-5.727.453c-1.957.074-7.078.902-7.078.902l3.39-33.918v-2.261l.454-3.395z" id="Path" stroke="#00C4BA" stroke-width=".636" stroke-linecap="round" stroke-linejoin="round"/><path d="M59.426 266.281l.527 1.66 1.055.075-.606.605 7.985 35.879s-4.684.41-5.727.453c-1.957.074-7.078.902-7.078.902l3.39-33.918v-2.261l.454-3.395zm2.187 10.348l-3.179.445m3.179-.445l-3.179.445m3.558 1.672l-3.633.442m3.633-.442l-3.633.442m2.954-4.52l-2.348.141m2.348-.141l-2.348.141m1.82-3.012l-1.672-.008m1.672.008l-1.672-.008" id="Path" stroke="#00C4BA" stroke-width=".636" stroke-linecap="round" stroke-linejoin="round"/><path d="M60.32 275.793c0 .5-.32.902-.71.902-.391 0-.708-.402-.708-.902 0-.496.317-.898.707-.898.391 0 .711.402.711.898z" id="Path" stroke="#00C4BA" stroke-width=".636" stroke-linecap="round" stroke-linejoin="round"/><path d="M60.32 275.793c0 .5-.32.902-.71.902-.391 0-.708-.402-.708-.902 0-.496.317-.898.707-.898.391 0 .711.402.711.898zm2.578 4.007l1.27.97.523 2.164-1.195.742 1.348 1.418-.973.742z" id="Path" stroke="#00C4BA" stroke-width=".636" stroke-linecap="round" stroke-linejoin="round"/><path id="Path" stroke="#00C4BA" stroke-width=".636" stroke-linecap="round" stroke-linejoin="round" d="M62.898 279.8l1.27.97.523 2.164-1.195.742 1.348 1.418-.973.742zm-32.5 7.782l1.497-8.469m-1.497 8.469l1.497-8.469m3.48 10.66l6.922-.085m-6.922.085l6.922-.085m8.008.085l6.922-.085m-6.922.085l6.922-.085m-16.122 8.308s3.16-1.726 4.97-1.726c1.808 0 5.421 1.437 5.421 1.437"/><path d="M41.105 297.996s3.16-1.726 4.97-1.726c1.808 0 5.421 1.437 5.421 1.437m-8.883-9.832s2.258-.52 3.762-.52 3.313.52 3.313.52" id="Path" stroke="#00C4BA" stroke-width=".636" stroke-linecap="round" stroke-linejoin="round"/><path d="M42.613 287.875s2.258-.52 3.762-.52 3.313.52 3.313.52m-5.567-.219l-.016-.082m.016.082l-.016-.082m.016.082l-.918 8.981m.918-8.981l-.918 8.981m-15.519-9.282l7.074.672m-7.074-.672l7.074.672m-8.582 8.543l9.789.672m-9.789-.672l9.789.672m-7.68 8.09l1.043-8.394m-1.043 8.394l1.043-8.394m27.156-.219l9.789-1.289m-9.789 1.289l9.789-1.289m-8.734-8.68l6.02-.84m-6.02.84l6.02-.84m-1.645.238l1.191 9.282m-1.191-9.282l1.191 9.282m-8.882-5.809l-1.52 14.871m1.52-14.871l-1.52 14.871m.164-.219l3.004.372m-3.004-.372l3.004.372m-18.687.386l2.699-.539m-2.699.539l2.699-.539" id="Path" stroke="#00C4BA" stroke-width=".636" stroke-linecap="round" stroke-linejoin="round"/><path id="Path" fill="#00555B" d="M62.66 279.5l-1.347 4.45 2.546-.15-1.199-4.3"/><path id="Path" stroke="#00C4BA" stroke-width=".636" fill="#00555B" stroke-linecap="round" stroke-linejoin="round" d="M62.66 279.5l-1.347 4.45 2.546-.15z"/><path id="Path" stroke="#00C4BA" stroke-width=".636" stroke-linecap="round" stroke-linejoin="round" d="M62.66 279.5l-1.347 4.45 2.546-.15zm-38.445 26.879s3.25.293 6.504.582c3.25.293 6.754 1.457 6.754 1.457s3.484-2.332 8.593-2.332c5.106 0 8.59 1.75 8.59 1.75s1.625-.582 6.965-1.164c5.344-.586 6.922-.586 6.922-.586"/><path d="M24.215 306.379s3.25.293 6.504.582c3.25.293 6.754 1.457 6.754 1.457s3.484-2.332 8.593-2.332c5.106 0 8.59 1.75 8.59 1.75s1.625-.582 6.965-1.164c5.344-.586 6.922-.586 6.922-.586" id="Path" stroke="#00C4BA" stroke-width=".636" stroke-linecap="round" stroke-linejoin="round"/><path id="Path" stroke="#00C4BA" stroke-width=".636" stroke-linecap="round" stroke-linejoin="round" d="M32.059 279.953l3.457 27.613 1.355 39.23.602-6.034.152-21.578-.305-13.125-3.91-26.106z"/><path id="Path" stroke="#00C4BA" stroke-width=".636" stroke-linecap="round" stroke-linejoin="round" d="M32.059 279.953l3.457 27.613 1.355 39.23.602-6.034.152-21.578-.305-13.125-3.91-26.106zM10.848 404.484c.84.516.359-.629 1.375-.629 1.02 0 .058.915 1.257.973 1.196.055.418-1.086 1.434-1.031 1.02.058.121 1.203 1.2 1.203 1.073 0 .476-1.145 1.433-1.086.957.055.062 1.18 1.437 1.254 1.016.059.477-1.2 1.434-1.2s.3 1.43 1.613 1.43c1.317 0 .301-1.43 1.38-1.43 1.073 0 .359 1.43 1.675 1.43 1.312 0 .477-1.312 1.672-1.199 1.199.113.281.977 1.316 1.086 1.04.11.54-.914 1.438-.973.894-.058 0 1.145 1.136 1.145 1.133 0 .356-1.031 1.133-.914.782.113.782.742.782.742"/><path d="M10.848 404.484c.84.516.359-.629 1.375-.629 1.02 0 .058.915 1.257.973 1.196.055.418-1.086 1.434-1.031 1.02.058.121 1.203 1.2 1.203 1.073 0 .476-1.145 1.433-1.086.957.055.062 1.18 1.437 1.254 1.016.059.477-1.2 1.434-1.2s.3 1.43 1.613 1.43c1.317 0 .301-1.43 1.38-1.43 1.073 0 .359 1.43 1.675 1.43 1.312 0 .477-1.312 1.672-1.199 1.199.113.281.977 1.316 1.086 1.04.11.54-.914 1.438-.973.894-.058 0 1.145 1.136 1.145 1.133 0 .356-1.031 1.133-.914.782.113.782.742.782.742m.25.352c1.011-.528.44-.235 1.671-.235 1.235 0 .18-.996 1.2-.996 1.203 0-.098.41 1.132.352 1.235-.059.313-1.465 1.618-1.465 1.304 0 .695.762 1.855.703 1.16-.058.484-1.348 2.152-1.348 1.668 0 .762.938 1.922.938s.075-1.461 1.668-1.461c1.594 0 .364 1.46 1.668 1.46 1.305 0 .305-1.288 1.563-1.288 1.195 0 .3 1.64 1.375 1.7 1.207.065.332-1.188 1.675-1.114 1.016.058-.011 1.582 1.079 1.64 1.086.059.656-1.113 1.734-.937.594.098.094.867.535 1.23.57.47 1.918-.468 1.918-.468.656 1.172 1.492 1.113 1.492 1.113" id="Path" stroke="#00C4BA" stroke-width=".636" stroke-linecap="round" stroke-linejoin="round"/><path d="M32.813 405.637c1.011-.528.44-.235 1.671-.235 1.235 0 .18-.996 1.2-.996 1.203 0-.098.41 1.132.352 1.235-.059.313-1.465 1.618-1.465 1.304 0 .695.762 1.855.703 1.16-.058.484-1.348 2.152-1.348 1.668 0 .762.938 1.922.938s.075-1.461 1.668-1.461c1.594 0 .364 1.46 1.668 1.46 1.305 0 .305-1.288 1.563-1.288 1.195 0 .3 1.64 1.375 1.7 1.207.065.332-1.188 1.675-1.114 1.016.058-.011 1.582 1.079 1.64 1.086.059.656-1.113 1.734-.937.594.098.094.867.535 1.23.57.47 1.918-.468 1.918-.468.656 1.172 1.492 1.113 1.492 1.113m22.032-2.501c-.79.595-.415-.612-1.43-.522-1.012.085.023.933-1.16 1.093-1.188.16-.516-1.07-1.528-.926-1.007.145-.007 1.235-1.078 1.325-1.074.093-.582-1.121-1.531-.985-.95.14.047 1.211-1.316 1.403-1.008.148-.586-1.18-1.54-1.098-.953.082-.167 1.48-1.48 1.594-1.309.11-.426-1.43-1.5-1.34-1.07.09-.227 1.488-1.539 1.598-1.309.113-.594-1.297-1.777-1.079-1.18.22-.188 1.016-1.211 1.22-1.024.198-.621-.888-1.52-.868-.898.016.106 1.16-1.027 1.258-1.133.097-.453-1.016-1.215-.832-.766.18-.707.82-.707.82" id="Path" stroke="#00C4BA" stroke-width=".636" stroke-linecap="round" stroke-linejoin="round"/><path d="M81.102 402.96c-.79.595-.415-.612-1.43-.522-1.012.085.023.933-1.16 1.093-1.188.16-.516-1.07-1.528-.926-1.007.145-.007 1.235-1.078 1.325-1.074.093-.582-1.121-1.531-.985-.95.14.047 1.211-1.316 1.403-1.008.148-.586-1.18-1.54-1.098-.953.082-.167 1.48-1.48 1.594-1.309.11-.426-1.43-1.5-1.34-1.07.09-.227 1.488-1.539 1.598-1.309.113-.594-1.297-1.777-1.079-1.18.22-.188 1.016-1.211 1.22-1.024.198-.621-.888-1.52-.868-.898.016.106 1.16-1.027 1.258-1.133.097-.453-1.016-1.215-.832-.766.18-.707.82-.707.82M14.598 380.75c.586.082.43-1.844 1.468-1.746 1.04.101-.144 1.508.957 1.508 1.102 0 .489-1.586 1.47-1.489.976.098.062 1.559 1.468 1.692 1.039.094.488-1.594 1.465-1.594.98 0 .304 1.89 1.652 1.89 1.344 0 .387-1.421 1.488-1.421 1.102 0 .286 1.777 1.63 1.777 1.343 0 .488-1.613 1.71-1.418 1.223.196.285 1.39 1.344 1.578 1.063.188.555-1.285 1.469-1.382.918-.098 0 1.585 1.164 1.585 1.16 0 .367-1.57 1.16-1.375.797.192.797.993.797.993" id="Path" stroke="#00C4BA" stroke-width=".636" stroke-linecap="round" stroke-linejoin="round"/><path d="M14.598 380.75c.586.082.43-1.844 1.468-1.746 1.04.101-.144 1.508.957 1.508 1.102 0 .489-1.586 1.47-1.489.976.098.062 1.559 1.468 1.692 1.039.094.488-1.594 1.465-1.594.98 0 .304 1.89 1.652 1.89 1.344 0 .387-1.421 1.488-1.421 1.102 0 .286 1.777 1.63 1.777 1.343 0 .488-1.613 1.71-1.418 1.223.196.285 1.39 1.344 1.578 1.063.188.555-1.285 1.469-1.382.918-.098 0 1.585 1.164 1.585 1.16 0 .367-1.57 1.16-1.375.797.192.797.993.797.993m.12.097c3.368-3.199 1.638-.355 3.493-.66.84-.137.188-1.262 1.356-1.262 1.168 0 .347.922 1.382.872 1.04-.051.2-1.793 1.688-1.793 1.496 0 1.012 1.175 2.05 1.175 1.04 0 .34-1.355 1.766-1.355s.414 1.355 1.582 1.355c1.168 0 .368-1.113 1.489-1.113 1.074 0 .8 1.488 1.765 1.535 1.078.059.457-1.015 1.5-.957.907.047.352 1.363 1.324 1.414.977.051.676-.785 1.637-.633.531.082 1.004 1.512 1.004 1.512.504.402 1.29-1.031 1.29-1.031" id="Path" stroke="#00C4BA" stroke-width=".636" stroke-linecap="round" stroke-linejoin="round"/><path d="M33.96 381.445c3.368-3.199 1.638-.355 3.493-.66.84-.137.188-1.262 1.356-1.262 1.168 0 .347.922 1.382.872 1.04-.051.2-1.793 1.688-1.793 1.496 0 1.012 1.175 2.05 1.175 1.04 0 .34-1.355 1.766-1.355s.414 1.355 1.582 1.355c1.168 0 .368-1.113 1.489-1.113 1.074 0 .8 1.488 1.765 1.535 1.078.059.457-1.015 1.5-.957.907.047.352 1.363 1.324 1.414.977.051.676-.785 1.637-.633.531.082 1.004 1.512 1.004 1.512.504.402 1.29-1.031 1.29-1.031" id="Path" stroke="#00C4BA" stroke-width=".636" stroke-linecap="round" stroke-linejoin="round"/><path d="M77.113 378.516c-1.316 2.39-1.656.355-2.633.441-.976.086.176.816-.968.977-1.14.16-.254-1.032-1.227-.887-.972.144.067.973-.965 1.062-1.035.094-.316-1.113-1.23-.976-.914.14.258.96-1.05 1.152-.974.149-.4-1.055-1.317-.973-.918.083.12 1.04-1.141 1.153-1.266.11-.547-.89-1.582-.797-1.031.09.035.863-1.227.973-1.265.113-.265-.926-1.406-.707-1.137.218-.328.953-1.316 1.152-.985.2-.36-.816-1.227-.8-.867.019-.238.964-1.054 1.066-.704.09-.141-1.157-.875-.977-.739.184-.63.176-.63.176" id="Path" stroke="#00C4BA" stroke-width=".636" stroke-linecap="round" stroke-linejoin="round"/><path d="M77.113 378.516c-1.316 2.39-1.656.355-2.633.441-.976.086.176.816-.968.977-1.14.16-.254-1.032-1.227-.887-.972.144.067.973-.965 1.062-1.035.094-.316-1.113-1.23-.976-.914.14.258.96-1.05 1.152-.974.149-.4-1.055-1.317-.973-.918.083.12 1.04-1.141 1.153-1.266.11-.547-.89-1.582-.797-1.031.09.035.863-1.227.973-1.265.113-.265-.926-1.406-.707-1.137.218-.328.953-1.316 1.152-.985.2-.36-.816-1.227-.8-.867.019-.238.964-1.054 1.066-.704.09-.141-1.157-.875-.977-.739.184-.63.176-.63.176" id="Path" stroke="#00C4BA" stroke-width=".636" stroke-linecap="round" stroke-linejoin="round"/><path id="Path" stroke="#00C4BA" stroke-width=".636" stroke-linecap="square" d="M72.86 374.773h2.081v2.747H72.86z"/><path id="Path" stroke="#00C4BA" stroke-width=".636" stroke-linecap="square" d="M72.86 374.773h2.081v2.747H72.86zm-13.301 1.277h1.625v1.833h-1.625z"/><path id="Path" stroke="#00C4BA" stroke-width=".636" stroke-linecap="square" d="M59.559 376.05h1.625v1.833h-1.625z"/><path id="Path" stroke="#00C4BA" stroke-width=".636" stroke-linecap="round" stroke-linejoin="round" d="M41.965 374.59l-1.992.535v2.395l1.992-.711z"/><path id="Path" stroke="#00C4BA" stroke-width=".636" stroke-linecap="round" stroke-linejoin="round" d="M41.965 374.59l-1.992.535v2.395l1.992-.711zm5.476-.274l1.903.09-.184 2.567-1.902-.356z"/><path id="Path" stroke="#00C4BA" stroke-width=".636" stroke-linecap="round" stroke-linejoin="round" d="M47.441 374.316l1.903.09-.184 2.567-1.902-.356z"/><path d="M46.152 375.55c0 .786-.28 1.419-.629 1.419-.347 0-.632-.633-.632-1.418 0-.781.285-1.418.632-1.418.348 0 .63.637.63 1.418" id="Path" fill="#00555B"/><path d="M46.152 375.55c0 .786-.28 1.419-.629 1.419-.347 0-.632-.633-.632-1.418 0-.781.285-1.418.632-1.418.348 0 .63.637.63 1.418z" id="Path" stroke="#00C4BA" stroke-width=".636" fill="#00555B" stroke-linecap="round" stroke-linejoin="round"/><path d="M46.152 375.55c0 .786-.28 1.419-.629 1.419-.347 0-.632-.633-.632-1.418 0-.781.285-1.418.632-1.418.348 0 .63.637.63 1.418z" id="Path" stroke="#00C4BA" stroke-width=".636" stroke-linecap="round" stroke-linejoin="round"/><path d="M46.063 374.777c0 .407-.262.735-.586.735-.325 0-.586-.328-.586-.735 0-.406.261-.734.586-.734.324 0 .586.328.586.734z" id="Path" stroke="#00C4BA" stroke-width=".636" stroke-linecap="round" stroke-linejoin="round"/><path d="M46.063 374.777c0 .407-.262.735-.586.735-.325 0-.586-.328-.586-.735 0-.406.261-.734.586-.734.324 0 .586.328.586.734zm5.297-.004l1.808.536-.09 3.03-1.902-.534z" id="Path" stroke="#00C4BA" stroke-width=".636" stroke-linecap="round" stroke-linejoin="round"/><path id="Path" stroke="#00C4BA" stroke-width=".636" stroke-linecap="round" stroke-linejoin="round" d="M51.36 374.773l1.808.536-.09 3.03-1.902-.534z"/><path id="Path" stroke="#00C4BA" stroke-width=".636" stroke-linecap="square" d="M55.277 376.234h1.535v2.653h-1.535z"/><path id="Path" stroke="#00C4BA" stroke-width=".636" stroke-linecap="square" d="M55.277 376.234h1.535v2.653h-1.535zm1.911.18h1.355v2.746h-1.355z"/><path id="Path" stroke="#00C4BA" stroke-width=".636" stroke-linecap="square" d="M57.188 376.414h1.355v2.746h-1.355zm-23.138-.637h1.81v3.293h-1.81z"/><path id="Path" stroke="#00C4BA" stroke-width=".636" stroke-linecap="square" d="M34.05 375.777h1.81v3.293h-1.81zm-1.913.183h1.265v2.653h-1.265z"/><path id="Path" stroke="#00C4BA" stroke-width=".636" stroke-linecap="square" d="M32.137 375.96h1.265v2.653h-1.265z"/><path id="Path" fill="#00555B" d="M30.59 376.05h1.078v1.102H30.59z"/><path id="Path" stroke="#00C4BA" stroke-width=".636" fill="#00555B" stroke-linecap="square" d="M30.59 376.05h1.078v1.102H30.59z"/><path id="Path" stroke="#00C4BA" stroke-width=".636" stroke-linecap="square" d="M30.59 376.05h1.078v1.102H30.59zm34.523-1.277h2.176v3.93h-2.176z"/><path id="Path" stroke="#00C4BA" stroke-width=".636" stroke-linecap="square" d="M65.113 374.773h2.176v3.93h-2.176z"/><path id="Path" stroke="#00C4BA" stroke-width=".636" stroke-linecap="round" stroke-linejoin="round" d="M67.938 373.039l.351 6.031m-.351-6.031l.351 6.031m-41.125-3.933h.117a1.07 1.07 0 011.086 1.183l-.137 1.477c-.062.648-.656 1.18-1.312 1.18h-.23a1.072 1.072 0 01-1.09-1.18l.14-1.477c.063-.648.653-1.183 1.313-1.183h.113z"/><path d="M27.164 375.137h.117a1.07 1.07 0 011.086 1.183l-.137 1.477c-.062.648-.656 1.18-1.312 1.18h-.23a1.072 1.072 0 01-1.09-1.18l.14-1.477c.063-.648.653-1.183 1.313-1.183h.113zm-10.204-.821c.423 0 .743.403.708.887l-.145 1.977c-.035.484-.41.886-.832.886-.421 0-.738-.402-.703-.886l.14-1.977c.036-.484.411-.887.833-.887z" id="Path" stroke="#00C4BA" stroke-width=".636" stroke-linecap="round" stroke-linejoin="round"/><path d="M16.96 374.316c.423 0 .743.403.708.887l-.145 1.977c-.035.484-.41.886-.832.886-.421 0-.738-.402-.703-.886l.14-1.977c.036-.484.411-.887.833-.887z" id="Path" stroke="#00C4BA" stroke-width=".636" stroke-linecap="round" stroke-linejoin="round"/><path d="M20.098 376.691c0 .407-.18.735-.403.735-.222 0-.402-.328-.402-.735 0-.402.18-.73.402-.73.223 0 .403.328.403.73" id="Path" fill="#00555B"/><path d="M20.098 376.691c0 .407-.18.735-.403.735-.222 0-.402-.328-.402-.735 0-.402.18-.73.402-.73.223 0 .403.328.403.73z" id="Path" stroke="#00C4BA" stroke-width=".636" fill="#00555B" stroke-linecap="round" stroke-linejoin="round"/><path d="M20.098 376.691c0 .407-.18.735-.403.735-.222 0-.402-.328-.402-.735 0-.402.18-.73.402-.73.223 0 .403.328.403.73z" id="Path" stroke="#00C4BA" stroke-width=".636" stroke-linecap="round" stroke-linejoin="round"/><path id="Path" fill="#00555B" d="M19.203 374.316h1.078v1.012h-1.078z"/><path id="Path" stroke="#00C4BA" stroke-width=".636" fill="#00555B" stroke-linecap="square" d="M19.203 374.316h1.078v1.012h-1.078z"/><path id="Path" stroke="#00C4BA" stroke-width=".636" stroke-linecap="square" d="M19.203 374.316h1.078v1.012h-1.078z"/><path id="Path" stroke="#00C4BA" stroke-width=".636" stroke-linecap="round" stroke-linejoin="round" d="M24.211 379.426l.809-5.926m-.809 5.926l.809-5.926m-10.727 9.242s4.691.028 8.914.32c4.223.29 10.453.641 10.453.641s3.742-2.539 12.016-2.539c9.332 0 12.191 2.645 12.191 2.645s2.09-.375 9.024-.961c6.937-.586 11.445-1.07 11.445-1.07"/><path d="M14.293 382.742s4.691.028 8.914.32c4.223.29 10.453.641 10.453.641s3.742-2.539 12.016-2.539c9.332 0 12.191 2.645 12.191 2.645s2.09-.375 9.024-.961c6.937-.586 11.445-1.07 11.445-1.07M13.082 392.11s4.852.027 9.219.32c4.367.293 10.812.64 10.812.64s3.867-2.535 12.426-2.535c9.652 0 12.61 2.645 12.61 2.645s2.16-.375 9.331-.961a595.819 595.819 0 0011.836-1.07" id="Path" stroke="#00C4BA" stroke-width=".636" stroke-linecap="round" stroke-linejoin="round"/><path d="M13.082 392.11s4.852.027 9.219.32c4.367.293 10.812.64 10.812.64s3.867-2.535 12.426-2.535c9.652 0 12.61 2.645 12.61 2.645s2.16-.375 9.331-.961a595.819 595.819 0 0011.836-1.07m-67.113 8.355s4.953.027 9.414.324c4.461.293 10.824.645 10.824.645s1.368-2.664 12.91-2.664c12.024 0 13.208 2.77 13.208 2.77s1.879-.38 9.203-.966c7.328-.59 12.09-1.078 12.09-1.078" id="Path" stroke="#00C4BA" stroke-width=".636" stroke-linecap="round" stroke-linejoin="round"/><path d="M12.203 399.504s4.953.027 9.414.324c4.461.293 10.824.645 10.824.645s1.368-2.664 12.91-2.664c12.024 0 13.208 2.77 13.208 2.77s1.879-.38 9.203-.966c7.328-.59 12.09-1.078 12.09-1.078" id="Path" stroke="#00C4BA" stroke-width=".636" stroke-linecap="round" stroke-linejoin="round"/><path d="M11.434 400.488s5.035.028 9.57.325c4.535.292 11.23.644 11.23.644s1.164-2.664 12.907-2.664c12.222 0 13.422 2.77 13.422 2.77s1.914-.375 9.363-.965 12.289-1.075 12.289-1.075" id="Path" stroke="#00C4BA" stroke-width=".636" stroke-linecap="round" stroke-linejoin="round"/><path d="M11.434 400.488s5.035.028 9.57.325c4.535.292 11.23.644 11.23.644s1.164-2.664 12.907-2.664c12.222 0 13.422 2.77 13.422 2.77s1.914-.375 9.363-.965 12.289-1.075 12.289-1.075" id="Path" stroke="#00C4BA" stroke-width=".636" stroke-linecap="round" stroke-linejoin="round"/><path d="M11.434 401.586s5.05.027 9.597.32c4.547.297 11.254.645 11.254.645s1.172-2.66 12.942-2.66c12.257 0 13.457 2.77 13.457 2.77s1.918-.38 9.386-.97c7.473-.59 12.325-1.074 12.325-1.074" id="Path" stroke="#00C4BA" stroke-width=".636" stroke-linecap="round" stroke-linejoin="round"/><path d="M11.434 401.586s5.05.027 9.597.32c4.547.297 11.254.645 11.254.645s1.172-2.66 12.942-2.66c12.257 0 13.457 2.77 13.457 2.77s1.918-.38 9.386-.97c7.473-.59 12.325-1.074 12.325-1.074M39.273 382.02l-.234 8.953m.234-8.953l-.234 8.953" id="Path" stroke="#00C4BA" stroke-width=".636" stroke-linecap="round" stroke-linejoin="round"/><path id="Path" stroke="#00C4BA" stroke-width=".636" stroke-linecap="round" stroke-linejoin="round" d="M15.855 373.2l-3.734 26.202.223.883-.88 1.098-.44 3.086v7.265l-1.098 20.04"/><path id="Path" stroke="#00C4BA" stroke-width=".636" stroke-linecap="round" stroke-linejoin="round" d="M15.855 373.2l-3.734 26.202.223.883-.88 1.098-.44 3.086v7.265l-1.098 20.04M76.398 373.2l3.735 26.202-.219.883.879 1.098.437 3.086v7.265l1.098 20.04"/><path id="Path" stroke="#00C4BA" stroke-width=".636" stroke-linecap="round" stroke-linejoin="round" d="M76.398 373.2l3.735 26.202-.219.883.879 1.098.437 3.086v7.265l1.098 20.04m-8.062-49.094l1.089 8.293m-1.089-8.293l1.089 8.293m-40.484-16.231l-.894 8.735m.894-8.735l-.894 8.735m.015.086L32.438 402m1.554-18.437L32.438 402m24.441-27.918l.867 9.395m-.867-9.395l.867 9.395m1.473.304l1.308 18.657m-1.308-18.657l1.308 18.657m-5.629-10.719l.43 6.531m-.43-6.531l.43 6.531m-37.402-6.09l-.453 6.973m.453-6.973l-.453 6.973M9.77 423.469l-9.454 7.86 9.235.433"/><path id="Path" stroke="#00C4BA" stroke-width=".636" stroke-linecap="round" stroke-linejoin="round" d="M9.77 423.469l-9.454 7.86 9.235.433m-1.309-6.532l-.234 6.09m.234-6.09l-.234 6.09m3.332-18.918s5.14.028 9.765.32c4.625.298 11.34.65 11.34.65s1.305-2.665 13.278-2.665c12.468 0 13.699 2.77 13.699 2.77s1.945-.38 9.547-.97c7.597-.589 12.535-1.073 12.535-1.073"/><path d="M11.34 412.402s5.14.028 9.765.32c4.625.298 11.34.65 11.34.65s1.305-2.665 13.278-2.665c12.468 0 13.699 2.77 13.699 2.77s1.945-.38 9.547-.97c7.597-.589 12.535-1.073 12.535-1.073" id="Path" stroke="#00C4BA" stroke-width=".636" stroke-linecap="round" stroke-linejoin="round"/><path d="M11.453 413.387s5.14.027 9.766.324c4.625.293 11.226.644 11.226.644s1.418-2.664 13.39-2.664c12.474 0 13.696 2.77 13.696 2.77s1.95-.379 9.547-.965c7.602-.59 12.54-1.078 12.54-1.078" id="Path" stroke="#00C4BA" stroke-width=".636" stroke-linecap="round" stroke-linejoin="round"/><path d="M11.453 413.387s5.14.027 9.766.324c4.625.293 11.226.644 11.226.644s1.418-2.664 13.39-2.664c12.474 0 13.696 2.77 13.696 2.77s1.95-.379 9.547-.965c7.602-.59 12.54-1.078 12.54-1.078" id="Path" stroke="#00C4BA" stroke-width=".636" stroke-linecap="round" stroke-linejoin="round"/><path d="M10.66 414.371s5.223.027 9.926.324c4.7.293 11.637.645 11.637.645s1.21-2.66 13.379-2.66c12.675 0 13.918 2.765 13.918 2.765s1.98-.379 9.703-.965a709.279 709.279 0 0012.742-1.074" id="Path" stroke="#00C4BA" stroke-width=".636" stroke-linecap="round" stroke-linejoin="round"/><path d="M10.66 414.371s5.223.027 9.926.324c4.7.293 11.637.645 11.637.645s1.21-2.66 13.379-2.66c12.675 0 13.918 2.765 13.918 2.765s1.98-.379 9.703-.965a709.279 709.279 0 0012.742-1.074m-49.402-10.883l-.125 12.594m.125-12.594l-.125 12.594m26.531-12.594l.429 12.704m-.429-12.704l.429 12.704" id="Path" stroke="#00C4BA" stroke-width=".636" stroke-linecap="round" stroke-linejoin="round"/><path id="Path" fill="#00555B" d="M10.54 405.61l-.981 1.304 1.09 1.195-1.419 2.067 1.418 1.195-.109-5.762"/><path id="Path" stroke="#00C4BA" stroke-width=".636" fill="#00555B" stroke-linecap="round" stroke-linejoin="round" d="M10.54 405.61l-.981 1.304 1.09 1.195-1.419 2.067 1.418 1.195z"/><path id="Path" stroke="#00C4BA" stroke-width=".636" stroke-linecap="round" stroke-linejoin="round" d="M10.54 405.61l-.981 1.304 1.09 1.195-1.419 2.067 1.418 1.195zm11.347.109l-.672 6.75m.672-6.75l-.672 6.75m43.699-7.852l.207 7.852m-.207-7.852l.207 7.852m-18.269 12.609c0 2.594-.368 4.7-.817 4.7-.453 0-.82-2.106-.82-4.7 0-2.59.367-4.695.82-4.695.45 0 .817 2.105.817 4.695z"/><path d="M46.852 425.078c0 2.594-.368 4.7-.817 4.7-.453 0-.82-2.106-.82-4.7 0-2.59.367-4.695.82-4.695.45 0 .817 2.105.817 4.695zM11.98 406.71h2.192l-.547 3.778h-2.191z" id="Path" stroke="#00C4BA" stroke-width=".636" stroke-linecap="round" stroke-linejoin="round"/><path id="Path" stroke="#00C4BA" stroke-width=".636" stroke-linecap="round" stroke-linejoin="round" d="M11.98 406.71h2.192l-.547 3.778h-2.191zm28.723-1.437L43 404.95v4.442l-2.297.324z"/><path id="Path" stroke="#00C4BA" stroke-width=".636" stroke-linecap="round" stroke-linejoin="round" d="M40.703 405.273L43 404.95v4.442l-2.297.324zm7.813-.214l2.52.324v4l-2.52-.324z"/><path id="Path" stroke="#00C4BA" stroke-width=".636" stroke-linecap="round" stroke-linejoin="round" d="M48.516 405.059l2.52.324v4l-2.52-.324zm-1.442.566c0 .492-.418.895-.93.895-.511 0-.93-.403-.93-.895 0-.496.419-.898.93-.898.512 0 .93.402.93.898z"/><path d="M47.074 405.625c0 .492-.418.895-.93.895-.511 0-.93-.403-.93-.895 0-.496.419-.898.93-.898.512 0 .93.402.93.898zm.11 3.359c0 .524-.442.954-.985.954-.543 0-.984-.43-.984-.954 0-.523.441-.949.984-.949.543 0 .985.426.985.95z" id="Path" stroke="#00C4BA" stroke-width=".636" stroke-linecap="round" stroke-linejoin="round"/><path d="M47.184 408.984c0 .524-.442.954-.985.954-.543 0-.984-.43-.984-.954 0-.523.441-.949.984-.949.543 0 .985.426.985.95zm-12.864 10.5l2.52-.644v3.015l-2.52.645z" id="Path" stroke="#00C4BA" stroke-width=".636" stroke-linecap="round" stroke-linejoin="round"/><path id="Path" stroke="#00C4BA" stroke-width=".636" stroke-linecap="round" stroke-linejoin="round" d="M34.32 419.484l2.52-.644v3.015l-2.52.645z"/><path id="Path" stroke="#00C4BA" stroke-width=".636" stroke-linecap="square" d="M25.188 419.39h3.18v3.442h-3.18z"/><path id="Path" stroke="#00C4BA" stroke-width=".636" stroke-linecap="square" d="M25.188 419.39h3.18v3.442h-3.18zm-13.645-.44h3.176v3.44h-3.176z"/><path id="Path" stroke="#00C4BA" stroke-width=".636" stroke-linecap="square" d="M11.543 418.95h3.176v3.44h-3.176zm-.109 5.402h2.847v3.441h-2.847z"/><path id="Path" stroke="#00C4BA" stroke-width=".636" stroke-linecap="square" d="M11.434 424.352h2.847v3.441h-2.847z"/><path id="Path" stroke="#00C4BA" stroke-width=".636" stroke-linecap="round" stroke-linejoin="round" d="M24.86 424.68l2.847-.11v3.446l-2.848.109z"/><path id="Path" stroke="#00C4BA" stroke-width=".636" stroke-linecap="round" stroke-linejoin="round" d="M24.86 424.68l2.847-.11v3.446l-2.848.109z"/><path id="Path" stroke="#00C4BA" stroke-width=".636" stroke-linecap="round" stroke-linejoin="round" d="M14.465 432.176l.3-3.442 3.618.153 6.48-5.239 7.985-.148-2.41 2.39-.454 6.438"/><path id="Path" stroke="#00C4BA" stroke-width=".636" stroke-linecap="round" stroke-linejoin="round" d="M14.465 432.176l.3-3.442 3.618.153 6.48-5.239 7.985-.148-2.41 2.39-.454 6.438m.313-3.844l2.398-.086m-2.398.086l2.398-.086"/><path id="Path" stroke="#00C4BA" stroke-width=".636" stroke-linecap="round" stroke-linejoin="round" d="M9.188 431.805l20.648.582 3.164.875 4.676.726"/><path id="Path" stroke="#00C4BA" stroke-width=".636" stroke-linecap="round" stroke-linejoin="round" d="M9.188 431.805l20.648.582 3.164.875 4.676.726"/><path d="M16.723 432.11c-1.957 2.382-1.957 6.109-1.957 6.109h6.02s.452-3.875-1.356-6.11" id="Path" stroke="#00C4BA" stroke-width=".636" stroke-linecap="round" stroke-linejoin="round"/><path d="M16.723 432.11c-1.957 2.382-1.957 6.109-1.957 6.109h6.02s.452-3.875-1.356-6.11m-4.664 4.68l5.566-.082m-5.566.082l5.566-.082m-2.398-.152c0-2.36.894-2.946 1.492-3.39m-1.492 3.39c0-2.36.894-2.946 1.492-3.39m-6.031-1.055l-1.653 3.285v4.035l-2.105.148.453-3.437 1.2-2.09-1.653-.149.148-1.644z" id="Path" stroke="#00C4BA" stroke-width=".636" stroke-linecap="round" stroke-linejoin="round"/><path id="Path" stroke="#00C4BA" stroke-width=".636" stroke-linecap="round" stroke-linejoin="round" d="M13.395 432.11l-1.653 3.285v4.035l-2.105.148.453-3.437 1.2-2.09-1.653-.149.148-1.644zm-4.512 6.163l3.758-.05m-3.758.05l3.758-.05"/><path id="Path" stroke="#00C4BA" stroke-width=".636" stroke-linecap="round" stroke-linejoin="round" d="M9.79 438.074l1.8-1.64-.75-1.493.45-.894h1.05l-.902-1.938"/><path id="Path" stroke="#00C4BA" stroke-width=".636" stroke-linecap="round" stroke-linejoin="round" d="M9.79 438.074l1.8-1.64-.75-1.493.45-.894h1.05l-.902-1.938m25.179 1.661l-1.652 2.554v3.137l-2.106.117.453-2.672 1.2-1.625-1.653-.117.149-1.277z"/><path id="Path" stroke="#00C4BA" stroke-width=".636" stroke-linecap="round" stroke-linejoin="round" d="M36.617 433.77l-1.652 2.554v3.137l-2.106.117.453-2.672 1.2-1.625-1.653-.117.149-1.277zm-4.512 4.804l3.758-.051m-3.758.051l3.758-.051"/><path id="Path" stroke="#00C4BA" stroke-width=".636" stroke-linecap="round" stroke-linejoin="round" d="M33.008 438.406l1.804-1.277-.75-1.156.45-.696h1.05l-.902-1.507"/><path id="Path" stroke="#00C4BA" stroke-width=".636" stroke-linecap="round" stroke-linejoin="round" d="M33.008 438.406l1.804-1.277-.75-1.156.45-.696h1.05l-.902-1.507m-8.246-1.36c1.957 2.266 1.957 5.809 1.957 5.809h-6.02s-.453-3.684 1.356-5.809"/><path d="M26.414 432.41c1.957 2.266 1.957 5.809 1.957 5.809h-6.02s-.453-3.684 1.356-5.809m4.668 4.43l-5.578-.051m5.578.051l-5.578-.051m2.41-.141c0-2.253-.898-2.816-1.5-3.238m1.5 3.238c0-2.253-.898-2.816-1.5-3.238m10.613-9.074l2.52-.649v3.02l-2.52.645z" id="Path" stroke="#00C4BA" stroke-width=".636" stroke-linecap="round" stroke-linejoin="round"/><path id="Path" stroke="#00C4BA" stroke-width=".636" stroke-linecap="round" stroke-linejoin="round" d="M34.32 424.336l2.52-.649v3.02l-2.52.645zm21.887-4.848l-2.52-.648v3.031l2.52.652z"/><path id="Path" stroke="#00C4BA" stroke-width=".636" stroke-linecap="round" stroke-linejoin="round" d="M56.207 419.488l-2.52-.648v3.031l2.52.652zm0 4.832l-2.52-.652v3.035l2.52.649z"/><path id="Path" stroke="#00C4BA" stroke-width=".636" stroke-linecap="round" stroke-linejoin="round" d="M56.207 424.32l-2.52-.652v3.035l2.52.649zm-8.805-9.328c0 .555-.613 1.008-1.367 1.008-.758 0-1.37-.453-1.37-1.008 0-.555.612-1.004 1.37-1.004.754 0 1.367.45 1.367 1.004z"/><path d="M47.402 414.992c0 .555-.613 1.008-1.367 1.008-.758 0-1.37-.453-1.37-1.008 0-.555.612-1.004 1.37-1.004.754 0 1.367.45 1.367 1.004z" id="Path" stroke="#00C4BA" stroke-width=".636" stroke-linecap="round" stroke-linejoin="round"/><path d="M40.8 416.758c0 1.101-.464 1.996-1.038 1.996-.575 0-1.04-.895-1.04-1.996 0-1.102.465-2 1.04-2 .574 0 1.039.898 1.039 2" id="Path" fill="#00555B"/><path d="M40.8 416.758c0 1.101-.464 1.996-1.038 1.996-.575 0-1.04-.895-1.04-1.996 0-1.102.465-2 1.04-2 .574 0 1.039.898 1.039 2z" id="Path" stroke="#00C4BA" stroke-width=".636" fill="#00555B" stroke-linecap="round" stroke-linejoin="round"/><path d="M40.8 416.758c0 1.101-.464 1.996-1.038 1.996-.575 0-1.04-.895-1.04-1.996 0-1.102.465-2 1.04-2 .574 0 1.039.898 1.039 2z" id="Path" stroke="#00C4BA" stroke-width=".636" stroke-linecap="round" stroke-linejoin="round"/><path d="M40.582 415.93c0 .644-.395 1.172-.875 1.172-.484 0-.875-.528-.875-1.172 0-.645.39-1.172.875-1.172.48 0 .875.527.875 1.172z" id="Path" stroke="#00C4BA" stroke-width=".636" stroke-linecap="round" stroke-linejoin="round"/><path d="M40.582 415.93c0 .644-.395 1.172-.875 1.172-.484 0-.875-.528-.875-1.172 0-.645.39-1.172.875-1.172.48 0 .875.527.875 1.172z" id="Path" stroke="#00C4BA" stroke-width=".636" stroke-linecap="round" stroke-linejoin="round"/><path d="M53.125 416.758c0 1.101-.465 1.996-1.04 1.996-.573 0-1.038-.895-1.038-1.996 0-1.102.465-2 1.039-2 .574 0 1.039.898 1.039 2" id="Path" fill="#00555B"/><path d="M53.125 416.758c0 1.101-.465 1.996-1.04 1.996-.573 0-1.038-.895-1.038-1.996 0-1.102.465-2 1.039-2 .574 0 1.039.898 1.039 2z" id="Path" stroke="#00C4BA" stroke-width=".636" fill="#00555B" stroke-linecap="round" stroke-linejoin="round"/><path d="M53.125 416.758c0 1.101-.465 1.996-1.04 1.996-.573 0-1.038-.895-1.038-1.996 0-1.102.465-2 1.039-2 .574 0 1.039.898 1.039 2z" id="Path" stroke="#00C4BA" stroke-width=".636" stroke-linecap="round" stroke-linejoin="round"/><path d="M52.906 415.938c0 .648-.39 1.175-.875 1.175-.48 0-.875-.527-.875-1.175 0-.653.395-1.18.875-1.18.485 0 .875.527.875 1.18z" id="Path" stroke="#00C4BA" stroke-width=".636" stroke-linecap="round" stroke-linejoin="round"/><path d="M52.906 415.938c0 .648-.39 1.175-.875 1.175-.48 0-.875-.527-.875-1.175 0-.653.395-1.18.875-1.18.485 0 .875.527.875 1.18zm27.184-10.657h-2.192l.547 3.774h2.192z" id="Path" stroke="#00C4BA" stroke-width=".636" stroke-linecap="round" stroke-linejoin="round"/><path id="Path" stroke="#00C4BA" stroke-width=".636" stroke-linecap="round" stroke-linejoin="round" d="M80.09 405.281h-2.192l.547 3.774h2.192zm-10.149 1.254c0 .48-.433.867-.972.867-.535 0-.973-.386-.973-.867 0-.473.438-.863.973-.863.539 0 .972.39.972.863z"/><path d="M69.941 406.535c0 .48-.433.867-.972.867-.535 0-.973-.386-.973-.867 0-.473.438-.863.973-.863.539 0 .972.39.972.863zM32.86 433.234s2.562-2.03 12.812-2.03 12.812 2.03 12.812 2.03" id="Path" stroke="#00C4BA" stroke-width=".636" stroke-linecap="round" stroke-linejoin="round"/><path d="M32.86 433.234s2.562-2.03 12.812-2.03 12.812 2.03 12.812 2.03m-36.191-16.953c0 .52-.438.938-.977.938-.535 0-.972-.418-.972-.938s.437-.941.972-.941c.54 0 .977.422.977.941z" id="Path" stroke="#00C4BA" stroke-width=".636" stroke-linecap="round" stroke-linejoin="round"/><path d="M22.293 416.281c0 .52-.438.938-.977.938-.535 0-.972-.418-.972-.938s.437-.941.972-.941c.54 0 .977.422.977.941zm2.863-.605c0 .187-.265.336-.593.336-.333 0-.598-.149-.598-.336 0-.184.265-.336.598-.336.328 0 .593.152.593.336z" id="Path" stroke="#00C4BA" stroke-width=".636" stroke-linecap="round" stroke-linejoin="round"/><path d="M25.156 415.676c0 .187-.265.336-.593.336-.333 0-.598-.149-.598-.336 0-.184.265-.336.598-.336.328 0 .593.152.593.336zm-6.332 2.114c0 .437-.402.788-.898.788s-.899-.351-.899-.789c0-.434.403-.789.899-.789s.898.355.898.79z" id="Path" stroke="#00C4BA" stroke-width=".636" stroke-linecap="round" stroke-linejoin="round"/><path d="M18.824 417.79c0 .437-.402.788-.898.788s-.899-.351-.899-.789c0-.434.403-.789.899-.789s.898.355.898.79zm55.192-2.642c0 .309-.504.563-1.125.563s-1.125-.254-1.125-.563c0-.312.504-.562 1.125-.562.62 0 1.125.25 1.125.562z" id="Path" stroke="#00C4BA" stroke-width=".636" stroke-linecap="round" stroke-linejoin="round"/><path d="M74.016 415.148c0 .309-.504.563-1.125.563s-1.125-.254-1.125-.563c0-.312.504-.562 1.125-.562.62 0 1.125.25 1.125.562zm-54.739-4.793l-2.101.145-.602 1.887h1.5l.301-1.887" id="Path" stroke="#00C4BA" stroke-width=".636" stroke-linecap="round" stroke-linejoin="round"/><path id="Path" stroke="#00C4BA" stroke-width=".636" stroke-linecap="round" stroke-linejoin="round" d="M19.277 410.355l-2.101.145-.602 1.887h1.5l.301-1.887m12.965.008l-1.95 2.332h1.65z"/><path id="Path" stroke="#00C4BA" stroke-width=".636" stroke-linecap="round" stroke-linejoin="round" d="M31.34 410.508l-1.95 2.332h1.65zm5.43-.758l-2.102.578-.602 1.152h1.2v-1.296"/><path id="Path" stroke="#00C4BA" stroke-width=".636" stroke-linecap="round" stroke-linejoin="round" d="M36.77 409.75l-2.102.578-.602 1.152h1.2v-1.296m22.172-.734l1.496 1.03v2.512l-1.496-1.035z"/><path id="Path" stroke="#00C4BA" stroke-width=".636" stroke-linecap="round" stroke-linejoin="round" d="M57.438 409.45l1.496 1.03v2.512l-1.496-1.035zm0 .452l-1.219-.535m1.219.535l-1.219-.535m14.027 3.173c0-2.946.149-3.095-.894-3.243m.894 3.243c0-2.946.149-3.095-.894-3.243m2.398 2.937c0-2.945.152-3.09-.89-3.238m.89 3.238c0-2.945.152-3.09-.89-3.238m-14.79 6.531c0 .266-.27.485-.597.485-.328 0-.598-.219-.598-.485 0-.27.27-.488.598-.488.328 0 .597.219.597.488z"/><path d="M56.07 415.527c0 .266-.27.485-.597.485-.328 0-.598-.219-.598-.485 0-.27.27-.488.598-.488.328 0 .597.219.597.488zm0 1.661c0 .269-.27.484-.597.484-.328 0-.598-.215-.598-.485 0-.269.27-.488.598-.488.328 0 .597.219.597.488z" id="Path" stroke="#00C4BA" stroke-width=".636" stroke-linecap="round" stroke-linejoin="round"/><path d="M56.07 417.188c0 .269-.27.484-.597.484-.328 0-.598-.215-.598-.485 0-.269.27-.488.598-.488.328 0 .597.219.597.488zm-12.82 2.566c0 .351-.098.64-.219.64-.12 0-.218-.289-.218-.64 0-.352.097-.637.218-.637s.219.285.219.637z" id="Path" stroke="#00C4BA" stroke-width=".636" stroke-linecap="round" stroke-linejoin="round"/><path d="M43.25 419.754c0 .351-.098.64-.219.64-.12 0-.218-.289-.218-.64 0-.352.097-.637.218-.637s.219.285.219.637zm-10.844-4.414L33 433.082m-.594-17.742L33 433.082" id="Path" stroke="#00C4BA" stroke-width=".636" stroke-linecap="round" stroke-linejoin="round"/><path id="Path" stroke="#00C4BA" stroke-width=".636" stroke-linecap="square" d="M63.879 419.387h3.184v3.472h-3.184z"/><path id="Path" stroke="#00C4BA" stroke-width=".636" stroke-linecap="square" d="M63.879 419.387h3.184v3.472h-3.184zm13.644-.437h3.184v3.468h-3.184z"/><path id="Path" stroke="#00C4BA" stroke-width=".636" stroke-linecap="square" d="M77.523 418.95h3.184v3.468h-3.184zm.437 5.394h2.856v3.469h-2.855z"/><path id="Path" stroke="#00C4BA" stroke-width=".636" stroke-linecap="square" d="M77.96 424.344h2.856v3.469h-2.855z"/><path id="Path" stroke="#00C4BA" stroke-width=".636" stroke-linecap="round" stroke-linejoin="round" d="M67.395 424.668l-2.856-.106v3.47l2.856.109z"/><path id="Path" stroke="#00C4BA" stroke-width=".636" stroke-linecap="round" stroke-linejoin="round" d="M67.395 424.668l-2.856-.106v3.47l2.856.109z"/><path id="Path" stroke="#00C4BA" stroke-width=".636" stroke-linecap="round" stroke-linejoin="round" d="M77.785 432.188l-.3-3.45-3.618.153-6.48-5.25-7.989-.149 2.414 2.399.45 6.449"/><path id="Path" stroke="#00C4BA" stroke-width=".636" stroke-linecap="round" stroke-linejoin="round" d="M77.785 432.188l-.3-3.45-3.618.153-6.48-5.25-7.989-.149 2.414 2.399.45 6.449m-.301-3.871l-2.418-.051m2.418.051l-2.418-.051"/><path id="Path" stroke="#00C4BA" stroke-width=".636" stroke-linecap="round" stroke-linejoin="round" d="M83.063 431.785l-20.649.59-3.168.883-4.672.738"/><path id="Path" stroke="#00C4BA" stroke-width=".636" stroke-linecap="round" stroke-linejoin="round" d="M83.063 431.785l-20.649.59-3.168.883-4.672.738"/><path d="M75.527 432.09c1.957 2.39 1.957 6.129 1.957 6.129h-6.023s-.453-3.887 1.355-6.13" id="Path" stroke="#00C4BA" stroke-width=".636" stroke-linecap="round" stroke-linejoin="round"/><path d="M75.527 432.09c1.957 2.39 1.957 6.129 1.957 6.129h-6.023s-.453-3.887 1.355-6.13m4.676 4.673l-5.586-.051m5.586.051l-5.586-.051m2.41-.148c0-2.38-.898-2.973-1.5-3.418m1.5 3.418c0-2.38-.898-2.973-1.5-3.418m6.032-1.055l1.656 3.293v4.047l2.105.148-.449-3.445-1.207-2.098 1.656-.148-.148-1.649z" id="Path" stroke="#00C4BA" stroke-width=".636" stroke-linecap="round" stroke-linejoin="round"/><path id="Path" stroke="#00C4BA" stroke-width=".636" stroke-linecap="round" stroke-linejoin="round" d="M78.848 432.09l1.656 3.293v4.047l2.105.148-.449-3.445-1.207-2.098 1.656-.148-.148-1.649zm4.515 6.14h-3.765m3.765 0h-3.765"/><path id="Path" stroke="#00C4BA" stroke-width=".636" stroke-linecap="round" stroke-linejoin="round" d="M82.46 438.082l-1.808-1.648.754-1.5-.453-.899h-1.05l.902-1.945"/><path id="Path" stroke="#00C4BA" stroke-width=".636" stroke-linecap="round" stroke-linejoin="round" d="M82.46 438.082l-1.808-1.648.754-1.5-.453-.899h-1.05l.902-1.945m-25.176 1.656l1.656 2.567v3.148l2.11.117-.454-2.683-1.203-1.633 1.657-.117-.153-1.282z"/><path id="Path" stroke="#00C4BA" stroke-width=".636" stroke-linecap="round" stroke-linejoin="round" d="M55.629 433.746l1.656 2.567v3.148l2.11.117-.454-2.683-1.203-1.633 1.657-.117-.153-1.282zm4.519 4.781h-3.765m3.765 0h-3.765"/><path id="Path" stroke="#00C4BA" stroke-width=".636" stroke-linecap="round" stroke-linejoin="round" d="M59.242 438.41l-1.804-1.281.75-1.168-.45-.7h-1.054l.902-1.515"/><path id="Path" stroke="#00C4BA" stroke-width=".636" stroke-linecap="round" stroke-linejoin="round" d="M59.242 438.41l-1.804-1.281.75-1.168-.45-.7h-1.054l.902-1.515m8.246-1.356c-1.957 2.274-1.957 5.829-1.957 5.829h6.023s.454-3.696-1.355-5.828"/><path d="M65.832 432.39c-1.957 2.274-1.957 5.829-1.957 5.829h6.023s.454-3.696-1.355-5.828m-4.668 4.406h5.57m-5.57 0h5.57m-2.405-.141c0-2.277.901-2.844 1.503-3.273m-1.503 3.273c0-2.277.901-2.844 1.503-3.273m-9.141-18.195l-.468 17.894m.468-17.894l-.468 17.894m22.468-17.859c0 .52-.3.941-.672.941-.37 0-.671-.422-.671-.941 0-.52.3-.942.671-.942.372 0 .672.422.672.942z" id="Path" stroke="#00C4BA" stroke-width=".636" stroke-linecap="round" stroke-linejoin="round"/><path d="M81.402 415.223c0 .52-.3.941-.672.941-.37 0-.671-.422-.671-.941 0-.52.3-.942.671-.942.372 0 .672.422.672.942z" id="Path" stroke="#00C4BA" stroke-width=".636" stroke-linecap="round" stroke-linejoin="round"/><path id="Path" fill="#00555B" d="M57.89 414.434v3.265l1.348 1.485.149-3.711-1.496-1.04"/><path id="Path" stroke="#00C4BA" stroke-width=".636" fill="#00555B" stroke-linecap="round" stroke-linejoin="round" d="M57.89 414.434v3.265l1.348 1.485.149-3.711z"/><path id="Path" stroke="#00C4BA" stroke-width=".636" stroke-linecap="round" stroke-linejoin="round" d="M57.89 414.434v3.265l1.348 1.485.149-3.711zM30.777 435.25l.223.11.832-1.391.711-.582-1.543-.465-.121 2.32"/><path id="Path" stroke="#00C4BA" stroke-width=".636" stroke-linecap="round" stroke-linejoin="round" d="M30.777 435.25l.223.11.832-1.391.711-.582-1.543-.465-.121 2.32m9.809-13.347l-1.31 2.109.122 1.64h1.422z"/><path id="Path" stroke="#00C4BA" stroke-width=".636" stroke-linecap="round" stroke-linejoin="round" d="M40.688 421.895l-1.31 2.109.122 1.64h1.422z"/><path id="Path" stroke="#00C4BA" stroke-width=".636" stroke-linecap="square" d="M59.367 419.254h1.903v2.914h-1.903z"/><path id="Path" stroke="#00C4BA" stroke-width=".636" stroke-linecap="square" d="M59.367 419.254h1.903v2.914h-1.903z"/><path id="Path" stroke="#00C4BA" stroke-width=".636" stroke-linecap="round" stroke-linejoin="round" d="M13.035 417.773l.121-3.312h-2.265l-.715 6.39z"/><path id="Path" stroke="#00C4BA" stroke-width=".636" stroke-linecap="round" stroke-linejoin="round" d="M13.035 417.773l.121-3.312h-2.265l-.715 6.39z"/><path d="M13.277 415.676c0 .605-.48 1.097-1.074 1.097-.59 0-1.07-.492-1.07-1.097 0-.606.48-1.098 1.07-1.098.594 0 1.074.492 1.074 1.098z" id="Path" stroke="#00C4BA" stroke-width=".636" stroke-linecap="round" stroke-linejoin="round"/><path d="M13.277 415.676c0 .605-.48 1.097-1.074 1.097-.59 0-1.07-.492-1.07-1.097 0-.606.48-1.098 1.07-1.098.594 0 1.074.492 1.074 1.098zm31.356 18.48c0-.68-1.524-1.234-3.406-1.234-1.88 0-3.403.555-3.403 1.234" id="Path" stroke="#00C4BA" stroke-width=".636" stroke-linecap="round" stroke-linejoin="round"/><path d="M44.633 434.156c0-.68-1.524-1.234-3.406-1.234-1.88 0-3.403.555-3.403 1.234" id="Path" stroke="#00C4BA" stroke-width=".636" stroke-linecap="round" stroke-linejoin="round"/><path d="M39.375 433.473c-1.133 1.625-1.133 4.164-1.133 4.164h3.485s.261-2.64-.786-4.164" id="Path" stroke="#00C4BA" stroke-width=".636" stroke-linecap="round" stroke-linejoin="round"/><path d="M39.375 433.473c-1.133 1.625-1.133 4.164-1.133 4.164h3.485s.261-2.64-.786-4.164m-2.699 3.183l3.223-.051m-3.223.051l3.223-.051m-1.391-.101c0-1.61.52-2.012.867-2.313m-.867 2.313c0-1.61.52-2.012.867-2.313m6.743 1.766c.117-.246.18-.52.18-.797 0-.973-.747-1.758-1.669-1.758s-1.668.786-1.668 1.758c0 .309.075.61.223.88" id="Path" stroke="#00C4BA" stroke-width=".636" stroke-linecap="round" stroke-linejoin="round"/><path d="M47.684 435.957c.117-.246.18-.52.18-.797 0-.973-.747-1.758-1.669-1.758s-1.668.786-1.668 1.758c0 .309.075.61.223.88" id="Path" stroke="#00C4BA" stroke-width=".636" stroke-linecap="round" stroke-linejoin="round"/><path id="Path" stroke="#00C4BA" stroke-width=".636" stroke-linecap="round" stroke-linejoin="round" d="M37.824 434.121v2.074l16.625-.113.121-1.96"/><path id="Path" stroke="#00C4BA" stroke-width=".636" stroke-linecap="round" stroke-linejoin="round" d="M37.824 434.121v2.074l16.625-.113.121-1.96"/><path d="M54.566 434.156c0-.68-1.523-1.234-3.406-1.234-1.879 0-3.402.555-3.402 1.234" id="Path" stroke="#00C4BA" stroke-width=".636" stroke-linecap="round" stroke-linejoin="round"/><path d="M54.566 434.156c0-.68-1.523-1.234-3.406-1.234-1.879 0-3.402.555-3.402 1.234" id="Path" stroke="#00C4BA" stroke-width=".636" stroke-linecap="round" stroke-linejoin="round"/><path d="M52.707 433.473c1.133 1.625 1.133 4.164 1.133 4.164h-3.488s-.258-2.64.785-4.164" id="Path" stroke="#00C4BA" stroke-width=".636" stroke-linecap="round" stroke-linejoin="round"/><path d="M52.707 433.473c1.133 1.625 1.133 4.164 1.133 4.164h-3.488s-.258-2.64.785-4.164m2.707 3.183l-3.235-.051m3.235.051l-3.235-.051m1.395-.101c0-1.61-.52-2.012-.863-2.313m.863 2.313c0-1.61-.52-2.012-.863-2.313m-9.129 3.528l8.246-.082m-8.246.082l8.246-.082m-9.332-9.032c-.348 2.352-.465 2.82.117 4.114m-.117-4.114c-.348 2.352-.465 2.82.117 4.114m10.004-4.114c.348 2.352.46 2.82-.117 4.114m.117-4.114c.348 2.352.46 2.82-.117 4.114m-9.989 3.633c-.675 1.156-.675 2.96-.675 2.96h2.078s.156-1.878-.469-2.96" id="Path" stroke="#00C4BA" stroke-width=".636" stroke-linecap="round" stroke-linejoin="round"/><path d="M40.941 436.352c-.675 1.156-.675 2.96-.675 2.96h2.078s.156-1.878-.469-2.96m8.641 0c-.676 1.156-.676 2.96-.676 2.96h2.078s.156-1.878-.465-2.96" id="Path" stroke="#00C4BA" stroke-width=".636" stroke-linecap="round" stroke-linejoin="round"/><path d="M50.516 436.352c-.676 1.156-.676 2.96-.676 2.96h2.078s.156-1.878-.465-2.96m-5.726 0c-.672 1.156-.672 2.96-.672 2.96h2.078s.156-1.878-.469-2.96" id="Path" stroke="#00C4BA" stroke-width=".636" stroke-linecap="round" stroke-linejoin="round"/><path d="M45.727 436.352c-.672 1.156-.672 2.96-.672 2.96h2.078s.156-1.878-.469-2.96m13.481-26.45l2.68 3.063h-2.27z" id="Path" stroke="#00C4BA" stroke-width=".636" stroke-linecap="round" stroke-linejoin="round"/><path id="Path" stroke="#00C4BA" stroke-width=".636" stroke-linecap="round" stroke-linejoin="round" d="M60.145 409.902l2.68 3.063h-2.27zM34.383 198.906H57.71l-11.773-2.676z"/><path id="Path" stroke="#00C4BA" stroke-width=".636" stroke-linecap="round" stroke-linejoin="round" d="M34.383 198.906H57.71l-11.773-2.676z"/><path id="Path" stroke="#00C4BA" stroke-width=".636" stroke-linecap="round" stroke-linejoin="round" d="M34.383 192.23v6.676l3.828-6.676 2.187 6.676 2.188-6.676 1.82 6.676 2.914-6.676 2.188 6.676 2.187-6.676 1.825 6.676 2-7.035 1.53 4.93.466 2.183.011-6.754"/><path id="Path" stroke="#00C4BA" stroke-width=".636" stroke-linecap="round" stroke-linejoin="round" d="M34.383 192.23v6.676l3.828-6.676 2.187 6.676 2.188-6.676 1.82 6.676 2.914-6.676 2.188 6.676 2.187-6.676 1.825 6.676 2-7.035 1.53 4.93.466 2.183.011-6.754m-5.691-2.175l-.008-13.86m.008 13.86l-.008-13.86"/><path id="Path" stroke="#00C4BA" stroke-width=".636" stroke-linecap="square" d="M40.922 201.32h2.547v3.399h-2.547z"/><path id="Path" stroke="#00C4BA" stroke-width=".636" stroke-linecap="square" d="M40.922 201.32h2.547v3.399h-2.547z"/><path id="Path" stroke="#00C4BA" stroke-width=".636" stroke-linecap="square" d="M34.383 198.957h23.25v6.824h-23.25z"/><path id="Path" stroke="#00C4BA" stroke-width=".636" stroke-linecap="square" d="M34.383 198.957h23.25v6.824h-23.25z"/><path id="Path" stroke="#00C4BA" stroke-width=".636" stroke-linecap="round" stroke-linejoin="round" d="M39.984 198.957l-.007 6.856m.007-6.856l-.007 6.856m-5.411-73.333l22.778-.05m-22.778.05l22.778-.05m24.691 291.328l9.676 7.422-9.234.652"/><path id="Path" stroke="#00C4BA" stroke-width=".636" stroke-linecap="round" stroke-linejoin="round" d="M82.035 423.758l9.676 7.422-9.234.652m1.101-6.973l.426 6.532m-.426-6.532l.426 6.532"/><g id="Clipped" transform="translate(34 190)"><mask id="mask-8" fill="#fff"><use xlink:href="#path-7"/></mask><g id="surface18-Clipped" mask="url(#mask-8)"><g transform="translate(-34 -313)"><mask id="mask-10" fill="#fff"><use xlink:href="#path-9"/></mask><g id="surface18" stroke="none" stroke-width="1" fill="none" fill-rule="evenodd" mask="url(#mask-10)"><path d="M.54.273h30.503V10.45H.539z" transform="translate(27 307)" fill="#00555B" fill-rule="nonzero" id="Path"/></g></g></g></g><path id="Path" stroke="#00C4BA" stroke-width=".636" stroke-linecap="square" d="M34.383 190.418h23.144v1.766H34.383z"/><path id="Path" stroke="#00C4BA" stroke-width=".636" stroke-linecap="square" d="M34.383 190.418h23.144v1.766H34.383z"/><path id="Path" stroke="#00C4BA" stroke-width=".636" stroke-linecap="round" stroke-linejoin="round" d="M44.539 198.957l-.004 6.856m.004-6.856l-.004 6.856m4.746-6.856l-.011 6.856m.011-6.856l-.011 6.856"/><path id="Path" stroke="#00C4BA" stroke-width=".636" stroke-linecap="square" d="M39.281 185.332h3.117v3.398h-3.117z"/><path id="Path" stroke="#00C4BA" stroke-width=".636" stroke-linecap="square" d="M39.281 185.332h3.117v3.398h-3.117zm12.938-.363h2.754v3.035h-2.754z"/><path id="Path" stroke="#00C4BA" stroke-width=".636" stroke-linecap="square" d="M52.219 184.969h2.754v3.035h-2.754zm-16.582-5.449h2.75v3.398h-2.75z"/><path id="Path" stroke="#00C4BA" stroke-width=".636" stroke-linecap="square" d="M35.637 179.52h2.75v3.398h-2.75z"/><path id="Path" stroke="#00C4BA" stroke-width=".636" stroke-linecap="square" d="M34.383 131.367h23.25v58.969h-23.25z"/><path id="Path" stroke="#00C4BA" stroke-width=".636" stroke-linecap="square" d="M34.383 131.367h23.25v58.969h-23.25z"/><path id="Path" stroke="#00C4BA" stroke-width=".636" stroke-linecap="square" d="M46.023 151.54h2.207v3.398h-2.207z"/><path id="Path" stroke="#00C4BA" stroke-width=".636" stroke-linecap="square" d="M46.023 151.54h2.207v3.398h-2.207zm6.196.362h1.66v3.399h-1.66z"/><path id="Path" stroke="#00C4BA" stroke-width=".636" stroke-linecap="square" d="M52.219 151.902h1.66v3.399h-1.66z"/><path id="Path" stroke="#00C4BA" stroke-width=".636" stroke-linecap="round" stroke-linejoin="round" d="M34.566 133.57l22.778-.05m-22.778.05l22.778-.05m-22.778 1.324l22.778-.051m-22.778.051l22.778-.051m-22.778 2.41l22.778-.047m-22.778.047l22.778-.047m-22.778 1.321l22.778-.051m-22.778.051l22.778-.051m-22.778 1.504l22.778-.051m-22.778.051l22.778-.051M34.566 175.18l22.778-.051m-22.778.051l22.778-.051m-22.778-1.223l22.778-.051m-22.778.051l22.778-.051m-22.778-1.765l22.778-.051m-22.778.051l22.778-.051m-22.778-1.223l22.778-.05m-22.778.05l22.778-.05m-22.778-6.489l22.778-.05m-22.778.05l22.778-.05m-22.778-1.039l22.778-.051m-22.778.051l22.778-.051m-22.778-4.313l22.778-.047m-22.778.047l22.778-.047m-22.778-1.043l22.778-.046m-22.778.046l22.778-.046m-22.778-12.672l22.778-.047m-22.778.047l22.778-.047m-22.778-1.223l22.778-.051m-22.778.051l22.778-.051"/><path id="Path" stroke="#00C4BA" stroke-width=".636" stroke-linecap="square" d="M35.113 132.023h1.453v34.907h-1.453z"/><path id="Path" stroke="#00C4BA" stroke-width=".636" stroke-linecap="square" d="M35.113 132.023h1.453v34.907h-1.453zm16.039 27.801h1.633v16.371h-1.633z"/><path id="Path" stroke="#00C4BA" stroke-width=".636" stroke-linecap="square" d="M51.152 159.824h1.633v16.371h-1.633zm-12.418-12.101h3.118v7.578h-3.118z"/><path id="Path" stroke="#00C4BA" stroke-width=".636" stroke-linecap="square" d="M38.734 147.723h3.118v7.578h-3.118z"/><path id="Path" stroke="#00C4BA" stroke-width=".636" stroke-linecap="round" stroke-linejoin="round" d="M43.633 190.055l-.004-14.77m.004 14.77l-.004-14.77m.551-4.492l-.008-6.227m.008 6.227l-.008-6.227m-8.149 2.051c1.454 5.246 1.454 8.684 1.637 9.95.184 1.265 0 1.808-2.004 1.808-2.363 0-2.183-.723-2.183-1.809 0-1.086.363-4.16.73-5.972.363-1.809 1.82-3.977 1.82-3.977z"/><path d="M36.023 166.617c1.454 5.246 1.454 8.684 1.637 9.95.184 1.265 0 1.808-2.004 1.808-2.363 0-2.183-.723-2.183-1.809 0-1.086.363-4.16.73-5.972.363-1.809 1.82-3.977 1.82-3.977z" id="Path" stroke="#00C4BA" stroke-width=".636" stroke-linecap="round" stroke-linejoin="round"/><path d="M35.965 166.797c.996 4.516.996 7.476 1.12 8.57.126 1.09 0 1.555-1.37 1.555-1.625 0-1.5-.621-1.5-1.555 0-.937.25-3.586.5-5.144.25-1.555 1.25-3.426 1.25-3.426z" id="Path" stroke="#00C4BA" stroke-width=".636" stroke-linecap="round" stroke-linejoin="round"/><path d="M35.965 166.797c.996 4.516.996 7.476 1.12 8.57.126 1.09 0 1.555-1.37 1.555-1.625 0-1.5-.621-1.5-1.555 0-.937.25-3.586.5-5.144.25-1.555 1.25-3.426 1.25-3.426zm-1.762 5.996l2.727-.051m-2.727.051l2.727-.051" id="Path" stroke="#00C4BA" stroke-width=".636" stroke-linecap="round" stroke-linejoin="round"/><path id="Path" fill="#00555B" d="M41.492 178.426h2.184v1.222h-2.184z"/><path id="Path" stroke="#00C4BA" stroke-width=".636" fill="#00555B" stroke-linecap="square" d="M41.492 178.426h2.184v1.222h-2.184z"/><path id="Path" stroke="#00C4BA" stroke-width=".636" stroke-linecap="square" d="M41.492 178.426h2.184v1.222h-2.184z"/><path id="Path" fill="#00555B" d="M49.512 178.426h2v1.222h-2z"/><path id="Path" stroke="#00C4BA" stroke-width=".636" fill="#00555B" stroke-linecap="square" d="M49.512 178.426h2v1.222h-2z"/><path id="Path" stroke="#00C4BA" stroke-width=".636" stroke-linecap="square" d="M49.512 178.426h2v1.222h-2z"/><path id="Path" fill="#00555B" d="M55.71 178.426h1.634v1.222H55.71z"/><path id="Path" stroke="#00C4BA" stroke-width=".636" fill="#00555B" stroke-linecap="square" d="M55.71 178.426h1.634v1.222H55.71z"/><path id="Path" stroke="#00C4BA" stroke-width=".636" stroke-linecap="square" d="M55.71 178.426h1.634v1.222H55.71z"/><path id="Path" fill="#00555B" d="M55.71 165.89h1.634v1.22H55.71z"/><path id="Path" stroke="#00C4BA" stroke-width=".636" fill="#00555B" stroke-linecap="square" d="M55.71 165.89h1.634v1.22H55.71z"/><path id="Path" stroke="#00C4BA" stroke-width=".636" stroke-linecap="square" d="M55.71 165.89h1.634v1.22H55.71z"/><path d="M57.344 164.863c0 .34-.407.614-.907.614-.503 0-.91-.274-.91-.614 0-.336.407-.61.91-.61.5 0 .907.274.907.61z" id="Path" stroke="#00C4BA" stroke-width=".636" stroke-linecap="round" stroke-linejoin="round"/><path d="M57.344 164.863c0 .34-.407.614-.907.614-.503 0-.91-.274-.91-.614 0-.336.407-.61.91-.61.5 0 .907.274.907.61zm-1.27-1.699l-.004-2.23m.004 2.23l-.004-2.23" id="Path" stroke="#00C4BA" stroke-width=".636" stroke-linecap="round" stroke-linejoin="round"/><path id="Path" stroke="#00C4BA" stroke-width=".636" stroke-linecap="square" d="M55.344 201.137h2.367v1.949h-2.367z"/><path id="Path" stroke="#00C4BA" stroke-width=".636" stroke-linecap="square" d="M55.344 201.137h2.367v1.949h-2.367z"/><path d="M57.898 201.316c1.27.18 1.27.54 1.633 2.86m-1.633-2.86c1.27.18 1.27.54 1.633 2.86m-1.633-3.766c1.27.18 1.27.535 1.633 2.856m-1.633-2.856c1.27.18 1.27.535 1.633 2.856m-20.777-55.727h-2m2 0h-2m2 1.981h-2m2 0h-2m2 1.804h-2m2 0h-2m2 2.524h-2m2 0h-2m4.004-10.684l-.91 4.504-.907-4.324 1.125-1.801.692 1.441" id="Path" stroke="#00C4BA" stroke-width=".636" stroke-linecap="round" stroke-linejoin="round"/><path id="Path" stroke="#00C4BA" stroke-width=".636" stroke-linecap="round" stroke-linejoin="round" d="M40.758 143.164l-.91 4.504-.907-4.324 1.125-1.801.692 1.441"/><path id="Path" stroke="#00C4BA" stroke-width=".636" stroke-linecap="square" d="M55.684 147.723h2.023v7.578h-2.023z"/><path id="Path" stroke="#00C4BA" stroke-width=".636" stroke-linecap="square" d="M55.684 147.723h2.023v7.578h-2.023z"/><path d="M55.887 156.324c0 .336-.45.613-1 .613-.551 0-1-.277-1-.613 0-.336.449-.61 1-.61.55 0 1 .274 1 .61z" id="Path" stroke="#00C4BA" stroke-width=".636" stroke-linecap="round" stroke-linejoin="round"/><path d="M55.887 156.324c0 .336-.45.613-1 .613-.551 0-1-.277-1-.613 0-.336.449-.61 1-.61.55 0 1 .274 1 .61zm-5.106-9.082c0 .235-.367.426-.816.426-.45 0-.817-.191-.817-.426 0-.238.368-.43.817-.43.45 0 .816.192.816.43z" id="Path" stroke="#00C4BA" stroke-width=".636" stroke-linecap="round" stroke-linejoin="round"/><path d="M50.781 147.242c0 .235-.367.426-.816.426-.45 0-.817-.191-.817-.426 0-.238.368-.43.817-.43.45 0 .816.192.816.43z" id="Path" stroke="#00C4BA" stroke-width=".636" stroke-linecap="round" stroke-linejoin="round"/><path id="Path" stroke="#00C4BA" stroke-width=".636" stroke-linejoin="round" stroke-dasharray="2.56375,2.56375" d="M49.875 147.902l-.004 7.762m.004-7.762l-.004 7.762"/><path d="M42.945 142.426c0 .488-.488.883-1.09.883-.605 0-1.09-.395-1.09-.883s.485-.883 1.09-.883c.602 0 1.09.394 1.09.883z" id="Path" stroke="#00C4BA" stroke-width=".636" stroke-linecap="round" stroke-linejoin="round"/><path d="M42.945 142.426c0 .488-.488.883-1.09.883-.605 0-1.09-.395-1.09-.883s.485-.883 1.09-.883c.602 0 1.09.394 1.09.883zm11.489.918l.91 4.508.906-4.325-1.125-1.804-.691 1.441" id="Path" stroke="#00C4BA" stroke-width=".636" stroke-linecap="round" stroke-linejoin="round"/><path id="Path" stroke="#00C4BA" stroke-width=".636" stroke-linecap="round" stroke-linejoin="round" d="M54.434 143.344l.91 4.508.906-4.325-1.125-1.804-.691 1.441m-5.657-.738c0 .488-.324.883-.726.883-.399 0-.727-.395-.727-.883s.328-.883.727-.883c.402 0 .726.394.726.883z"/><path d="M48.777 142.426c0 .488-.324.883-.726.883-.399 0-.727-.395-.727-.883s.328-.883.727-.883c.402 0 .726.394.726.883zm5.833.179c0 .489-.325.887-.727.887-.399 0-.727-.398-.727-.887 0-.484.328-.882.727-.882.402 0 .726.398.726.882z" id="Path" stroke="#00C4BA" stroke-width=".636" stroke-linecap="round" stroke-linejoin="round"/><path d="M54.61 142.605c0 .489-.325.887-.727.887-.399 0-.727-.398-.727-.887 0-.484.328-.882.727-.882.402 0 .726.398.726.882zm-20.407-11.277l-1.094-9.808v-22.7l1.641-18.343V63.953l.18-6.36L41.125 46.7h9.66l6.195 10.895.184 6.36v16.523l1.64 18.343v22.7l-1.093 9.808" id="Path" stroke="#00C4BA" stroke-width=".636" stroke-linecap="round" stroke-linejoin="round"/><path id="Path" stroke="#00C4BA" stroke-width=".636" stroke-linecap="round" stroke-linejoin="round" d="M34.203 131.328l-1.094-9.808v-22.7l1.641-18.343V63.953l.18-6.36L41.125 46.7h9.66l6.195 10.895.184 6.36v16.523l1.64 18.343v22.7l-1.093 9.808m-24.602-10.138l25.329-.046m-25.329.046l25.329-.046m-12.571.046l-.008-74.359m.008 74.359l-.008-74.359M34.75 72.137l22.047-.051m-22.047.051l22.047-.051M34.75 64.688l22.047-.051m-22.047.051l22.047-.051M34.75 63.414l22.047-.047m-22.047.047l22.047-.047M34.75 58.145l22.047-.051m-22.047.051l22.047-.051m-18.039-7.215l14.027-.051m-14.027.051l14.027-.051M34.75 79.949l22.047-.051m-22.047.051l22.047-.051m-21.863 1.141l22.046-.051m-22.046.051l22.046-.051M33.289 98.301l25.149-.051m-25.149.051l25.149-.051m-25.149 1.141l25.149-.051m-25.149.051l25.149-.051M34.02 90.305l23.871-.051m-23.871.051l23.871-.051"/><path id="Path" stroke="#00C4BA" stroke-width=".636" stroke-linecap="square" d="M42.586 91.578h1.633v4.309h-1.633z"/><path id="Path" stroke="#00C4BA" stroke-width=".636" stroke-linecap="square" d="M42.586 91.578h1.633v4.309h-1.633zM33.29 99.39h2.91v3.403h-2.91z"/><path id="Path" stroke="#00C4BA" stroke-width=".636" stroke-linecap="square" d="M33.29 99.39h2.91v3.403h-2.91z"/><path id="Path" stroke="#00C4BA" stroke-width=".636" stroke-linecap="round" stroke-linejoin="round" d="M59.172 88.852l-.008 2.492m.008-2.492l-.008 2.492"/><path id="Path" stroke="#00C4BA" stroke-width=".636" stroke-linecap="square" d="M40.219 59.055h2.543v2.675h-2.543z"/><path id="Path" stroke="#00C4BA" stroke-width=".636" stroke-linecap="square" d="M40.219 59.055h2.543v2.675h-2.543zm7.836 0h2.543v2.675h-2.543z"/><path id="Path" stroke="#00C4BA" stroke-width=".636" stroke-linecap="square" d="M48.055 59.055h2.543v2.675h-2.543z"/><path id="Path" stroke="#00C4BA" stroke-width=".636" stroke-linecap="round" stroke-linejoin="round" d="M53.887 72.137l-.004 7.398m.004-7.398l-.004 7.398"/><path id="Path" stroke="#00C4BA" stroke-width=".636" stroke-linecap="square" d="M42.586 99.754h1.453v1.95h-1.453z"/><path id="Path" stroke="#00C4BA" stroke-width=".636" stroke-linecap="square" d="M42.586 99.754h1.453v1.95h-1.453z"/><path id="Path" stroke="#00C4BA" stroke-width=".636" stroke-linecap="round" stroke-linejoin="round" d="M46.777 99.39h2.184l.547 2.676h-2.73z"/><path id="Path" stroke="#00C4BA" stroke-width=".636" stroke-linecap="round" stroke-linejoin="round" d="M46.777 99.39h2.184l.547 2.676h-2.73zM42.32 86.309l2.14.406-.519 2.633-2.14-.41z"/><path id="Path" stroke="#00C4BA" stroke-width=".636" stroke-linecap="round" stroke-linejoin="round" d="M42.32 86.309l2.14.406-.519 2.633-2.14-.41z"/><g id="Clipped" transform="translate(30 80)"><mask id="mask-12" fill="#fff"><use xlink:href="#path-11"/></mask><g mask="url(#mask-12)"><mask id="mask-14" fill="#fff"><use xlink:href="#path-13"/></mask><g id="surface24-Clipped" mask="url(#mask-14)"><g transform="translate(-30 -203)"><mask id="mask-16" fill="#fff"><use xlink:href="#path-15"/></mask><g id="surface24" stroke="none" stroke-width="1" fill="none" fill-rule="evenodd" mask="url(#mask-16)"><path d="M.54.324h20.335v30.531H.539z" transform="translate(27 195)" fill="#00555B" fill-rule="nonzero" id="Path"/></g></g></g></g></g><path id="Path" stroke="#00C4BA" stroke-width=".636" stroke-linecap="round" stroke-linejoin="round" d="M30.375 94.086h8.926l2.004-11.598-4.188-2.175-4.554 1.628z"/><path id="Path" stroke="#00C4BA" stroke-width=".636" stroke-linecap="round" stroke-linejoin="round" d="M30.375 94.086h8.926l2.004-11.598-4.188-2.175-4.554 1.628z"/><path id="Path" stroke="#00C4BA" stroke-width=".636" stroke-linecap="round" stroke-linejoin="round" d="M30.375 94.086l4.008 4.71-1.278-2.538 2.008-2.172 4.551 3.078.914 1.813-1.277-4.891.363-1.453 1.824 5.617"/><path id="Path" stroke="#00C4BA" stroke-width=".636" stroke-linecap="round" stroke-linejoin="round" d="M30.375 94.086l4.008 4.71-1.278-2.538 2.008-2.172 4.551 3.078.914 1.813-1.277-4.891.363-1.453 1.824 5.617"/><g id="Clipped" transform="translate(47 80)"><mask id="mask-18" fill="#fff"><use xlink:href="#path-17"/></mask><g mask="url(#mask-18)"><mask id="mask-20" fill="#fff"><use xlink:href="#path-19"/></mask><g id="surface30-Clipped" mask="url(#mask-20)"><g transform="translate(-47 -203)"><mask id="mask-22" fill="#fff"><use xlink:href="#path-21"/></mask><g id="surface30" stroke="none" stroke-width="1" fill="none" fill-rule="evenodd" mask="url(#mask-22)"><path d="M.707.324h30.504v30.531H.707z" transform="translate(37 195)" fill="#00555B" fill-rule="nonzero" id="Path"/></g></g></g></g></g><path id="Path" stroke="#00C4BA" stroke-width=".636" stroke-linecap="round" stroke-linejoin="round" d="M58.805 94.07H50.46l-2.602-11.402 3.293-2.172 3.278 1.086z"/><path id="Path" stroke="#00C4BA" stroke-width=".636" stroke-linecap="round" stroke-linejoin="round" d="M58.805 94.07H50.46l-2.602-11.402 3.293-2.172 3.278 1.086z"/><path id="Path" stroke="#00C4BA" stroke-width=".636" stroke-linecap="round" stroke-linejoin="round" d="M58.805 94.11l-3.746 4.687 1.191-2.524-1.875-2.164-4.254 3.067-.851 1.8 1.19-4.867-.339-1.441-1.703 5.586"/><path id="Path" stroke="#00C4BA" stroke-width=".636" stroke-linecap="round" stroke-linejoin="round" d="M58.805 94.11l-3.746 4.687 1.191-2.524-1.875-2.164-4.254 3.067-.851 1.8 1.19-4.867-.339-1.441-1.703 5.586"/><path id="Path" stroke="#00C4BA" stroke-width=".636" stroke-linecap="square" d="M51.336 99.39h2.727v1.583h-2.727z"/><path id="Path" stroke="#00C4BA" stroke-width=".636" stroke-linecap="square" d="M51.336 99.39h2.727v1.583h-2.727zm4.738 0h1.817v2.13h-1.817z"/><path id="Path" stroke="#00C4BA" stroke-width=".636" stroke-linecap="square" d="M56.074 99.39h1.817v2.13h-1.817z"/><path d="M42.582 91.43c-1.637-.188-1.637 1.851-1.453 5.187m1.453-5.187c-1.637-.188-1.637 1.851-1.453 5.187m6.117-5.039c1.633-.18 1.633 1.797 1.453 5.04m-1.453-5.04c1.633-.18 1.633 1.797 1.453 5.04" id="Path" stroke="#00C4BA" stroke-width=".636" stroke-linecap="round" stroke-linejoin="round"/><path id="Path" stroke="#00C4BA" stroke-width=".636" stroke-linecap="square" d="M46.96 94.664h1.45v1.95h-1.45z"/><path id="Path" stroke="#00C4BA" stroke-width=".636" stroke-linecap="square" d="M46.96 94.664h1.45v1.95h-1.45z"/><path id="Path" stroke="#00C4BA" stroke-width=".636" stroke-linecap="round" stroke-linejoin="round" d="M34.195 131.316l-3.093-10.324 2-2.898-.18-1.633-1.457-.543 1.457-1.992"/><path id="Path" stroke="#00C4BA" stroke-width=".636" stroke-linecap="round" stroke-linejoin="round" d="M34.195 131.316l-3.093-10.324 2-2.898-.18-1.633-1.457-.543 1.457-1.992"/><path id="Path" stroke="#00C4BA" stroke-width=".636" stroke-linecap="round" stroke-linejoin="round" d="M33.102 121.172h-2.184l-2.73 1.086"/><path id="Path" stroke="#00C4BA" stroke-width=".636" stroke-linecap="round" stroke-linejoin="round" d="M33.102 121.172h-2.184l-2.73 1.086m4.917 5.437l-1.64 1.45m1.64-1.45l-1.64 1.45m26.25 2.171l3.094-10.324-2-2.898.18-1.633 1.456-.543-1.457-1.992"/><path id="Path" stroke="#00C4BA" stroke-width=".636" stroke-linecap="round" stroke-linejoin="round" d="M57.715 131.316l3.094-10.324-2-2.898.18-1.633 1.456-.543-1.457-1.992"/><path id="Path" stroke="#00C4BA" stroke-width=".636" stroke-linecap="round" stroke-linejoin="round" d="M58.809 121.172h2.183l2.73 1.086"/><path id="Path" stroke="#00C4BA" stroke-width=".636" stroke-linecap="round" stroke-linejoin="round" d="M58.809 121.172h2.183l2.73 1.086m-4.913 5.437l1.636 1.45m-1.636-1.45l1.636 1.45m-14.761 2.171l-1.09-10.132 1.09-2.899 1.09 2.715z"/><path id="Path" stroke="#00C4BA" stroke-width=".636" stroke-linecap="round" stroke-linejoin="round" d="M45.684 131.316l-1.09-10.132 1.09-2.899 1.09 2.715zm8.195-70.664a.537.537 0 01-.543.532.537.537 0 01-.543-.532c0-.297.242-.535.543-.535.3 0 .543.238.543.535z"/><path d="M53.879 60.652a.537.537 0 01-.543.532.537.537 0 01-.543-.532c0-.297.242-.535.543-.535.3 0 .543.238.543.535z" id="Path" stroke="#00C4BA" stroke-width=".636" stroke-linecap="round" stroke-linejoin="round"/><path d="M53.7 59.586c0 .39-.204.71-.454.71s-.453-.32-.453-.71c0-.395.203-.711.453-.711s.453.316.453.71z" id="Path" stroke="#00C4BA" stroke-width=".636" stroke-linecap="round" stroke-linejoin="round"/><path d="M53.7 59.586c0 .39-.204.71-.454.71s-.453-.32-.453-.71c0-.395.203-.711.453-.711s.453.316.453.71zm-15.313 1.066a.537.537 0 01-.543.532.537.537 0 01-.543-.532c0-.297.242-.535.543-.535.3 0 .543.238.543.535z" id="Path" stroke="#00C4BA" stroke-width=".636" stroke-linecap="round" stroke-linejoin="round"/><path d="M38.387 60.652a.537.537 0 01-.543.532.537.537 0 01-.543-.532c0-.297.242-.535.543-.535.3 0 .543.238.543.535z" id="Path" stroke="#00C4BA" stroke-width=".636" stroke-linecap="round" stroke-linejoin="round"/><path d="M38.387 59.586c0 .39-.2.71-.45.71-.253 0-.457-.32-.457-.71 0-.395.204-.711.458-.711.25 0 .449.316.449.71z" id="Path" stroke="#00C4BA" stroke-width=".636" stroke-linecap="round" stroke-linejoin="round"/><path d="M38.387 59.586c0 .39-.2.71-.45.71-.253 0-.457-.32-.457-.71 0-.395.204-.711.458-.711.25 0 .449.316.449.71zm.738-5.852h2l.727-1.949h-1.274z" id="Path" stroke="#00C4BA" stroke-width=".636" stroke-linecap="round" stroke-linejoin="round"/><path id="Path" stroke="#00C4BA" stroke-width=".636" stroke-linecap="round" stroke-linejoin="round" d="M39.125 53.734h2l.727-1.949h-1.274zm12.387 0h-2l-.73-1.949h1.277z"/><path id="Path" stroke="#00C4BA" stroke-width=".636" stroke-linecap="round" stroke-linejoin="round" d="M51.512 53.734h-2l-.73-1.949h1.277zm-5.098-7.035l.906 3.949m-.906-3.949l.906 3.949m5.465-.367h-2l-.726-1.945h1.273z"/><path id="Path" stroke="#00C4BA" stroke-width=".636" stroke-linecap="round" stroke-linejoin="round" d="M52.785 50.281h-2l-.726-1.945h1.273zM42.04 46.473v-9.258l-1.821-1.27 1.82-2.086.023-2.129 1.618-1.593V18.34l-1.461-1.09 1.46-1.816V2L45.41.187 47.14 2v13.434l1.458 1.816-1.457 1.09v11.797l1.683 1.617-.043 2.105 1.82 2.086-1.82 1.27v9.258"/><path id="Path" stroke="#00C4BA" stroke-width=".636" stroke-linecap="round" stroke-linejoin="round" d="M42.04 46.473v-9.258l-1.821-1.27 1.82-2.086.023-2.129 1.618-1.593V18.34l-1.461-1.09 1.46-1.816V2L45.41.187 47.14 2v13.434l1.458 1.816-1.457 1.09v11.797l1.683 1.617-.043 2.105 1.82 2.086-1.82 1.27v9.258m-6.742-9.403l6.922-.05m-6.922.05l6.922-.05m-8.379-1.223l9.836-.047m-9.836.047l9.836-.047m-6.738-5.586l3.273-.047m-3.273.047l3.273-.047M43.68 18.355l3.273-.05m-3.273.05l3.273-.05m-3.273-2.856l3.273-.051m-3.273.051l3.273-.051m-4.367 1.688l5.461-.051m-5.461.051l5.461-.051m-4.367-3.222l3.273-.051m-3.273.051l3.273-.051M43.68 12.18l3.273-.051m-3.273.051l3.273-.051M43.68 6.184l3.273-.051m-3.273.051l3.273-.051M43.68 2.547l3.273-.047m-3.273.047l3.273-.047m-4.73 29.301l6.191-.051m-6.191.051l6.191-.051m-6.559 2.051l6.922-.051m-6.922.051l6.922-.051m-3.273-1.949l-.008 1.765m.008-1.765l-.008 1.765m-2.18-1.765l-.007 1.586m.007-1.586l-.007 1.586m4.015-1.676l-.004 1.676m.004-1.676l-.004 1.676m-3.64-4.492l3.273-.051m-3.273.051l3.273-.051m-2.359-10.489l.355 11.762m-.355-11.762l.355 11.762m-1.816 6.953l-.004 9.215m.004-9.215l-.004 9.215M45.32 2.73l-.004 12.489M45.32 2.73l-.004 12.489"/><path id="Path" stroke="#00C4BA" stroke-width=".636" stroke-linecap="round" stroke-linejoin="round" d="M47.234 33.71l1.18 1.966-.816 1.254"/><path id="Path" stroke="#00C4BA" stroke-width=".636" stroke-linecap="round" stroke-linejoin="round" d="M47.234 33.71l1.18 1.966-.816 1.254m-4.289-3.13l-.813 1.876.45 1.254"/><path id="Path" stroke="#00C4BA" stroke-width=".636" stroke-linecap="round" stroke-linejoin="round" d="M43.309 33.8l-.813 1.876.45 1.254m2.921-3.22l.723 2.056-.543 1.164"/><path id="Path" stroke="#00C4BA" stroke-width=".636" stroke-linecap="round" stroke-linejoin="round" d="M45.867 33.71l.723 2.056-.543 1.164M44.86 33.8l-.36 1.966.27 1.164"/><path id="Path" stroke="#00C4BA" stroke-width=".636" stroke-linecap="round" stroke-linejoin="round" d="M44.86 33.8l-.36 1.966.27 1.164"/><path id="Path" stroke="#00C4BA" stroke-width=".636" stroke-linecap="square" d="M48.906 121.563h.7v2.519h-.7z"/><path id="Path" stroke="#00C4BA" stroke-width=".636" stroke-linecap="square" d="M48.906 121.563h.7v2.519h-.7z"/><path id="Path" fill="#00555B" d="M51.957 121.094h1.164v2.988h-1.164z"/><path id="Path" stroke="#00C4BA" stroke-width=".636" fill="#00555B" stroke-linecap="square" d="M51.957 121.094h1.164v2.988h-1.164z"/><path id="Path" stroke="#00C4BA" stroke-width=".636" stroke-linecap="square" d="M51.957 121.094h1.164v2.988h-1.164z"/><path id="Path" fill="#00555B" d="M55.004 121.094h1.168v2.988h-1.168z"/><path id="Path" stroke="#00C4BA" stroke-width=".636" fill="#00555B" stroke-linecap="square" d="M55.004 121.094h1.168v2.988h-1.168z"/><path id="Path" stroke="#00C4BA" stroke-width=".636" stroke-linecap="square" d="M55.004 121.094h1.168v2.988h-1.168z"/></g></g></svg>