<svg width="817" height="1934" xmlns="http://www.w3.org/2000/svg"><g id="Page-1" fill="none" stroke="#00C4BA" stroke-width="3" fill-rule="evenodd"><g id="soyuzTM2-bg" transform="translate(7 7)" fill="none"><path id="Path" stroke="#00C4BA" stroke-width="3" fill-rule="nonzero" stroke-linecap="round" stroke-linejoin="round" d="M597.418 708.727l11.02 3.789-2.965 8.637-11.043-3.793zm41.125-119.524l11.043 3.817-2.984 8.636-11.047-3.816z"/><path id="Path" stroke="#00C4BA" stroke-width="3" fill-rule="nonzero" stroke-linecap="round" stroke-linejoin="round" d="M646.059 600.387L607.883 711.28l-8.637-2.96 38.18-110.922zm3.921 966.898h-18.324v-26.609h18.324zm12.207-3.405h-12.195v-19.68h12.195zM389.219 799.91H494.14s89.262 46.387 106.656 133.309c17.371 86.95 30.121 244.61 30.121 244.61l-70.71 51.003H389.222l-.004-428.922z"/><path id="Path" stroke="#00C4BA" stroke-width="3" fill-rule="nonzero" stroke-linecap="round" stroke-linejoin="round" d="M389.21 1482.977h242.778v184.918H389.211z"/><path id="Path" stroke="#00C4BA" stroke-width="3" fill-rule="nonzero" stroke-linecap="round" stroke-linejoin="round" d="M389.219 1667.848h242.8l48.094 86.172H389.215zm0-364.988c92.473 0 175.855 21.84 234.793 56.878H389.219v-56.878z"/><path d="M665.016 1819.18l13.933 3.363c1.805.426 2.332 2.133 2.059 3.312-.305 1.157-1.582 2.434-3.39 2.008l-12.575-3.039-35.746 29.117c-1.453 1.18-3.16.579-3.938-.351-.78-.926-1.082-2.684.348-3.863l36.852-29.997c.601-.503 1.68-.726 2.457-.55" id="Path" fill-rule="nonzero"/><path d="M665.016 1819.18l13.933 3.363c1.805.426 2.332 2.133 2.059 3.313-.305 1.156-1.582 2.433-3.39 2.007l-12.575-3.039-35.746 29.118c-1.453 1.18-3.16.578-3.937-.352-.782-.926-1.082-2.684.347-3.863l36.852-29.996c.601-.504 1.68-.727 2.457-.551zm-181.801-28.79h-94.028v-10.14h94.028zm180.645-10.152c-.25 1.38-.653 2.735-1.282 4.016-5.496 11.57-24.62 14.258-42.695 5.973-5.824-2.66-10.844-6.125-14.758-9.989h58.735z" id="Path" stroke="#00C4BA" stroke-width="3" fill-rule="nonzero" stroke-linecap="round" stroke-linejoin="round"/><path d="M389.219 1780.238h82.207c5.043 3.036 7.906 6.5 7.906 10.141 0 12.524-33.383 22.691-74.554 22.691-5.344 0-10.54-.175-15.563-.503l.004-32.329z" id="Path" stroke="#00C4BA" stroke-width="3" fill-rule="nonzero" stroke-linecap="round" stroke-linejoin="round"/><path d="M397.508 1789.813c1.281 0 2.309 2.207 2.309 4.918 0 2.738-1.028 4.945-2.309 4.945h-8.332v-9.863h8.332z" id="Path" stroke="#00C4BA" stroke-width="3" fill-rule="nonzero" stroke-linecap="round" stroke-linejoin="round"/><path d="M395.234 1794.695c0-2.71 1.028-4.918 2.286-4.918 1.277 0 2.308 2.207 2.308 4.918 0 2.739-1.031 4.946-2.308 4.946-1.258 0-2.286-2.207-2.286-4.946" id="Path" fill-rule="nonzero"/><path d="M395.195 1794.695c0-2.71 1.028-4.917 2.286-4.917 1.277 0 2.308 2.207 2.308 4.917 0 2.739-1.031 4.946-2.308 4.946-1.258 0-2.286-2.207-2.286-4.946zm200.872-4.949l49.777 48.145-4.82 4.496-53.692-44.957z" id="Path" stroke="#00C4BA" stroke-width="3" fill-rule="nonzero" stroke-linecap="round" stroke-linejoin="round"/><path id="Path" stroke="#00C4BA" stroke-width="3" fill-rule="nonzero" stroke-linecap="round" stroke-linejoin="round" d="M596.067 1789.746l13.078 1.282 39.988 43.425-3.29 3.438zm18.57 61.821h25.754v21.382h-25.754zm0 21.394h25.754l-6.703 28.442h-12.325z"/><path id="Path" stroke="#00C4BA" stroke-width="3" fill-rule="nonzero" stroke-linecap="round" stroke-linejoin="round" d="M604.602 1852.207h45.859v4.492H604.6z"/><path id="Path" stroke="#00C4BA" stroke-width="3" fill-rule="nonzero" stroke-linecap="round" stroke-linejoin="round" d="M626.074 1849.446h2.863v70.183h-2.863zm41.899-11.762l13.254-21.61 18.699 10.993-13.254 21.636zm19.664 9.898l13.254-21.637 21.41 20.282-6.352 10.363z"/><path id="Path" stroke="#00C4BA" stroke-width="3" fill-rule="nonzero" stroke-linecap="round" stroke-linejoin="round" d="M663.348 1846.488l23.617-38.503 3.918 2.308-23.621 38.504z"/><path id="Path" stroke="#00C4BA" stroke-width="3" fill-rule="nonzero" stroke-linecap="round" stroke-linejoin="round" d="M671.957 1826.953l1.48-2.41 61.372 36.145-1.453 2.41z"/><path d="M554.824 1793.281c0-3.363 6.555-6.074 14.61-6.074 8.109 0 14.632 2.711 14.632 6.074 0 3.364-6.523 6.102-14.632 6.102-8.055 0-14.61-2.738-14.61-6.102" id="Path" fill-rule="nonzero"/><path d="M554.813 1793.281c0-3.363 6.55-6.074 14.61-6.074 8.105 0 14.632 2.711 14.632 6.074 0 3.364-6.524 6.102-14.633 6.102-8.059 0-14.61-2.738-14.61-6.102zm47.835 2.25h-15.964v-15.285h15.964z" id="Path" stroke="#00C4BA" stroke-width="3" fill-rule="nonzero" stroke-linecap="round" stroke-linejoin="round"/><path id="Path" stroke="#00C4BA" stroke-width="3" fill-rule="nonzero" stroke-linecap="round" stroke-linejoin="round" d="M584.07 1793.281h-11.347v-13.027h11.347z"/><path id="Path" stroke="#00C4BA" stroke-width="3" fill-rule="nonzero" stroke-linecap="round" stroke-linejoin="round" d="M592.828 1801.508H582.11v-21.312h10.72z"/><path id="Path" stroke="#00C4BA" stroke-width="3" fill-rule="nonzero" stroke-linecap="round" stroke-linejoin="round" d="M675.492 1754.02l12.875 26.23H389.168v-26.23z"/><path d="M424.703 1675.816c-11.047-7.957-19.203-16.316-18.172-18.675 1.004-2.383 10.766 2.136 21.813 10.093 11.066 7.957 19.199 16.317 18.195 18.672-1.004 2.36-10.793-2.156-21.836-10.09" id="Path" fill-rule="nonzero"/><path d="M424.692 1675.817c-11.047-7.957-19.204-16.317-18.176-18.676 1.004-2.383 10.77 2.137 21.812 10.094 11.07 7.957 19.203 16.316 18.2 18.671-1.004 2.36-10.793-2.156-21.836-10.09z" id="Path" stroke="#00C4BA" stroke-width="3" fill-rule="nonzero" stroke-linecap="round" stroke-linejoin="round"/><path d="M427.914 1675.625c-11.242 7.453-21.133 11.547-22.086 9.137-.957-2.41 7.402-10.418 18.672-17.871 11.246-7.43 21.137-11.524 22.09-9.114.953 2.41-7.402 10.418-18.676 17.848" id="Path" fill-rule="nonzero"/><path d="M427.903 1675.625c-11.247 7.453-21.137 11.547-22.09 9.137-.953-2.41 7.406-10.418 18.675-17.871 11.247-7.43 21.137-11.524 22.09-9.113.953 2.41-7.406 10.417-18.675 17.847z" id="Path" stroke="#00C4BA" stroke-width="3" fill-rule="nonzero" stroke-linecap="round" stroke-linejoin="round"/><path d="M418.707 1670.547c0-4.617 3.816-8.36 8.535-8.36s8.535 3.743 8.535 8.36c0 4.621-3.816 8.36-8.535 8.36s-8.535-3.739-8.535-8.36" id="Path" fill-rule="nonzero"/><path d="M418.715 1670.547c0-4.617 3.813-8.36 8.531-8.36 4.719 0 8.535 3.743 8.535 8.36 0 4.621-3.816 8.36-8.535 8.36-4.718 0-8.531-3.739-8.531-8.36zm208.52-279.332h8.433v51.36h-8.36z" id="Path" stroke="#00C4BA" stroke-width="3" fill-rule="nonzero" stroke-linecap="round" stroke-linejoin="round"/><path id="Path" stroke="#00C4BA" stroke-width="3" fill-rule="nonzero" stroke-linecap="round" stroke-linejoin="round" d="M635.652 1397.965h29.692v37.902h-29.692z"/><path id="Path" stroke="#00C4BA" stroke-width="3" fill-rule="nonzero" stroke-linecap="round" stroke-linejoin="round" d="M665.34 1401.563h8.48v30.773h-8.48zm8.48 8.48h9.664v13.805h-9.664zm-284.601-50.313h237.43v123.223h-237.43zm-.009 360.938h7.255V1734h-7.254zm163.985-523.128h19.852v49.3h-19.852zm115.035 32.066v22.316l-34.792-7.129v-8.035zm-230.976-32.066h19.851v49.3h-19.851zm230.976 60.534v22.34l-34.792-7.156v-8.031z"/><path id="Path" stroke="#00C4BA" stroke-width="3" fill-rule="nonzero" stroke-linecap="round" stroke-linejoin="round" d="M389.21 1234.684h244.462v12.172H389.21zm.009 110.394l6.953 14.633h-6.953z"/><path id="Path" stroke="#00C4BA" stroke-width="3" fill-rule="nonzero" stroke-linecap="round" stroke-linejoin="round" d="M618.11 1246.828l8.484 112.875h-13.457l-8.484-112.875z"/><path id="Path" stroke="#00C4BA" stroke-width="3" fill-rule="nonzero" stroke-linecap="round" stroke-linejoin="round" d="M447.567 1253.188l-50.48 106.554h-7.856v-14.632l46.539-98.247h23.644l69.555 100.579 24.246-100.579h19.855l52.887 112.875H611.2l-47.14-100.601-24.274 100.601h-18.523z"/><path d="M625.113 1280.113c0-15.562 4.946-28.215 11.07-28.215 6.122 0 11.094 12.653 11.094 28.215 0 15.586-4.968 28.215-11.093 28.215s-11.07-12.629-11.07-28.215" id="Path" fill-rule="nonzero"/><path d="M625.113 1280.113c0-15.562 4.946-28.214 11.07-28.214 6.122 0 11.095 12.652 11.095 28.214 0 15.586-4.97 28.215-11.094 28.215-6.125 0-11.07-12.629-11.07-28.215z" id="Path" stroke="#00C4BA" stroke-width="3" fill-rule="nonzero" stroke-linecap="round" stroke-linejoin="round"/><path id="Path" stroke="#00C4BA" stroke-width="3" fill-rule="nonzero" stroke-linecap="round" stroke-linejoin="round" d="M631.215 1241.172v35.695H605.16l-20.332-35.695z"/><path id="Path" stroke="#00C4BA" stroke-width="3" fill-rule="nonzero" stroke-linecap="round" stroke-linejoin="round" d="M609.047 1241.172h22.191v42.27h-22.191zM536.63 219.012c7.577 0 13.73 12.273 13.73 27.41 0 15.16-6.153 27.434-13.73 27.434h-41.317c-7.606 0-13.758-12.274-13.758-27.434 0-15.137 6.152-27.41 13.758-27.41h41.316zm224.323 213.082h-7.855v-7.156h7.855zm-12.656-14.137h17.418v6.977h-17.418zm53.91 14.137C797.29 443.289 778.914 451.57 757 451.57c-21.91 0-40.262-8.285-45.18-19.476h90.387z"/><path id="Path" stroke="#00C4BA" stroke-width="3" fill-rule="nonzero" stroke-linecap="round" stroke-linejoin="round" d="M743.539 446.489h27.012v26.906h-27.012z"/><path id="Path" stroke="#00C4BA" stroke-width="3" fill-rule="nonzero" stroke-linecap="round" stroke-linejoin="round" d="M736.73 458.762h44.88v25.652h-44.88v-1.883h2.106v-4.82h1.106v-15.738l-3.211-3.113z"/><path id="Path" stroke="#00C4BA" stroke-width="3" fill-rule="nonzero" stroke-linecap="round" stroke-linejoin="round" d="M774.129 462.489h11.144v14.656H774.13zm-41.703-17.609h49.246v8.308h-49.246zm-10.476 24.612h16.867v13.051h-19.329v-1.605h-5.468v-18.953h7.93z"/><path id="Path" stroke="#00C4BA" stroke-width="3" fill-rule="nonzero" stroke-linecap="round" stroke-linejoin="round" d="M707.555 452.14h11.422l7.855 15.462v1.883h-4.844v-7.504h-7.93v18.949h5.47v1.61h7.304v2.937h-19.277z"/><path id="Path" stroke="#00C4BA" stroke-width="3" fill-rule="nonzero" stroke-linecap="round" stroke-linejoin="round" d="M720.856 455.867h12.777l6.3 6.102v15.71h-1.105v-8.206h-12.023v-1.883zm-16.063-2.441h2.734v24.777h-2.734zm38.747 8.355a16.76 16.76 0 0113.507-6.804c5.57 0 10.492 2.687 13.504 6.804v11.622h-27.008l-.004-11.622z"/><path id="Path" stroke="#00C4BA" stroke-width="3" fill-rule="nonzero" stroke-linecap="round" stroke-linejoin="round" d="M755.684 429.715h2.738v48.797h-2.738zm-55.84 24.805h6.3v21.812h-6.3z"/><path id="Path" stroke="#00C4BA" stroke-width="3" fill-rule="nonzero" stroke-linecap="round" stroke-linejoin="round" d="M699.844 476.367L618.77 348.43h14.058l67.02 106.129z"/><path d="M606.914 335.36h36.399v13.05h-26.81a173.41 173.41 0 00-9.589-13.05" id="Path" fill-rule="nonzero"/><path d="M606.926 335.383h36.398v13.05h-26.808a174.388 174.388 0 00-9.59-13.05z" id="Path" stroke="#00C4BA" stroke-width="3" fill-rule="nonzero" stroke-linecap="round" stroke-linejoin="round"/><path d="M597.727 324.984h40.109v10.368H606.91a189.4 189.4 0 00-9.183-10.368" id="Path" fill-rule="nonzero"/><path d="M597.738 324.973h40.11v10.367h-30.922c-2.938-3.562-6-7.027-9.188-10.367z" id="Path" stroke="#00C4BA" stroke-width="3" fill-rule="nonzero" stroke-linecap="round" stroke-linejoin="round"/><path id="Path" stroke="#00C4BA" stroke-width="3" fill-rule="nonzero" stroke-linecap="round" stroke-linejoin="round" d="M637.836 324.973h43.047l-37.574 17.07v-6.703h-5.473z"/><path d="M683.973 408.574l11.597 18.348c3.89 6.125-5.496 11.797-9.363 5.7l-11.598-18.376c-3.863-6.125 5.5-11.797 9.364-5.672" id="Path" fill-rule="nonzero"/><path d="M683.973 408.574l11.597 18.348c3.891 6.125-5.496 11.797-9.363 5.7l-11.597-18.376c-3.864-6.125 5.5-11.797 9.363-5.672z" id="Path" stroke="#00C4BA" stroke-width="3" fill-rule="nonzero" stroke-linecap="round" stroke-linejoin="round"/><path d="M657.883 367.309l16.996 26.882c3.863 6.125-5.5 11.82-9.363 5.696l-16.965-26.883c-3.867-6.125 5.496-11.797 9.363-5.7" id="Path" fill-rule="nonzero"/><path d="M657.883 367.32l16.996 26.883c3.863 6.125-5.5 11.82-9.363 5.7L648.52 373.02c-3.864-6.125 5.5-11.801 9.363-5.7z" id="Path" stroke="#00C4BA" stroke-width="3" fill-rule="nonzero" stroke-linecap="round" stroke-linejoin="round"/><path id="Path" stroke="#00C4BA" stroke-width="3" fill-rule="nonzero" stroke-linecap="round" stroke-linejoin="round" d="M647.41 366.035l5.121 7.957-15.789 8.235-5.12-7.961z"/><path id="Path" stroke="#00C4BA" stroke-width="3" fill-rule="nonzero" stroke-linecap="round" stroke-linejoin="round" d="M651.653 374.453l4.19 6.528-14.206 7.402-4.192-6.523zm-262.434-93.691h158.84l38.004 32.105H389.219zm0 309.793H642.91l-40.41 123.62-21.336 28.188H389.215zM548 280.762H389.188v-38.43h124.777z"/><path id="Path" stroke="#00C4BA" stroke-width="3" fill-rule="nonzero" stroke-linecap="round" stroke-linejoin="round" d="M389.21 467.5h253.677v123.067H389.21zm.009-154.672h196.844c35.09 34.364 56.855 82.23 56.855 135.219V467.5H389.223l-.004-154.672zm147.411-93.816c7.577 0 13.73 12.273 13.73 27.41 0 15.16-6.153 27.434-13.73 27.434H389.21v-54.844h147.42zm52.241 518.438c-50.605 52.035-121.34 84.417-199.652 84.617v-84.618H588.87z"/><path d="M406.86 19.16h-17.673V.41c9.84.352 17.672 8.61 17.672 18.75" id="Path" fill-rule="nonzero"/><path d="M406.89 19.168h-17.67V.418c9.84.352 17.672 8.61 17.672 18.75zm50.442 240.969c0 14.785-30.422 26.781-68.125 26.906v-26.906h68.125zm0 0h-68.125v-11.02h68.125z" id="Path" stroke="#00C4BA" stroke-width="3" fill-rule="nonzero" stroke-linecap="round" stroke-linejoin="round"/><path id="Path" stroke="#00C4BA" stroke-width="3" fill-rule="nonzero" stroke-linecap="round" stroke-linejoin="round" d="M471.695 249.149h-82.508v-11.496h82.508zm-.031-11.504h-82.508v-44.778h20.282zm-62.223-44.785h-20.23v-8.739h20.23zm51.942-8.743h-72.145v-27.636h48.973z"/><path id="Path" stroke="#00C4BA" stroke-width="3" fill-rule="nonzero" stroke-linecap="round" stroke-linejoin="round" d="M389.219 148.711h35.469l9.437 7.781H389.22zm0-9.058h32.23v9.035h-32.23z"/><path id="Path" stroke="#00C4BA" stroke-width="3" fill-rule="nonzero" stroke-linecap="round" stroke-linejoin="round" d="M389.219 126.992h19.176l15.363 12.676h-34.54zm19.144 0h-19.152v-5.171h19.152zM389.219 24.18v-5.047h17.672l1.504-.125v5.172z"/><path id="Path" stroke="#00C4BA" stroke-width="3" fill-rule="nonzero" stroke-linecap="round" stroke-linejoin="round" d="M399.074 131.106h-9.863V19.129h9.863zm10.387 53.011h-20.23v-27.636h13.703z"/><path d="M549.031 258.117h53.59v4.82h-55.047a40.72 40.72 0 001.457-4.82m1.078-16.84h52.512v8.258h-52.36a67.73 67.73 0 00.075-3.137 55.92 55.92 0 00-.227-5.12m-5.27-16.844h57.782v8.257h-54.117c-.93-3.238-2.184-6.023-3.664-8.257" id="Shape"/><path d="M549.031 258.082h53.59v4.817h-55.047a40.533 40.533 0 001.457-4.817zm1.079-16.844h52.511v8.258h-52.36c.052-1.031.075-2.082.075-3.136a55.92 55.92 0 00-.226-5.122zm-5.27-16.843h57.781v8.258h-54.117c-.93-3.239-2.184-6.024-3.664-8.258z" id="Shape" stroke="#00C4BA" stroke-width="3" fill-rule="nonzero" stroke-linecap="round" stroke-linejoin="round"/><path d="M438.57 448.477c.075.152.625 2.71.625 2.863v9.414c0 .55-1.277 4.09-1.628 4.492l-32.48 27.485c-5.196 6.175-12.177 3.664-12.278-4.418l-.524-46.813c-.054-3.742 3.188-7.027 6.95-7.027h28.492c1.804 0 5.597 2.433 6.351 4.066l4.492 9.938z" id="Path" stroke="#00C4BA" stroke-width="3" fill-rule="nonzero" stroke-linecap="round" stroke-linejoin="round"/><path d="M637.898 520.379c-4.718 7.879-12.273 13-20.78 13-8.513 0-16.067-5.121-20.786-13l20.785-16.695 20.781 16.695zm1.883-34.867c2.059 4.617 3.215 9.941 3.215 15.613 0 5.672-1.156 10.992-3.215 15.613l-19.468-15.617 19.468-15.61zm-43.449-3.64c4.719-7.88 12.273-13 20.785-13 8.508 0 16.063 5.12 20.781 13l-20.78 16.667-20.786-16.668zm-5.09 19.245c0-5.672 1.156-10.992 3.215-15.613l19.453 15.613-19.453 15.613c-2.059-4.617-3.215-9.94-3.215-15.613" id="Shape" fill-rule="nonzero"/><path d="M637.899 520.383c-4.72 7.883-12.274 13.004-20.782 13.004-8.511 0-16.066-5.121-20.785-13.004l20.785-16.691 20.782 16.691zm1.882-34.863c2.059 4.617 3.215 9.937 3.215 15.613 0 5.672-1.156 10.992-3.215 15.613l-19.453-15.613 19.453-15.613zm-43.449-3.64c4.719-7.884 12.274-13.005 20.785-13.005 8.508 0 16.063 5.121 20.782 13.004l-20.782 16.668-20.785-16.668zm-5.094 19.253c0-5.676 1.153-10.996 3.211-15.613l19.454 15.613-19.454 15.613c-2.058-4.62-3.21-9.941-3.21-15.613z" id="Shape" stroke="#00C4BA" stroke-width="3" fill-rule="nonzero" stroke-linecap="round" stroke-linejoin="round"/><path id="Path" stroke="#00C4BA" stroke-width="3" fill-rule="nonzero" stroke-linecap="round" stroke-linejoin="round" d="M389.219 467.5H642.91v68.55H389.22zm-170.992 761.34l-70.711-51.012s12.726-157.656 30.12-244.605C195.032 846.3 284.294 799.91 284.294 799.91h104.899v428.93H218.227zm-71.817 254.137h242.777v184.918H146.41z"/><path id="Path" stroke="#00C4BA" stroke-width="3" fill-rule="nonzero" stroke-linecap="round" stroke-linejoin="round" d="M146.387 1667.848H389.16v86.172H98.29zm8.031-308.118c58.938-35.042 142.32-56.878 234.77-56.878v56.879h-234.77zm234.792 430.66h-40.46v-10.14h40.46z"/><path d="M330.2 1790.39c0-3.64 2.835-7.105 7.878-10.14h51.106v32.328c-33.711-2.183-58.985-11.27-58.985-22.187" id="Path" fill-rule="nonzero"/><path d="M330.164 1790.39c0-3.64 2.836-7.105 7.883-10.14h51.106v32.328c-33.711-2.183-58.989-11.27-58.989-22.187zm-113.094-10.152l-65.035 24.723-9.816-24.723z" id="Path" stroke="#00C4BA" stroke-width="3" fill-rule="nonzero" stroke-linecap="round" stroke-linejoin="round"/><path id="Path" stroke="#00C4BA" stroke-width="3" fill-rule="nonzero" stroke-linecap="round" stroke-linejoin="round" d="M229.117 1800.672H197.04v-20.457h32.078z"/><path d="M202.941 1796.496c3.059-5.398 20.457-1.684 38.856 8.309 18.398 10.015 30.848 22.488 27.785 27.91-3.062 5.398-20.457 1.683-38.855-8.332-18.399-9.992-30.848-22.492-27.786-27.887" id="Path" fill-rule="nonzero"/><path d="M202.934 1796.496c3.062-5.398 20.457-1.683 38.855 8.309 18.399 10.015 30.852 22.488 27.79 27.91-3.063 5.398-20.462 1.684-38.86-8.332-18.399-9.992-30.848-22.492-27.785-27.887z" id="Path" stroke="#00C4BA" stroke-width="3" fill-rule="nonzero" stroke-linecap="round" stroke-linejoin="round"/><path d="M216.301 1794.309c2.23-3.938 14.934-1.227 28.336 6.074 13.43 7.281 22.492 16.395 20.258 20.332l-2.258 3.992c-2.234 3.942-14.91 1.23-28.34-6.047-13.406-7.304-22.492-16.394-20.258-20.332l2.262-4.02z" id="Path" stroke="#00C4BA" stroke-width="3" fill-rule="nonzero" stroke-linecap="round" stroke-linejoin="round"/><path d="M215.309 1795.402c2.234-3.941 14.91-1.23 28.34 6.051 13.402 7.305 22.464 16.39 20.23 20.356-2.207 3.918-14.91 1.207-28.313-6.075-13.43-7.277-22.492-16.39-20.257-20.332" id="Path" fill-rule="nonzero"/><path d="M215.336 1795.403c2.234-3.942 14.91-1.23 28.34 6.05 13.402 7.305 22.465 16.39 20.23 20.356-2.21 3.918-14.91 1.207-28.312-6.074-13.43-7.278-22.492-16.391-20.258-20.332z" id="Path" stroke="#00C4BA" stroke-width="3" fill-rule="nonzero" stroke-linecap="round" stroke-linejoin="round"/><path d="M203.832 1795.469c3.063-5.399 20.457-1.684 38.856 8.309 18.425 10.011 30.851 22.488 27.812 27.91l-3.113 5.472c-3.059 5.422-20.457 1.684-38.879-8.308-18.398-9.992-30.824-22.492-27.79-27.887l3.114-5.496zm160.071-15.359c3.765 0 6.824 6.55 6.824 14.609 0 8.082-3.059 14.633-6.824 14.633h-58.79c-3.765 0-6.824-6.551-6.824-14.633 0-8.059 3.059-14.61 6.824-14.61h58.79z" id="Path" stroke="#00C4BA" stroke-width="3" fill-rule="nonzero" stroke-linecap="round" stroke-linejoin="round"/><path d="M357.082 1794.695c0-8.058 3.063-14.61 6.856-14.61 3.761 0 6.851 6.552 6.851 14.61 0 8.082-3.09 14.633-6.851 14.633-3.793 0-6.856-6.55-6.856-14.633" id="Path" fill-rule="nonzero"/><path d="M357.09 1794.695c0-8.058 3.063-14.609 6.852-14.609 3.765 0 6.851 6.55 6.851 14.61 0 8.082-3.086 14.632-6.851 14.632-3.79 0-6.852-6.55-6.852-14.633z" id="Path" stroke="#00C4BA" stroke-width="3" fill-rule="nonzero" stroke-linecap="round" stroke-linejoin="round"/><path d="M389.219 1799.645h-25.05c-1.282 0-2.31-2.211-2.31-4.922 0-2.735 1.028-4.945 2.31-4.945h25.05v9.867zm0-19.407H90.039l12.875-26.23H389.22zM33.055 1642.34h6.297v26.555h-6.297zm14.152 0h8.79v26.555h-8.79zm17.093-4.887h11.673v36.325H64.3zm19.985-3.211h26.258v42.797H84.285z" id="Path" stroke="#00C4BA" stroke-width="3" fill-rule="nonzero" stroke-linecap="round" stroke-linejoin="round"/><path id="Path" stroke="#00C4BA" stroke-width="3" fill-rule="nonzero" stroke-linecap="round" stroke-linejoin="round" d="M39.355 1638.934h7.86v33.457h-7.86zm36.622-7.391h8.308v48.168h-8.308zm-19.985 0h8.309v48.168h-8.309zm54.539 2.699H146.4v33.637l-5.121 9.16h-30.75zM37.7 1438.254h6.273v26.531h-6.274zm14.155 0h8.786v26.531h-8.786zm17.067-4.883h11.695v36.293H68.922zm19.984-3.215h26.254v42.797H88.906z"/><path id="Path" stroke="#00C4BA" stroke-width="3" fill-rule="nonzero" stroke-linecap="round" stroke-linejoin="round" d="M43.969 1434.785h7.883v33.457h-7.883zm36.648-7.328h8.285v48.168h-8.285zm-19.977 0h8.282v48.168H60.64zm75.72-13.429v42.796l-21.207 16.09v-42.797zm0 0h14.812v42.796H136.36zm15.425-54.298h237.403v123.247H151.785z"/><path id="Path" stroke="#00C4BA" stroke-width="3" fill-rule="nonzero" stroke-linecap="round" stroke-linejoin="round" d="M174.95 1370.332h116.847v97.942H174.949zm155.827 0h58.407v97.942h-58.407z"/><path id="Path" stroke="#00C4BA" stroke-width="3" fill-rule="nonzero" stroke-linecap="round" stroke-linejoin="round" d="M284.844 1461.32H181.902v-84.035h102.942zm104.366 0h-51.48v-84.035h51.48z"/><path d="M172.738 1600.957c0-44.656 36.196-80.852 80.852-80.852 31.398 0 58.61 17.899 72.012 44.028-7.254 10.469-11.497 23.144-11.497 36.824s4.243 26.383 11.497 36.824c-13.403 26.153-40.614 44.051-72.012 44.051-44.656 0-80.852-36.219-80.852-80.875" id="Path" fill-rule="nonzero"/><path d="M172.73 1600.957c0-44.656 36.196-80.851 80.852-80.851 31.403 0 58.61 17.898 72.016 44.027-7.254 10.469-11.496 23.145-11.496 36.824 0 13.68 4.242 26.383 11.496 36.824-13.406 26.153-40.613 44.051-72.016 44.051-44.656 0-80.851-36.219-80.851-80.875z" id="Path" stroke="#00C4BA" stroke-width="3" fill-rule="nonzero" stroke-linecap="round" stroke-linejoin="round"/><path d="M259.691 1666.563v21.363H247.52v-27.586a41.385 41.385 0 0012.171 6.223M247.52 1514.05h12.171v73.52a41.396 41.396 0 00-12.171 6.226v-79.746z" id="Shape" fill-rule="nonzero"/><path d="M259.672 1666.5v21.36H247.5v-27.586a41.396 41.396 0 0012.172 6.226zM247.5 1513.988h12.172v73.52a41.386 41.386 0 00-12.172 6.223v-79.743z" id="Shape" stroke="#00C4BA" stroke-width="3" fill-rule="nonzero" stroke-linecap="round" stroke-linejoin="round"/><path d="M314.105 1600.957c0-35.719 28.97-64.684 64.684-64.684 3.54 0 7.027.301 10.418.829v127.714a65.02 65.02 0 01-10.418.829c-35.719 0-64.684-28.97-64.684-64.684" id="Path" fill-rule="nonzero"/><path d="M314.102 1600.957c0-35.719 28.965-64.683 64.68-64.683 3.542 0 7.03.3 10.417.828v127.715a65.03 65.03 0 01-10.418.828c-35.718 0-64.68-28.969-64.68-64.684v-.004z" id="Path" stroke="#00C4BA" stroke-width="3" fill-rule="nonzero" stroke-linecap="round" stroke-linejoin="round"/><path d="M230.75 1627.047c0-22.844 18.523-41.395 41.39-41.395 22.868 0 41.395 18.551 41.395 41.395 0 22.867-18.527 41.414-41.394 41.414-22.868 0-41.391-18.547-41.391-41.414" id="Path" fill-rule="nonzero"/><path d="M230.758 1627.047c0-22.844 18.523-41.394 41.39-41.394 22.868 0 41.391 18.55 41.391 41.394 0 22.867-18.523 41.414-41.39 41.414-22.868 0-41.391-18.547-41.391-41.414zm106.019 81.734h12.75v37.102h-12.75zm12.75 11.887h39.66V1734h-39.66zm-196.492-7.836h183.742v28.989H153.035z" id="Path" stroke="#00C4BA" stroke-width="3" fill-rule="nonzero" stroke-linecap="round" stroke-linejoin="round"/><path d="M362.281 1663.543h-57.457a80.93 80.93 0 0020.785-25.754c8.66 12.477 21.586 21.79 36.672 25.754m-69.476-133.285h96.386v6.855a67.206 67.206 0 00-10.39-.832c-22.04 0-41.516 11.047-53.188 27.864a81.336 81.336 0 00-32.808-33.887" id="Shape" fill-rule="nonzero"/><path d="M362.293 1663.543H304.84a80.918 80.918 0 0020.781-25.754c8.66 12.477 21.59 21.79 36.672 25.754zm-69.476-133.285h96.39v6.855a67.257 67.257 0 00-10.394-.832c-22.04 0-41.516 11.047-53.188 27.864-7.328-14.282-18.8-26.106-32.808-33.887z" id="Shape" stroke="#00C4BA" stroke-width="3" fill-rule="nonzero" stroke-linecap="round" stroke-linejoin="round"/><path id="Path" stroke="#00C4BA" stroke-width="3" fill-rule="nonzero" stroke-linecap="round" stroke-linejoin="round" d="M359.992 1495.446h12.102v34.789h-12.102zm-112.464 29.492l-95.73-41.993v-7.48l95.73 41.969zm-88.676-1.09h69.554c-32.332 10.793-55.675 41.215-55.675 77.058 0 25.551 11.847 48.317 30.347 63.153h-44.226v-140.211zm46.496-326.308h19.855v49.3h-19.855zm115.945 0h19.852v49.3h-19.852z"/><path id="Path" stroke="#00C4BA" stroke-width="3" fill-rule="nonzero" stroke-linecap="round" stroke-linejoin="round" d="M151.984 1234.684h237.227v12.172H151.984z"/><path id="Path" stroke="#00C4BA" stroke-width="3" fill-rule="nonzero" stroke-linecap="round" stroke-linejoin="round" d="M173.695 1246.828l-8.484 112.875h-13.453l8.484-112.875z"/><path id="Path" stroke="#00C4BA" stroke-width="3" fill-rule="nonzero" stroke-linecap="round" stroke-linejoin="round" d="M330.871 1253.188l-73.699 106.554h-18.547l-24.246-100.601-47.14 100.601h-14.762l52.863-112.875h19.883l24.246 100.575 69.555-100.575h23.644l46.535 98.243v14.636h-7.855z"/><path id="Path" stroke="#00C4BA" stroke-width="3" fill-rule="nonzero" stroke-linecap="round" stroke-linejoin="round" d="M389.219 1359.73h-6.926l6.926-14.636z"/><path d="M138.352 1280.113c0-15.562 4.945-28.215 11.07-28.215s11.098 12.653 11.098 28.215c0 15.586-4.973 28.215-11.098 28.215-6.125 0-11.07-12.629-11.07-28.215" id="Path" fill-rule="nonzero"/><path d="M138.352 1280.113c0-15.562 4.945-28.214 11.07-28.214s11.098 12.652 11.098 28.214c0 15.586-4.973 28.215-11.098 28.215-6.125 0-11.07-12.629-11.07-28.215zm-20.946-50.507l34.79 7.152v8.035l-34.79 7.13z" id="Path" stroke="#00C4BA" stroke-width="3" fill-rule="nonzero" stroke-linecap="round" stroke-linejoin="round"/><path id="Path" stroke="#00C4BA" stroke-width="3" fill-rule="nonzero" stroke-linecap="round" stroke-linejoin="round" d="M154.418 1241.172h46.36l-20.333 35.695h-26.027z"/><path id="Path" stroke="#00C4BA" stroke-width="3" fill-rule="nonzero" stroke-linecap="round" stroke-linejoin="round" d="M154.418 1241.172h22.164v42.27h-22.164zm-37.012 16.902l34.79 7.153v8.031l-34.79 7.156zm271.813-119.328l-55.899 19.403-38.253-8.133-10.418-12.727v-24.347l51.004 12.75 53.566-10.895zm-16.519 20.563h16.487v53.312H372.7zm-102.013 11.566h57.958v31.301h-57.958zm-57.96-103.199h16.238v44.05h-16.238z"/><path id="Path" stroke="#00C4BA" stroke-width="3" fill-rule="nonzero" stroke-linecap="round" stroke-linejoin="round" d="M315.918 1150.055h26.656v37.074h-26.656zm-147.242-139.121H389.21v81.125H168.676z"/><path d="M219.68 1101.344c0-18.574 11.422-33.633 25.504-33.633 14.105 0 25.527 15.059 25.527 33.633 0 18.55-11.422 33.613-25.527 33.613-14.082 0-25.504-15.062-25.504-33.613" id="Path" fill-rule="nonzero"/><path d="M219.703 1101.344c0-18.574 11.422-33.633 25.504-33.633 14.106 0 25.528 15.059 25.528 33.633 0 18.55-11.418 33.613-25.528 33.613-14.082 0-25.504-15.062-25.504-33.613z" id="Path" stroke="#00C4BA" stroke-width="3" fill-rule="nonzero" stroke-linecap="round" stroke-linejoin="round"/><path d="M244.027 1135.531c0-14.406 9.614-26.078 21.434-26.078 11.875 0 21.46 11.672 21.46 26.078 0 14.407-9.585 26.078-21.46 26.078-11.82 0-21.434-11.671-21.434-26.078" id="Path" fill-rule="nonzero"/><path d="M244.059 1135.531c0-14.406 9.613-26.078 21.437-26.078 11.871 0 21.461 11.672 21.461 26.078 0 14.407-9.59 26.079-21.46 26.079-11.825 0-21.438-11.672-21.438-26.079z" id="Path" stroke="#00C4BA" stroke-width="3" fill-rule="nonzero" stroke-linecap="round" stroke-linejoin="round"/><path id="Path" stroke="#00C4BA" stroke-width="3" fill-rule="nonzero" stroke-linecap="round" stroke-linejoin="round" d="M220.86 1145.364h57.96v45.207h-57.96z"/><path id="Path" stroke="#00C4BA" stroke-width="3" fill-rule="nonzero" stroke-linecap="round" stroke-linejoin="round" d="M197.664 1114.07h47.516v47.516h-47.516z"/><path id="Path" stroke="#00C4BA" stroke-width="3" fill-rule="nonzero" stroke-linecap="round" stroke-linejoin="round" d="M191.867 1094.406h41.719v40.563h-41.719zm102.762-189.113h56.3v85.446h-56.3zm-65.586 42.41h21.207v37.778h-21.207z"/><path id="Path" stroke="#00C4BA" stroke-width="3" fill-rule="nonzero" stroke-linecap="round" stroke-linejoin="round" d="M207.855 958.305h31.125v23.168h-31.125z"/><path id="Path" stroke="#00C4BA" stroke-width="3" fill-rule="nonzero" stroke-linecap="round" stroke-linejoin="round" d="M284.028 836.406v124.528H200.57l43.047-124.528z"/><path d="M282.055 873.164c0-10.441 8.433-18.902 18.875-18.902 10.418 0 18.879 8.46 18.879 18.902 0 10.418-8.461 18.875-18.88 18.875-10.44 0-18.874-8.457-18.874-18.875" id="Path" fill-rule="nonzero"/><path d="M282.035 873.164c0-10.441 8.434-18.902 18.875-18.902 10.418 0 18.88 8.46 18.88 18.902 0 10.418-8.462 18.875-18.88 18.875-10.441 0-18.875-8.457-18.875-18.875zM190.98 312.828l35.067-32.105h163.16v32.105zm-56.867 277.727H389.16v151.808H195.883l-21.336-28.187z" id="Path" stroke="#00C4BA" stroke-width="3" fill-rule="nonzero" stroke-linecap="round" stroke-linejoin="round"/><path id="Path" stroke="#00C4BA" stroke-width="3" fill-rule="nonzero" stroke-linecap="round" stroke-linejoin="round" d="M389.219 280.762H226.086l34.063-38.43h129.07zM134.137 467.5H389.21v123.067H134.137zm-.024-19.472c0-2.06.051-4.09.098-6.125l.305-.852c-.227-1.305-.153-2.535-.102-3.742l33.457-97.188c6.828-9.816 14.586-18.953 23.094-27.312h198.2V467.48H134.116l-.004-19.453z"/><path d="M389.219 273.824h-148.77c-7.582 0-13.73-12.273-13.73-27.437 0-15.133 6.148-27.41 13.73-27.41h148.77v54.847zm0 548.254h-.676c-78.57 0-149.55-32.43-200.336-84.617h201.008l.004 84.617zm-19.086-802.91c0-10.367 8.234-18.777 18.352-18.777l.675.027v18.75h-19.027z" id="Path" stroke="#00C4BA" stroke-width="3" fill-rule="nonzero" stroke-linecap="round" stroke-linejoin="round"/><path d="M389.219 287.063h-.676c-38.004 0-68.805-12.051-68.805-26.91h69.477l.004 26.91zm-.009-26.926h-69.5v-11.02h69.5z" id="Path" stroke="#00C4BA" stroke-width="3" fill-rule="nonzero" stroke-linecap="round" stroke-linejoin="round"/><path id="Path" stroke="#00C4BA" stroke-width="3" fill-rule="nonzero" stroke-linecap="round" stroke-linejoin="round" d="M389.21 249.149h-83.862v-11.496h83.863zm.009-11.504h-83.84l62.227-44.778h21.613zm-.009-44.785h-21.636v-8.739h21.637zm.009-8.743h-73.5l23.168-27.636h50.328z"/><path id="Path" stroke="#00C4BA" stroke-width="3" fill-rule="nonzero" stroke-linecap="round" stroke-linejoin="round" d="M342.953 156.488l9.438-7.78h36.824v7.78z"/><path id="Path" stroke="#00C4BA" stroke-width="3" fill-rule="nonzero" stroke-linecap="round" stroke-linejoin="round" d="M355.613 148.711v-9.035h33.559v9.035zm-73.835 70.301c7.582 0 13.73 12.273 13.73 27.41 0 15.16-6.148 27.434-13.73 27.434h-41.34c-7.582 0-13.73-12.274-13.73-27.434 0-15.137 6.148-27.41 13.73-27.41h41.34zm71.519-79.359l15.363-12.676h20.532v12.676zm-37.719 580.253h29.645v83.157l-35.492-4.34v-56.906l5.847-5.848z"/><path id="Path" stroke="#00C4BA" stroke-width="3" fill-rule="nonzero" stroke-linecap="round" stroke-linejoin="round" d="M389.21 126.992h-20.53v-5.171h20.53zM370.133 19.168h19.027v5.043h-20.507v-5.168h1.48zM287.074 731.54h44.352v32.128h-44.352z"/><path id="Path" stroke="#00C4BA" stroke-width="3" fill-rule="nonzero" stroke-linecap="round" stroke-linejoin="round" d="M389.219 131.106H378V19.129h11.219zm0 53.011h-21.613l6.55-27.636h15.063zm-31.782 76.02H343.23v-11.02h14.207zm-62.613 474.805c.098 0 1.657.328 1.754.378l.68.352.652.426c.102.05 1.18 1.207 1.23 1.305l4.696 8.007c.074.125.574 1.907.574 2.082v13.18c0 .602-1.101 2.887-1.578 3.262l-8.863 6.953c-.402.328-2.785.93-3.29.828l-8.53-1.504c-.125-.027-1.782-.805-1.91-.906l-18.825-15.637c-.328-.277-1.43-2.383-1.457-2.812l-.652-7.203c-.024-.25.453-2.286.578-2.508.3-.504.93-1.309 1.027-1.407.078-.074 1.356-.878 1.434-.906l9.539-3.637a27.246 27.246 0 011.48-.253h21.461z"/><path d="M388.512 805.18h.68v9.285h-.68c-73.52 0-133.535-28.54-184.344-77.031h12.852c45.882 42.191 105.878 67.746 171.492 67.746" id="Path" fill-rule="nonzero"/><path d="M388.512 805.18h.68v9.285h-.68c-73.52 0-133.535-28.539-184.344-77.031h12.852c45.883 42.191 105.879 67.746 171.492 67.746zm-52.062-75.055h52.76v30.196h-52.76zM178.645 332.813l-11.047-3.817 2.965-8.633 11.043 3.817zm-41.192 119.586l-11.043-3.79 2.961-8.636 11.043 3.816z" id="Path" stroke="#00C4BA" stroke-width="3" fill-rule="nonzero" stroke-linecap="round" stroke-linejoin="round"/><path id="Path" stroke="#00C4BA" stroke-width="3" fill-rule="nonzero" stroke-linecap="round" stroke-linejoin="round" d="M131.477 439.676L169.68 328.75l8.61 2.965-38.177 110.922zM193 718.942h124.95v10.367H193z"/><path id="Path" stroke="#00C4BA" stroke-width="3" fill-rule="nonzero" stroke-linecap="round" stroke-linejoin="round" d="M198.371 725.305h19.426v13.578H198.37zm-5.398-6.363l-21.813-68.575h29.118v68.575zm47.617-579.16h34.765v19.703H240.59zm-12.918-51.215l5.07 5.07-5.547 5.547-5.07-5.047zm-13.879 3.984l12.324-12.324 4.922 4.945-12.328 12.297zm48.129-28.082c4.445 11.394-2.684 30.246-18.172 45.734-15.488 15.512-34.34 22.617-45.734 18.2l63.906-63.934zm-10.792 40.613l14.304 14.305-12.551 12.527-14.281-14.308z"/><path d="M258.406 90.043l3.867 3.867-34.816 34.84-3.89-3.867c6.777-3.336 13.757-8.281 20.156-14.684 6.402-6.398 11.37-13.379 14.683-20.156" id="Path" fill-rule="nonzero"/><path d="M258.387 90.043l3.867 3.867-34.816 34.84-3.89-3.867c6.776-3.336 13.757-8.281 20.155-14.684 6.403-6.398 11.371-13.379 14.684-20.156zm-24.75 69.399h48.695v8.687h-48.695z" id="Path" stroke="#00C4BA" stroke-width="3" fill-rule="nonzero" stroke-linecap="round" stroke-linejoin="round"/><path d="M276.234 192.535h-36.523v-8.683h36.523v8.683zm0-17.394h-36.523v-6.953h36.523v6.953z" id="Shape" stroke="#00C4BA" stroke-width="3" fill-rule="nonzero" stroke-linecap="round" stroke-linejoin="round"/><path id="Path" stroke="#00C4BA" stroke-width="3" fill-rule="nonzero" stroke-linecap="round" stroke-linejoin="round" d="M227.84 192.535h60.293v8.11H227.84zm-.278-17.414h60.848v8.711h-60.848z"/><path id="Path" stroke="#00C4BA" stroke-width="3" fill-rule="nonzero" stroke-linecap="round" stroke-linejoin="round" d="M272.164 219.012h-28.387v-18.375h28.387zm-20.984-99.539h13.605v20.281H251.18z"/><path d="M274.176 275.84c0-8.055 6.101-14.582 13.656-14.582 7.531 0 13.629 6.527 13.629 14.582 0 8.058-6.098 14.586-13.629 14.586-7.555 0-13.656-6.528-13.656-14.586" id="Path" fill-rule="nonzero"/><path d="M274.195 275.817c0-8.059 6.102-14.586 13.657-14.586 7.531 0 13.629 6.527 13.629 14.586 0 8.054-6.098 14.582-13.63 14.582-7.554 0-13.656-6.528-13.656-14.582zm-45.23 83.148h44.379v44.406h-44.38zm-75.879-83.535h32.105v61.273h-32.105zm69.317 256.777c0-2.86 13.23-5.172 29.542-5.172 16.293 0 29.52 2.313 29.52 5.172v74.528c0-2.864-13.227-5.172-29.52-5.172-16.312 0-29.542 2.308-29.542 5.172v-74.528z" id="Path" stroke="#00C4BA" stroke-width="3" fill-rule="nonzero" stroke-linecap="round" stroke-linejoin="round"/><path d="M222.418 606.746c0-2.86 13.227-5.168 29.543-5.168 16.289 0 29.52 2.309 29.52 5.168 0 .254 8.156 22.14 8.156 22.617 0 3.64-16.867 6.574-37.676 6.574-20.836 0-37.703-2.933-37.703-6.574 0-.476 8.16-22.367 8.16-22.617" id="Path" fill-rule="nonzero"/><path d="M222.403 606.746c0-2.86 13.23-5.168 29.542-5.168 16.293 0 29.52 2.309 29.52 5.168 0 .254 8.16 22.14 8.16 22.617 0 3.641-16.867 6.575-37.68 6.575-20.832 0-37.699-2.934-37.699-6.575 0-.476 8.157-22.367 8.157-22.617zM161.422 261.23h15.41v19.177h-15.41zm136.301 107.567h89.605v77.942h-89.605z" id="Path" stroke="#00C4BA" stroke-width="3" fill-rule="nonzero" stroke-linecap="round" stroke-linejoin="round"/><path d="M259.996 328.05c0-5.472 4.442-9.913 9.914-9.913 5.445 0 9.89 4.441 9.89 9.914 0 5.472-4.445 9.89-9.89 9.89-5.473 0-9.914-4.418-9.914-9.89" id="Path" fill-rule="nonzero"/><path d="M259.996 328.059c0-5.473 4.442-9.914 9.914-9.914 5.446 0 9.891 4.441 9.891 9.914 0 5.472-4.445 9.89-9.89 9.89-5.473 0-9.915-4.418-9.915-9.89zm53.988 108.726h62.403V501.9h-62.403zm-116.718 27.118h101.812v39.808H197.266zm-51.106 9.957h51.106v29.847H146.16zm28.512-24.032h111.297v14.032H174.672zm129.211 69.914c0-2.183 10.066-3.918 22.465-3.918 12.402 0 22.465 1.735 22.465 3.918v56.703c0-2.183-10.063-3.94-22.465-3.94-12.399 0-22.465 1.757-22.465 3.94v-56.703z" id="Path" stroke="#00C4BA" stroke-width="3" fill-rule="nonzero" stroke-linecap="round" stroke-linejoin="round"/><path d="M303.895 576.422c0-2.184 10.066-3.938 22.468-3.938 12.399 0 22.465 1.754 22.465 3.938 0 .176 3.89 9.265 3.89 9.617 0 2.758-10.519 4.992-26.355 4.992-15.84 0-26.36-2.234-26.36-4.992 0-.351 3.892-9.441 3.892-9.617" id="Path" fill-rule="nonzero"/><path d="M303.883 576.418c0-2.183 10.066-3.941 22.465-3.941 12.402 0 22.465 1.758 22.465 3.941 0 .176 3.89 9.262 3.89 9.613 0 2.762-10.515 4.997-26.355 4.997-15.836 0-26.356-2.235-26.356-4.997 0-.351 3.891-9.437 3.891-9.613zm0 37.078c0-2.16 10.066-3.918 22.465-3.918 12.402 0 22.465 1.758 22.465 3.918V670.2c0-2.16-10.063-3.918-22.465-3.918-12.399 0-22.465 1.758-22.465 3.918v-56.703z" id="Path" stroke="#00C4BA" stroke-width="3" fill-rule="nonzero" stroke-linecap="round" stroke-linejoin="round"/><path d="M303.895 670.172c0-2.16 10.066-3.918 22.468-3.918 12.399 0 22.465 1.758 22.465 3.918 0 .2 3.89 9.262 3.89 9.637 0 2.761-10.519 4.996-26.355 4.996-15.84 0-26.36-2.235-26.36-4.996 0-.375 3.892-9.438 3.892-9.637" id="Path" fill-rule="nonzero"/><path d="M303.883 670.172c0-2.16 10.066-3.918 22.465-3.918 12.402 0 22.465 1.758 22.465 3.918 0 .2 3.89 9.262 3.89 9.637 0 2.761-10.515 4.996-26.355 4.996-15.836 0-26.356-2.235-26.356-4.996 0-.375 3.891-9.438 3.891-9.637zm-160.711 444.477h33.637v36.52h-33.637zm-2.882 56.804h66.062v9.262h-66.063zm-15.063-213.277h107.207v53.34H125.227z" id="Path" stroke="#00C4BA" stroke-width="3" fill-rule="nonzero" stroke-linecap="round" stroke-linejoin="round"/><path id="Path" stroke="#00C4BA" stroke-width="3" fill-rule="nonzero" stroke-linecap="round" stroke-linejoin="round" d="M35.926 961.649h95.637v39.984L35.926 986.57z"/><path d="M.598 974.113c0-11.996 12.199-21.71 27.234-21.71 15.063 0 27.262 9.714 27.262 21.71 0 12.024-12.2 21.739-27.262 21.739-15.035 0-27.234-9.715-27.234-21.739" id="Path" fill-rule="nonzero"/><path d="M.582 974.113c0-11.996 12.2-21.71 27.235-21.71 15.062 0 27.261 9.714 27.261 21.71 0 12.024-12.199 21.739-27.261 21.739-15.036 0-27.235-9.715-27.235-21.739zM178.13 708.727l2.96 8.633-11.043 3.793-2.96-8.637zm-41.188-119.524l2.984 8.637-11.07 3.816-2.961-8.636z" id="Path" stroke="#00C4BA" stroke-width="3" fill-rule="nonzero" stroke-linecap="round" stroke-linejoin="round"/><path id="Path" stroke="#00C4BA" stroke-width="3" fill-rule="nonzero" stroke-linecap="round" stroke-linejoin="round" d="M130.965 600.387l8.633-2.988L177.8 708.32l-8.633 2.965zm-2.528 940.293h18.325v26.61h-18.325zm-12.203 3.473h12.2v19.68h-12.2z"/><path d="M327.465 737h10.219c3.613 0 6.523 2.785 6.523 6.223v17.648c0 3.438-2.91 6.223-6.523 6.223h-10.22c-3.616 0-6.554-2.824-6.554-6.23v-17.65c0-3.437 2.938-6.222 6.555-6.222" id="Path" fill-rule="nonzero"/><path d="M327.465 737h10.219c3.613 0 6.523 2.785 6.523 6.223v17.648c0 3.438-2.91 6.223-6.523 6.223h-10.219c-3.613 0-6.55-2.785-6.55-6.223v-17.648c0-3.438 2.937-6.223 6.55-6.223zM134.113 467.5H389.16v68.55H134.113zm463.305 241.227l11.02 3.789-2.965 8.637-11.043-3.793zm41.125-119.524l11.043 3.817-2.984 8.636-11.047-3.816z" id="Path" stroke="#00C4BA" stroke-width="3" fill-rule="nonzero" stroke-linecap="round" stroke-linejoin="round"/><path id="Path" stroke="#00C4BA" stroke-width="3" fill-rule="nonzero" stroke-linecap="round" stroke-linejoin="round" d="M646.059 600.387L607.883 711.28l-8.637-2.96 38.18-110.922zm3.921 966.898h-18.324v-26.609h18.324zm12.207-3.405h-12.195v-19.68h12.195zM389.219 799.91H494.14s89.262 46.387 106.656 133.309c17.371 86.95 30.121 244.61 30.121 244.61l-70.71 51.003H389.222l-.004-428.922z"/><path id="Path" stroke="#00C4BA" stroke-width="3" fill-rule="nonzero" stroke-linecap="round" stroke-linejoin="round" d="M389.21 1482.977h242.778v184.918H389.211z"/><path id="Path" stroke="#00C4BA" stroke-width="3" fill-rule="nonzero" stroke-linecap="round" stroke-linejoin="round" d="M389.219 1667.848h242.8l48.094 86.172H389.215zm0-364.988c92.473 0 175.855 21.84 234.793 56.878H389.219v-56.878z"/><path d="M665.016 1819.18l13.933 3.363c1.805.426 2.332 2.133 2.059 3.312-.305 1.157-1.582 2.434-3.39 2.008l-12.575-3.039-35.746 29.117c-1.453 1.18-3.16.579-3.938-.351-.78-.926-1.082-2.684.348-3.863l36.852-29.997c.601-.503 1.68-.726 2.457-.55" id="Path" fill-rule="nonzero"/><path d="M665.016 1819.18l13.933 3.363c1.805.426 2.332 2.133 2.059 3.313-.305 1.156-1.582 2.433-3.39 2.007l-12.575-3.039-35.746 29.118c-1.453 1.18-3.16.578-3.937-.352-.782-.926-1.082-2.684.347-3.863l36.852-29.996c.601-.504 1.68-.727 2.457-.551zm-181.801-28.79h-94.028v-10.14h94.028zm180.645-10.152c-.25 1.38-.653 2.735-1.282 4.016-5.496 11.57-24.62 14.258-42.695 5.973-5.824-2.66-10.844-6.125-14.758-9.989h58.735z" id="Path" stroke="#00C4BA" stroke-width="3" fill-rule="nonzero" stroke-linecap="round" stroke-linejoin="round"/><path d="M389.219 1780.238h82.207c5.043 3.036 7.906 6.5 7.906 10.141 0 12.524-33.383 22.691-74.554 22.691-5.344 0-10.54-.175-15.563-.503l.004-32.329z" id="Path" stroke="#00C4BA" stroke-width="3" fill-rule="nonzero" stroke-linecap="round" stroke-linejoin="round"/><path d="M397.508 1789.813c1.281 0 2.309 2.207 2.309 4.918 0 2.738-1.028 4.945-2.309 4.945h-8.332v-9.863h8.332z" id="Path" stroke="#00C4BA" stroke-width="3" fill-rule="nonzero" stroke-linecap="round" stroke-linejoin="round"/><path d="M395.234 1794.695c0-2.71 1.028-4.918 2.286-4.918 1.277 0 2.308 2.207 2.308 4.918 0 2.739-1.031 4.946-2.308 4.946-1.258 0-2.286-2.207-2.286-4.946" id="Path" fill-rule="nonzero"/><path d="M395.195 1794.695c0-2.71 1.028-4.917 2.286-4.917 1.277 0 2.308 2.207 2.308 4.917 0 2.739-1.031 4.946-2.308 4.946-1.258 0-2.286-2.207-2.286-4.946zm200.872-4.949l49.777 48.145-4.82 4.496-53.692-44.957z" id="Path" stroke="#00C4BA" stroke-width="3" fill-rule="nonzero" stroke-linecap="round" stroke-linejoin="round"/><path id="Path" stroke="#00C4BA" stroke-width="3" fill-rule="nonzero" stroke-linecap="round" stroke-linejoin="round" d="M596.067 1789.746l13.078 1.282 39.988 43.425-3.29 3.438zm18.57 61.821h25.754v21.382h-25.754zm0 21.394h25.754l-6.703 28.442h-12.325z"/><path id="Path" stroke="#00C4BA" stroke-width="3" fill-rule="nonzero" stroke-linecap="round" stroke-linejoin="round" d="M604.602 1852.207h45.859v4.492H604.6z"/><path id="Path" stroke="#00C4BA" stroke-width="3" fill-rule="nonzero" stroke-linecap="round" stroke-linejoin="round" d="M626.074 1849.446h2.863v70.183h-2.863zm41.899-11.762l13.254-21.61 18.699 10.993-13.254 21.636zm19.664 9.898l13.254-21.637 21.41 20.282-6.352 10.363z"/><path id="Path" stroke="#00C4BA" stroke-width="3" fill-rule="nonzero" stroke-linecap="round" stroke-linejoin="round" d="M663.348 1846.488l23.617-38.503 3.918 2.308-23.621 38.504z"/><path id="Path" stroke="#00C4BA" stroke-width="3" fill-rule="nonzero" stroke-linecap="round" stroke-linejoin="round" d="M671.957 1826.953l1.48-2.41 61.372 36.145-1.453 2.41z"/><path d="M554.824 1793.281c0-3.363 6.555-6.074 14.61-6.074 8.109 0 14.632 2.711 14.632 6.074 0 3.364-6.523 6.102-14.632 6.102-8.055 0-14.61-2.738-14.61-6.102" id="Path" fill-rule="nonzero"/><path d="M554.813 1793.281c0-3.363 6.55-6.074 14.61-6.074 8.105 0 14.632 2.711 14.632 6.074 0 3.364-6.524 6.102-14.633 6.102-8.059 0-14.61-2.738-14.61-6.102zm47.835 2.25h-15.964v-15.285h15.964z" id="Path" stroke="#00C4BA" stroke-width="3" fill-rule="nonzero" stroke-linecap="round" stroke-linejoin="round"/><path id="Path" stroke="#00C4BA" stroke-width="3" fill-rule="nonzero" stroke-linecap="round" stroke-linejoin="round" d="M584.07 1793.281h-11.347v-13.027h11.347z"/><path id="Path" stroke="#00C4BA" stroke-width="3" fill-rule="nonzero" stroke-linecap="round" stroke-linejoin="round" d="M592.828 1801.508H582.11v-21.312h10.72z"/><path id="Path" stroke="#00C4BA" stroke-width="3" fill-rule="nonzero" stroke-linecap="round" stroke-linejoin="round" d="M675.492 1754.02l12.875 26.23H389.168v-26.23z"/><path d="M424.703 1675.816c-11.047-7.957-19.203-16.316-18.172-18.675 1.004-2.383 10.766 2.136 21.813 10.093 11.066 7.957 19.199 16.317 18.195 18.672-1.004 2.36-10.793-2.156-21.836-10.09" id="Path" fill-rule="nonzero"/><path d="M424.692 1675.817c-11.047-7.957-19.204-16.317-18.176-18.676 1.004-2.383 10.77 2.137 21.812 10.094 11.07 7.957 19.203 16.316 18.2 18.671-1.004 2.36-10.793-2.156-21.836-10.09z" id="Path" stroke="#00C4BA" stroke-width="3" fill-rule="nonzero" stroke-linecap="round" stroke-linejoin="round"/><path d="M427.914 1675.625c-11.242 7.453-21.133 11.547-22.086 9.137-.957-2.41 7.402-10.418 18.672-17.871 11.246-7.43 21.137-11.524 22.09-9.114.953 2.41-7.402 10.418-18.676 17.848" id="Path" fill-rule="nonzero"/><path d="M427.903 1675.625c-11.247 7.453-21.137 11.547-22.09 9.137-.953-2.41 7.406-10.418 18.675-17.871 11.247-7.43 21.137-11.524 22.09-9.113.953 2.41-7.406 10.417-18.675 17.847z" id="Path" stroke="#00C4BA" stroke-width="3" fill-rule="nonzero" stroke-linecap="round" stroke-linejoin="round"/><path d="M418.707 1670.547c0-4.617 3.816-8.36 8.535-8.36s8.535 3.743 8.535 8.36c0 4.621-3.816 8.36-8.535 8.36s-8.535-3.739-8.535-8.36" id="Path" fill-rule="nonzero"/><path d="M418.715 1670.547c0-4.617 3.813-8.36 8.531-8.36 4.719 0 8.535 3.743 8.535 8.36 0 4.621-3.816 8.36-8.535 8.36-4.718 0-8.531-3.739-8.531-8.36zm208.52-279.332h8.433v51.36h-8.36z" id="Path" stroke="#00C4BA" stroke-width="3" fill-rule="nonzero" stroke-linecap="round" stroke-linejoin="round"/><path id="Path" stroke="#00C4BA" stroke-width="3" fill-rule="nonzero" stroke-linecap="round" stroke-linejoin="round" d="M635.652 1397.965h29.692v37.902h-29.692z"/><path id="Path" stroke="#00C4BA" stroke-width="3" fill-rule="nonzero" stroke-linecap="round" stroke-linejoin="round" d="M665.34 1401.563h8.48v30.773h-8.48zm8.48 8.48h9.664v13.805h-9.664zm-284.601-50.313h237.43v123.223h-237.43zm-.009 360.938h7.255V1734h-7.254zm163.985-523.128h19.852v49.3h-19.852zm115.035 32.066v22.316l-34.792-7.129v-8.035zm-230.976-32.066h19.851v49.3h-19.851zm230.976 60.534v22.34l-34.792-7.156v-8.031z"/><path id="Path" stroke="#00C4BA" stroke-width="3" fill-rule="nonzero" stroke-linecap="round" stroke-linejoin="round" d="M389.21 1234.684h244.462v12.172H389.21zm.009 110.394l6.953 14.633h-6.953z"/><path id="Path" stroke="#00C4BA" stroke-width="3" fill-rule="nonzero" stroke-linecap="round" stroke-linejoin="round" d="M618.11 1246.828l8.484 112.875h-13.457l-8.484-112.875z"/><path id="Path" stroke="#00C4BA" stroke-width="3" fill-rule="nonzero" stroke-linecap="round" stroke-linejoin="round" d="M447.567 1253.188l-50.48 106.554h-7.856v-14.632l46.539-98.247h23.644l69.555 100.579 24.246-100.579h19.855l52.887 112.875H611.2l-47.14-100.601-24.274 100.601h-18.523z"/><path d="M625.113 1280.113c0-15.562 4.946-28.215 11.07-28.215 6.122 0 11.094 12.653 11.094 28.215 0 15.586-4.968 28.215-11.093 28.215s-11.07-12.629-11.07-28.215" id="Path" fill-rule="nonzero"/><path d="M625.113 1280.113c0-15.562 4.946-28.214 11.07-28.214 6.122 0 11.095 12.652 11.095 28.214 0 15.586-4.97 28.215-11.094 28.215-6.125 0-11.07-12.629-11.07-28.215z" id="Path" stroke="#00C4BA" stroke-width="3" fill-rule="nonzero" stroke-linecap="round" stroke-linejoin="round"/><path id="Path" stroke="#00C4BA" stroke-width="3" fill-rule="nonzero" stroke-linecap="round" stroke-linejoin="round" d="M631.215 1241.172v35.695H605.16l-20.332-35.695z"/><path id="Path" stroke="#00C4BA" stroke-width="3" fill-rule="nonzero" stroke-linecap="round" stroke-linejoin="round" d="M609.047 1241.172h22.191v42.27h-22.191zM536.63 219.012c7.577 0 13.73 12.273 13.73 27.41 0 15.16-6.153 27.434-13.73 27.434h-41.317c-7.606 0-13.758-12.274-13.758-27.434 0-15.137 6.152-27.41 13.758-27.41h41.316zm224.323 213.082h-7.855v-7.156h7.855zm-12.656-14.137h17.418v6.977h-17.418zm53.91 14.137C797.29 443.289 778.914 451.57 757 451.57c-21.91 0-40.262-8.285-45.18-19.476h90.387z"/><path id="Path" stroke="#00C4BA" stroke-width="3" fill-rule="nonzero" stroke-linecap="round" stroke-linejoin="round" d="M743.539 446.489h27.012v26.906h-27.012z"/><path id="Path" stroke="#00C4BA" stroke-width="3" fill-rule="nonzero" stroke-linecap="round" stroke-linejoin="round" d="M736.73 458.762h44.88v25.652h-44.88v-1.883h2.106v-4.82h1.106v-15.738l-3.211-3.113z"/><path id="Path" stroke="#00C4BA" stroke-width="3" fill-rule="nonzero" stroke-linecap="round" stroke-linejoin="round" d="M774.129 462.489h11.144v14.656H774.13zm-41.703-17.609h49.246v8.308h-49.246zm-10.476 24.612h16.867v13.051h-19.329v-1.605h-5.468v-18.953h7.93z"/><path id="Path" stroke="#00C4BA" stroke-width="3" fill-rule="nonzero" stroke-linecap="round" stroke-linejoin="round" d="M707.555 452.14h11.422l7.855 15.462v1.883h-4.844v-7.504h-7.93v18.949h5.47v1.61h7.304v2.937h-19.277z"/><path id="Path" stroke="#00C4BA" stroke-width="3" fill-rule="nonzero" stroke-linecap="round" stroke-linejoin="round" d="M720.856 455.867h12.777l6.3 6.102v15.71h-1.105v-8.206h-12.023v-1.883zm-16.063-2.441h2.734v24.777h-2.734zm38.747 8.355a16.76 16.76 0 0113.507-6.804c5.57 0 10.492 2.687 13.504 6.804v11.622h-27.008l-.004-11.622z"/><path id="Path" stroke="#00C4BA" stroke-width="3" fill-rule="nonzero" stroke-linecap="round" stroke-linejoin="round" d="M755.684 429.715h2.738v48.797h-2.738zm-55.84 24.805h6.3v21.812h-6.3z"/><path id="Path" stroke="#00C4BA" stroke-width="3" fill-rule="nonzero" stroke-linecap="round" stroke-linejoin="round" d="M699.844 476.367L618.77 348.43h14.058l67.02 106.129z"/><path d="M606.914 335.36h36.399v13.05h-26.81a173.41 173.41 0 00-9.589-13.05" id="Path" fill-rule="nonzero"/><path d="M606.926 335.383h36.398v13.05h-26.808a174.388 174.388 0 00-9.59-13.05z" id="Path" stroke="#00C4BA" stroke-width="3" fill-rule="nonzero" stroke-linecap="round" stroke-linejoin="round"/><path d="M597.727 324.984h40.109v10.368H606.91a189.4 189.4 0 00-9.183-10.368" id="Path" fill-rule="nonzero"/><path d="M597.738 324.973h40.11v10.367h-30.922c-2.938-3.562-6-7.027-9.188-10.367z" id="Path" stroke="#00C4BA" stroke-width="3" fill-rule="nonzero" stroke-linecap="round" stroke-linejoin="round"/><path id="Path" stroke="#00C4BA" stroke-width="3" fill-rule="nonzero" stroke-linecap="round" stroke-linejoin="round" d="M637.836 324.973h43.047l-37.574 17.07v-6.703h-5.473z"/><path d="M683.973 408.574l11.597 18.348c3.89 6.125-5.496 11.797-9.363 5.7l-11.598-18.376c-3.863-6.125 5.5-11.797 9.364-5.672" id="Path" fill-rule="nonzero"/><path d="M683.973 408.574l11.597 18.348c3.891 6.125-5.496 11.797-9.363 5.7l-11.597-18.376c-3.864-6.125 5.5-11.797 9.363-5.672z" id="Path" stroke="#00C4BA" stroke-width="3" fill-rule="nonzero" stroke-linecap="round" stroke-linejoin="round"/><path d="M657.883 367.309l16.996 26.882c3.863 6.125-5.5 11.82-9.363 5.696l-16.965-26.883c-3.867-6.125 5.496-11.797 9.363-5.7" id="Path" fill-rule="nonzero"/><path d="M657.883 367.32l16.996 26.883c3.863 6.125-5.5 11.82-9.363 5.7L648.52 373.02c-3.864-6.125 5.5-11.801 9.363-5.7z" id="Path" stroke="#00C4BA" stroke-width="3" fill-rule="nonzero" stroke-linecap="round" stroke-linejoin="round"/><path id="Path" stroke="#00C4BA" stroke-width="3" fill-rule="nonzero" stroke-linecap="round" stroke-linejoin="round" d="M647.41 366.035l5.121 7.957-15.789 8.235-5.12-7.961z"/><path id="Path" stroke="#00C4BA" stroke-width="3" fill-rule="nonzero" stroke-linecap="round" stroke-linejoin="round" d="M651.653 374.453l4.19 6.528-14.206 7.402-4.192-6.523zm-262.434-93.691h158.84l38.004 32.105H389.219zm0 309.793H642.91l-40.41 123.62-21.336 28.188H389.215zM548 280.762H389.188v-38.43h124.777z"/><path id="Path" stroke="#00C4BA" stroke-width="3" fill-rule="nonzero" stroke-linecap="round" stroke-linejoin="round" d="M389.21 467.5h253.677v123.067H389.21zm.009-154.672h196.844c35.09 34.364 56.855 82.23 56.855 135.219V467.5H389.223l-.004-154.672zm147.411-93.816c7.577 0 13.73 12.273 13.73 27.41 0 15.16-6.153 27.434-13.73 27.434H389.21v-54.844h147.42zm52.241 518.438c-50.605 52.035-121.34 84.417-199.652 84.617v-84.618H588.87z"/><path d="M406.86 19.16h-17.673V.41c9.84.352 17.672 8.61 17.672 18.75" id="Path" fill-rule="nonzero"/><path d="M406.89 19.168h-17.67V.418c9.84.352 17.672 8.61 17.672 18.75zm50.442 240.969c0 14.785-30.422 26.781-68.125 26.906v-26.906h68.125zm0 0h-68.125v-11.02h68.125z" id="Path" stroke="#00C4BA" stroke-width="3" fill-rule="nonzero" stroke-linecap="round" stroke-linejoin="round"/><path id="Path" stroke="#00C4BA" stroke-width="3" fill-rule="nonzero" stroke-linecap="round" stroke-linejoin="round" d="M471.695 249.149h-82.508v-11.496h82.508zm-.031-11.504h-82.508v-44.778h20.282zm-62.223-44.785h-20.23v-8.739h20.23zm51.942-8.743h-72.145v-27.636h48.973z"/><path id="Path" stroke="#00C4BA" stroke-width="3" fill-rule="nonzero" stroke-linecap="round" stroke-linejoin="round" d="M389.219 148.711h35.469l9.437 7.781H389.22zm0-9.058h32.23v9.035h-32.23z"/><path id="Path" stroke="#00C4BA" stroke-width="3" fill-rule="nonzero" stroke-linecap="round" stroke-linejoin="round" d="M389.219 126.992h19.176l15.363 12.676h-34.54zm19.144 0h-19.152v-5.171h19.152zM389.219 24.18v-5.047h17.672l1.504-.125v5.172z"/><path id="Path" stroke="#00C4BA" stroke-width="3" fill-rule="nonzero" stroke-linecap="round" stroke-linejoin="round" d="M399.074 131.106h-9.863V19.129h9.863zm10.387 53.011h-20.23v-27.636h13.703z"/><path d="M549.031 258.117h53.59v4.82h-55.047a40.72 40.72 0 001.457-4.82m1.078-16.84h52.512v8.258h-52.36a67.73 67.73 0 00.075-3.137 55.92 55.92 0 00-.227-5.12m-5.27-16.844h57.782v8.257h-54.117c-.93-3.238-2.184-6.023-3.664-8.257" id="Shape"/><path d="M549.031 258.082h53.59v4.817h-55.047a40.533 40.533 0 001.457-4.817zm1.079-16.844h52.511v8.258h-52.36c.052-1.031.075-2.082.075-3.136a55.92 55.92 0 00-.226-5.122zm-5.27-16.843h57.781v8.258h-54.117c-.93-3.239-2.184-6.024-3.664-8.258z" id="Shape" stroke="#00C4BA" stroke-width="3" fill-rule="nonzero" stroke-linecap="round" stroke-linejoin="round"/><path d="M438.57 448.477c.075.152.625 2.71.625 2.863v9.414c0 .55-1.277 4.09-1.628 4.492l-32.48 27.485c-5.196 6.175-12.177 3.664-12.278-4.418l-.524-46.813c-.054-3.742 3.188-7.027 6.95-7.027h28.492c1.804 0 5.597 2.433 6.351 4.066l4.492 9.938z" id="Path" stroke="#00C4BA" stroke-width="3" fill-rule="nonzero" stroke-linecap="round" stroke-linejoin="round"/><path id="Path" stroke="#00C4BA" stroke-width="3" fill-rule="nonzero" stroke-linecap="round" stroke-linejoin="round" d="M389.219 467.5H642.91v68.55H389.22zm-170.992 761.34l-70.711-51.012s12.726-157.656 30.12-244.605C195.032 846.3 284.294 799.91 284.294 799.91h104.899v428.93H218.227zm-71.817 254.137h242.777v184.918H146.41z"/><path id="Path" stroke="#00C4BA" stroke-width="3" fill-rule="nonzero" stroke-linecap="round" stroke-linejoin="round" d="M146.387 1667.848H389.16v86.172H98.29zm8.031-308.118c58.938-35.042 142.32-56.878 234.77-56.878v56.879h-234.77zm234.792 430.66h-40.46v-10.14h40.46z"/><path d="M330.2 1790.39c0-3.64 2.835-7.105 7.878-10.14h51.106v32.328c-33.711-2.183-58.985-11.27-58.985-22.187" id="Path" fill-rule="nonzero"/><path d="M330.164 1790.39c0-3.64 2.836-7.105 7.883-10.14h51.106v32.328c-33.711-2.183-58.989-11.27-58.989-22.187zm-113.094-10.152l-65.035 24.723-9.816-24.723z" id="Path" stroke="#00C4BA" stroke-width="3" fill-rule="nonzero" stroke-linecap="round" stroke-linejoin="round"/><path id="Path" stroke="#00C4BA" stroke-width="3" fill-rule="nonzero" stroke-linecap="round" stroke-linejoin="round" d="M229.117 1800.672H197.04v-20.457h32.078z"/><path d="M202.941 1796.496c3.059-5.398 20.457-1.684 38.856 8.309 18.398 10.015 30.848 22.488 27.785 27.91-3.062 5.398-20.457 1.683-38.855-8.332-18.399-9.992-30.848-22.492-27.786-27.887" id="Path" fill-rule="nonzero"/><path d="M202.934 1796.496c3.062-5.398 20.457-1.683 38.855 8.309 18.399 10.015 30.852 22.488 27.79 27.91-3.063 5.398-20.462 1.684-38.86-8.332-18.399-9.992-30.848-22.492-27.785-27.887z" id="Path" stroke="#00C4BA" stroke-width="3" fill-rule="nonzero" stroke-linecap="round" stroke-linejoin="round"/><path d="M216.301 1794.309c2.23-3.938 14.934-1.227 28.336 6.074 13.43 7.281 22.492 16.395 20.258 20.332l-2.258 3.992c-2.234 3.942-14.91 1.23-28.34-6.047-13.406-7.304-22.492-16.394-20.258-20.332l2.262-4.02z" id="Path" stroke="#00C4BA" stroke-width="3" fill-rule="nonzero" stroke-linecap="round" stroke-linejoin="round"/><path d="M215.309 1795.402c2.234-3.941 14.91-1.23 28.34 6.051 13.402 7.305 22.464 16.39 20.23 20.356-2.207 3.918-14.91 1.207-28.313-6.075-13.43-7.277-22.492-16.39-20.257-20.332" id="Path" fill-rule="nonzero"/><path d="M215.336 1795.403c2.234-3.942 14.91-1.23 28.34 6.05 13.402 7.305 22.465 16.39 20.23 20.356-2.21 3.918-14.91 1.207-28.312-6.074-13.43-7.278-22.492-16.391-20.258-20.332z" id="Path" stroke="#00C4BA" stroke-width="3" fill-rule="nonzero" stroke-linecap="round" stroke-linejoin="round"/><path d="M203.832 1795.469c3.063-5.399 20.457-1.684 38.856 8.309 18.425 10.011 30.851 22.488 27.812 27.91l-3.113 5.472c-3.059 5.422-20.457 1.684-38.879-8.308-18.398-9.992-30.824-22.492-27.79-27.887l3.114-5.496zm160.071-15.359c3.765 0 6.824 6.55 6.824 14.609 0 8.082-3.059 14.633-6.824 14.633h-58.79c-3.765 0-6.824-6.551-6.824-14.633 0-8.059 3.059-14.61 6.824-14.61h58.79z" id="Path" stroke="#00C4BA" stroke-width="3" fill-rule="nonzero" stroke-linecap="round" stroke-linejoin="round"/><path d="M357.082 1794.695c0-8.058 3.063-14.61 6.856-14.61 3.761 0 6.851 6.552 6.851 14.61 0 8.082-3.09 14.633-6.851 14.633-3.793 0-6.856-6.55-6.856-14.633" id="Path" fill-rule="nonzero"/><path d="M357.09 1794.695c0-8.058 3.063-14.609 6.852-14.609 3.765 0 6.851 6.55 6.851 14.61 0 8.082-3.086 14.632-6.851 14.632-3.79 0-6.852-6.55-6.852-14.633z" id="Path" stroke="#00C4BA" stroke-width="3" fill-rule="nonzero" stroke-linecap="round" stroke-linejoin="round"/><path d="M389.219 1799.645h-25.05c-1.282 0-2.31-2.211-2.31-4.922 0-2.735 1.028-4.945 2.31-4.945h25.05v9.867zm0-19.407H90.039l12.875-26.23H389.22zM33.055 1642.34h6.297v26.555h-6.297zm14.152 0h8.79v26.555h-8.79zm17.093-4.887h11.673v36.325H64.3zm19.985-3.211h26.258v42.797H84.285z" id="Path" stroke="#00C4BA" stroke-width="3" fill-rule="nonzero" stroke-linecap="round" stroke-linejoin="round"/><path id="Path" stroke="#00C4BA" stroke-width="3" fill-rule="nonzero" stroke-linecap="round" stroke-linejoin="round" d="M39.355 1638.934h7.86v33.457h-7.86zm36.622-7.391h8.308v48.168h-8.308zm-19.985 0h8.309v48.168h-8.309zm54.539 2.699H146.4v33.637l-5.121 9.16h-30.75zM37.7 1438.254h6.273v26.531h-6.274zm14.155 0h8.786v26.531h-8.786zm17.067-4.883h11.695v36.293H68.922zm19.984-3.215h26.254v42.797H88.906z"/><path id="Path" stroke="#00C4BA" stroke-width="3" fill-rule="nonzero" stroke-linecap="round" stroke-linejoin="round" d="M43.969 1434.785h7.883v33.457h-7.883zm36.648-7.328h8.285v48.168h-8.285zm-19.977 0h8.282v48.168H60.64zm75.72-13.429v42.796l-21.207 16.09v-42.797zm0 0h14.812v42.796H136.36zm15.425-54.298h237.403v123.247H151.785z"/><path id="Path" stroke="#00C4BA" stroke-width="3" fill-rule="nonzero" stroke-linecap="round" stroke-linejoin="round" d="M174.95 1370.332h116.847v97.942H174.949zm155.827 0h58.407v97.942h-58.407z"/><path id="Path" stroke="#00C4BA" stroke-width="3" fill-rule="nonzero" stroke-linecap="round" stroke-linejoin="round" d="M284.844 1461.32H181.902v-84.035h102.942zm104.366 0h-51.48v-84.035h51.48z"/><path d="M172.738 1600.957c0-44.656 36.196-80.852 80.852-80.852 31.398 0 58.61 17.899 72.012 44.028-7.254 10.469-11.497 23.144-11.497 36.824s4.243 26.383 11.497 36.824c-13.403 26.153-40.614 44.051-72.012 44.051-44.656 0-80.852-36.219-80.852-80.875" id="Path" fill-rule="nonzero"/><path d="M172.73 1600.957c0-44.656 36.196-80.851 80.852-80.851 31.403 0 58.61 17.898 72.016 44.027-7.254 10.469-11.496 23.145-11.496 36.824 0 13.68 4.242 26.383 11.496 36.824-13.406 26.153-40.613 44.051-72.016 44.051-44.656 0-80.851-36.219-80.851-80.875z" id="Path" stroke="#00C4BA" stroke-width="3" fill-rule="nonzero" stroke-linecap="round" stroke-linejoin="round"/><path d="M259.691 1666.563v21.363H247.52v-27.586a41.385 41.385 0 0012.171 6.223M247.52 1514.05h12.171v73.52a41.396 41.396 0 00-12.171 6.226v-79.746z" id="Shape" fill-rule="nonzero"/><path d="M259.672 1666.5v21.36H247.5v-27.586a41.396 41.396 0 0012.172 6.226zM247.5 1513.988h12.172v73.52a41.386 41.386 0 00-12.172 6.223v-79.743z" id="Shape" stroke="#00C4BA" stroke-width="3" fill-rule="nonzero" stroke-linecap="round" stroke-linejoin="round"/><path d="M314.105 1600.957c0-35.719 28.97-64.684 64.684-64.684 3.54 0 7.027.301 10.418.829v127.714a65.02 65.02 0 01-10.418.829c-35.719 0-64.684-28.97-64.684-64.684" id="Path" fill-rule="nonzero"/><path d="M314.102 1600.957c0-35.719 28.965-64.683 64.68-64.683 3.542 0 7.03.3 10.417.828v127.715a65.03 65.03 0 01-10.418.828c-35.718 0-64.68-28.969-64.68-64.684v-.004z" id="Path" stroke="#00C4BA" stroke-width="3" fill-rule="nonzero" stroke-linecap="round" stroke-linejoin="round"/><path d="M230.75 1627.047c0-22.844 18.523-41.395 41.39-41.395 22.868 0 41.395 18.551 41.395 41.395 0 22.867-18.527 41.414-41.394 41.414-22.868 0-41.391-18.547-41.391-41.414" id="Path" fill-rule="nonzero"/><path d="M230.758 1627.047c0-22.844 18.523-41.394 41.39-41.394 22.868 0 41.391 18.55 41.391 41.394 0 22.867-18.523 41.414-41.39 41.414-22.868 0-41.391-18.547-41.391-41.414zm106.019 81.734h12.75v37.102h-12.75zm12.75 11.887h39.66V1734h-39.66zm-196.492-7.836h183.742v28.989H153.035z" id="Path" stroke="#00C4BA" stroke-width="3" fill-rule="nonzero" stroke-linecap="round" stroke-linejoin="round"/><path d="M362.281 1663.543h-57.457a80.93 80.93 0 0020.785-25.754c8.66 12.477 21.586 21.79 36.672 25.754m-69.476-133.285h96.386v6.855a67.206 67.206 0 00-10.39-.832c-22.04 0-41.516 11.047-53.188 27.864a81.336 81.336 0 00-32.808-33.887" id="Shape" fill-rule="nonzero"/><path d="M362.293 1663.543H304.84a80.918 80.918 0 0020.781-25.754c8.66 12.477 21.59 21.79 36.672 25.754zm-69.476-133.285h96.39v6.855a67.257 67.257 0 00-10.394-.832c-22.04 0-41.516 11.047-53.188 27.864-7.328-14.282-18.8-26.106-32.808-33.887z" id="Shape" stroke="#00C4BA" stroke-width="3" fill-rule="nonzero" stroke-linecap="round" stroke-linejoin="round"/><path id="Path" stroke="#00C4BA" stroke-width="3" fill-rule="nonzero" stroke-linecap="round" stroke-linejoin="round" d="M359.992 1495.446h12.102v34.789h-12.102zm-112.464 29.492l-95.73-41.993v-7.48l95.73 41.969zm-88.676-1.09h69.554c-32.332 10.793-55.675 41.215-55.675 77.058 0 25.551 11.847 48.317 30.347 63.153h-44.226v-140.211zm46.496-326.308h19.855v49.3h-19.855zm115.945 0h19.852v49.3h-19.852z"/><path id="Path" stroke="#00C4BA" stroke-width="3" fill-rule="nonzero" stroke-linecap="round" stroke-linejoin="round" d="M151.984 1234.684h237.227v12.172H151.984z"/><path id="Path" stroke="#00C4BA" stroke-width="3" fill-rule="nonzero" stroke-linecap="round" stroke-linejoin="round" d="M173.695 1246.828l-8.484 112.875h-13.453l8.484-112.875z"/><path id="Path" stroke="#00C4BA" stroke-width="3" fill-rule="nonzero" stroke-linecap="round" stroke-linejoin="round" d="M330.871 1253.188l-73.699 106.554h-18.547l-24.246-100.601-47.14 100.601h-14.762l52.863-112.875h19.883l24.246 100.575 69.555-100.575h23.644l46.535 98.243v14.636h-7.855z"/><path id="Path" stroke="#00C4BA" stroke-width="3" fill-rule="nonzero" stroke-linecap="round" stroke-linejoin="round" d="M389.219 1359.73h-6.926l6.926-14.636z"/><path d="M138.352 1280.113c0-15.562 4.945-28.215 11.07-28.215s11.098 12.653 11.098 28.215c0 15.586-4.973 28.215-11.098 28.215-6.125 0-11.07-12.629-11.07-28.215" id="Path" fill-rule="nonzero"/><path d="M138.352 1280.113c0-15.562 4.945-28.214 11.07-28.214s11.098 12.652 11.098 28.214c0 15.586-4.973 28.215-11.098 28.215-6.125 0-11.07-12.629-11.07-28.215zm-20.946-50.507l34.79 7.152v8.035l-34.79 7.13z" id="Path" stroke="#00C4BA" stroke-width="3" fill-rule="nonzero" stroke-linecap="round" stroke-linejoin="round"/><path id="Path" stroke="#00C4BA" stroke-width="3" fill-rule="nonzero" stroke-linecap="round" stroke-linejoin="round" d="M154.418 1241.172h46.36l-20.333 35.695h-26.027z"/><path id="Path" stroke="#00C4BA" stroke-width="3" fill-rule="nonzero" stroke-linecap="round" stroke-linejoin="round" d="M154.418 1241.172h22.164v42.27h-22.164zm-37.012 16.902l34.79 7.153v8.031l-34.79 7.156zm271.813-119.328l-55.899 19.403-38.253-8.133-10.418-12.727v-24.347l51.004 12.75 53.566-10.895zm-16.519 20.563h16.487v53.312H372.7zm-102.013 11.566h57.958v31.301h-57.958zm-57.96-103.199h16.238v44.05h-16.238z"/><path id="Path" stroke="#00C4BA" stroke-width="3" fill-rule="nonzero" stroke-linecap="round" stroke-linejoin="round" d="M315.918 1150.055h26.656v37.074h-26.656zm-147.242-139.121H389.21v81.125H168.676z"/><path d="M219.68 1101.344c0-18.574 11.422-33.633 25.504-33.633 14.105 0 25.527 15.059 25.527 33.633 0 18.55-11.422 33.613-25.527 33.613-14.082 0-25.504-15.062-25.504-33.613" id="Path" fill-rule="nonzero"/><path d="M219.703 1101.344c0-18.574 11.422-33.633 25.504-33.633 14.106 0 25.528 15.059 25.528 33.633 0 18.55-11.418 33.613-25.528 33.613-14.082 0-25.504-15.062-25.504-33.613z" id="Path" stroke="#00C4BA" stroke-width="3" fill-rule="nonzero" stroke-linecap="round" stroke-linejoin="round"/><path d="M244.027 1135.531c0-14.406 9.614-26.078 21.434-26.078 11.875 0 21.46 11.672 21.46 26.078 0 14.407-9.585 26.078-21.46 26.078-11.82 0-21.434-11.671-21.434-26.078" id="Path" fill-rule="nonzero"/><path d="M244.059 1135.531c0-14.406 9.613-26.078 21.437-26.078 11.871 0 21.461 11.672 21.461 26.078 0 14.407-9.59 26.079-21.46 26.079-11.825 0-21.438-11.672-21.438-26.079z" id="Path" stroke="#00C4BA" stroke-width="3" fill-rule="nonzero" stroke-linecap="round" stroke-linejoin="round"/><path id="Path" stroke="#00C4BA" stroke-width="3" fill-rule="nonzero" stroke-linecap="round" stroke-linejoin="round" d="M220.86 1145.364h57.96v45.207h-57.96z"/><path id="Path" stroke="#00C4BA" stroke-width="3" fill-rule="nonzero" stroke-linecap="round" stroke-linejoin="round" d="M197.664 1114.07h47.516v47.516h-47.516z"/><path id="Path" stroke="#00C4BA" stroke-width="3" fill-rule="nonzero" stroke-linecap="round" stroke-linejoin="round" d="M191.867 1094.406h41.719v40.563h-41.719zm102.762-189.113h56.3v85.446h-56.3zm-65.586 42.41h21.207v37.778h-21.207z"/><path id="Path" stroke="#00C4BA" stroke-width="3" fill-rule="nonzero" stroke-linecap="round" stroke-linejoin="round" d="M207.855 958.305h31.125v23.168h-31.125z"/><path id="Path" stroke="#00C4BA" stroke-width="3" fill-rule="nonzero" stroke-linecap="round" stroke-linejoin="round" d="M284.028 836.406v124.528H200.57l43.047-124.528z"/><path d="M282.055 873.164c0-10.441 8.433-18.902 18.875-18.902 10.418 0 18.879 8.46 18.879 18.902 0 10.418-8.461 18.875-18.88 18.875-10.44 0-18.874-8.457-18.874-18.875" id="Path" fill-rule="nonzero"/><path d="M282.035 873.164c0-10.441 8.434-18.902 18.875-18.902 10.418 0 18.88 8.46 18.88 18.902 0 10.418-8.462 18.875-18.88 18.875-10.441 0-18.875-8.457-18.875-18.875zM190.98 312.828l35.067-32.105h163.16v32.105zm-56.867 277.727H389.16v151.808H195.883l-21.336-28.187z" id="Path" stroke="#00C4BA" stroke-width="3" fill-rule="nonzero" stroke-linecap="round" stroke-linejoin="round"/><path id="Path" stroke="#00C4BA" stroke-width="3" fill-rule="nonzero" stroke-linecap="round" stroke-linejoin="round" d="M389.219 280.762H226.086l34.063-38.43h129.07zM134.137 467.5H389.21v123.067H134.137zm-.024-19.472c0-2.06.051-4.09.098-6.125l.305-.852c-.227-1.305-.153-2.535-.102-3.742l33.457-97.188c6.828-9.816 14.586-18.953 23.094-27.312h198.2V467.48H134.116l-.004-19.453z"/><path d="M389.219 273.824h-148.77c-7.582 0-13.73-12.273-13.73-27.437 0-15.133 6.148-27.41 13.73-27.41h148.77v54.847zm0 548.254h-.676c-78.57 0-149.55-32.43-200.336-84.617h201.008l.004 84.617zm-19.086-802.91c0-10.367 8.234-18.777 18.352-18.777l.675.027v18.75h-19.027z" id="Path" stroke="#00C4BA" stroke-width="3" fill-rule="nonzero" stroke-linecap="round" stroke-linejoin="round"/><path d="M389.219 287.063h-.676c-38.004 0-68.805-12.051-68.805-26.91h69.477l.004 26.91zm-.009-26.926h-69.5v-11.02h69.5z" id="Path" stroke="#00C4BA" stroke-width="3" fill-rule="nonzero" stroke-linecap="round" stroke-linejoin="round"/><path id="Path" stroke="#00C4BA" stroke-width="3" fill-rule="nonzero" stroke-linecap="round" stroke-linejoin="round" d="M389.21 249.149h-83.862v-11.496h83.863zm.009-11.504h-83.84l62.227-44.778h21.613zm-.009-44.785h-21.636v-8.739h21.637zm.009-8.743h-73.5l23.168-27.636h50.328z"/><path id="Path" stroke="#00C4BA" stroke-width="3" fill-rule="nonzero" stroke-linecap="round" stroke-linejoin="round" d="M342.953 156.488l9.438-7.78h36.824v7.78z"/><path id="Path" stroke="#00C4BA" stroke-width="3" fill-rule="nonzero" stroke-linecap="round" stroke-linejoin="round" d="M355.613 148.711v-9.035h33.559v9.035zm-73.835 70.301c7.582 0 13.73 12.273 13.73 27.41 0 15.16-6.148 27.434-13.73 27.434h-41.34c-7.582 0-13.73-12.274-13.73-27.434 0-15.137 6.148-27.41 13.73-27.41h41.34zm71.519-79.359l15.363-12.676h20.532v12.676zm-37.719 580.253h29.645v83.157l-35.492-4.34v-56.906l5.847-5.848z"/><path id="Path" stroke="#00C4BA" stroke-width="3" fill-rule="nonzero" stroke-linecap="round" stroke-linejoin="round" d="M389.21 126.992h-20.53v-5.171h20.53zM370.133 19.168h19.027v5.043h-20.507v-5.168h1.48zM287.074 731.54h44.352v32.128h-44.352z"/><path id="Path" stroke="#00C4BA" stroke-width="3" fill-rule="nonzero" stroke-linecap="round" stroke-linejoin="round" d="M389.219 131.106H378V19.129h11.219zm0 53.011h-21.613l6.55-27.636h15.063zm-31.782 76.02H343.23v-11.02h14.207zm-62.613 474.805c.098 0 1.657.328 1.754.378l.68.352.652.426c.102.05 1.18 1.207 1.23 1.305l4.696 8.007c.074.125.574 1.907.574 2.082v13.18c0 .602-1.101 2.887-1.578 3.262l-8.863 6.953c-.402.328-2.785.93-3.29.828l-8.53-1.504c-.125-.027-1.782-.805-1.91-.906l-18.825-15.637c-.328-.277-1.43-2.383-1.457-2.812l-.652-7.203c-.024-.25.453-2.286.578-2.508.3-.504.93-1.309 1.027-1.407.078-.074 1.356-.878 1.434-.906l9.539-3.637a27.246 27.246 0 011.48-.253h21.461z"/><path d="M388.512 805.18h.68v9.285h-.68c-73.52 0-133.535-28.54-184.344-77.031h12.852c45.882 42.191 105.878 67.746 171.492 67.746" id="Path" fill-rule="nonzero"/><path d="M388.512 805.18h.68v9.285h-.68c-73.52 0-133.535-28.539-184.344-77.031h12.852c45.883 42.191 105.879 67.746 171.492 67.746zm-52.062-75.055h52.76v30.196h-52.76zM178.645 332.813l-11.047-3.817 2.965-8.633 11.043 3.817zm-41.192 119.586l-11.043-3.79 2.961-8.636 11.043 3.816z" id="Path" stroke="#00C4BA" stroke-width="3" fill-rule="nonzero" stroke-linecap="round" stroke-linejoin="round"/><path id="Path" stroke="#00C4BA" stroke-width="3" fill-rule="nonzero" stroke-linecap="round" stroke-linejoin="round" d="M131.477 439.676L169.68 328.75l8.61 2.965-38.177 110.922zM193 718.942h124.95v10.367H193z"/><path id="Path" stroke="#00C4BA" stroke-width="3" fill-rule="nonzero" stroke-linecap="round" stroke-linejoin="round" d="M198.371 725.305h19.426v13.578H198.37zm-5.398-6.363l-21.813-68.575h29.118v68.575zm47.617-579.16h34.765v19.703H240.59zm-12.918-51.215l5.07 5.07-5.547 5.547-5.07-5.047zm-13.879 3.984l12.324-12.324 4.922 4.945-12.328 12.297zm48.129-28.082c4.445 11.394-2.684 30.246-18.172 45.734-15.488 15.512-34.34 22.617-45.734 18.2l63.906-63.934zm-10.792 40.613l14.304 14.305-12.551 12.527-14.281-14.308z"/><path d="M258.406 90.043l3.867 3.867-34.816 34.84-3.89-3.867c6.777-3.336 13.757-8.281 20.156-14.684 6.402-6.398 11.37-13.379 14.683-20.156" id="Path" fill-rule="nonzero"/><path d="M258.387 90.043l3.867 3.867-34.816 34.84-3.89-3.867c6.776-3.336 13.757-8.281 20.155-14.684 6.403-6.398 11.371-13.379 14.684-20.156zm-24.75 69.399h48.695v8.687h-48.695z" id="Path" stroke="#00C4BA" stroke-width="3" fill-rule="nonzero" stroke-linecap="round" stroke-linejoin="round"/><path d="M276.234 192.535h-36.523v-8.683h36.523v8.683zm0-17.394h-36.523v-6.953h36.523v6.953z" id="Shape" stroke="#00C4BA" stroke-width="3" fill-rule="nonzero" stroke-linecap="round" stroke-linejoin="round"/><path id="Path" stroke="#00C4BA" stroke-width="3" fill-rule="nonzero" stroke-linecap="round" stroke-linejoin="round" d="M227.84 192.535h60.293v8.11H227.84zm-.278-17.414h60.848v8.711h-60.848z"/><path id="Path" stroke="#00C4BA" stroke-width="3" fill-rule="nonzero" stroke-linecap="round" stroke-linejoin="round" d="M272.164 219.012h-28.387v-18.375h28.387zm-20.984-99.539h13.605v20.281H251.18z"/><path d="M274.176 275.84c0-8.055 6.101-14.582 13.656-14.582 7.531 0 13.629 6.527 13.629 14.582 0 8.058-6.098 14.586-13.629 14.586-7.555 0-13.656-6.528-13.656-14.586" id="Path" fill-rule="nonzero"/><path d="M274.195 275.817c0-8.059 6.102-14.586 13.657-14.586 7.531 0 13.629 6.527 13.629 14.586 0 8.054-6.098 14.582-13.63 14.582-7.554 0-13.656-6.528-13.656-14.582zm-45.23 83.148h44.379v44.406h-44.38zm-75.879-83.535h32.105v61.273h-32.105zm69.317 256.777c0-2.86 13.23-5.172 29.542-5.172 16.293 0 29.52 2.313 29.52 5.172v74.528c0-2.864-13.227-5.172-29.52-5.172-16.312 0-29.542 2.308-29.542 5.172v-74.528z" id="Path" stroke="#00C4BA" stroke-width="3" fill-rule="nonzero" stroke-linecap="round" stroke-linejoin="round"/><path d="M222.418 606.746c0-2.86 13.227-5.168 29.543-5.168 16.289 0 29.52 2.309 29.52 5.168 0 .254 8.156 22.14 8.156 22.617 0 3.64-16.867 6.574-37.676 6.574-20.836 0-37.703-2.933-37.703-6.574 0-.476 8.16-22.367 8.16-22.617" id="Path" fill-rule="nonzero"/><path d="M222.403 606.746c0-2.86 13.23-5.168 29.542-5.168 16.293 0 29.52 2.309 29.52 5.168 0 .254 8.16 22.14 8.16 22.617 0 3.641-16.867 6.575-37.68 6.575-20.832 0-37.699-2.934-37.699-6.575 0-.476 8.157-22.367 8.157-22.617zM161.422 261.23h15.41v19.177h-15.41zm136.301 107.567h89.605v77.942h-89.605z" id="Path" stroke="#00C4BA" stroke-width="3" fill-rule="nonzero" stroke-linecap="round" stroke-linejoin="round"/><path d="M259.996 328.05c0-5.472 4.442-9.913 9.914-9.913 5.445 0 9.89 4.441 9.89 9.914 0 5.472-4.445 9.89-9.89 9.89-5.473 0-9.914-4.418-9.914-9.89" id="Path" fill-rule="nonzero"/><path d="M259.996 328.059c0-5.473 4.442-9.914 9.914-9.914 5.446 0 9.891 4.441 9.891 9.914 0 5.472-4.445 9.89-9.89 9.89-5.473 0-9.915-4.418-9.915-9.89zm53.988 108.726h62.403V501.9h-62.403zm-116.718 27.118h101.812v39.808H197.266zm-51.106 9.957h51.106v29.847H146.16zm28.512-24.032h111.297v14.032H174.672zm129.211 69.914c0-2.183 10.066-3.918 22.465-3.918 12.402 0 22.465 1.735 22.465 3.918v56.703c0-2.183-10.063-3.94-22.465-3.94-12.399 0-22.465 1.757-22.465 3.94v-56.703z" id="Path" stroke="#00C4BA" stroke-width="3" fill-rule="nonzero" stroke-linecap="round" stroke-linejoin="round"/><path d="M303.895 576.422c0-2.184 10.066-3.938 22.468-3.938 12.399 0 22.465 1.754 22.465 3.938 0 .176 3.89 9.265 3.89 9.617 0 2.758-10.519 4.992-26.355 4.992-15.84 0-26.36-2.234-26.36-4.992 0-.351 3.892-9.441 3.892-9.617" id="Path" fill-rule="nonzero"/><path d="M303.883 576.418c0-2.183 10.066-3.941 22.465-3.941 12.402 0 22.465 1.758 22.465 3.941 0 .176 3.89 9.262 3.89 9.613 0 2.762-10.515 4.997-26.355 4.997-15.836 0-26.356-2.235-26.356-4.997 0-.351 3.891-9.437 3.891-9.613zm0 37.078c0-2.16 10.066-3.918 22.465-3.918 12.402 0 22.465 1.758 22.465 3.918V670.2c0-2.16-10.063-3.918-22.465-3.918-12.399 0-22.465 1.758-22.465 3.918v-56.703z" id="Path" stroke="#00C4BA" stroke-width="3" fill-rule="nonzero" stroke-linecap="round" stroke-linejoin="round"/><path d="M303.895 670.172c0-2.16 10.066-3.918 22.468-3.918 12.399 0 22.465 1.758 22.465 3.918 0 .2 3.89 9.262 3.89 9.637 0 2.761-10.519 4.996-26.355 4.996-15.84 0-26.36-2.235-26.36-4.996 0-.375 3.892-9.438 3.892-9.637" id="Path" fill-rule="nonzero"/><path d="M303.883 670.172c0-2.16 10.066-3.918 22.465-3.918 12.402 0 22.465 1.758 22.465 3.918 0 .2 3.89 9.262 3.89 9.637 0 2.761-10.515 4.996-26.355 4.996-15.836 0-26.356-2.235-26.356-4.996 0-.375 3.891-9.438 3.891-9.637zm-160.711 444.477h33.637v36.52h-33.637zm-2.882 56.804h66.062v9.262h-66.063zm-15.063-213.277h107.207v53.34H125.227z" id="Path" stroke="#00C4BA" stroke-width="3" fill-rule="nonzero" stroke-linecap="round" stroke-linejoin="round"/><path id="Path" stroke="#00C4BA" stroke-width="3" fill-rule="nonzero" stroke-linecap="round" stroke-linejoin="round" d="M35.926 961.649h95.637v39.984L35.926 986.57z"/><path d="M.598 974.113c0-11.996 12.199-21.71 27.234-21.71 15.063 0 27.262 9.714 27.262 21.71 0 12.024-12.2 21.739-27.262 21.739-15.035 0-27.234-9.715-27.234-21.739" id="Path" fill-rule="nonzero"/><path d="M.582 974.113c0-11.996 12.2-21.71 27.235-21.71 15.062 0 27.261 9.714 27.261 21.71 0 12.024-12.199 21.739-27.261 21.739-15.036 0-27.235-9.715-27.235-21.739zM178.13 708.727l2.96 8.633-11.043 3.793-2.96-8.637zm-41.188-119.524l2.984 8.637-11.07 3.816-2.961-8.636z" id="Path" stroke="#00C4BA" stroke-width="3" fill-rule="nonzero" stroke-linecap="round" stroke-linejoin="round"/><path id="Path" stroke="#00C4BA" stroke-width="3" fill-rule="nonzero" stroke-linecap="round" stroke-linejoin="round" d="M130.965 600.387l8.633-2.988L177.8 708.32l-8.633 2.965zm-2.528 940.293h18.325v26.61h-18.325zm-12.203 3.473h12.2v19.68h-12.2z"/><path d="M327.465 737h10.219c3.613 0 6.523 2.785 6.523 6.223v17.648c0 3.438-2.91 6.223-6.523 6.223h-10.22c-3.616 0-6.554-2.824-6.554-6.23v-17.65c0-3.437 2.938-6.222 6.555-6.222" id="Path" fill-rule="nonzero"/><path d="M327.465 737h10.219c3.613 0 6.523 2.785 6.523 6.223v17.648c0 3.438-2.91 6.223-6.523 6.223h-10.219c-3.613 0-6.55-2.785-6.55-6.223v-17.648c0-3.438 2.937-6.223 6.55-6.223z" id="Path" stroke="#00C4BA" stroke-width="3" fill-rule="nonzero" stroke-linecap="round" stroke-linejoin="round"/><path d="M637.898 520.379c-4.718 7.879-12.273 13-20.78 13-8.513 0-16.067-5.121-20.786-13l20.785-16.695 20.781 16.695zm1.883-34.867c2.059 4.617 3.215 9.941 3.215 15.613 0 5.672-1.156 10.992-3.215 15.613l-19.468-15.617 19.468-15.61zm-43.449-3.64c4.719-7.88 12.273-13 20.785-13 8.508 0 16.063 5.12 20.781 13l-20.78 16.667-20.786-16.668zm-5.09 19.245c0-5.672 1.156-10.992 3.215-15.613l19.453 15.613-19.453 15.613c-2.059-4.617-3.215-9.94-3.215-15.613" id="Shape" fill-rule="nonzero"/><path d="M637.899 520.383c-4.72 7.883-12.274 13.004-20.782 13.004-8.511 0-16.066-5.121-20.785-13.004l20.785-16.691 20.782 16.691zm1.882-34.863c2.059 4.617 3.215 9.937 3.215 15.613 0 5.672-1.156 10.992-3.215 15.613l-19.453-15.613 19.453-15.613zm-43.449-3.64c4.719-7.884 12.274-13.005 20.785-13.005 8.508 0 16.063 5.121 20.782 13.004l-20.782 16.668-20.785-16.668zm-5.094 19.253c0-5.676 1.153-10.996 3.211-15.613l19.454 15.613-19.454 15.613c-2.058-4.62-3.21-9.941-3.21-15.613z" id="Shape" stroke="#00C4BA" stroke-width="3" fill-rule="nonzero" stroke-linecap="round" stroke-linejoin="round"/></g></g></svg>