<svg xmlns="http://www.w3.org/2000/svg" id="Layer_1" xml:space="preserve" overflow="visible" viewBox="0 0 587 667.613" version="1.1" fill="#00555B"><path d="M286 10.009h-12c1.9-5.362 11.53-9.014 12 0zm16 41c-21.846-2.921-45.235-.328-61 6 11.438-17.896 15.842-48.157 47-43 8.28 8.724 11.39 22.611 14 37zm-9-36c.732-1.781 1.818-.144 3 0 9.568 11.099 17.011 24.322 24 38-4.224 2.521-11.196-.776-15-2-2.3-13.698-6.32-25.682-12-36z" fill="none"/><path d="M303 54.009c6.682 26.652 3.842 62.825 6 94-26.396-3.646-58.532-3.713-78 7-2.485-32.153-2.377-70.376 8-93 15.47-8.928 41.27-12.147 64-8.001zm3 2c5.302-2.607 11.471 2.509 17 3 8.278 26.055 10.334 58.333 9 94-7.035-1.631-14.252-3.081-21-5-.23-29.87.84-59.812-5-92.001zm54 70.001c6.693 3.197 1.661 14.111 8 16-3.141 2.526-11.672-.338-15 2 2.49-5.84 4.58-12.09 7-18zm-159 3h4c2.393 4.94 2.704 11.963 5 17-6.532-.866-10.063 1.27-15 2 .94-7.4 5.4-11.27 6-19zm140 51c-1.162.163-1.779-.221-2-1 4.233-10.767 7.729-22.271 13-32 2.209.125.425 4.242 1 6 3.722-.612 10.558 1.891 10-3 2.541 6.792 1.229 17.438 4 24-8.7 1.97-21.96-.63-26 6zm25-33h4c3.854 9.146 6.154 19.846 11 28-.954 3.286-8.123-.94-12-1 .02-10.26-.87-17.23-3-27z" fill="none"/><path d="M308 150.01c2.299 25.035.359 54.308 1 81-6.907-11.664-9.932-48.744-28-49-17.588-.25-21.693 38.684-28 52-7.815 1.185-14.669 3.331-23 4v-80c19.6-10.91 50.13-10.1 78-8zm-109 0c-.781 10.885-3.011 20.323-5 30-4.35-.017-8.998-.331-12 1 6.61-9.39 4.67-27.33 17-31zm3 0c2.246.42.027 5.306 2 6 3.141-.859 10.338 2.338 9-3 5.246 7.334 10.653 17.867 11 27-6.909-1.057-14.1-4.355-26-3 .6-9.73 2.97-17.7 4-27zm109 2c8.081 1.488 12.818 2.388 21 5-.634 20.418.343 54.425 1 80-6.531-1.469-12.886-3.114-20-4-.9-23.12-.2-53.57-2-81zm56 25v39c-11.708-.042-21.419 1.915-29 6-2.236-15.45-2.239-25.704-1-40 9.9-1.77 17.36-5.97 30-5zm2 1c4.137 1.53 9.578 1.755 14 3 2.28 10.72.373 25.627 1 38-5.721.054-9.321-2.012-14-3 1.62-5.937-.061-9.33 0-16 4.178-.844 4.723 1.944 8 2 3.819-3.47 2.082-9.611 2-15-3.113-1.22-6.339-2.328-11-2 1.77-1.67-.89-3.35 0-7zm-172 2c12.14.238 18.9-.277 28 3v40c-7.825-1.841-16.969-2.364-27-2-.48-11.59-1.32-24.85-1-41z" fill="none"/><path d="M194 187.01c-4.838-.838-7.072.928-10 2v12c4.564.564 6.228-1.772 11-1v22c-6.905-.905-8.234 3.766-15 3 .072-14.35-.388-29.622 1-40 3.47-1.17 15.4-8.62 13 2zm91 1c-2.203 1.797-7.126.874-10 2 1.46-3.82 6.11-2.91 10-2zm91 0c1.774 1.893.729 6.604 1 10h-5c.309-3.643-.159-6.508-1-9 1.16-.84 2.68-1.32 5-1z" fill="none"/><path d="M193 190.01c1.508 5.841-2.867 5.8-5 8-2.86-.14-1.829-4.171-2-7 3.16.49 3.53-1.8 7-1zm109 33c-8.804-2.774-32.348-3.346-42 2 2.825-8.508 5.445-17.222 9-25 5.201-2.916 13.528-5.36 21-3 6.83 5.83 7.56 17.77 12 26zm65-2c-.731 17.065 1.63 31.037 1 48-12.726-1.059-21.702 1.631-31 4v-46c8.84-3.16 17.09-6.91 30-6zm3 0c3.898 2.435 10.003 2.664 14 5-.158 20.808.389 30.094 1 46-4.928-.738-9.243-2.09-14-3-.35-16.82.84-35.27-1-48z" fill="none"/><path d="M303 228.01c4.173 18.494 8.296 37.037 11 57-8.09-.577-16.002-1.331-23-3v-8c-5.13-2.862-14.697-2.359-20 0 .195 4.515 2.515 2.235 1 7-5.081 4.586-16.67 2.663-22 7 .953-18.383 4.059-43.273 10-60 10.9-5.35 32.78-7.74 43 0zm-105-2c10.315-.315 20.007-.007 27 3 2.219 12.448.417 28.916 1 43-10.282.699-18.168-4.349-28-1v-45zm-5 1c3.696 2.532 1.951 9.949 2 16 .073 9.048.364 17.906 1 28-4.936.674-11.929 3.691-15 3-.039-16.916-1.323-23.277-1-42 3.24-2.77 8.83-3.18 13-5zm141 15c-.331 42.664.207 84.459 1 126-8.569-41.692-17.414-84.009-23-131 4.65.53 17.39 1.13 22 5zm-82-4c-6.137 41.53-13.21 82.124-18 125-5.363-36.304-1.495-81.838-4-121 6.83-1.84 12.89-4.44 22-4zm116 33v45c-11.773-.44-19.66 3.007-30 4 .257-14.923-1.761-27.572-1-43 8.93-3.41 18.5-6.16 31-6zm3 1c4.965 1.035 10.777 1.223 14 4v44c-4.688-.646-7.155-3.511-13-3 .71-16.05-1.66-29.01-1-45zm-175 48c-5.426.24-8.956 2.377-14 3 .624-15.624-1.735-28.265-1-44 2.605-3.395 9.848-2.152 13-5 4.44 8.22.82 31.89 2 46zm2-46c11.151-.818 19.593 1.073 28 3v45c-7.604-2.396-17.919-2.081-28-2v-46z" fill="none"/><path d="M275 278.01c-.396-1.94 4.555-1.461 3 1h-2c.18-.85-.39-.95-1-1zm7 0c3.72-3.49 5.07 2.73 0 0zm-3 7c-.675 20.76 1.543 32.462 1 53-11.979-.312-20.192 3.141-30 5 .569-18.236-1.757-33.576-1-52 9.11-2.89 18.25-5.75 30-6zm35 4c-.044 17.675-.25 38.695 1 52-11.48-.186-18.968-4.365-32-3 .914-19.704-1.471-37.893 0-53 10.57 1.1 22.27 1.06 31 4zm55 31c-.469 16.171.457 31.694 1 50-12.883-1.217-21.146 2.188-31 4 .323-16.555-.468-36.549 0-50 8.61-2.15 19.73-6.82 30-4zm3 0c5.188 1.145 9.546 3.121 14 5 .664 15.002-1.33 32.665 1 46-4.02 2.646-9.788-1.516-15-1v-50zm-127 1c-.146 31.422-6.34 73.284-10 107-1.408 12.967-1.352 21.951-7 31-4.096 6.561-13.146 13.443-20 21-6.39 7.045-16.655 16.354-18 23-1.099 5.43.94 13.576 1 20 .067 7.219-.499 13.062 0 18-12.862 4.471-31.996 2.67-49 3 5.685-24.484 24.591-38.775 42-56 7.462-7.383 16.531-15.529 25-24 14.391-14.391 20.99-22.045 24-47 2.09-17.328 4.172-35.446 7-55 2.06-14.26 4.01-26.08 5-41z" fill="none"/><path d="M318 321.01c5.725 20.651 8.324 42.801 12 65 3.828 23.119 6.265 51.402 19 66 4.646 5.324 10.517 9.518 16 15 14.572 14.572 31.774 30.367 48 44 4.833 8.832 12.497 14.836 14 27-16.049-.049-30.291 1.709-47 1-2.26-10.818 2.972-26.799 0-39-1.856-7.621-12.8-14.801-20-22-11.265-11.266-21.521-18.973-26-34-2.756-9.248-2.529-20.145-4-31-3.84-28.33-9.07-60.38-12-92zm-120 2c10.867-.867 18.482 1.518 28 2 .167 17.758.741 32.225 1 50-8.288-.276-17.53-2.277-27 0-3.62-14.39-1.38-34.62-2-52zm-2 1v51c-5.392-.391-11.081 3.123-14 2v-50c4.09-1.58 8.04-3.29 14-3zm85 18c-.287 17.717.139 34.347 0 54-11.561-.562-19.904 2.098-30 3-2.303-15.03-.356-34.311-1-51 6.88-4.87 20.41-8.15 31-6zm34 2v53c-9.965-1.035-20.807-1.194-32-1v-55c12.54-.88 20.6 2.73 32 3z" fill="none"/><path d="M319 354.01c3.421 20.595 4.911 42.562 8 65 2.138 15.533 4.15 28.936 11 40 9.975 16.113 29.858 25.139 39 40-.089 12.762.122 30.537 0 40-12.972 2.361-30.819-.152-44 2-2.331-3.426-2.849-7.662-5-12-1.833-3.695-5.28-6.846-6-10-2.527-11.072-.343-27.189-1-41-1.94-40.86-1.14-85.15-2-124zm-74 4c1.462 35.232 1.759 78.525 4 118 .821 14.465 2.439 30.777 0 44-1.427 7.734-8.571 13.729-10 22-14.563 3.158-30.699-.582-45-1 2.033-15.381-2.816-27.682 0-39 1.738-6.986 11.915-15.408 17-21 6.705-7.373 13.175-13.852 19-19 1.505-6.162 4.045-11.289 7-16 1.8-30.2 6.09-57.91 8-88z" fill="none"/><path d="M370 374.01c.241 15.832-.7 35.65 1 47-7.419 1.914-17.376 1.291-25 3-4.385-13.281-6.576-28.758-7-46 7.64-3.59 20.96-6.05 31-4zm2 0c7.601.939 10.034.9 15 4 .664 14.336-1.33 31.33 1 44-2.565 1.848-11.361 1.398-14 0 .56-17.23-1.2-32.13-2-48zm-145 5c1.298 18.043-1.042 30.467-4 46-11.233-1.094-13.956.215-23 1 .105-17.666.048-33.815-1-48 8.2-2.37 20.43-.55 28 1zm-31-1c-.775 17.107 1.371 31.295 1 48-5.417-.084-8.314 2.354-14 2-.592-15.074 1.232-32.565-1-46 4.66-1.34 7.59-4.41 14-4zm88 20c11.173.16 20.376 2.289 31 3 4.342 13.324.902 34.432 2 51-7.849.811-21.188-.543-32 0-2.23-15.48-.46-40.16-1-54zm-3 1c-.774 18.773 1.362 34.639 1 53-12.114-.781-20.401 2.266-31 3 .084-17.125-.116-39.164 0-53 9.64-1.36 19.2-2.81 30-3zm56 12c.381-1.902 1.272.639 1 2-.38 1.9-1.27-.64-1-2zm3 13c1.483.85 2.15 2.518 2 5-3.36 1.03-1.56-3.11-2-5zm-112 1c1.765-.318 1.785 5.602-1 4-.13-1.8 1.22-2.11 1-4zm143 0v32c-9.685-7.982-18.29-17.045-24-29 5.65-3.35 14.83-3.17 24-3zm17 2v46c-4.731-4.27-9.838-8.162-14-13v-34c2.98-1.47 8.97 1.32 14 1zm-187 1c8.583.309 12.083-.299 19 1-3.284 11.383-11.646 17.688-18 26-3.62-5.17-2.22-20.27-1-27zm-4 2c-.789 10.371 1.285 21.23 0 29a256.23 256.23 0 00-12 12c-2.102-11.898-2.092-25.908-2-40 5.07.07 8.28-1.72 14-1zm145 2c2.517.408 4.594 3.422 3 5-3.12.46-3.2-2.14-3-5zm-118 1h4c-.564 2.436-.856 5.145-4 5-1.88-1.91.59-1.81 0-5zm122 6c3.281-.158 4.798 4.084 3 6-3.28.16-4.8-4.09-3-6zm-122 2c-1.554 2.113-1.141 6.193-6 5-.28-3.88 3.28-7.22 6-5zm128 11c-.86-.807-.594-2.74-2-3 2.55-5.76 9.69 3.06 2 3zm-134-4c-.05 4.932-2.05 4.938-6 4 .13-3.2 2.27-4.4 6-4zm138 5c4.629-.43 6.726 1.668 5 5-2.89-.44-4.56-2.11-5-5zm-144 1c.767 4.115-3.41 6.297-6 4 .87-2.47 2.33-4.34 6-4zm106 4v57c-5.186.48-12.41-1.078-16 1 2.875 2.791 12.06-.727 15 2-17.654 4.344-43.102.898-64 2 7.88-2.121 16.688-3.312 27-3-5.415-3.869-19.92-1.881-27-1-.684-18.982-2.203-37.131-2-57 8.511-3.154 19.323-4.01 31-4 .458 20.543-1.342 43.342 2 61 4.479-2.857 1.255-15.512 1-21-.602-12.932.486-25.227-1-38v-2c10.49-2.05 25.17.08 34 3zm-28 57h2v-2h-2v2zm74-57c2.367.965 4.913 1.754 4 6-4.52.05-7.3-3.65-4-6zm-158 3c-.122 2.545-1.456 3.877-4 4-3.11-2.76 1.24-7.11 4-4zm168 8c-2.005 1.887-4.648-1.229-5-4 1.69-1.57 5.77.1 5 4zm-176-4c4.349 1.418.417 8.029-3 5-1.06-3.73 2.1-3.23 3-5zm177 5c3.562-.229 5.229 1.438 5 5-2.1 1.8-5.28-1.38-5-5zm-183 1c1.313.354 1.573 1.76 3 2-.848 2.152-2.463 3.537-6 3-1.06-3.73 2.1-3.23 3-5zm194 7c-.184 3.072-5.386 2.1-5-1 2.08-2.17 3.23.12 5 1zm-197 0c-.5 2.623-3.247 5.635-6 3-.24-3.36 3.71-5.17 6-3zm198 3c4.046-1.121 4.944 3.07 3 5-2.06-.6-3.79-1.55-3-5zm-204 3c-.966 2.367-1.754 4.912-6 4-.77-4.12 3.41-6.3 6-4zm210 2c1.479.521 2.521 1.479 4 2-.869 1.463-1.497 3.17-4 3-.11-2.49-1.87-3.1 0-5zm-217 7c-1.161.838-2.681 1.318-5 1-1.22-4.88 6.04-7.23 5-1zm226 2c-2.081 2.17-3.232-.123-5-1 .09-2.98 5.96-2.68 5 1zm-232 4c-1.161.838-2.681 1.318-5 1-1.22-4.88 6.04-7.23 5-1zm238 2c-2.678 2.693-3.803-1.273-6-2 .82-3.79 6.6-1.54 6 2zm-244 4c-2.488.109-3.096 1.873-5 0-.47-4.17 6.11-5.79 5 0zm250 1c-2.059 2.074-5.072-.004-5-3 1.58-1.59 4.59.48 5 3zm-256 1c.464 3.131-.869 4.463-4 4 .12-2.55 1.46-3.88 4-4zm262 5c-1.481 1.496-5.169.092-5-3 2.06-2.07 5.07 0 5 3zm-269 1c4.91-.023-.37 7.252-2 4 .43-1.57 3.15-.86 2-4z" fill="none"/><path d="M290 513.01h2v2h-2v-2z"/><path d="M420 516.01h4v4c-2.54-.12-3.88-1.46-4-4zm-273 4c2.433.627.529 5.053-2 4-.73-2.73 1.99-2.01 2-4zm277 2h3v5c-1.98-.69-2.67-2.67-3-5zm-104 2c9.734 13.6 12.386 34.279 13 57-9.729 2.271-23.621.379-35 1-6.688-15.15-4.221-42.227 0-58 9.32-.06 13.29-.76 22 0zm-27 0c4.416-.146-.095 2.449 1 5-2.17.17-.45-3.55-1-5zm-21 1c5.329 14.666 4.575 41.523 3 57-12.382.092-24.258-.338-33 1-5.324-21.301.391-45.357 10-58h20zm10 2c2.236.432.405 4.928 1 7-2.91-.02-2.36-5.65-1-7zm4 0c3.513.547 1.605 5.799 1 8-2.26-.75-.39-5.61-1-8zm3 9c4.262 10.498.053 18.967 1 32-2.33-8.67-.34-21.66-1-32zm110 6h29c.319 2.348 1.58 3.754 1 7-11.44-.9-28.15 3.48-30-7zm-65 2h16c-1.497 4.836-4.237 8.43-7 12h-6c-1.34-3.67-2.36-7.64-3-12zm-110 2h14c-.079 4.586-2.89 6.443-2 12h-8c.94-6.28-4.4-6.27-4-12zm-83 1h31c-4.596 9.662-18.839 8.436-31 6v-6zm265 18c-17.689 2.311-39.649.352-59 1-.473-9.473 4.431-13.57 8-19 12.328 2.02 26.996-2.744 37 0 7.9 2.16 12.29 10.55 14 18zm25-14c1.675 1.658.796 5.871 1 9-5.786 1.881-12.849 2.484-19 4 .496-6.162-2.832-8.502-6-11 6.98-1.69 15.26-2.07 24-2zm-292 5c5.738 1.596 13.821.846 21 1-1.013 3.654-2.1 7.232-3 11-7.768.102-13.594-1.74-20-3 2.04-1.62-.04-7.38 2-9zm204 3c-1.863 6.232-.989 14.701 1 20-3.469-.803-3.844 1.488-7 1-.349-6.65.887-14.887-1-20 1.29-1.38 4.34-.99 7-1zm-112 2h5c2.174 5.158.449 14.217 1 21-3.146.479-3.909-1.424-6-2 3.31-5.2 1.73-13.35 0-19zm175 8v9c-16.921 2.412-39.047-.381-56 2-2.406-2.594-4.082-5.918-4-11 20.53 1.16 42.09-1.87 60 0zm-3 14v4c-4.226 4.477-13.815 3.863-22 4-8.632.145-18.906.701-27-1-1.716-2.555 1.146-3.5-1-5 13.57-3.1 34.78-3.88 50-2zm-180 8c-9.451 3.295-24.468 3-39 3-6.252 0-13.749 1.605-18-2v-3c2.541-5.273 12.034-3 19-3 7.46 0 15.644.262 22 0 6.98-.29 16.16-3.73 16 5zm114-6h2c3.644 2.979 2 10.57 2 17 0 6.314.724 13.781-1 18-12.614-.012-28.124.016-39 0-2.93-.004-9.689 3.502-9-2 2.689-5.361 7.066.857 11 1 11.465.414 22.116-4.41 24-15 2.369-1.965 6.959-1.709 9-4-.15-5.49-.11-10.78 1-15zm-101 1c3.938 2.396 2.981 9.686 5 14 5.035 3.631 11.282 6.051 11 15 5.825 2.842 12.312 5.021 22 4 2.859.125 4.678-5.898 8-2 1.572 5.963-5.568 3.729-9 4-10.763.852-27.916-.467-36 0 .77-12.77-1.29-22.72-1-35z" fill="none"/><path d="M250 587.01h5c-4.137 3.195-3.074 11.592-10 12 .54-5.13 7.15-4.18 5-12zm66 1c3.946.387 4.602 4.064 7 6-1.682 1.984-5.739 1.594-7 4-2.39-1.81-.56-7.83 0-10zm-58 1c1.796 2.869 3.19 6.145 3 11-3.601.268-4.819-1.848-8-2 1.07-3.6 3.13-6.2 5-9zm149 4v40c-16.084 2.248-36.617.049-53 2 .654-13.988-1.717-24.951-1-39-.044-1.711.743-2.59 2-3h52zm-79 2c3.851-.789 3.851 4.787 0 4v-4zm-103 2c.156 13.51-.599 27.932 1 40-14.366 2.301-32.976.357-49 1v-27c-.351-3.314-5.764-1.568-9-2-.697-5.031 1.697-6.971 1-12h56zm93 3c-.169-2.168 3.547-.453 5-1 .17 2.17-3.55.45-5 1zm-23 10c-2.42 3.28-4.78-2.78 0 0zm-13 0c-2.2 3.05-6.4-1.16 0 0zm4 1c1.319.273 1.782 14.547 1 17-2.31-3.69-.35-11.65-1-17zm31 0c-3.086 2.58-6.665 4.668-13 4 3.37-2.3 6.95-4.38 13-4z" fill="none"/><path d="M168 613.01h5c-.079 4.029.103 9.035 0 14-.088 4.293 1.72 10.572-2 12-6.502-.994-1.358-16.328-3-23v-3zm91 1c-1.596-2.697 6.331.062 6 0 11.55 2.2-5.2 1.35-6 0zm67 10c.272 6.939-10.42 2.912-16 4v-4c3.25-1.45 12.81-1.81 16 0zm15 0c.641 5.975-8.943 1.725-13 3v-2c.33-3.71 11.08-2.2 13-1zm-49 0c3.648-.648 5.326.674 7 2-.529.805-1.043 1.623-1 3h-6v-5zm9 0c2.656.01 5.711-.379 7 1 .472 4.139-4.677 2.656-7 4v-5zm-59 1c5.017.648 12.644-1.311 16 1v2c-1.584 4.414-11.151.85-16 2v-5zm20 0h10c-.208 4.791-6.378 3.621-10 5v-5zm16 0c-.241 1.758-1.721 2.279-4 2-1.01-3.01 2.23-1.77 4-2zm2 0c2.007-.34 3.129.205 3 2h-3v-2zm155 0c4.335-.668 2.692 4.641 3 8h-5c-.1-3.44-.52-7.18 2-8zm-198 1c2.638-.305 2.579 2.088 3 4-3.34 1-3.28-1.39-3-4zm64 5h6c-.409 2.408 1.826 2.174 1 5h-7v-5zm9 0c5.017.648 12.644-1.311 16 1v2c-1.585 4.416-11.15.85-16 2v-5zm31 1v2c-.331 3.707-11.082 2.199-13 1v-2c.33-3.71 11.08-2.2 13-1zm-79 0c2.79 2.277 4.939-1.008 8 1 1.266 5.6-5.315 3.352-8 5v-6zm10 0c2.651.016 5.888-.555 6 2 .48 5.07-8.39 3.58-6-2zm27 4h-8v-3c2.48-1.98 9-1.6 8 3zm-40-2c.966 6.986-13.487 3.818-17 3 .45-5.57 12.82-4.49 17-3zm-19 0c.423 2.09-.686 2.648-1 4-2.9-.18-2.41-4.75 1-4zm-102 1h3c-2.058 2.258 2.976 12.365-2 14 2.242 1.619 2.416 4.617 1 7-4.51-3.16-.78-14.55-2-21zm268 2v15c-17.809-.143-35.455-.123-52 1v-15c18.35.69 33.65-1.69 52-1zm21 1c.125-2.209 4.242-.426 6-1v4c-1.584.082-3.814-.48-4 1-2.72.71.72-4.72-2-4zm-92 1v5h-7v-4c1.29-1.38 4.34-.99 7-1zm3 0h3v5c-4.05 1.12-4.94-3.07-3-5zm99 1c.381-1.904 1.272.639 1 2-.38 1.9-1.27-.64-1-2zm-159 5h-7v-4c2.61-2.11 8.85-1.45 7 4zm5-5c3.629-.963.84 4.492 4 4-.31 1.357-2.504.83-4 1v-5zm9 0h7c1.268 5.268-2.596 5.404-7 5v-5zm9 0h7c1.059 5.059-2.805 5.195-7 5v-5zm9 0c2.071.594 6.569-1.236 7 1 1.452 4.785-4.182 2.484-7 3v-4zm9 0c2.071.594 6.569-1.236 7 1 1.451 4.785-4.182 2.484-7 3v-4zm-60 5c-3.649-.889-5.326 1.768-7 0-1.96-5.61 8.96-5.61 7 0zm3-4c3.747-.082 8.092-.758 7 4h-7v-4zm-37 1v13c-17.094-.762-31.109 1.559-48 1 .435-4.564-1.011-11.012 1-14h47zm13 0c3.492-.895 1.708 3.262 1 4-1.36-.31-.83-2.51-1-4zm4 0c2.072.594 6.569-1.236 7 1 1.452 4.785-4.181 2.484-7 3v-4zm-74 1h5c-.637 5.404 1.111 9.965 0 13-2.826.826-2.591-1.41-5-1v-12zm-14 1c-.553 2.371-3.866 4.148-6 2 .11-2.55 3.35-1.99 6-2zm283 0c3.7 3.03-3.04 3.37 0 0zm-14 1c2.169-.17.453 3.547 1 5-1.419-.086-2.832-.166-3 1-3.952-.318.74-3.096-2-4-.72-2.72 4.72.71 4-2zm5 0c2.279-1.373 3.759 2.578 4 0 2.168-.17.453 3.547 1 5h-5v-5zm-102 2v6h-7c-1.18-5.51 2.19-6.48 7-6zm9 0v6c-2.656-.01-5.711.377-7-1v-2c-.08-3.41 3.7-2.96 7-3zm3 0h3v6c-4.49 1.36-4.85-4.03-3-6zm-60 1v5c-3.056-.723-3.644 1.021-6 1-.839-1.162-1.319-2.682-1-5 1.29-1.38 4.34-.99 7-1zm5 0h5v5h-5v-5zm9 0h7v5h-7v-5zm9 0h7v5h-7v-5zm9 0h7v5h-7v-5zm-72 1c3.073-1.531 3.073 6.529 0 5v-5zm4 0h7v5h-7v-5zm10 0h7v5h-7v-5zm10 0h7c1.267 5.268-2.596 5.404-7 5v-5zm-113 3c.125-2.209 4.242-.426 6-1v4c-.845.938-6.375 2.135-7 0-1.58-3.04 6.48-2.08 1-3z" fill="none"/><path d="M336 172.01c5.158-6.923 6.508-15.199 11-27 2.248-5.904 8.115-23.989 14-24 5.174-.01 6.218 6.298 9 14 5.336 14.771 17.062 36.183 19 50 4.014 28.62-1.518 64.987 0 101 2.559 60.7 1.417 116.24 4 175 .202 4.592-1.273 11.357 0 16 1.749 6.377 11.017 12.32 17 18 7.088 6.729 15.591 12.312 19 21 4.524 11.531 6.279 30.137 8 48-8.74.926-15.161 4.172-24 5-.129 21.795 1.732 41.602 1 64 3.346 1.832 9.211-1.084 15 0 2.445-3.555-1.483-13.482 7-11-1.35-2.65-5.271-2.729-5-7 6.571.764 8.975 5.691 13 9v25c29.275 3.928 61.724-1.201 92 2 7.928.838 19.751 2 32 2 6.083 0 14.576-2.227 19 3-2.164 3.641-9.391 2.014-15 2-12.528-.027-27.983-1.535-43-2-10.629-.33-20.843-.09-32-1-20.839-1.703-45.749-.127-71 1-72.517 3.234-154.34.812-230 4-17.98.758-36.287-.887-53 1-34.098 3.848-80.106 3.201-121 5-7.194.316-17.445 4.889-22-3 39.314-3.434 89.56-4.188 131-5 1.899-7.088 1.276-19.805 0-27 3.725-1.941 6.679-4.654 12-5 3.658 1.521 1.045 7.082 2 13h13c.539-22.873-.618-44.049-1-66-7.91-1.424-16.482-2.184-24-4 2.198-20.805 1.981-38.939 10-52 .684-1.115 2.401-1.77 3-3 7.127-14.656 21.987-25.533 33-37 .568-80.748-2.25-176.29-3-257-.11-11.851-1.515-24.895 0-35 .753-5.027 3.915-10.505 6-16 1.858-4.896 3.91-10.537 6-16 3.051-7.974 7.488-28.76 15-29 7.845-.25 9.419 14.07 12 21 3.155 8.47 6.72 15.817 10 22 3.044-17.673-2.774-43.377 0-68 .943-8.373 4.014-20.456 7-30 8.6-27.487 24.366-50.17 44-66 2.022-1.63.812-3.139 4-3 10.989.479 23.989 16.517 31 27 12.817 19.167 22.544 43.963 25 72 2.14 24.39-1.6 50.51 0 73zm-62-162h12c-.47-9.014-10.1-5.362-12 0zm14 4c-31.158-5.157-35.562 25.104-47 43 15.765-6.328 39.154-8.921 61-6-2.61-14.389-5.72-28.276-14-37zm17 37c3.804 1.224 10.776 4.521 15 2-6.989-13.678-14.432-26.901-24-38-1.182-.144-2.268-1.781-3 0 5.68 10.318 9.7 22.302 12 36zm-66 11c-10.377 22.624-10.485 60.847-8 93 19.468-10.713 51.604-10.646 78-7-2.158-31.175.682-67.348-6-94-22.73-4.147-48.53-.928-64 7.999zm72 86.001c6.748 1.919 13.965 3.369 21 5 1.334-35.667-.722-67.945-9-94-5.529-.491-11.698-5.607-17-3 5.84 32.188 4.77 62.13 5 92zm42-4c3.328-2.338 11.859.526 15-2-6.339-1.889-1.307-12.803-8-16-2.42 5.91-4.51 12.16-7 18zm-158 4c4.937-.73 8.468-2.866 15-2-2.296-5.037-2.607-12.06-5-17h-4c-.6 7.73-5.06 11.6-6 19zm142 34c-1.239 14.296-1.236 24.55 1 40 7.581-4.085 17.292-6.042 29-6v-39c-12.64-.97-20.1 3.23-30 5zm30-8c-2.771-6.562-1.459-17.208-4-24 .558 4.891-6.278 2.388-10 3-.575-1.758 1.209-5.875-1-6-5.271 9.729-8.767 21.233-13 32 .221.779.838 1.163 2 1 4.04-6.63 17.3-4.03 26-6zm2 0c3.877.06 11.046 4.286 12 1-4.846-8.154-7.146-18.854-11-28h-4c2.13 9.77 3.02 16.74 3 27zm-139-16v80c8.331-.669 15.185-2.815 23-4 6.307-13.316 10.412-52.25 28-52 18.068.256 21.093 37.336 28 49-.641-26.692 1.299-55.965-1-81-27.87-2.1-58.4-2.91-78 8zm-48 23c3.002-1.331 7.65-1.017 12-1 1.989-9.677 4.219-19.115 5-30-12.33 3.67-10.39 21.61-17 31zm16-4c11.9-1.355 19.091 1.943 26 3-.347-9.133-5.754-19.666-11-27 1.338 5.338-5.859 2.141-9 3-1.973-.694.246-5.58-2-6-1.03 9.3-3.4 17.27-4 27zm115 56c7.114.886 13.469 2.531 20 4-.657-25.575-1.634-59.582-1-80-8.182-2.612-12.919-3.512-21-5 1.8 27.43 1.1 57.88 2 81zm56-48c4.661-.328 7.887.78 11 2 .082 5.389 1.819 11.53-2 15-3.277-.056-3.822-2.844-8-2-.061 6.67 1.62 10.063 0 16 4.679.988 8.279 3.054 14 3-.627-12.373 1.28-27.28-1-38-4.422-1.245-9.863-1.47-14-3-.89 3.65 1.77 5.33 0 7zm-171 36c10.031-.364 19.175.159 27 2v-40c-9.1-3.277-15.86-2.762-28-3-.32 16.15.52 29.41 1 41zm-17-36c-1.388 10.378-.928 25.65-1 40 6.766.766 8.095-3.905 15-3v-22c-4.772-.772-6.436 1.564-11 1v-12c2.928-1.072 5.162-2.838 10-2 2.4-10.62-9.53-3.17-13-2zm94 5c2.874-1.126 7.797-.203 10-2-3.89-.91-8.54-1.82-10 2zm96-1c.841 2.492 1.309 5.357 1 9h5c-.271-3.396.774-8.107-1-10-2.32-.32-3.84.16-5 1zm-185 2c.171 2.829-.86 6.86 2 7 2.133-2.2 6.508-2.159 5-8-3.47-.8-3.84 1.49-7 1zm104 6c-7.472-2.36-15.799.084-21 3-3.555 7.778-6.175 16.492-9 25 9.652-5.346 33.196-4.774 42-2-4.44-8.23-5.17-20.17-12-26zm47 30v46c9.298-2.369 18.274-5.059 31-4 .63-16.963-1.731-30.935-1-48-12.91-.91-21.16 2.84-30 6zm34 42c4.757.91 9.072 2.262 14 3-.611-15.906-1.158-25.192-1-46-3.997-2.336-10.102-2.565-14-5 1.84 12.73.65 31.18 1 48zm-111-41c-5.941 16.727-9.047 41.617-10 60 5.33-4.337 16.919-2.414 22-7 1.515-4.765-.805-2.485-1-7 5.303-2.359 14.87-2.862 20 0v8c6.998 1.669 14.91 2.423 23 3-2.704-19.963-6.827-38.506-11-57-10.22-7.74-32.1-5.35-43 0zm-62 43c9.832-3.349 17.718 1.699 28 1-.583-14.084 1.219-30.552-1-43-6.993-3.007-16.685-3.315-27-3v45zm-18-39c-.323 18.723.961 25.084 1 42 3.071.691 10.064-2.326 15-3a497.814 497.814 0 01-1-28c-.049-6.051 1.696-13.468-2-16-4.17 1.82-9.76 2.23-13 5zm132 5c5.586 46.991 14.431 89.308 23 131-.793-41.542-1.331-83.336-1-126-4.61-3.87-17.35-4.47-22-5zm-82 5c2.505 39.162-1.363 84.696 4 121 4.79-42.876 11.863-83.47 18-125-9.11-.44-15.17 2.16-22 4zm107 35c-.761 15.428 1.257 28.077 1 43 10.34-.993 18.227-4.44 30-4v-45c-12.5-.16-22.07 2.59-31 6zm35 40c5.845-.511 8.312 2.354 13 3v-44c-3.223-2.777-9.035-2.965-14-4-.66 15.99 1.71 28.95 1 45zm-178-43c-3.152 2.848-10.395 1.605-13 5-.735 15.735 1.624 28.376 1 44 5.044-.623 8.574-2.76 14-3-1.18-14.11 2.44-37.78-2-46zm4 46c10.081-.081 20.396-.396 28 2v-45c-8.407-1.927-16.849-3.818-28-3v46zm78-41h2c1.555-2.461-3.396-2.94-3-1 .61.05 1.18.15 1 1zm6-1c5.07 2.73 3.72-3.49 0 0zm-33 13c-.757 18.424 1.569 33.764 1 52 9.808-1.859 18.021-5.312 30-5 .543-20.538-1.675-32.24-1-53-11.75.25-20.89 3.11-30 6zm34-6c-1.471 15.107.914 33.296 0 53 13.032-1.365 20.52 2.814 32 3-1.25-13.305-1.044-34.325-1-52-8.73-2.94-20.43-2.9-31-4zm56 39c-.468 13.452.323 33.446 0 50 9.854-1.812 18.117-5.217 31-4-.543-18.307-1.469-33.829-1-50-10.27-2.82-21.39 1.85-30 4zm33 46c5.212-.516 10.98 3.646 15 1-2.33-13.336-.336-30.998-1-46-4.454-1.879-8.812-3.855-14-5v50zm-132-8c-2.828 19.554-4.91 37.672-7 55-3.01 24.955-9.609 32.609-24 47-8.469 8.469-17.538 16.617-25 24-17.409 17.225-36.315 31.516-42 56 17.004-.33 36.138 1.471 49-3-.499-4.938.067-10.781 0-18-.06-6.424-2.099-14.57-1-20 1.345-6.646 11.61-15.955 18-23 6.854-7.557 15.904-14.439 20-21 5.648-9.049 5.592-18.033 7-31 3.66-33.717 9.854-75.578 10-107-.99 14.92-2.94 26.74-5 41zm90 51c1.471 10.855 1.244 21.752 4 31 4.479 15.027 14.735 22.734 26 34 7.2 7.199 18.144 14.379 20 22 2.972 12.201-2.26 28.182 0 39 16.709.709 30.951-1.049 47-1-1.503-12.164-9.167-18.168-14-27-16.226-13.633-33.428-29.428-48-44-5.483-5.482-11.354-9.676-16-15-12.735-14.598-15.172-42.881-19-66-3.676-22.199-6.275-44.35-12-65 2.93 31.62 8.16 63.67 12 92zm-130-38c9.47-2.277 18.712-.276 27 0-.259-17.775-.833-32.242-1-50-9.518-.482-17.133-2.867-28-2 .62 17.38-1.62 37.61 2 52zm-18-48v50c2.919 1.123 8.608-2.391 14-2v-51c-5.96-.29-9.91 1.42-14 3zm68 21c.644 16.689-1.303 35.97 1 51 10.096-.902 18.439-3.562 30-3 .139-19.653-.287-36.283 0-54-10.59-2.15-24.12 1.13-31 6zm33-7v55c11.193-.194 22.035-.035 32 1v-53c-11.4-.27-19.46-3.88-32-3zm38 137c.657 13.811-1.527 29.928 1 41 .72 3.154 4.167 6.305 6 10 2.151 4.338 2.669 8.574 5 12 13.181-2.152 31.028.361 44-2 .122-9.463-.089-27.238 0-40-9.142-14.861-29.025-23.887-39-40-6.85-11.064-8.862-24.467-11-40-3.089-22.438-4.579-44.405-8-65 .86 38.85.06 83.14 2 124zm-84-32c-2.955 4.711-5.495 9.838-7 16-5.825 5.148-12.295 11.627-19 19-5.085 5.592-15.262 14.014-17 21-2.816 11.318 2.033 23.619 0 39 14.301.418 30.437 4.158 45 1 1.429-8.271 8.573-14.266 10-22 2.439-13.223.821-29.535 0-44-2.241-39.475-2.538-82.768-4-118-1.91 30.09-6.2 57.8-8 88zm102-68c.424 17.242 2.615 32.719 7 46 7.624-1.709 17.581-1.086 25-3-1.7-11.35-.759-31.168-1-47-10.04-2.05-23.36.41-31 4zm35 44c2.639 1.398 11.435 1.848 14 0-2.33-12.67-.336-29.664-1-44-4.966-3.1-7.399-3.061-15-4 .8 15.87 2.56 30.77 2 48zm-175-44c1.048 14.185 1.105 30.334 1 48 9.044-.785 11.767-2.094 23-1 2.958-15.533 5.298-27.957 4-46-7.57-1.55-19.8-3.37-28-1zm-17 4c2.232 13.435.408 30.926 1 46 5.686.354 8.583-2.084 14-2 .371-16.705-1.775-30.893-1-48-6.41-.41-9.34 2.66-14 4zm103 70c10.812-.543 24.151.811 32 0-1.098-16.568 2.342-37.676-2-51-10.624-.711-19.827-2.84-31-3 .54 13.84-1.23 38.52 1 54zm-34-50c-.116 13.836.084 35.875 0 53 10.599-.734 18.886-3.781 31-3 .362-18.361-1.774-34.227-1-53-10.8.19-20.36 1.64-30 3zm87 11c.272-1.361-.619-3.902-1-2-.27 1.36.62 3.9 1 2zm4 16c.15-2.482-.517-4.15-2-5 .44 1.89-1.36 6.03 2 5zm-115 0c2.785 1.602 2.765-4.318 1-4 .22 1.89-1.13 2.2-1 4zm120-1c5.71 11.955 14.315 21.018 24 29v-32c-9.17-.17-18.35-.35-24 3zm27-2v34c4.162 4.838 9.269 8.73 14 13v-46c-5.03.32-11.02-2.47-14-1zm-172 29c6.354-8.312 14.716-14.617 18-26-6.917-1.299-10.417-.691-19-1-1.22 6.73-2.62 21.83 1 27zm-19-24c-.092 14.092-.102 28.102 2 40a256.23 256.23 0 0112-12c1.285-7.77-.789-18.629 0-29-5.72-.72-8.93 1.07-14 1zm162 6c1.594-1.578-.483-4.592-3-5-.2 2.86-.12 5.46 3 5zm-121 1c3.144.145 3.436-2.564 4-5h-4c.59 3.19-1.88 3.09 0 5zm125 7c1.798-1.916.281-6.158-3-6-1.8 1.91-.28 6.16 3 6zm-131 1c4.859 1.193 4.446-2.887 6-5-2.72-2.22-6.28 1.12-6 5zm132 3c1.406.26 1.14 2.193 2 3 7.69.06.55-8.76-2-3zm-138 3c3.95.938 5.95.932 6-4-3.73-.4-5.87.8-6 4zm149 6c1.726-3.332-.371-5.43-5-5 .44 2.89 2.11 4.56 5 5zm-155 0c2.59 2.297 6.767.115 6-4-3.67-.34-5.13 1.53-6 4zm78-3v2c1.486 12.773.398 25.068 1 38 .255 5.488 3.479 18.143-1 21-3.342-17.658-1.542-40.457-2-61-11.677-.01-22.489.846-31 4-.203 19.869 1.316 38.018 2 57 7.08-.881 21.585-2.869 27 1-10.312-.312-19.12.879-27 3 20.898-1.102 46.346 2.344 64-2-2.94-2.727-12.125.791-15-2 3.59-2.078 10.814-.52 16-1v-57c-8.83-2.92-23.51-5.05-34-3zm84 9c.913-4.246-1.633-5.035-4-6-3.3 2.35-.52 6.05 4 6zm-166 1c2.544-.123 3.878-1.455 4-4-2.76-3.11-7.11 1.24-4 4zm167 0c.352 2.771 2.995 5.887 5 4 .77-3.9-3.31-5.57-5-4zm-174 5c3.417 3.029 7.349-3.582 3-5-.9 1.77-4.06 1.27-3 5zm185 5c.229-3.562-1.438-5.229-5-5-.28 3.62 2.9 6.8 5 5zm-191 1c3.537.537 5.152-.848 6-3-1.427-.24-1.687-1.646-3-2-.9 1.77-4.06 1.27-3 5zm192 1c-.386 3.1 4.816 4.072 5 1-1.77-.88-2.92-3.17-5-1zm-198 4c2.753 2.635 5.5-.377 6-3-2.29-2.17-6.24-.36-6 3zm207 5c1.944-1.93 1.046-6.121-3-5-.79 3.45.94 4.4 3 5zm-213 2c4.246.912 5.034-1.633 6-4-2.59-2.3-6.77-.12-6 4zm216 3c2.503.17 3.131-1.537 4-3-1.479-.521-2.521-1.479-4-2-1.87 1.9-.11 2.51 0 5zm-222 3c2.319.318 3.839-.162 5-1 1.04-6.23-6.22-3.88-5 1zm226 0c1.768.877 2.919 3.17 5 1 .96-3.68-4.91-3.98-5-1zm-232 6c2.319.318 3.839-.162 5-1 1.04-6.23-6.22-3.88-5 1zm237-1c2.197.727 3.322 4.693 6 2 .6-3.54-5.18-5.79-6-2zm-243 6c1.904 1.873 2.512.109 5 0 1.11-5.79-5.47-4.17-5 0zm250-2c-.072 2.996 2.941 5.074 5 3-.41-2.52-3.42-4.59-5-3zm-255 8c3.131.463 4.464-.869 4-4-2.54.12-3.88 1.45-4 4zm261-2c-.169 3.092 3.519 4.496 5 3 .07-3-2.94-5.07-5-3zm-266 8c1.63 3.252 6.91-4.023 2-4 1.15 3.14-1.57 2.43-2 4zm275 3v-4h-4c.12 2.54 1.46 3.88 4 4zm-279 4c2.529 1.053 4.433-3.373 2-4-.01 1.99-2.73 1.27-2 4zm282 3v-5h-3c.33 2.33 1.02 4.31 3 5zm-129-3c-4.221 15.773-6.688 42.85 0 58 11.379-.621 25.271 1.271 35-1-.614-22.721-3.266-43.4-13-57-8.71-.76-12.68-.06-22 0zm-4 5c-1.095-2.551 3.416-5.146-1-5 .55 1.45-1.17 5.17 1 5zm-42-4c-9.609 12.643-15.324 36.699-10 58 8.742-1.338 20.618-.908 33-1 1.575-15.477 2.329-42.334-3-57h-20zm31 9c-.595-2.072 1.236-6.568-1-7-1.36 1.35-1.91 6.98 1 7zm4 1c.605-2.201 2.513-7.453-1-8 .61 2.39-1.26 7.25 1 8zm3 33c-.947-13.033 3.262-21.502-1-32 .66 10.34-1.33 23.33 1 32zm139-19c.58-3.246-.681-4.652-1-7h-29c1.85 10.48 18.56 6.1 30 7zm-92 7h6c2.763-3.57 5.503-7.164 7-12h-16c.64 4.36 1.66 8.33 3 12zm-109 2h8c-.89-5.557 1.921-7.414 2-12h-14c-.4 5.73 4.94 5.72 4 12zm-87-5c12.161 2.436 26.404 3.662 31-6h-31v6zm251-6c-10.004-2.744-24.672 2.02-37 0-3.569 5.432-8.473 9.527-8 19 19.351-.648 41.311 1.311 59-1-1.71-7.45-6.1-15.84-14-18zm15 6c3.168 2.498 6.496 4.838 6 11 6.151-1.516 13.214-2.119 19-4-.204-3.129.675-7.342-1-9-8.74-.07-17.02.31-24 2zm-270 12c6.406 1.26 12.232 3.102 20 3 .9-3.768 1.987-7.346 3-11-7.179-.154-15.262.596-21-1-2.04 1.62.04 7.38-2 9zm199-5c1.887 5.113.651 13.35 1 20 3.156.488 3.531-1.803 7-1-1.989-5.299-2.863-13.768-1-20-2.66.01-5.71-.38-7 1zm-105 20c2.091.576 2.854 2.479 6 2-.551-6.783 1.174-15.842-1-21h-5c1.73 5.65 3.31 13.8 0 19zm115-11c-.082 5.082 1.594 8.406 4 11 16.953-2.381 39.079.412 56-2v-9c-17.91-1.87-39.47 1.16-60 0zm7 16c2.146 1.5-.716 2.445 1 5 8.094 1.701 18.368 1.145 27 1 8.185-.137 17.774.477 22-4v-4c-15.22-1.88-36.43-1.1-50 2zm-146 1c-6.356.262-14.54 0-22 0-6.966 0-16.459-2.273-19 3v3c4.251 3.605 11.748 2 18 2 14.532 0 29.549.295 39-3 .16-8.73-9.02-5.29-16-5zm129 14c-2.041 2.291-6.631 2.035-9 4-1.884 10.59-12.535 15.414-24 15-3.934-.143-8.311-6.361-11-1-.689 5.502 6.07 1.996 9 2 10.876.016 26.386-.012 39 0 1.724-4.219 1-11.686 1-18 0-6.43 1.644-14.021-2-17h-2c-1.11 4.22-1.15 9.51-1 15zm-99 21c8.084-.467 25.237.852 36 0 3.432-.271 10.572 1.963 9-4-3.322-3.898-5.141 2.125-8 2-9.688 1.021-16.175-1.158-22-4 .282-8.949-5.965-11.369-11-15-2.019-4.314-1.062-11.604-5-14-.29 12.28 1.77 22.23 1 35zm89-31c-1.181-1.484-.865-4.469-4-4-.27 2.37 3.95 5.25 4 4zm-81 9c6.926-.408 5.863-8.805 10-12h-5c2.15 7.82-4.46 6.87-5 12zm71-1c1.261-2.406 5.318-2.016 7-4-2.398-1.936-3.054-5.613-7-6-.56 2.17-2.39 8.19 0 10zm-63 0c3.181.152 4.399 2.268 8 2 .19-4.855-1.204-8.131-3-11-1.87 2.8-3.93 5.4-5 9zm102-5c-1.257.41-2.044 1.289-2 3-.717 14.049 1.654 25.012 1 39 16.383-1.951 36.916.248 53-2v-40h-52zm-27 6c3.851.787 3.851-4.789 0-4v4zm-159-2c.697 5.029-1.697 6.969-1 12 3.236.432 8.649-1.314 9 2v27c16.024-.643 34.634 1.301 49-1-1.599-12.068-.844-26.49-1-40h-56zm154 2c-1.453.547-5.169-1.168-5 1 1.45-.55 5.17 1.17 5-1zm-28 11c-4.78-2.78-2.42 3.28 0 0zm-13 0c-6.4-1.16-2.2 3.05 0 0zm5 18c.782-2.453.319-16.727-1-17 .65 5.35-1.31 13.31 1 17zm17-13c6.335.668 9.914-1.42 13-4-6.05-.38-9.63 1.7-13 4zm-136 1c1.642 6.672-3.502 22.006 3 23 3.72-1.428 1.912-7.707 2-12 .103-4.965-.079-9.971 0-14h-5v3zm97-2c.331.062-7.596-2.697-6 0 .8 1.35 17.55 2.2 6 0zm45 10v4c5.58-1.088 16.272 2.939 16-4-3.19-1.81-12.75-1.45-16 0zm18 1v2c4.057-1.275 13.641 2.975 13-3-1.92-1.2-12.67-2.71-13 1zm-36 4h6c-.043-1.377.471-2.195 1-3-1.674-1.326-3.352-2.648-7-2v5zm9 0c2.323-1.344 7.472.139 7-4-1.289-1.379-4.344-.99-7-1v5zm-59 1c4.849-1.15 14.416 2.414 16-2v-2c-3.356-2.311-10.983-.352-16-1v5zm20 0c3.622-1.379 9.792-.209 10-5h-10v5zm12-3c2.279.279 3.759-.242 4-2-1.77.23-5.01-1.01-4 2zm6 0h3c.129-1.795-.993-2.34-3-2v2zm153 6h5c-.308-3.359 1.335-8.668-3-8-2.52.82-2.1 4.56-2 8zm-193-3c-.421-1.912-.362-4.305-3-4-.28 2.61-.34 5 3 4zm61 6h7c.826-2.826-1.409-2.592-1-5h-6v5zm9 0c4.85-1.15 14.415 2.416 16-2v-2c-3.356-2.311-10.983-.352-16-1v5zm18-3v2c1.918 1.199 12.669 2.707 13-1v-2c-1.92-1.2-12.67-2.71-13 1zm-66 5c2.685-1.648 9.266.6 8-5-3.061-2.008-5.21 1.277-8-1v6zm16-4c-.112-2.555-3.349-1.984-6-2-2.39 5.58 6.48 7.07 6 2zm13-1v3h8c1-4.6-5.52-4.98-8-3zm-49 4c3.513.818 17.966 3.986 17-3-4.18-1.49-16.55-2.57-17 3zm-3 1c.314-1.352 1.423-1.91 1-4-3.41-.75-3.9 3.82-1 4zm-99 18c1.416-2.383 1.242-5.381-1-7 4.976-1.635-.058-11.742 2-14h-3c1.22 6.45-2.51 17.84 2 21zm214-18v15c16.545-1.123 34.191-1.143 52-1v-15c-18.35-.69-33.65 1.69-52 1zm65 4h5v-5h-4c.83 2.83-1.41 2.59-1 5zm10 0c.186-1.48 2.416-.918 4-1v-4c-1.758.574-5.875-1.209-6 1 2.72-.72-.72 4.71 2 4zm-101-2v4h7v-5c-2.66.01-5.71-.38-7 1zm13 4v-5h-3c-1.94 1.93-1.05 6.12 3 5zm97-2c.272-1.361-.619-3.904-1-2-.27 1.36.62 3.9 1 2zm-167-1v4h7c1.85-5.45-4.39-6.11-7-4zm12 4c1.496-.17 3.69.357 4-1-3.16.492-.371-4.963-4-4v5zm9 0c4.404.404 8.268.268 7-5h-7v5zm9 0c4.195.195 8.059.059 7-5h-7v5zm9-1c2.818-.516 8.452 1.785 7-3-.431-2.236-4.929-.406-7-1v4zm9 0c2.818-.516 8.451 1.785 7-3-.431-2.236-4.929-.406-7-1v4zm-67 1c1.674 1.768 3.351-.889 7 0 1.96-5.61-8.96-5.61-7 0zm10 0h7c1.092-4.758-3.253-4.082-7-4v4zm-84-3c-2.011 2.988-.565 9.436-1 14 16.891.559 30.906-1.762 48-1v-13h-47zm61 4c.708-.738 2.492-4.895-1-4 .17 1.49-.36 3.69 1 4zm3 0c2.819-.516 8.452 1.785 7-3-.431-2.236-4.928-.406-7-1v4zm-74 9c2.409-.41 2.174 1.826 5 1 1.111-3.035-.637-7.596 0-13h-5v12zm-20-9c2.134 2.148 5.447.371 6-2-2.65.01-5.89-.55-6 2zm289-2c-3.04 3.37 3.7 3.03 0 0zm-18 3c2.74.904-1.952 3.682 2 4 .168-1.166 1.581-1.086 3-1-.547-1.453 1.169-5.17-1-5 .72 2.71-4.72-.72-4 2zm9 3h5c-.547-1.453 1.168-5.17-1-5-.241 2.578-1.721-1.373-4 0v5zm-109 3h7v-6c-4.81-.48-8.18.49-7 6zm9-3v2c1.289 1.377 4.344.99 7 1v-6c-3.3.04-7.08-.41-7 3zm13 3v-6h-3c-1.85 1.97-1.49 7.36 3 6zm-70-4c-.319 2.318.161 3.838 1 5 2.356.021 2.944-1.723 6-1v-5c-2.66.01-5.71-.38-7 1zm12 4h5v-5h-5v5zm9 0h7v-5h-7v5zm9 0h7v-5h-7v5zm9 0h7v-5h-7v5zm-72 1c3.073 1.529 3.073-6.531 0-5v5zm4 0h7v-5h-7v5zm10 0h7v-5h-7v5zm10 0c4.404.404 8.267.268 7-5h-7v5zm-114 1c.625 2.135 6.155.938 7 0v-4c-1.758.574-5.875-1.209-6 1 5.48.92-2.58-.04-1 3z"/><path d="M322 586.01c3.135-.469 2.819 2.516 4 4-.05 1.25-4.27-1.63-4-4zm98 51h4v5h-5c-.41-2.41 1.83-2.17 1-5zm-255.13-69.44c17.729 1.979 39.649-.395 59.008-.105.295-9.48-4.684-13.482-8.354-18.848-12.288 2.25-27.043-2.238-36.994.691-7.86 2.32-12.1 10.79-13.67 18.27zm.08 4l.168 8.998c16.963 2.096 39.033-1.111 56.028.951 2.357-2.639 3.971-5.992 3.793-11.072-20.5 1.54-42.12-1.08-59.99 1.12z" fill="none"/><path d="M266.71 267.19s.686-5.07.686-6.44.137-1.37-1.918-1.644-5.344-1.371-5.344-1.371-.959-.274-1.096.548-.884 8.367-.959 9.044.548 1.096.959.822 7.67-.96 7.67-.96zm13.15-14.38l.137-7.263s-.411-.411-1.918 0-16.307 8.359-16.307 8.359-1.233 1.37-.959 1.644 7.399 3.152 7.399 3.152 3.7-3.015 5.208-3.563 6.44-2.33 6.44-2.33zm15.8 14.38s-.686-5.07-.686-6.44-.137-1.37 1.919-1.644 5.345-1.371 5.345-1.371.959-.274 1.096.548.884 8.367.959 9.044c.076.677-.548 1.096-.959.822s-7.68-.96-7.68-.96zm-13.16-14.38l-.137-7.263s.411-.411 1.918 0 16.307 8.359 16.307 8.359 1.232 1.37.959 1.644-7.399 3.152-7.399 3.152-3.7-3.015-5.208-3.563-6.44-2.33-6.44-2.33zm7.44-33.45l.17-6.1h-16.86v5.76zm.34-10.28v-7.671s-2.44-2.092-8.717-2.092-8.368 2.441-8.368 2.441v7.322h17.09z"/></svg>