<svg fill="none" height="42" viewBox="0 0 42 42" width="42" xmlns="http://www.w3.org/2000/svg"><path d="m34.5705.739746h-26.76162c-4.06079 0-7.338177 3.277384-7.338177 7.338174v25.72188c0 4.0607 3.277387 7.3381 7.338177 7.3381h26.76162c4.0608 0 7.3382-3.2774 7.3382-7.3381v-25.72188c0-4.06079-3.2774-7.338174-7.3382-7.338174zm5.5914 32.386654c.0207 3.4651-2.7853 6.2841-6.2453 6.2841h-25.4525c-3.45349 0-6.266-2.8125-6.266-6.266v-24.41265c0-3.45349 2.81251-6.26601 6.266-6.26601h25.4318c3.4599 0 6.266 2.80604 6.266 6.26601zm-23.3082-13.4825 4.8365 9.287c.088.1412.0349.2759-.1023.2759h-3.0081c-.1877 0-.2758-.0467-.3574-.2228-1.1045-2.279-2.2324-4.558-3.3861-7.0067h-.0324c-1.0398 2.3114-2.1793 4.7484-3.2851 7.0275-.079.1346-.1671.1877-.3095.1877h-2.8475c-.17481 0-.18776-.1411-.0997-.2421l4.7277-9.0112-4.57232-9.1174c-.10877-.1411 0-.2434.09971-.2434h2.96791c.1748 0 .2434.0349.3108.1877 1.0916 2.2803 2.1909 4.6267 3.2307 6.9264h.0324c1.0049-2.279 2.112-4.6461 3.1764-6.9057.088-.1411.1411-.2291.3108-.2291h2.7775c.1412 0 .1955.1087.1088.2434zm5.6846 2.8126c0-4.0194 2.6714-7.1634 6.92-7.1634.3638 0 .5529 0 .8973.035v-4.5723c0-.1088.0868-.1761.1748-.1761h2.7245c.1411 0 .1761.0531.1761.1346v15.856c0 .4649 0 1.0515.0881 1.6847 0 .1088-.035.1411-.1412.1968-1.4503.6876-2.9679.9984-4.4182.9984-3.75.0194-6.4214-2.2933-6.4214-6.9937zm7.8186-4.4182c-.2369-.0997-.5866-.1748-.9996-.1748-2.1768 0-3.6944 1.6781-3.6944 4.4583 0 3.1764 1.55 4.4505 3.5066 4.4505.4105 0 .8637-.0466 1.1874-.1877z" fill="#000"/></svg>