<svg fill="none" height="40" viewBox="0 0 27 40" width="27" xmlns="http://www.w3.org/2000/svg"><path d="m13.8053 20.2617c0-8.6869 13.0345-8.6869 13.0345 0 0 8.6868-13.0345 8.6868-13.0345 0zm-13.034546 13.0345c0-3.6023 2.914356-6.5167 6.516666-6.5167h6.51668v6.5167c0 8.6869-13.034569 8.6869-13.034569 0zm13.034546-32.58575v13.03455h6.5167c8.6868 0 8.6868-13.03455 0-13.03455zm-13.034546 6.51666c0 3.60229 2.914356 6.51669 6.516666 6.51669h6.51668v-13.034571h-6.51668c-3.60231 0-6.516666 2.914351-6.516666 6.516661zm0 13.03459c0 3.6023 2.914356 6.5166 6.516666 6.5166h6.51668v-13.0345h-6.51668c-3.60231 0-6.516666 2.9143-6.516666 6.5166z" fill="#fff"/></svg>