<svg fill="none" height="39" viewBox="0 0 55 39" width="55" xmlns="http://www.w3.org/2000/svg"><path d="m53.4005 6.82254c-.6449-2.28927-2.4301-4.08471-4.7296-4.71939-4.234-1.131904-21.255-1.131904-21.255-1.131904s-16.9888-.027153-21.26698 1.131904c-2.28757.63638-4.08131 2.43012-4.71938 4.71939-.80269 4.33926-1.201487 8.73116-1.18282 13.14336-.008485 4.3834.388615 8.7684 1.18282 13.0805.63807 2.2893 2.43181 4.0847 4.71938 4.7296 4.23408 1.1319 21.26698 1.1319 21.26698 1.1319s16.9785 0 21.255-1.1319c2.2995-.6449 4.0847-2.4386 4.7296-4.7296.7789-4.3121 1.159-8.6971 1.1319-13.0805.0271-4.4122-.3445-8.8041-1.1319-13.14336zm-31.4219 21.26696v-16.2828l14.1684 8.1592z" fill="#fff"/></svg>